G04*
G04 #@! TF.GenerationSoftware,Altium Limited,Altium Designer,25.4.2 (15)*
G04*
G04 Layer_Color=8388736*
%FSLAX44Y44*%
%MOMM*%
G71*
G04*
G04 #@! TF.SameCoordinates,145FFF0F-7840-416A-8FEA-007F4607A66E*
G04*
G04*
G04 #@! TF.FilePolarity,Negative*
G04*
G01*
G75*
%ADD23R,0.5588X1.7018*%
%ADD42R,0.9000X1.1000*%
%ADD43R,0.4500X0.4500*%
%ADD44R,1.0000X1.3500*%
%ADD45R,1.3000X1.5500*%
%ADD46R,0.7000X1.5000*%
%ADD47R,1.0000X0.8000*%
%ADD48R,0.6250X0.8500*%
%ADD49R,0.3500X0.5750*%
%ADD50R,0.5750X0.3500*%
%ADD51R,1.2850X1.4700*%
%ADD52R,0.9578X1.2621*%
%ADD53R,4.0000X2.0000*%
%ADD54R,1.6000X3.2000*%
%ADD55R,2.0000X4.0000*%
%ADD56R,1.6000X2.8000*%
%ADD57R,1.6000X4.0000*%
%ADD58R,1.3621X1.1549*%
%ADD59R,1.2621X1.0046*%
%ADD60R,1.2565X0.3125*%
G04:AMPARAMS|DCode=61|XSize=1.2565mm|YSize=0.3125mm|CornerRadius=0.1562mm|HoleSize=0mm|Usage=FLASHONLY|Rotation=180.000|XOffset=0mm|YOffset=0mm|HoleType=Round|Shape=RoundedRectangle|*
%AMROUNDEDRECTD61*
21,1,1.2565,0.0000,0,0,180.0*
21,1,0.9440,0.3125,0,0,180.0*
1,1,0.3125,-0.4720,0.0000*
1,1,0.3125,0.4720,0.0000*
1,1,0.3125,0.4720,0.0000*
1,1,0.3125,-0.4720,0.0000*
%
%ADD61ROUNDEDRECTD61*%
%ADD62R,1.4500X0.9500*%
%ADD63R,0.8065X1.3082*%
%ADD64R,1.2065X1.5082*%
%ADD65R,0.5200X0.5200*%
%ADD66R,1.4562X1.3781*%
%ADD67R,0.9500X1.3500*%
%ADD68R,0.7500X0.9000*%
%ADD69R,1.1000X0.6000*%
%ADD70R,1.0500X1.3000*%
%ADD71R,1.4000X1.2000*%
G04:AMPARAMS|DCode=72|XSize=1.5242mm|YSize=0.578mm|CornerRadius=0.289mm|HoleSize=0mm|Usage=FLASHONLY|Rotation=90.000|XOffset=0mm|YOffset=0mm|HoleType=Round|Shape=RoundedRectangle|*
%AMROUNDEDRECTD72*
21,1,1.5242,0.0000,0,0,90.0*
21,1,0.9463,0.5780,0,0,90.0*
1,1,0.5780,0.0000,0.4731*
1,1,0.5780,0.0000,-0.4731*
1,1,0.5780,0.0000,-0.4731*
1,1,0.5780,0.0000,0.4731*
%
%ADD72ROUNDEDRECTD72*%
%ADD73R,0.5780X1.5242*%
%ADD74R,1.0000X0.3000*%
%ADD75R,1.3046X1.4562*%
%ADD83R,1.3500X0.9500*%
%ADD84R,1.4562X1.3046*%
%ADD85R,3.2000X1.6000*%
%ADD89R,1.3082X0.8065*%
%ADD92R,1.3500X1.0000*%
%ADD94R,1.3781X1.4562*%
%ADD95R,0.8032X0.8032*%
%ADD96R,1.8532X0.8532*%
%ADD97R,1.5532X1.7532*%
%ADD98R,1.7532X1.6032*%
%ADD99R,1.2032X1.4532*%
%ADD100R,1.5532X1.2032*%
%ADD101R,1.6532X1.4032*%
%ADD102R,1.0032X1.4532*%
%ADD103R,1.6032X1.3032*%
%ADD104R,1.2532X1.6532*%
%ADD105R,1.5532X1.0532*%
%ADD106R,0.5032X1.6782*%
%ADD107R,1.6782X0.5032*%
G04:AMPARAMS|DCode=108|XSize=0.6532mm|YSize=1.6032mm|CornerRadius=0.1511mm|HoleSize=0mm|Usage=FLASHONLY|Rotation=180.000|XOffset=0mm|YOffset=0mm|HoleType=Round|Shape=RoundedRectangle|*
%AMROUNDEDRECTD108*
21,1,0.6532,1.3010,0,0,180.0*
21,1,0.3510,1.6032,0,0,180.0*
1,1,0.3022,-0.1755,0.6505*
1,1,0.3022,0.1755,0.6505*
1,1,0.3022,0.1755,-0.6505*
1,1,0.3022,-0.1755,-0.6505*
%
%ADD108ROUNDEDRECTD108*%
%ADD109R,0.5842X1.1024*%
%ADD110R,0.5842X0.7036*%
%ADD111R,1.4032X1.4032*%
%ADD112O,2.3032X0.5032*%
%ADD113O,0.5032X2.3032*%
%ADD114R,1.5500X0.6000*%
%ADD115C,0.9000*%
%ADD116R,3.9032X3.9032*%
%ADD117O,0.4532X0.9032*%
%ADD118O,0.9032X0.4532*%
G04:AMPARAMS|DCode=119|XSize=0.5032mm|YSize=0.5032mm|CornerRadius=0.1511mm|HoleSize=0mm|Usage=FLASHONLY|Rotation=270.000|XOffset=0mm|YOffset=0mm|HoleType=Round|Shape=RoundedRectangle|*
%AMROUNDEDRECTD119*
21,1,0.5032,0.2010,0,0,270.0*
21,1,0.2010,0.5032,0,0,270.0*
1,1,0.3022,-0.1005,-0.1005*
1,1,0.3022,-0.1005,0.1005*
1,1,0.3022,0.1005,0.1005*
1,1,0.3022,0.1005,-0.1005*
%
%ADD119ROUNDEDRECTD119*%
%ADD120R,1.2532X1.5032*%
%ADD121R,1.7032X1.7532*%
%ADD122R,1.5532X1.3032*%
%ADD123R,2.3032X5.8032*%
%ADD124R,1.5032X1.2532*%
%ADD125R,1.7532X1.5532*%
%ADD126R,1.6032X1.7532*%
%ADD127R,1.4532X1.2032*%
%ADD128R,1.2032X1.5532*%
%ADD129R,1.4032X1.6532*%
%ADD130C,1.2700*%
%ADD131R,1.5532X1.5532*%
%ADD132C,1.5532*%
G04:AMPARAMS|DCode=133|XSize=1.1mm|YSize=2.05mm|CornerRadius=0.55mm|HoleSize=0mm|Usage=FLASHONLY|Rotation=270.000|XOffset=0mm|YOffset=0mm|HoleType=Round|Shape=RoundedRectangle|*
%AMROUNDEDRECTD133*
21,1,1.1000,0.9500,0,0,270.0*
21,1,0.0000,2.0500,0,0,270.0*
1,1,1.1000,-0.4750,0.0000*
1,1,1.1000,-0.4750,0.0000*
1,1,1.1000,0.4750,0.0000*
1,1,1.1000,0.4750,0.0000*
%
%ADD133ROUNDEDRECTD133*%
%ADD134C,1.8682*%
%ADD135R,1.8682X1.8682*%
G04:AMPARAMS|DCode=136|XSize=2.1532mm|YSize=2.1532mm|CornerRadius=0.5891mm|HoleSize=0mm|Usage=FLASHONLY|Rotation=180.000|XOffset=0mm|YOffset=0mm|HoleType=Round|Shape=RoundedRectangle|*
%AMROUNDEDRECTD136*
21,1,2.1532,0.9750,0,0,180.0*
21,1,0.9750,2.1532,0,0,180.0*
1,1,1.1782,-0.4875,0.4875*
1,1,1.1782,0.4875,0.4875*
1,1,1.1782,0.4875,-0.4875*
1,1,1.1782,-0.4875,-0.4875*
%
%ADD136ROUNDEDRECTD136*%
%ADD137C,2.1532*%
%ADD138C,1.8532*%
G04:AMPARAMS|DCode=139|XSize=1.8532mm|YSize=1.8532mm|CornerRadius=0.5141mm|HoleSize=0mm|Usage=FLASHONLY|Rotation=180.000|XOffset=0mm|YOffset=0mm|HoleType=Round|Shape=RoundedRectangle|*
%AMROUNDEDRECTD139*
21,1,1.8532,0.8250,0,0,180.0*
21,1,0.8250,1.8532,0,0,180.0*
1,1,1.0282,-0.4125,0.4125*
1,1,1.0282,0.4125,0.4125*
1,1,1.0282,0.4125,-0.4125*
1,1,1.0282,-0.4125,-0.4125*
%
%ADD139ROUNDEDRECTD139*%
%ADD140C,1.8032*%
G04:AMPARAMS|DCode=141|XSize=1.8032mm|YSize=1.8032mm|CornerRadius=0.5016mm|HoleSize=0mm|Usage=FLASHONLY|Rotation=180.000|XOffset=0mm|YOffset=0mm|HoleType=Round|Shape=RoundedRectangle|*
%AMROUNDEDRECTD141*
21,1,1.8032,0.8000,0,0,180.0*
21,1,0.8000,1.8032,0,0,180.0*
1,1,1.0032,-0.4000,0.4000*
1,1,1.0032,0.4000,0.4000*
1,1,1.0032,0.4000,-0.4000*
1,1,1.0032,-0.4000,-0.4000*
%
%ADD141ROUNDEDRECTD141*%
G04:AMPARAMS|DCode=142|XSize=1.8532mm|YSize=1.8532mm|CornerRadius=0.5141mm|HoleSize=0mm|Usage=FLASHONLY|Rotation=270.000|XOffset=0mm|YOffset=0mm|HoleType=Round|Shape=RoundedRectangle|*
%AMROUNDEDRECTD142*
21,1,1.8532,0.8250,0,0,270.0*
21,1,0.8250,1.8532,0,0,270.0*
1,1,1.0282,-0.4125,-0.4125*
1,1,1.0282,-0.4125,0.4125*
1,1,1.0282,0.4125,0.4125*
1,1,1.0282,0.4125,-0.4125*
%
%ADD142ROUNDEDRECTD142*%
G04:AMPARAMS|DCode=143|XSize=1.8032mm|YSize=1.8032mm|CornerRadius=0.5016mm|HoleSize=0mm|Usage=FLASHONLY|Rotation=270.000|XOffset=0mm|YOffset=0mm|HoleType=Round|Shape=RoundedRectangle|*
%AMROUNDEDRECTD143*
21,1,1.8032,0.8000,0,0,270.0*
21,1,0.8000,1.8032,0,0,270.0*
1,1,1.0032,-0.4000,-0.4000*
1,1,1.0032,-0.4000,0.4000*
1,1,1.0032,0.4000,0.4000*
1,1,1.0032,0.4000,-0.4000*
%
%ADD143ROUNDEDRECTD143*%
%ADD144C,0.7032*%
%ADD145C,0.9144*%
%ADD146C,6.2992*%
G36*
X362530Y467300D02*
X363247Y466796D01*
X364297Y465392D01*
X364859Y463731D01*
X364876Y461979D01*
X364348Y460307D01*
X363326Y458882D01*
X361912Y457846D01*
X360247Y457300D01*
X359370Y457300D01*
X353870D01*
Y457300D01*
X352994Y457300D01*
X351328Y457846D01*
X349914Y458882D01*
X348892Y460307D01*
X348364Y461979D01*
X348381Y463731D01*
X348943Y465392D01*
X349993Y466796D01*
X350710Y467300D01*
X362530D01*
X362530Y467300D01*
D02*
G37*
G36*
X359370Y558700D02*
X360247Y558700D01*
X361912Y558154D01*
X363326Y557118D01*
X364348Y555693D01*
X364876Y554021D01*
X364859Y552268D01*
X364297Y550608D01*
X363247Y549204D01*
X362530Y548700D01*
X362530Y548700D01*
X350710Y548700D01*
X349993Y549204D01*
X348943Y550608D01*
X348381Y552268D01*
X348364Y554021D01*
X348892Y555693D01*
X349914Y557118D01*
X351328Y558154D01*
X352994Y558700D01*
X353870Y558700D01*
Y558700D01*
X359370Y558700D01*
D02*
G37*
D23*
X604520Y585978D02*
D03*
Y694182D02*
D03*
X502920D02*
D03*
Y585978D02*
D03*
X528320Y694182D02*
D03*
X579120D02*
D03*
D42*
X1041400Y330200D02*
D03*
X1060400D02*
D03*
X1041400Y248920D02*
D03*
X1060400D02*
D03*
D43*
X1696280Y672270D02*
D03*
X1704780D02*
D03*
Y663770D02*
D03*
X1696280D02*
D03*
D44*
X675640Y370840D02*
D03*
X695640D02*
D03*
X1774030Y389890D02*
D03*
X1754030D02*
D03*
X396240Y477520D02*
D03*
X416240D02*
D03*
X452280Y370840D02*
D03*
X472280D02*
D03*
X583880Y370840D02*
D03*
X563880D02*
D03*
D45*
X357780Y183770D02*
D03*
X312780Y263270D02*
D03*
Y183770D02*
D03*
X357780Y263270D02*
D03*
X424540Y178690D02*
D03*
Y258190D02*
D03*
X469540D02*
D03*
Y178690D02*
D03*
X536300Y258190D02*
D03*
Y178690D02*
D03*
X581300Y258190D02*
D03*
Y178690D02*
D03*
X648060Y258190D02*
D03*
Y178690D02*
D03*
X693060Y258190D02*
D03*
Y178690D02*
D03*
D46*
X1170820Y822560D02*
D03*
X1185820D02*
D03*
X1140820D02*
D03*
X993260Y825220D02*
D03*
X1023260D02*
D03*
X1038260D02*
D03*
D47*
X1126820Y814710D02*
D03*
Y795410D02*
D03*
X1199820D02*
D03*
Y814710D02*
D03*
X979260Y817370D02*
D03*
X1052260D02*
D03*
X979260Y798070D02*
D03*
X1052260D02*
D03*
D48*
X1841215Y585470D02*
D03*
X1827965D02*
D03*
D49*
X737950Y1020045D02*
D03*
X747950D02*
D03*
X742950D02*
D03*
X737950Y1001795D02*
D03*
X742950D02*
D03*
X747950D02*
D03*
D50*
X754575Y1018420D02*
D03*
Y1013420D02*
D03*
Y1008420D02*
D03*
X731325Y1003420D02*
D03*
Y1018420D02*
D03*
X754575Y1003420D02*
D03*
X731325Y1013420D02*
D03*
Y1008420D02*
D03*
D51*
X1148080Y538480D02*
D03*
X1128630D02*
D03*
X1148080Y513080D02*
D03*
X1128630D02*
D03*
D52*
X1502728Y787500D02*
D03*
X1517272D02*
D03*
D53*
X1433710Y985520D02*
D03*
X1362710D02*
D03*
D54*
X685800Y649840D02*
D03*
Y599840D02*
D03*
X1299210Y888600D02*
D03*
Y838600D02*
D03*
D55*
X416560Y598840D02*
D03*
Y669840D02*
D03*
D56*
X325120Y592840D02*
D03*
Y635840D02*
D03*
D57*
X873760Y665340D02*
D03*
Y603340D02*
D03*
D58*
X1738630Y682993D02*
D03*
Y665480D02*
D03*
D59*
X1840460Y947308D02*
D03*
Y932292D02*
D03*
X1644420Y947308D02*
D03*
Y932292D02*
D03*
X1704686Y947308D02*
D03*
Y932292D02*
D03*
X1780193Y947308D02*
D03*
Y932292D02*
D03*
D60*
X1117977Y950120D02*
D03*
D61*
Y970120D02*
D03*
X1076960D02*
D03*
Y955120D02*
D03*
Y950120D02*
D03*
Y965120D02*
D03*
X1117977Y955120D02*
D03*
Y965120D02*
D03*
X1076960Y960120D02*
D03*
X1117977D02*
D03*
D62*
X706120Y523650D02*
D03*
Y543150D02*
D03*
D63*
X1017777Y289560D02*
D03*
X1000760D02*
D03*
X516002Y889000D02*
D03*
X533018D02*
D03*
X1017777Y330200D02*
D03*
X1000760D02*
D03*
X1017777Y208280D02*
D03*
X1000760D02*
D03*
X1017777Y248920D02*
D03*
X1000760D02*
D03*
D64*
X1123377Y436880D02*
D03*
X1102360D02*
D03*
D65*
X1892300Y497650D02*
D03*
Y505650D02*
D03*
D66*
X1376680Y614638D02*
D03*
Y629920D02*
D03*
X1148080Y487680D02*
D03*
Y472399D02*
D03*
D67*
X1823840Y641350D02*
D03*
X1838840D02*
D03*
X1823840Y610870D02*
D03*
X1838840D02*
D03*
D68*
X1859280Y505460D02*
D03*
X1871280D02*
D03*
D69*
X1221680Y694640D02*
D03*
Y675640D02*
D03*
X1249680Y685140D02*
D03*
Y675640D02*
D03*
Y694640D02*
D03*
X1221680Y685140D02*
D03*
D70*
X1671180Y499180D02*
D03*
X1653680Y476180D02*
D03*
Y499180D02*
D03*
X1671180Y476180D02*
D03*
D71*
X762840Y850520D02*
D03*
Y866520D02*
D03*
X740840D02*
D03*
Y850520D02*
D03*
D72*
X659740Y343324D02*
D03*
X669240Y325120D02*
D03*
X350520Y344382D02*
D03*
X360020Y326178D02*
D03*
X436880Y345440D02*
D03*
X446380Y327236D02*
D03*
X547980Y343324D02*
D03*
X557480Y325120D02*
D03*
D73*
X650240D02*
D03*
X341020Y326178D02*
D03*
X427380Y327236D02*
D03*
X538480Y325120D02*
D03*
D74*
X360620Y510500D02*
D03*
Y505500D02*
D03*
Y500500D02*
D03*
Y515500D02*
D03*
Y495500D02*
D03*
Y520500D02*
D03*
Y490500D02*
D03*
Y525500D02*
D03*
Y485500D02*
D03*
Y530500D02*
D03*
Y480500D02*
D03*
Y535500D02*
D03*
Y475500D02*
D03*
Y470500D02*
D03*
Y540500D02*
D03*
Y545500D02*
D03*
D75*
X569878Y987820D02*
D03*
X553762D02*
D03*
D83*
X1628140Y478790D02*
D03*
Y493790D02*
D03*
X1697990Y493910D02*
D03*
Y478910D02*
D03*
X1137920Y726440D02*
D03*
Y741440D02*
D03*
X1092200Y614680D02*
D03*
Y629680D02*
D03*
D84*
X1588770Y596506D02*
D03*
Y580390D02*
D03*
X528320Y862768D02*
D03*
Y846652D02*
D03*
D85*
X1482490Y839470D02*
D03*
X1532490D02*
D03*
D89*
X1765300Y662940D02*
D03*
Y645923D02*
D03*
X650240Y799337D02*
D03*
Y782320D02*
D03*
X1234440Y409703D02*
D03*
Y426720D02*
D03*
X1457960Y580897D02*
D03*
Y563880D02*
D03*
D92*
X406400Y523560D02*
D03*
Y543560D02*
D03*
X309880Y314800D02*
D03*
Y294800D02*
D03*
D94*
X1117600Y487680D02*
D03*
X1102318D02*
D03*
D95*
X1837690Y494460D02*
D03*
Y505460D02*
D03*
D96*
X1693350Y612140D02*
D03*
Y574040D02*
D03*
Y586740D02*
D03*
Y599440D02*
D03*
X1621350Y612140D02*
D03*
Y599440D02*
D03*
Y586740D02*
D03*
Y574040D02*
D03*
D97*
X1607820Y669290D02*
D03*
X1627320D02*
D03*
D98*
X1838960Y986840D02*
D03*
Y1005840D02*
D03*
X1645920Y986840D02*
D03*
Y1005840D02*
D03*
X1705187Y986840D02*
D03*
Y1005840D02*
D03*
X1779693Y986840D02*
D03*
Y1005840D02*
D03*
D99*
X1513720Y393700D02*
D03*
X1498720D02*
D03*
X1496300Y317500D02*
D03*
X1511300D02*
D03*
D100*
X650240Y368079D02*
D03*
Y386080D02*
D03*
X807720Y585360D02*
D03*
Y603360D02*
D03*
X340360Y372000D02*
D03*
Y390000D02*
D03*
X426720Y370840D02*
D03*
Y388840D02*
D03*
X538480Y370840D02*
D03*
Y388840D02*
D03*
D101*
X812800Y863760D02*
D03*
Y883760D02*
D03*
X1076960Y833120D02*
D03*
Y853120D02*
D03*
X1031240Y452440D02*
D03*
Y472440D02*
D03*
X1188720Y695640D02*
D03*
Y675640D02*
D03*
D102*
X360680Y370840D02*
D03*
X376680D02*
D03*
X812800Y553720D02*
D03*
X828800D02*
D03*
D103*
X1596390Y495020D02*
D03*
Y477520D02*
D03*
D104*
X1654810Y544830D02*
D03*
X1673310D02*
D03*
D105*
X736600Y581030D02*
D03*
Y597530D02*
D03*
D106*
X601070Y942570D02*
D03*
X606070D02*
D03*
Y827810D02*
D03*
X611070D02*
D03*
X631070D02*
D03*
X636070D02*
D03*
X661070Y942570D02*
D03*
X646070D02*
D03*
X641070D02*
D03*
X636070D02*
D03*
X631070D02*
D03*
X626070D02*
D03*
X621070D02*
D03*
X616070D02*
D03*
X611070D02*
D03*
X596070D02*
D03*
X586070Y827810D02*
D03*
X591070D02*
D03*
X596070D02*
D03*
X601070D02*
D03*
X616070D02*
D03*
X621070D02*
D03*
X626070D02*
D03*
X651070D02*
D03*
X641070D02*
D03*
X646070D02*
D03*
X586070Y942570D02*
D03*
X651070D02*
D03*
X661070Y827810D02*
D03*
X591070Y942570D02*
D03*
X656070Y827810D02*
D03*
Y942570D02*
D03*
D107*
X680950Y912690D02*
D03*
Y917690D02*
D03*
Y852690D02*
D03*
Y857690D02*
D03*
Y862690D02*
D03*
Y867690D02*
D03*
Y872690D02*
D03*
Y877690D02*
D03*
Y882690D02*
D03*
Y887690D02*
D03*
Y892690D02*
D03*
Y897690D02*
D03*
Y922690D02*
D03*
X566190D02*
D03*
Y917690D02*
D03*
Y912690D02*
D03*
Y907690D02*
D03*
Y902690D02*
D03*
Y897690D02*
D03*
Y892690D02*
D03*
Y887690D02*
D03*
Y882690D02*
D03*
Y877690D02*
D03*
Y872690D02*
D03*
Y867690D02*
D03*
Y862690D02*
D03*
Y857690D02*
D03*
Y847690D02*
D03*
X680950Y907690D02*
D03*
Y847690D02*
D03*
X566190Y852690D02*
D03*
X680950Y902690D02*
D03*
D108*
X762410Y585090D02*
D03*
X775410D02*
D03*
X781910D02*
D03*
X762410Y644090D02*
D03*
X775410D02*
D03*
X768910D02*
D03*
Y585090D02*
D03*
X781910Y644090D02*
D03*
D109*
X1930523Y526444D02*
D03*
D110*
X1930400Y505460D02*
D03*
D111*
X1041400Y289560D02*
D03*
X1062400D02*
D03*
X1061720Y208280D02*
D03*
X1040720D02*
D03*
D112*
X1346220Y517160D02*
D03*
Y562160D02*
D03*
Y552160D02*
D03*
Y547160D02*
D03*
Y542160D02*
D03*
Y537160D02*
D03*
Y527160D02*
D03*
Y522160D02*
D03*
Y512160D02*
D03*
Y507160D02*
D03*
Y502160D02*
D03*
Y492160D02*
D03*
Y487160D02*
D03*
X1234220D02*
D03*
Y497160D02*
D03*
Y507160D02*
D03*
Y522160D02*
D03*
Y527160D02*
D03*
Y532160D02*
D03*
Y537160D02*
D03*
Y547160D02*
D03*
Y552160D02*
D03*
Y557160D02*
D03*
X1346220Y532160D02*
D03*
X1234220Y492160D02*
D03*
Y502160D02*
D03*
Y512160D02*
D03*
Y542160D02*
D03*
Y517160D02*
D03*
Y562160D02*
D03*
X1346220Y497160D02*
D03*
Y557160D02*
D03*
D113*
X1252720Y580660D02*
D03*
X1272720D02*
D03*
X1277720D02*
D03*
X1282720D02*
D03*
X1287720D02*
D03*
X1297720D02*
D03*
X1302720D02*
D03*
X1307720D02*
D03*
X1312720D02*
D03*
X1327720D02*
D03*
Y468660D02*
D03*
X1317720D02*
D03*
X1312720D02*
D03*
X1307720D02*
D03*
X1302720D02*
D03*
X1297720D02*
D03*
X1287720D02*
D03*
X1282720D02*
D03*
X1277720D02*
D03*
X1272720D02*
D03*
X1262720D02*
D03*
X1257720D02*
D03*
X1252720D02*
D03*
X1262720Y580660D02*
D03*
X1267720D02*
D03*
X1257720D02*
D03*
X1322720Y468660D02*
D03*
X1267720D02*
D03*
X1292720Y580660D02*
D03*
X1322720D02*
D03*
X1292720Y468660D02*
D03*
X1317720Y580660D02*
D03*
D114*
X801040Y340360D02*
D03*
Y378460D02*
D03*
Y365760D02*
D03*
Y353060D02*
D03*
Y327660D02*
D03*
Y314960D02*
D03*
X855040Y302260D02*
D03*
Y327660D02*
D03*
Y353060D02*
D03*
Y378460D02*
D03*
X801040Y302260D02*
D03*
X855040Y314960D02*
D03*
Y340360D02*
D03*
Y365760D02*
D03*
D115*
X356620Y462300D02*
D03*
Y553700D02*
D03*
X1148320Y805060D02*
D03*
X1178320D02*
D03*
X1000760Y807720D02*
D03*
X1030760D02*
D03*
D116*
X1787906Y518160D02*
D03*
D117*
X1790406Y494410D02*
D03*
X1795406D02*
D03*
X1775406D02*
D03*
Y541910D02*
D03*
X1805406Y494410D02*
D03*
X1800406D02*
D03*
X1785406D02*
D03*
X1780406D02*
D03*
X1770406D02*
D03*
Y541910D02*
D03*
X1780406D02*
D03*
X1785406D02*
D03*
X1790406D02*
D03*
X1795406D02*
D03*
X1800406D02*
D03*
X1805406D02*
D03*
D118*
X1811656Y500660D02*
D03*
Y530660D02*
D03*
X1764156Y500660D02*
D03*
Y515660D02*
D03*
Y535660D02*
D03*
X1811656D02*
D03*
Y525660D02*
D03*
Y520660D02*
D03*
Y515660D02*
D03*
Y510660D02*
D03*
Y505660D02*
D03*
X1764156Y530660D02*
D03*
Y520660D02*
D03*
Y505660D02*
D03*
Y525660D02*
D03*
Y510660D02*
D03*
D119*
X454179Y502393D02*
D03*
Y509393D02*
D03*
X462678Y505893D02*
D03*
D120*
X1239520Y655320D02*
D03*
X1225020D02*
D03*
X1476110Y889000D02*
D03*
X1490610D02*
D03*
X1419490Y919480D02*
D03*
X1404990D02*
D03*
X669660Y966470D02*
D03*
X684160D02*
D03*
X513560Y987820D02*
D03*
X528060D02*
D03*
X302630Y701040D02*
D03*
X317130D02*
D03*
X658230Y706120D02*
D03*
X672730D02*
D03*
X394070Y563880D02*
D03*
X408570D02*
D03*
X886830Y706120D02*
D03*
X901330D02*
D03*
X1201050Y508000D02*
D03*
X1186550D02*
D03*
X1401340Y487680D02*
D03*
X1386840D02*
D03*
X1244600Y609600D02*
D03*
X1230099D02*
D03*
X1357100Y436880D02*
D03*
X1371600D02*
D03*
X1379590Y533400D02*
D03*
X1394090D02*
D03*
X1117600Y467360D02*
D03*
X1103100D02*
D03*
D121*
X1791098Y418846D02*
D03*
X1809098D02*
D03*
X1776620Y444500D02*
D03*
X1794620D02*
D03*
D122*
X717500Y849500D02*
D03*
Y835500D02*
D03*
X789940Y862980D02*
D03*
Y848980D02*
D03*
D123*
X1137920Y590800D02*
D03*
Y685800D02*
D03*
D124*
X1470660Y974990D02*
D03*
Y960490D02*
D03*
X1301750Y940170D02*
D03*
Y954670D02*
D03*
X778510Y992770D02*
D03*
Y978270D02*
D03*
X528320Y810630D02*
D03*
Y825130D02*
D03*
X1051560Y955040D02*
D03*
Y940540D02*
D03*
X751840Y709030D02*
D03*
Y723530D02*
D03*
X772160Y709030D02*
D03*
Y723530D02*
D03*
X1280160Y418730D02*
D03*
Y404230D02*
D03*
X1295400Y610340D02*
D03*
Y624840D02*
D03*
X1168400Y487680D02*
D03*
Y473180D02*
D03*
X1349339Y609600D02*
D03*
Y624100D02*
D03*
X1325880Y609600D02*
D03*
Y624100D02*
D03*
X878840Y383170D02*
D03*
Y368670D02*
D03*
D125*
X1709420Y420780D02*
D03*
Y440280D02*
D03*
D126*
X1671320Y669290D02*
D03*
X1652320D02*
D03*
D127*
X1640920Y1059060D02*
D03*
Y1044060D02*
D03*
X1703520Y1059060D02*
D03*
Y1044060D02*
D03*
X1781360Y1059060D02*
D03*
Y1044060D02*
D03*
X1843960Y1059060D02*
D03*
Y1044060D02*
D03*
X624840Y780930D02*
D03*
Y765930D02*
D03*
X1798320Y594240D02*
D03*
Y579240D02*
D03*
X1766570Y592850D02*
D03*
Y577850D02*
D03*
D128*
X1101200Y924560D02*
D03*
X1083200D02*
D03*
X1222058Y719596D02*
D03*
X1240058D02*
D03*
D129*
X1183320Y853440D02*
D03*
X1163320D02*
D03*
X401320Y452120D02*
D03*
X421320D02*
D03*
D130*
X1503680Y994410D02*
D03*
Y943610D02*
D03*
Y969010D02*
D03*
D131*
X1423670Y881380D02*
D03*
D132*
X1372870D02*
D03*
X1398270D02*
D03*
D133*
X326620Y462800D02*
D03*
Y553200D02*
D03*
D134*
X1808480Y739140D02*
D03*
X1833880D02*
D03*
X1808480Y815340D02*
D03*
X1833880Y764540D02*
D03*
X1808480Y789940D02*
D03*
Y764540D02*
D03*
X1833880Y789940D02*
D03*
D135*
Y815340D02*
D03*
D136*
X1566900Y1167590D02*
D03*
X1828800Y1168400D02*
D03*
X1706880D02*
D03*
X1468545Y1167590D02*
D03*
X1271835D02*
D03*
X1370190D02*
D03*
X1173480D02*
D03*
D137*
X1531900D02*
D03*
X1803400Y1168400D02*
D03*
X1778000D02*
D03*
X1752600D02*
D03*
X1681480D02*
D03*
X1656080D02*
D03*
X1630680D02*
D03*
X1433545Y1167590D02*
D03*
X1236835D02*
D03*
X1335190D02*
D03*
X1138480D02*
D03*
D138*
X1755140Y294640D02*
D03*
Y320040D02*
D03*
X1729740D02*
D03*
Y294640D02*
D03*
X1704340Y320040D02*
D03*
Y294640D02*
D03*
X1780540D02*
D03*
X1678940D02*
D03*
Y320040D02*
D03*
X393700Y1173480D02*
D03*
X368300D02*
D03*
Y1148080D02*
D03*
X393700D02*
D03*
X368300Y1122680D02*
D03*
X393700D02*
D03*
Y1198880D02*
D03*
X368300Y1097280D02*
D03*
X393700D02*
D03*
X633730Y1123950D02*
D03*
X608330D02*
D03*
X633730Y1149350D02*
D03*
X608330D02*
D03*
Y1174750D02*
D03*
X633730D02*
D03*
Y1200150D02*
D03*
Y1098550D02*
D03*
X608330D02*
D03*
X1028700Y1176020D02*
D03*
X1003300D02*
D03*
Y1150620D02*
D03*
X1028700D02*
D03*
Y1125220D02*
D03*
X1003300D02*
D03*
Y1099820D02*
D03*
X1028700D02*
D03*
Y1201420D02*
D03*
X833120Y1176020D02*
D03*
X858520Y1150620D02*
D03*
X833120Y1125220D02*
D03*
X858520D02*
D03*
Y1176020D02*
D03*
X833120Y1150620D02*
D03*
X858520Y1201420D02*
D03*
X833120Y1099820D02*
D03*
X858520D02*
D03*
D139*
X1780540Y320040D02*
D03*
D140*
X982980Y1000760D02*
D03*
X1543050Y317495D02*
D03*
X1541780Y393700D02*
D03*
X982980Y965200D02*
D03*
Y929640D02*
D03*
X309880Y345440D02*
D03*
X744220Y533400D02*
D03*
X805180Y259080D02*
D03*
X830580Y218440D02*
D03*
Y177800D02*
D03*
D141*
X1008380Y1000760D02*
D03*
X1568450Y317495D02*
D03*
X1567180Y393700D02*
D03*
X1008380Y965200D02*
D03*
Y929640D02*
D03*
X769620Y533400D02*
D03*
X830580Y259080D02*
D03*
X805180Y218440D02*
D03*
Y177800D02*
D03*
D142*
X368300Y1198880D02*
D03*
X608330Y1200150D02*
D03*
X1003300Y1201420D02*
D03*
X833120D02*
D03*
D143*
X309880Y370840D02*
D03*
D144*
X1776906Y529160D02*
D03*
Y507160D02*
D03*
X1787906Y518160D02*
D03*
X1776906D02*
D03*
X1787906Y529160D02*
D03*
X1798906Y507160D02*
D03*
X1787906D02*
D03*
X1798906Y518160D02*
D03*
Y529160D02*
D03*
D145*
X748030Y1040130D02*
D03*
X651510Y971550D02*
D03*
X391160Y542290D02*
D03*
X378460Y462280D02*
D03*
X1666240Y650240D02*
D03*
X1826917Y525762D02*
D03*
X1827530Y534670D02*
D03*
X1831224Y550395D02*
D03*
X1837690Y393700D02*
D03*
X1752600Y557530D02*
D03*
X1742332Y341988D02*
D03*
X1760220Y563880D02*
D03*
X1826260Y391160D02*
D03*
X1784350Y586740D02*
D03*
X1813560Y673100D02*
D03*
X1781810Y631190D02*
D03*
X1746250Y576580D02*
D03*
X1769110Y835660D02*
D03*
X1852930Y680720D02*
D03*
X1805940Y562610D02*
D03*
X1814830Y576580D02*
D03*
X1752600Y643890D02*
D03*
X1794510Y567690D02*
D03*
X1621790Y640080D02*
D03*
X1781810Y600710D02*
D03*
X1805776Y467439D02*
D03*
X1809750Y624840D02*
D03*
X1725930Y440690D02*
D03*
X1738884Y418846D02*
D03*
X1652270Y411480D02*
D03*
X1517650Y336550D02*
D03*
X1541561Y519508D02*
D03*
X1905000Y453390D02*
D03*
X1916430Y473710D02*
D03*
X1868170Y477520D02*
D03*
X1916430Y461010D02*
D03*
X1905000Y466090D02*
D03*
Y480060D02*
D03*
X1817370Y462280D02*
D03*
X1744980Y490220D02*
D03*
X1741170Y481330D02*
D03*
X1638300Y449580D02*
D03*
X1803400Y391160D02*
D03*
X1916202Y433272D02*
D03*
Y392632D02*
D03*
Y419302D02*
D03*
Y406602D02*
D03*
X1916430Y447040D02*
D03*
X1905000Y439420D02*
D03*
X1904772Y425652D02*
D03*
Y385012D02*
D03*
Y398982D02*
D03*
Y411682D02*
D03*
X1760220Y405130D02*
D03*
X1691640Y539750D02*
D03*
X1723390D02*
D03*
X1916202Y555192D02*
D03*
X1921510Y527050D02*
D03*
X1916430Y487680D02*
D03*
Y541020D02*
D03*
Y514350D02*
D03*
X1902460Y554990D02*
D03*
Y527050D02*
D03*
X1902232Y541222D02*
D03*
X1905172Y514448D02*
D03*
X1906442Y496668D02*
D03*
X1921510Y497840D02*
D03*
X1916430Y568960D02*
D03*
X1838960Y665480D02*
D03*
X1588770Y614680D02*
D03*
X1596390Y457200D02*
D03*
X1530350Y349250D02*
D03*
X1485900Y393700D02*
D03*
X1482090Y317500D02*
D03*
X1570990Y716026D02*
D03*
X1713230Y763270D02*
D03*
X1770380Y727710D02*
D03*
X1391920Y553720D02*
D03*
X1407160Y502920D02*
D03*
X1341120Y589280D02*
D03*
X1391920Y563880D02*
D03*
X1336040Y436880D02*
D03*
X1275080D02*
D03*
X1178560Y538480D02*
D03*
X1188720D02*
D03*
X1198880D02*
D03*
X705000Y990000D02*
D03*
X790000Y830000D02*
D03*
X735000Y897380D02*
D03*
X537500Y1012500D02*
D03*
X495000Y830000D02*
D03*
X667500Y805000D02*
D03*
X1168400Y502920D02*
D03*
X1244600Y629920D02*
D03*
X1071880Y985520D02*
D03*
X1381760Y746760D02*
D03*
Y756920D02*
D03*
X1473200Y787400D02*
D03*
X1046480Y975360D02*
D03*
X1122680Y763016D02*
D03*
X762000Y685800D02*
D03*
X1254760Y377157D02*
D03*
X1295400Y391160D02*
D03*
X1041400Y848360D02*
D03*
X1285240Y655320D02*
D03*
X1071880Y670560D02*
D03*
X682500Y985000D02*
D03*
X735000Y917500D02*
D03*
X682500Y815000D02*
D03*
X512500Y1007500D02*
D03*
X807720Y670560D02*
D03*
X853440Y411480D02*
D03*
X624840Y747500D02*
D03*
X1158240Y441960D02*
D03*
X1417320Y523240D02*
D03*
X736600Y467360D02*
D03*
X436880Y873760D02*
D03*
X447040Y863600D02*
D03*
X736600Y457200D02*
D03*
X746760Y370840D02*
D03*
X1295400Y553720D02*
D03*
X1137920Y289560D02*
D03*
X1270000Y670560D02*
D03*
X1305560Y553720D02*
D03*
X1137920Y330200D02*
D03*
X736600Y670560D02*
D03*
X660400Y767080D02*
D03*
X650240D02*
D03*
X1066800Y924560D02*
D03*
X610000Y785000D02*
D03*
X1066800Y934720D02*
D03*
X431800Y497840D02*
D03*
Y513080D02*
D03*
X378473Y504210D02*
D03*
X1046480Y995680D02*
D03*
X526491Y301093D02*
D03*
X609600Y370840D02*
D03*
X314960Y203200D02*
D03*
X401320Y299720D02*
D03*
X637318Y300807D02*
D03*
X657500Y847500D02*
D03*
X811509Y968491D02*
D03*
X830755Y1001745D02*
D03*
X720000Y917192D02*
D03*
X617500Y810000D02*
D03*
X630000Y850000D02*
D03*
X637500Y862500D02*
D03*
X620000Y850000D02*
D03*
X720000Y945000D02*
D03*
X702500Y975000D02*
D03*
X673596Y1037500D02*
D03*
X659130Y988060D02*
D03*
X942500Y1062296D02*
D03*
X587500Y860000D02*
D03*
X597500Y867500D02*
D03*
X590000Y877500D02*
D03*
X721706Y980094D02*
D03*
X607500Y850000D02*
D03*
X595000D02*
D03*
X722500Y927500D02*
D03*
X590000Y890000D02*
D03*
Y902500D02*
D03*
X597500Y1035000D02*
D03*
X584806Y1022306D02*
D03*
X1765000Y1032500D02*
D03*
X688121Y1045895D02*
D03*
X1825000Y1022500D02*
D03*
X1630000Y1027500D02*
D03*
X730250Y1042670D02*
D03*
X1690000Y1027500D02*
D03*
D146*
X1659890Y836930D02*
D03*
X1198880Y288290D02*
D03*
X1193800Y970280D02*
D03*
X364490Y919480D02*
D03*
M02*
