G04*
G04 #@! TF.GenerationSoftware,Altium Limited,Altium Designer,25.4.2 (15)*
G04*
G04 Layer_Physical_Order=4*
G04 Layer_Color=16711680*
%FSLAX44Y44*%
%MOMM*%
G71*
G04*
G04 #@! TF.SameCoordinates,145FFF0F-7840-416A-8FEA-007F4607A66E*
G04*
G04*
G04 #@! TF.FilePolarity,Positive*
G04*
G01*
G75*
%ADD19C,0.2540*%
%ADD70R,1.0500X1.3000*%
%ADD86R,1.3000X1.0500*%
%ADD93R,1.2000X1.4500*%
%ADD115C,0.9000*%
%ADD130C,1.2700*%
G04:AMPARAMS|DCode=133|XSize=1.1mm|YSize=2.05mm|CornerRadius=0.55mm|HoleSize=0mm|Usage=FLASHONLY|Rotation=270.000|XOffset=0mm|YOffset=0mm|HoleType=Round|Shape=RoundedRectangle|*
%AMROUNDEDRECTD133*
21,1,1.1000,0.9500,0,0,270.0*
21,1,0.0000,2.0500,0,0,270.0*
1,1,1.1000,-0.4750,0.0000*
1,1,1.1000,-0.4750,0.0000*
1,1,1.1000,0.4750,0.0000*
1,1,1.1000,0.4750,0.0000*
%
%ADD133ROUNDEDRECTD133*%
%ADD159R,1.3500X1.3500*%
%ADD160C,1.3500*%
%ADD161C,1.6650*%
%ADD162R,1.6650X1.6650*%
G04:AMPARAMS|DCode=163|XSize=1.95mm|YSize=1.95mm|CornerRadius=0.4875mm|HoleSize=0mm|Usage=FLASHONLY|Rotation=180.000|XOffset=0mm|YOffset=0mm|HoleType=Round|Shape=RoundedRectangle|*
%AMROUNDEDRECTD163*
21,1,1.9500,0.9750,0,0,180.0*
21,1,0.9750,1.9500,0,0,180.0*
1,1,0.9750,-0.4875,0.4875*
1,1,0.9750,0.4875,0.4875*
1,1,0.9750,0.4875,-0.4875*
1,1,0.9750,-0.4875,-0.4875*
%
%ADD163ROUNDEDRECTD163*%
%ADD164C,1.9500*%
%ADD165C,1.6500*%
G04:AMPARAMS|DCode=166|XSize=1.65mm|YSize=1.65mm|CornerRadius=0.4125mm|HoleSize=0mm|Usage=FLASHONLY|Rotation=180.000|XOffset=0mm|YOffset=0mm|HoleType=Round|Shape=RoundedRectangle|*
%AMROUNDEDRECTD166*
21,1,1.6500,0.8250,0,0,180.0*
21,1,0.8250,1.6500,0,0,180.0*
1,1,0.8250,-0.4125,0.4125*
1,1,0.8250,0.4125,0.4125*
1,1,0.8250,0.4125,-0.4125*
1,1,0.8250,-0.4125,-0.4125*
%
%ADD166ROUNDEDRECTD166*%
%ADD167C,1.6000*%
G04:AMPARAMS|DCode=168|XSize=1.6mm|YSize=1.6mm|CornerRadius=0.4mm|HoleSize=0mm|Usage=FLASHONLY|Rotation=180.000|XOffset=0mm|YOffset=0mm|HoleType=Round|Shape=RoundedRectangle|*
%AMROUNDEDRECTD168*
21,1,1.6000,0.8000,0,0,180.0*
21,1,0.8000,1.6000,0,0,180.0*
1,1,0.8000,-0.4000,0.4000*
1,1,0.8000,0.4000,0.4000*
1,1,0.8000,0.4000,-0.4000*
1,1,0.8000,-0.4000,-0.4000*
%
%ADD168ROUNDEDRECTD168*%
G04:AMPARAMS|DCode=169|XSize=1.65mm|YSize=1.65mm|CornerRadius=0.4125mm|HoleSize=0mm|Usage=FLASHONLY|Rotation=270.000|XOffset=0mm|YOffset=0mm|HoleType=Round|Shape=RoundedRectangle|*
%AMROUNDEDRECTD169*
21,1,1.6500,0.8250,0,0,270.0*
21,1,0.8250,1.6500,0,0,270.0*
1,1,0.8250,-0.4125,-0.4125*
1,1,0.8250,-0.4125,0.4125*
1,1,0.8250,0.4125,0.4125*
1,1,0.8250,0.4125,-0.4125*
%
%ADD169ROUNDEDRECTD169*%
G04:AMPARAMS|DCode=170|XSize=1.6mm|YSize=1.6mm|CornerRadius=0.4mm|HoleSize=0mm|Usage=FLASHONLY|Rotation=270.000|XOffset=0mm|YOffset=0mm|HoleType=Round|Shape=RoundedRectangle|*
%AMROUNDEDRECTD170*
21,1,1.6000,0.8000,0,0,270.0*
21,1,0.8000,1.6000,0,0,270.0*
1,1,0.8000,-0.4000,-0.4000*
1,1,0.8000,-0.4000,0.4000*
1,1,0.8000,0.4000,0.4000*
1,1,0.8000,0.4000,-0.4000*
%
%ADD170ROUNDEDRECTD170*%
%ADD171C,0.5000*%
%ADD172C,0.7112*%
%ADD173C,6.0960*%
G04:AMPARAMS|DCode=175|XSize=1.1mm|YSize=1.65mm|CornerRadius=0.55mm|HoleSize=0mm|Usage=FLASHONLY|Rotation=270.000|XOffset=0mm|YOffset=0mm|HoleType=Round|Shape=RoundedRectangle|*
%AMROUNDEDRECTD175*
21,1,1.1000,0.5500,0,0,270.0*
21,1,0.0000,1.6500,0,0,270.0*
1,1,1.1000,-0.2750,0.0000*
1,1,1.1000,-0.2750,0.0000*
1,1,1.1000,0.2750,0.0000*
1,1,1.1000,0.2750,0.0000*
%
%ADD175ROUNDEDRECTD175*%
D19*
X688042Y1006812D02*
X714712D01*
X748030Y1040130D01*
X658735Y972425D02*
X672754Y986443D01*
X651510Y971550D02*
X652385Y972425D01*
X658735D01*
X624840Y747500D02*
Y770961D01*
X668879Y815000D01*
X682500D01*
X1827530Y534670D02*
X1833880Y528320D01*
X1827530Y534670D02*
X1852930Y560070D01*
X1833880Y427990D02*
Y528320D01*
X1585933Y563880D02*
X1760220D01*
X1852930Y560070D02*
Y680720D01*
X1817370Y411480D02*
X1833880Y427990D01*
X1652270Y411480D02*
X1817370D01*
X1541561Y519508D02*
X1585933Y563880D01*
X1596390Y457200D02*
X1680210D01*
X1713230Y490220D01*
X1744980D01*
X1168050Y538480D02*
X1178560D01*
X1163320Y543210D02*
Y543560D01*
Y523240D02*
X1173480D01*
X1188720Y538480D01*
X1163320Y543210D02*
X1168050Y538480D01*
X740370Y902750D02*
X762500D01*
X735000Y897380D02*
X740370Y902750D01*
X667500Y805000D02*
X677500Y795000D01*
X687750D01*
X1102360Y787400D02*
X1473200D01*
X1000760Y685800D02*
X1102360Y787400D01*
X762000Y685800D02*
X1000760D01*
X735000Y917500D02*
X762250D01*
X762500Y917250D01*
X702250Y795000D02*
Y796250D01*
X690632Y806869D02*
X691632D01*
X702250Y796250D01*
X682500Y815000D02*
X690632Y806869D01*
X431800Y513080D02*
X1107440D01*
X1131940Y537580D02*
X1138590D01*
X1107440Y513080D02*
X1131940Y537580D01*
X1128388Y523240D02*
X1143320D01*
X1102988Y497840D02*
X1128388Y523240D01*
X1138590Y537580D02*
X1143320Y542310D01*
X431800Y497840D02*
X1102988D01*
X1143320Y542310D02*
Y543560D01*
X626404Y856404D02*
X640025D01*
X620000Y850000D02*
X626404Y856404D01*
X623186Y860000D02*
X831578Y1068392D01*
X625298Y867500D02*
X830000Y1072202D01*
X627888Y877500D02*
X826400Y1076012D01*
X640000Y902500D02*
X711800Y974300D01*
X635000Y890000D02*
X715610Y970610D01*
X831578Y1068392D02*
X1023308D01*
X587500Y860000D02*
X623186D01*
X597500Y867500D02*
X625298D01*
X640025Y856404D02*
X845917Y1062296D01*
X711800Y974300D02*
Y984197D01*
X715610Y970610D02*
Y982619D01*
X826400Y1076012D02*
X1020152D01*
X830000Y1072202D02*
X1021730D01*
X590000Y877500D02*
X627888D01*
X590000Y890000D02*
X635000D01*
X590000Y902500D02*
X640000D01*
X711800Y984197D02*
X717603Y989999D01*
X727499D01*
X826530Y1089030D01*
X883642D01*
X715610Y982619D02*
X719181Y986189D01*
X731189D01*
X830000Y1085000D01*
X885000D01*
X659130Y988060D02*
X684967Y1013897D01*
X845917Y1062296D02*
X942500D01*
X1023308Y1068392D02*
X1047110Y1092194D01*
X1024736Y1139324D02*
X1029855D01*
X1047110Y1092194D02*
Y1147469D01*
X1043300Y1093773D02*
Y1136020D01*
X1003949Y1110610D02*
X1016640Y1123301D01*
X910610Y1110610D02*
X1003949D01*
X1015101Y1148960D02*
X1024736Y1139324D01*
X1028700Y1150620D02*
X1043300Y1136020D01*
X1039490Y1095351D02*
Y1129689D01*
X1029855Y1139324D02*
X1039490Y1129689D01*
X1016640Y1123301D02*
X1026781D01*
X1028700Y1125220D01*
Y1176020D02*
X1030619Y1174101D01*
Y1163960D02*
Y1174101D01*
Y1163960D02*
X1047110Y1147469D01*
X1021730Y1072202D02*
X1043300Y1093773D01*
X1020152Y1076012D02*
X1039490Y1095351D01*
X883642Y1089030D02*
X919832Y1125220D01*
X1003300Y1176020D02*
X1005219Y1174101D01*
Y1163960D02*
Y1174101D01*
Y1163960D02*
X1015101Y1154079D01*
Y1148960D02*
Y1154079D01*
X885000Y1085000D02*
X910610Y1110610D01*
X919832Y1125220D02*
X1003300D01*
X672754Y986443D02*
Y991524D01*
X711200Y1042670D02*
X730250D01*
X672754Y991524D02*
X688042Y1006812D01*
X684967Y1013897D02*
Y1016437D01*
X711200Y1042670D01*
D70*
X702250Y795000D02*
D03*
X687750D02*
D03*
D86*
X762500Y917250D02*
D03*
Y902750D02*
D03*
D93*
X1163320Y523240D02*
D03*
X1143320D02*
D03*
X1163320Y543560D02*
D03*
X1143320D02*
D03*
D115*
X1148320Y805060D02*
D03*
X1178320D02*
D03*
X1000760Y807720D02*
D03*
X1030760D02*
D03*
D130*
X1503680Y994410D02*
D03*
Y943610D02*
D03*
Y969010D02*
D03*
D133*
X326620Y462800D02*
D03*
Y553200D02*
D03*
D159*
X1423670Y881380D02*
D03*
D160*
X1372870D02*
D03*
X1398270D02*
D03*
D161*
X1808480Y739140D02*
D03*
X1833880D02*
D03*
X1808480Y815340D02*
D03*
X1833880Y764540D02*
D03*
X1808480Y789940D02*
D03*
Y764540D02*
D03*
X1833880Y789940D02*
D03*
D162*
Y815340D02*
D03*
D163*
X1566900Y1167590D02*
D03*
X1828800Y1168400D02*
D03*
X1706880D02*
D03*
X1468545Y1167590D02*
D03*
X1271835D02*
D03*
X1370190D02*
D03*
X1173480D02*
D03*
D164*
X1531900D02*
D03*
X1803400Y1168400D02*
D03*
X1778000D02*
D03*
X1752600D02*
D03*
X1681480D02*
D03*
X1656080D02*
D03*
X1630680D02*
D03*
X1433545Y1167590D02*
D03*
X1236835D02*
D03*
X1335190D02*
D03*
X1138480D02*
D03*
D165*
X1755140Y294640D02*
D03*
Y320040D02*
D03*
X1729740D02*
D03*
Y294640D02*
D03*
X1704340Y320040D02*
D03*
Y294640D02*
D03*
X1780540D02*
D03*
X1678940D02*
D03*
Y320040D02*
D03*
X393700Y1173480D02*
D03*
X368300D02*
D03*
Y1148080D02*
D03*
X393700D02*
D03*
X368300Y1122680D02*
D03*
X393700D02*
D03*
Y1198880D02*
D03*
X368300Y1097280D02*
D03*
X393700D02*
D03*
X633730Y1123950D02*
D03*
X608330D02*
D03*
X633730Y1149350D02*
D03*
X608330D02*
D03*
Y1174750D02*
D03*
X633730D02*
D03*
Y1200150D02*
D03*
Y1098550D02*
D03*
X608330D02*
D03*
X1028700Y1176020D02*
D03*
X1003300D02*
D03*
Y1150620D02*
D03*
X1028700D02*
D03*
Y1125220D02*
D03*
X1003300D02*
D03*
Y1099820D02*
D03*
X1028700D02*
D03*
Y1201420D02*
D03*
X833120Y1176020D02*
D03*
X858520Y1150620D02*
D03*
X833120Y1125220D02*
D03*
X858520D02*
D03*
Y1176020D02*
D03*
X833120Y1150620D02*
D03*
X858520Y1201420D02*
D03*
X833120Y1099820D02*
D03*
X858520D02*
D03*
D166*
X1780540Y320040D02*
D03*
D167*
X982980Y1000760D02*
D03*
X1543050Y317495D02*
D03*
X1541780Y393700D02*
D03*
X982980Y965200D02*
D03*
Y929640D02*
D03*
X309880Y345440D02*
D03*
X744220Y533400D02*
D03*
X805180Y259080D02*
D03*
X830580Y218440D02*
D03*
Y177800D02*
D03*
D168*
X1008380Y1000760D02*
D03*
X1568450Y317495D02*
D03*
X1567180Y393700D02*
D03*
X1008380Y965200D02*
D03*
Y929640D02*
D03*
X769620Y533400D02*
D03*
X830580Y259080D02*
D03*
X805180Y218440D02*
D03*
Y177800D02*
D03*
D169*
X368300Y1198880D02*
D03*
X608330Y1200150D02*
D03*
X1003300Y1201420D02*
D03*
X833120D02*
D03*
D170*
X309880Y370840D02*
D03*
D171*
X1776906Y529160D02*
D03*
Y507160D02*
D03*
X1787906Y518160D02*
D03*
X1776906D02*
D03*
X1787906Y529160D02*
D03*
X1798906Y507160D02*
D03*
X1787906D02*
D03*
X1798906Y518160D02*
D03*
Y529160D02*
D03*
D172*
X748030Y1040130D02*
D03*
X651510Y971550D02*
D03*
X391160Y542290D02*
D03*
X378460Y462280D02*
D03*
X1666240Y650240D02*
D03*
X1826917Y525762D02*
D03*
X1827530Y534670D02*
D03*
X1831224Y550395D02*
D03*
X1837690Y393700D02*
D03*
X1752600Y557530D02*
D03*
X1742332Y341988D02*
D03*
X1760220Y563880D02*
D03*
X1826260Y391160D02*
D03*
X1784350Y586740D02*
D03*
X1813560Y673100D02*
D03*
X1781810Y631190D02*
D03*
X1746250Y576580D02*
D03*
X1769110Y835660D02*
D03*
X1852930Y680720D02*
D03*
X1805940Y562610D02*
D03*
X1814830Y576580D02*
D03*
X1752600Y643890D02*
D03*
X1794510Y567690D02*
D03*
X1621790Y640080D02*
D03*
X1781810Y600710D02*
D03*
X1805776Y467439D02*
D03*
X1809750Y624840D02*
D03*
X1725930Y440690D02*
D03*
X1738884Y418846D02*
D03*
X1652270Y411480D02*
D03*
X1517650Y336550D02*
D03*
X1541561Y519508D02*
D03*
X1905000Y453390D02*
D03*
X1916430Y473710D02*
D03*
X1868170Y477520D02*
D03*
X1916430Y461010D02*
D03*
X1905000Y466090D02*
D03*
Y480060D02*
D03*
X1817370Y462280D02*
D03*
X1744980Y490220D02*
D03*
X1741170Y481330D02*
D03*
X1638300Y449580D02*
D03*
X1803400Y391160D02*
D03*
X1916202Y433272D02*
D03*
Y392632D02*
D03*
Y419302D02*
D03*
Y406602D02*
D03*
X1916430Y447040D02*
D03*
X1905000Y439420D02*
D03*
X1904772Y425652D02*
D03*
Y385012D02*
D03*
Y398982D02*
D03*
Y411682D02*
D03*
X1760220Y405130D02*
D03*
X1691640Y539750D02*
D03*
X1723390D02*
D03*
X1916202Y555192D02*
D03*
X1921510Y527050D02*
D03*
X1916430Y487680D02*
D03*
Y541020D02*
D03*
Y514350D02*
D03*
X1902460Y554990D02*
D03*
Y527050D02*
D03*
X1902232Y541222D02*
D03*
X1905172Y514448D02*
D03*
X1906442Y496668D02*
D03*
X1921510Y497840D02*
D03*
X1916430Y568960D02*
D03*
X1838960Y665480D02*
D03*
X1588770Y614680D02*
D03*
X1596390Y457200D02*
D03*
X1530350Y349250D02*
D03*
X1485900Y393700D02*
D03*
X1482090Y317500D02*
D03*
X1570990Y716026D02*
D03*
X1713230Y763270D02*
D03*
X1770380Y727710D02*
D03*
X1391920Y553720D02*
D03*
X1407160Y502920D02*
D03*
X1341120Y589280D02*
D03*
X1391920Y563880D02*
D03*
X1336040Y436880D02*
D03*
X1275080D02*
D03*
X1178560Y538480D02*
D03*
X1188720D02*
D03*
X1198880D02*
D03*
X705000Y990000D02*
D03*
X790000Y830000D02*
D03*
X735000Y897380D02*
D03*
X537500Y1012500D02*
D03*
X495000Y830000D02*
D03*
X667500Y805000D02*
D03*
X1168400Y502920D02*
D03*
X1244600Y629920D02*
D03*
X1071880Y985520D02*
D03*
X1381760Y746760D02*
D03*
Y756920D02*
D03*
X1473200Y787400D02*
D03*
X1046480Y975360D02*
D03*
X1122680Y763016D02*
D03*
X762000Y685800D02*
D03*
X1254760Y377157D02*
D03*
X1295400Y391160D02*
D03*
X1041400Y848360D02*
D03*
X1285240Y655320D02*
D03*
X1071880Y670560D02*
D03*
X682500Y985000D02*
D03*
X735000Y917500D02*
D03*
X682500Y815000D02*
D03*
X512500Y1007500D02*
D03*
X807720Y670560D02*
D03*
X853440Y411480D02*
D03*
X624840Y747500D02*
D03*
X1158240Y441960D02*
D03*
X1417320Y523240D02*
D03*
X736600Y467360D02*
D03*
X436880Y873760D02*
D03*
X447040Y863600D02*
D03*
X736600Y457200D02*
D03*
X746760Y370840D02*
D03*
X1295400Y553720D02*
D03*
X1137920Y289560D02*
D03*
X1270000Y670560D02*
D03*
X1305560Y553720D02*
D03*
X1137920Y330200D02*
D03*
X736600Y670560D02*
D03*
X660400Y767080D02*
D03*
X650240D02*
D03*
X1066800Y924560D02*
D03*
X610000Y785000D02*
D03*
X1066800Y934720D02*
D03*
X431800Y497840D02*
D03*
Y513080D02*
D03*
X378473Y504210D02*
D03*
X1046480Y995680D02*
D03*
X526491Y301093D02*
D03*
X609600Y370840D02*
D03*
X314960Y203200D02*
D03*
X401320Y299720D02*
D03*
X637318Y300807D02*
D03*
X657500Y847500D02*
D03*
X811509Y968491D02*
D03*
X830755Y1001745D02*
D03*
X720000Y917192D02*
D03*
X617500Y810000D02*
D03*
X630000Y850000D02*
D03*
X637500Y862500D02*
D03*
X620000Y850000D02*
D03*
X720000Y945000D02*
D03*
X702500Y975000D02*
D03*
X673596Y1037500D02*
D03*
X659130Y988060D02*
D03*
X942500Y1062296D02*
D03*
X587500Y860000D02*
D03*
X597500Y867500D02*
D03*
X590000Y877500D02*
D03*
X721706Y980094D02*
D03*
X607500Y850000D02*
D03*
X595000D02*
D03*
X722500Y927500D02*
D03*
X590000Y890000D02*
D03*
Y902500D02*
D03*
X597500Y1035000D02*
D03*
X584806Y1022306D02*
D03*
X1765000Y1032500D02*
D03*
X688121Y1045895D02*
D03*
X1825000Y1022500D02*
D03*
X1630000Y1027500D02*
D03*
X730250Y1042670D02*
D03*
X1690000Y1027500D02*
D03*
D173*
X1659890Y836930D02*
D03*
X1198880Y288290D02*
D03*
X1193800Y970280D02*
D03*
X364490Y919480D02*
D03*
D175*
X356620Y462800D02*
D03*
Y553200D02*
D03*
M02*
