G04*
G04 #@! TF.GenerationSoftware,Altium Limited,Altium Designer,25.4.2 (15)*
G04*
G04 Layer_Physical_Order=3*
G04 Layer_Color=16440176*
%FSLAX44Y44*%
%MOMM*%
G71*
G04*
G04 #@! TF.SameCoordinates,145FFF0F-7840-416A-8FEA-007F4607A66E*
G04*
G04*
G04 #@! TF.FilePolarity,Positive*
G04*
G01*
G75*
%ADD19C,0.2540*%
%ADD115C,0.9000*%
G04:AMPARAMS|DCode=133|XSize=1.1mm|YSize=2.05mm|CornerRadius=0.55mm|HoleSize=0mm|Usage=FLASHONLY|Rotation=270.000|XOffset=0mm|YOffset=0mm|HoleType=Round|Shape=RoundedRectangle|*
%AMROUNDEDRECTD133*
21,1,1.1000,0.9500,0,0,270.0*
21,1,0.0000,2.0500,0,0,270.0*
1,1,1.1000,-0.4750,0.0000*
1,1,1.1000,-0.4750,0.0000*
1,1,1.1000,0.4750,0.0000*
1,1,1.1000,0.4750,0.0000*
%
%ADD133ROUNDEDRECTD133*%
%ADD148C,0.7620*%
%ADD159R,1.3500X1.3500*%
%ADD160C,1.3500*%
%ADD161C,1.6650*%
%ADD162R,1.6650X1.6650*%
G04:AMPARAMS|DCode=163|XSize=1.95mm|YSize=1.95mm|CornerRadius=0.4875mm|HoleSize=0mm|Usage=FLASHONLY|Rotation=180.000|XOffset=0mm|YOffset=0mm|HoleType=Round|Shape=RoundedRectangle|*
%AMROUNDEDRECTD163*
21,1,1.9500,0.9750,0,0,180.0*
21,1,0.9750,1.9500,0,0,180.0*
1,1,0.9750,-0.4875,0.4875*
1,1,0.9750,0.4875,0.4875*
1,1,0.9750,0.4875,-0.4875*
1,1,0.9750,-0.4875,-0.4875*
%
%ADD163ROUNDEDRECTD163*%
%ADD164C,1.9500*%
%ADD165C,1.6500*%
G04:AMPARAMS|DCode=166|XSize=1.65mm|YSize=1.65mm|CornerRadius=0.4125mm|HoleSize=0mm|Usage=FLASHONLY|Rotation=180.000|XOffset=0mm|YOffset=0mm|HoleType=Round|Shape=RoundedRectangle|*
%AMROUNDEDRECTD166*
21,1,1.6500,0.8250,0,0,180.0*
21,1,0.8250,1.6500,0,0,180.0*
1,1,0.8250,-0.4125,0.4125*
1,1,0.8250,0.4125,0.4125*
1,1,0.8250,0.4125,-0.4125*
1,1,0.8250,-0.4125,-0.4125*
%
%ADD166ROUNDEDRECTD166*%
%ADD167C,1.6000*%
G04:AMPARAMS|DCode=168|XSize=1.6mm|YSize=1.6mm|CornerRadius=0.4mm|HoleSize=0mm|Usage=FLASHONLY|Rotation=180.000|XOffset=0mm|YOffset=0mm|HoleType=Round|Shape=RoundedRectangle|*
%AMROUNDEDRECTD168*
21,1,1.6000,0.8000,0,0,180.0*
21,1,0.8000,1.6000,0,0,180.0*
1,1,0.8000,-0.4000,0.4000*
1,1,0.8000,0.4000,0.4000*
1,1,0.8000,0.4000,-0.4000*
1,1,0.8000,-0.4000,-0.4000*
%
%ADD168ROUNDEDRECTD168*%
G04:AMPARAMS|DCode=169|XSize=1.65mm|YSize=1.65mm|CornerRadius=0.4125mm|HoleSize=0mm|Usage=FLASHONLY|Rotation=270.000|XOffset=0mm|YOffset=0mm|HoleType=Round|Shape=RoundedRectangle|*
%AMROUNDEDRECTD169*
21,1,1.6500,0.8250,0,0,270.0*
21,1,0.8250,1.6500,0,0,270.0*
1,1,0.8250,-0.4125,-0.4125*
1,1,0.8250,-0.4125,0.4125*
1,1,0.8250,0.4125,0.4125*
1,1,0.8250,0.4125,-0.4125*
%
%ADD169ROUNDEDRECTD169*%
G04:AMPARAMS|DCode=170|XSize=1.6mm|YSize=1.6mm|CornerRadius=0.4mm|HoleSize=0mm|Usage=FLASHONLY|Rotation=270.000|XOffset=0mm|YOffset=0mm|HoleType=Round|Shape=RoundedRectangle|*
%AMROUNDEDRECTD170*
21,1,1.6000,0.8000,0,0,270.0*
21,1,0.8000,1.6000,0,0,270.0*
1,1,0.8000,-0.4000,-0.4000*
1,1,0.8000,-0.4000,0.4000*
1,1,0.8000,0.4000,0.4000*
1,1,0.8000,0.4000,-0.4000*
%
%ADD170ROUNDEDRECTD170*%
%ADD171C,0.5000*%
%ADD172C,0.7112*%
%ADD173C,6.0960*%
%ADD174C,1.5240*%
G36*
X1920347Y1237235D02*
X1923339Y571529D01*
X1920801Y571018D01*
X1920521Y571694D01*
X1919164Y573051D01*
X1917390Y573786D01*
X1915470D01*
X1913696Y573051D01*
X1912339Y571694D01*
X1911604Y569920D01*
Y568000D01*
X1912339Y566226D01*
X1913696Y564869D01*
X1915470Y564134D01*
X1917390D01*
X1919164Y564869D01*
X1920521Y566226D01*
X1920819Y566946D01*
X1923362Y566446D01*
X1923396Y558900D01*
X1923083Y556490D01*
X1923083Y556490D01*
Y556490D01*
X1921028Y556152D01*
X1920841Y556603D01*
X1920293Y557926D01*
X1918936Y559283D01*
X1917162Y560018D01*
X1915242D01*
X1913468Y559283D01*
X1912111Y557926D01*
X1911376Y556152D01*
Y554232D01*
X1912111Y552458D01*
X1913468Y551101D01*
X1915242Y550366D01*
X1917162D01*
X1918936Y551101D01*
X1920293Y552458D01*
X1920843Y553785D01*
X1921028Y554232D01*
X1923099Y553918D01*
Y553918D01*
X1923099Y553918D01*
X1923429Y551515D01*
X1923466Y543283D01*
X1920928Y542772D01*
X1920521Y543754D01*
X1919164Y545111D01*
X1917390Y545846D01*
X1915470D01*
X1913696Y545111D01*
X1912339Y543754D01*
X1911604Y541980D01*
Y540060D01*
X1912339Y538286D01*
X1913696Y536929D01*
X1915470Y536194D01*
X1917390D01*
X1919164Y536929D01*
X1920521Y538286D01*
X1920943Y539306D01*
X1923486Y538806D01*
X1923507Y533986D01*
X1920977Y531876D01*
X1920550D01*
X1918776Y531141D01*
X1917419Y529784D01*
X1916684Y528010D01*
Y526090D01*
X1917419Y524316D01*
X1918776Y522959D01*
X1920550Y522224D01*
X1922470D01*
X1923564Y521497D01*
X1923587Y516320D01*
X1921049Y515810D01*
X1920521Y517084D01*
X1919164Y518441D01*
X1917390Y519176D01*
X1915470D01*
X1913696Y518441D01*
X1912339Y517084D01*
X1912196Y516739D01*
X1909447D01*
X1909264Y517181D01*
X1907906Y518539D01*
X1906132Y519274D01*
X1904212D01*
X1902439Y518539D01*
X1901081Y517181D01*
X1900346Y515408D01*
Y513488D01*
X1901081Y511714D01*
X1902439Y510356D01*
X1904212Y509622D01*
X1906132D01*
X1907906Y510356D01*
X1909264Y511714D01*
X1909406Y512058D01*
X1912156D01*
X1912339Y511616D01*
X1913696Y510259D01*
X1915470Y509524D01*
X1917390D01*
X1919164Y510259D01*
X1920521Y511616D01*
X1921062Y512922D01*
X1923603Y512793D01*
X1923639Y504722D01*
X1921108Y502666D01*
X1920550D01*
X1918776Y501931D01*
X1917419Y500574D01*
X1916684Y498800D01*
Y496880D01*
X1917419Y495106D01*
X1917542Y494983D01*
X1916427Y492506D01*
X1915470D01*
X1913696Y491771D01*
X1912339Y490414D01*
X1911604Y488640D01*
Y486720D01*
X1912339Y484946D01*
X1913696Y483589D01*
X1915470Y482854D01*
X1917390D01*
X1919164Y483589D01*
X1920521Y484946D01*
X1921256Y486720D01*
X1923721Y486538D01*
X1923774Y474724D01*
X1921256Y474670D01*
X1921040Y475191D01*
X1920521Y476444D01*
X1919164Y477801D01*
X1917390Y478536D01*
X1915470D01*
X1913696Y477801D01*
X1912339Y476444D01*
X1911604Y474670D01*
Y472750D01*
X1912339Y470976D01*
X1913696Y469619D01*
X1915470Y468884D01*
X1917390D01*
X1919164Y469619D01*
X1920521Y470976D01*
X1921043Y472235D01*
X1921256Y472750D01*
X1923783Y472718D01*
X1925235Y149615D01*
X1923443Y147815D01*
X276860D01*
Y1245099D01*
X278661Y1246889D01*
X1920347Y1237235D01*
D02*
G37*
%LPC*%
G36*
X859940Y1212210D02*
X859790D01*
Y1202690D01*
X869310D01*
Y1202840D01*
X868575Y1205585D01*
X867154Y1208045D01*
X865145Y1210054D01*
X862685Y1211475D01*
X859940Y1212210D01*
D02*
G37*
G36*
X837245Y1212268D02*
X834390D01*
Y1202690D01*
X843968D01*
Y1205545D01*
X843738Y1207285D01*
X843067Y1208906D01*
X841999Y1210298D01*
X840606Y1211367D01*
X838985Y1212038D01*
X837245Y1212268D01*
D02*
G37*
G36*
X857250Y1212210D02*
X857100D01*
X854355Y1211475D01*
X851895Y1210054D01*
X849886Y1208045D01*
X848465Y1205585D01*
X847730Y1202840D01*
Y1202690D01*
X857250D01*
Y1212210D01*
D02*
G37*
G36*
X831850Y1212268D02*
X828995D01*
X827255Y1212038D01*
X825634Y1211367D01*
X824241Y1210298D01*
X823173Y1208906D01*
X822502Y1207285D01*
X822272Y1205545D01*
Y1202690D01*
X831850D01*
Y1212268D01*
D02*
G37*
G36*
X635150Y1210940D02*
X635000D01*
Y1201420D01*
X644520D01*
Y1201571D01*
X643785Y1204315D01*
X642364Y1206775D01*
X640355Y1208784D01*
X637895Y1210205D01*
X635150Y1210940D01*
D02*
G37*
G36*
X612455Y1210997D02*
X609600D01*
Y1201420D01*
X619178D01*
Y1204275D01*
X618948Y1206015D01*
X618277Y1207636D01*
X617209Y1209028D01*
X615816Y1210097D01*
X614195Y1210768D01*
X612455Y1210997D01*
D02*
G37*
G36*
X632460Y1210940D02*
X632309D01*
X629565Y1210205D01*
X627105Y1208784D01*
X625096Y1206775D01*
X623675Y1204315D01*
X622940Y1201571D01*
Y1201420D01*
X632460D01*
Y1210940D01*
D02*
G37*
G36*
X607060Y1210997D02*
X604205D01*
X602465Y1210768D01*
X600844Y1210097D01*
X599451Y1209028D01*
X598383Y1207636D01*
X597712Y1206015D01*
X597482Y1204275D01*
Y1201420D01*
X607060D01*
Y1210997D01*
D02*
G37*
G36*
X395121Y1209670D02*
X394970D01*
Y1200150D01*
X404490D01*
Y1200301D01*
X403755Y1203045D01*
X402334Y1205505D01*
X400325Y1207514D01*
X397865Y1208935D01*
X395121Y1209670D01*
D02*
G37*
G36*
X372425Y1209727D02*
X369570D01*
Y1200150D01*
X379147D01*
Y1203005D01*
X378918Y1204745D01*
X378247Y1206366D01*
X377178Y1207758D01*
X375786Y1208827D01*
X374165Y1209498D01*
X372425Y1209727D01*
D02*
G37*
G36*
X392430Y1209670D02*
X392280D01*
X389535Y1208935D01*
X387075Y1207514D01*
X385066Y1205505D01*
X383645Y1203045D01*
X382910Y1200301D01*
Y1200150D01*
X392430D01*
Y1209670D01*
D02*
G37*
G36*
X367030Y1209727D02*
X364175D01*
X362435Y1209498D01*
X360814Y1208827D01*
X359422Y1207758D01*
X358353Y1206366D01*
X357682Y1204745D01*
X357453Y1203005D01*
Y1200150D01*
X367030D01*
Y1209727D01*
D02*
G37*
G36*
X1029953Y1210940D02*
X1027447D01*
X1025025Y1210291D01*
X1022855Y1209038D01*
X1021082Y1207265D01*
X1019829Y1205095D01*
X1019180Y1202673D01*
Y1200167D01*
X1019829Y1197745D01*
X1021082Y1195575D01*
X1022855Y1193802D01*
X1025025Y1192549D01*
X1027447Y1191900D01*
X1029953D01*
X1032375Y1192549D01*
X1034545Y1193802D01*
X1036318Y1195575D01*
X1037571Y1197745D01*
X1038220Y1200167D01*
Y1202673D01*
X1037571Y1205095D01*
X1036318Y1207265D01*
X1034545Y1209038D01*
X1032375Y1210291D01*
X1029953Y1210940D01*
D02*
G37*
G36*
X1007425Y1211046D02*
X999175D01*
X997070Y1210627D01*
X995285Y1209435D01*
X994093Y1207650D01*
X993674Y1205545D01*
Y1197295D01*
X994093Y1195190D01*
X995285Y1193405D01*
X997070Y1192213D01*
X999175Y1191794D01*
X1007425D01*
X1009530Y1192213D01*
X1011315Y1193405D01*
X1012507Y1195190D01*
X1012926Y1197295D01*
Y1205545D01*
X1012507Y1207650D01*
X1011315Y1209435D01*
X1009530Y1210627D01*
X1007425Y1211046D01*
D02*
G37*
G36*
X843968Y1200150D02*
X834390D01*
Y1190573D01*
X837245D01*
X838985Y1190802D01*
X840606Y1191473D01*
X841999Y1192542D01*
X843067Y1193934D01*
X843738Y1195555D01*
X843968Y1197295D01*
Y1200150D01*
D02*
G37*
G36*
X831850D02*
X822272D01*
Y1197295D01*
X822502Y1195555D01*
X823173Y1193934D01*
X824241Y1192542D01*
X825634Y1191473D01*
X827255Y1190802D01*
X828995Y1190573D01*
X831850D01*
Y1200150D01*
D02*
G37*
G36*
X404490Y1197610D02*
X394970D01*
Y1188090D01*
X395121D01*
X397865Y1188825D01*
X400325Y1190246D01*
X402334Y1192255D01*
X403755Y1194715D01*
X404490Y1197459D01*
Y1197610D01*
D02*
G37*
G36*
X392430D02*
X382910D01*
Y1197459D01*
X383645Y1194715D01*
X385066Y1192255D01*
X387075Y1190246D01*
X389535Y1188825D01*
X392280Y1188090D01*
X392430D01*
Y1197610D01*
D02*
G37*
G36*
X379147D02*
X369570D01*
Y1188033D01*
X372425D01*
X374165Y1188262D01*
X375786Y1188933D01*
X377178Y1190002D01*
X378247Y1191394D01*
X378918Y1193015D01*
X379147Y1194755D01*
Y1197610D01*
D02*
G37*
G36*
X367030D02*
X357453D01*
Y1194755D01*
X357682Y1193015D01*
X358353Y1191394D01*
X359422Y1190002D01*
X360814Y1188933D01*
X362435Y1188262D01*
X364175Y1188033D01*
X367030D01*
Y1197610D01*
D02*
G37*
G36*
X869310Y1200150D02*
X858520D01*
X847730D01*
Y1199999D01*
X848465Y1197255D01*
X849886Y1194795D01*
X851895Y1192786D01*
X853360Y1191940D01*
X852680Y1189400D01*
X843910D01*
X842919Y1189203D01*
X842079Y1188641D01*
X837767Y1184330D01*
X836795Y1184891D01*
X834373Y1185540D01*
X831867D01*
X829445Y1184891D01*
X827275Y1183638D01*
X825502Y1181865D01*
X824249Y1179695D01*
X823600Y1177273D01*
Y1174767D01*
X824249Y1172345D01*
X825502Y1170175D01*
X827275Y1168402D01*
X829445Y1167149D01*
X831867Y1166500D01*
X831771Y1164000D01*
X818910D01*
X817919Y1163803D01*
X817079Y1163241D01*
X813169Y1159331D01*
X812607Y1158491D01*
X812410Y1157500D01*
Y1086073D01*
X705331Y978994D01*
X705234Y979091D01*
X703460Y979826D01*
X701540D01*
X699766Y979091D01*
X698409Y977734D01*
X697674Y975960D01*
Y974040D01*
X698409Y972266D01*
X699766Y970909D01*
X701540Y970174D01*
X703460D01*
X705234Y970909D01*
X706591Y972266D01*
X707183Y973694D01*
X707706Y974044D01*
X714340Y980678D01*
X716880Y979626D01*
Y979134D01*
X717615Y977360D01*
X718973Y976002D01*
X720747Y975267D01*
X722666D01*
X724440Y976002D01*
X725798Y977360D01*
X726532Y979134D01*
Y981053D01*
X725798Y982827D01*
X724440Y984185D01*
X722666Y984920D01*
X722174D01*
X721122Y987459D01*
X816180Y1082518D01*
X818720Y1081597D01*
Y1047383D01*
X721104Y949766D01*
X720960Y949826D01*
X719040D01*
X717266Y949091D01*
X715909Y947734D01*
X715174Y945960D01*
Y944040D01*
X715909Y942266D01*
X717266Y940909D01*
X719040Y940174D01*
X720960D01*
X722734Y940909D01*
X724091Y942266D01*
X724826Y944040D01*
Y945960D01*
X724766Y946104D01*
X823141Y1044479D01*
X823703Y1045319D01*
X823900Y1046310D01*
Y1091985D01*
X826440Y1093037D01*
X827275Y1092202D01*
X829445Y1090949D01*
X831867Y1090300D01*
X834373D01*
X836795Y1090949D01*
X838780Y1092095D01*
X839571Y1091884D01*
X841320Y1090965D01*
Y1035371D01*
X835019Y1029070D01*
X834458Y1028230D01*
X834261Y1027239D01*
Y1008266D01*
X831721Y1006569D01*
X831714Y1006571D01*
X829795D01*
X828021Y1005837D01*
X826663Y1004479D01*
X825929Y1002705D01*
Y1000786D01*
X825988Y1000641D01*
X806333Y980987D01*
X805897D01*
X804906Y980789D01*
X804065Y980228D01*
X743443Y919605D01*
X740470Y920224D01*
X740168Y920953D01*
X738453Y922668D01*
X736270Y923572D01*
Y917500D01*
X733730D01*
Y923572D01*
X731547Y922668D01*
X729832Y920953D01*
X728904Y918712D01*
Y917772D01*
X726825Y915557D01*
X724826Y916232D01*
Y918152D01*
X724091Y919926D01*
X723759Y920258D01*
X723732Y920476D01*
X724484Y923098D01*
X725234Y923409D01*
X726591Y924766D01*
X727326Y926540D01*
Y928460D01*
X726591Y930234D01*
X725234Y931591D01*
X723460Y932326D01*
X721540D01*
X721396Y932266D01*
X670090Y983573D01*
Y1030979D01*
X672630Y1032677D01*
X672636Y1032674D01*
X674556D01*
X676330Y1033409D01*
X677687Y1034766D01*
X678422Y1036540D01*
Y1038460D01*
X677687Y1040234D01*
X676330Y1041591D01*
X674556Y1042326D01*
X672636D01*
X672630Y1042323D01*
X670090Y1044021D01*
Y1085000D01*
X669893Y1085991D01*
X669331Y1086831D01*
X639703Y1116460D01*
X641348Y1118105D01*
X642601Y1120275D01*
X643250Y1122697D01*
Y1125203D01*
X642601Y1127625D01*
X641348Y1129795D01*
X639575Y1131568D01*
X637405Y1132821D01*
X634983Y1133470D01*
X632477D01*
X630055Y1132821D01*
X627885Y1131568D01*
X626112Y1129795D01*
X624859Y1127625D01*
X624210Y1125203D01*
Y1122697D01*
X624859Y1120275D01*
X626112Y1118105D01*
X627885Y1116332D01*
X630055Y1115079D01*
X632477Y1114430D01*
X634461D01*
X634570Y1114268D01*
X639957Y1108880D01*
X638397Y1106848D01*
X637405Y1107421D01*
X634983Y1108070D01*
X632477D01*
X630055Y1107421D01*
X627885Y1106168D01*
X627410Y1105693D01*
X624870Y1106745D01*
Y1110000D01*
X624673Y1110991D01*
X624111Y1111831D01*
X616640Y1119303D01*
X617201Y1120275D01*
X617850Y1122697D01*
Y1125203D01*
X617201Y1127625D01*
X615948Y1129795D01*
X614175Y1131568D01*
X612005Y1132821D01*
X609583Y1133470D01*
X607077D01*
X604655Y1132821D01*
X602485Y1131568D01*
X600712Y1129795D01*
X600130Y1128787D01*
X597590Y1129467D01*
Y1134947D01*
X603683Y1141040D01*
X604655Y1140479D01*
X607077Y1139830D01*
X609583D01*
X612005Y1140479D01*
X614175Y1141732D01*
X615948Y1143505D01*
X617201Y1145675D01*
X617850Y1148097D01*
Y1150603D01*
X617201Y1153025D01*
X615948Y1155195D01*
X614175Y1156968D01*
X612005Y1158221D01*
X609790Y1158815D01*
X609272Y1159499D01*
X608610Y1161410D01*
X608803Y1161699D01*
X609000Y1162690D01*
Y1165230D01*
X609583D01*
X612005Y1165879D01*
X614175Y1167132D01*
X615948Y1168905D01*
X617201Y1171075D01*
X617795Y1173290D01*
X618479Y1173808D01*
X620390Y1174470D01*
X620679Y1174277D01*
X621670Y1174080D01*
X624210D01*
Y1173497D01*
X624859Y1171075D01*
X626112Y1168905D01*
X627885Y1167132D01*
X630055Y1165879D01*
X632477Y1165230D01*
X634983D01*
X637405Y1165879D01*
X639390Y1167025D01*
X640181Y1166814D01*
X641930Y1165895D01*
Y1161213D01*
X638377Y1157660D01*
X637405Y1158221D01*
X634983Y1158870D01*
X632477D01*
X630055Y1158221D01*
X627885Y1156968D01*
X626112Y1155195D01*
X624859Y1153025D01*
X624210Y1150603D01*
Y1148097D01*
X624859Y1145675D01*
X626112Y1143505D01*
X627885Y1141732D01*
X630055Y1140479D01*
X632477Y1139830D01*
X634983D01*
X637405Y1140479D01*
X639575Y1141732D01*
X641348Y1143505D01*
X642601Y1145675D01*
X643250Y1148097D01*
Y1150603D01*
X642601Y1153025D01*
X642040Y1153997D01*
X646351Y1158309D01*
X646913Y1159149D01*
X647110Y1160140D01*
Y1179219D01*
X646913Y1180210D01*
X646351Y1181051D01*
X639381Y1188021D01*
X639799Y1191195D01*
X640355Y1191516D01*
X642364Y1193525D01*
X643785Y1195985D01*
X644520Y1198729D01*
Y1198880D01*
X633730D01*
X622940D01*
Y1198729D01*
X623675Y1195985D01*
X624544Y1194480D01*
X623307Y1191940D01*
X620726D01*
X619005Y1194211D01*
X618974Y1194480D01*
X619178Y1196025D01*
Y1198880D01*
X608330D01*
X597482D01*
Y1196025D01*
X597712Y1194285D01*
X598383Y1192664D01*
X599451Y1191272D01*
X599492Y1190654D01*
X568169Y1159331D01*
X567607Y1158491D01*
X567410Y1157500D01*
Y1028491D01*
X567607Y1027500D01*
X568169Y1026660D01*
X596660Y998169D01*
X597500Y997607D01*
X598491Y997410D01*
X602410D01*
Y873007D01*
X601358Y872323D01*
X599870Y871742D01*
X598460Y872326D01*
X596540D01*
X594766Y871591D01*
X593409Y870234D01*
X592674Y868460D01*
Y866540D01*
X593409Y864766D01*
X594766Y863409D01*
X596540Y862674D01*
X598460D01*
X601102Y861508D01*
X601272Y861341D01*
X601174Y859836D01*
X596104Y854766D01*
X595960Y854826D01*
X594040D01*
X592266Y854091D01*
X590909Y852734D01*
X590174Y850960D01*
Y849040D01*
X590909Y847266D01*
X592266Y845909D01*
X594040Y845174D01*
X595960D01*
X597734Y845909D01*
X599091Y847266D01*
X599826Y849040D01*
Y849163D01*
X599890Y849274D01*
X600134Y849407D01*
X600687Y849327D01*
X603061Y848106D01*
X603409Y847266D01*
X604766Y845909D01*
X606540Y845174D01*
X608460D01*
X610234Y845909D01*
X611591Y847266D01*
X612326Y849040D01*
Y849624D01*
X612634Y849820D01*
X613590Y849526D01*
X615376Y848551D01*
X615909Y847266D01*
X617266Y845909D01*
X619040Y845174D01*
X620960D01*
X622734Y845909D01*
X623432Y846607D01*
X625000Y847025D01*
X626568Y846607D01*
X627266Y845909D01*
X629040Y845174D01*
X630960D01*
X632734Y845909D01*
X634091Y847266D01*
X634826Y849040D01*
Y850960D01*
X634091Y852734D01*
X632734Y854091D01*
X632590Y854151D01*
Y856993D01*
X633642Y857677D01*
X635130Y858258D01*
X636540Y857674D01*
X638460D01*
X640234Y858409D01*
X641591Y859766D01*
X642326Y861540D01*
Y863460D01*
X641591Y865234D01*
X640234Y866591D01*
X640090Y866651D01*
Y1003317D01*
X642436Y1004289D01*
X650444Y996281D01*
Y981966D01*
X650641Y980975D01*
X651203Y980135D01*
X652421Y978916D01*
X651369Y976376D01*
X650550D01*
X648776Y975641D01*
X647419Y974284D01*
X646684Y972510D01*
Y970590D01*
X647419Y968816D01*
X648776Y967459D01*
X650550Y966724D01*
X652470D01*
X654244Y967459D01*
X655601Y968816D01*
X656336Y970590D01*
Y971409D01*
X658876Y972461D01*
X683152Y948185D01*
X683993Y947624D01*
X684984Y947427D01*
X686103D01*
X715234Y918296D01*
X715174Y918152D01*
Y916232D01*
X715177Y916226D01*
X713479Y913686D01*
X708596D01*
X707605Y913489D01*
X706765Y912927D01*
X615669Y821831D01*
X615107Y820991D01*
X614910Y820000D01*
Y814151D01*
X614766Y814091D01*
X613409Y812734D01*
X612674Y810960D01*
Y809040D01*
X613409Y807266D01*
X614766Y805909D01*
X616540Y805174D01*
X618460D01*
X620234Y805909D01*
X621591Y807266D01*
X622326Y809040D01*
Y810960D01*
X621591Y812734D01*
X620234Y814091D01*
X620090Y814151D01*
Y818927D01*
X649231Y848069D01*
X651867Y847112D01*
X651996Y845658D01*
X638249Y831911D01*
X637687Y831071D01*
X637490Y830080D01*
Y666553D01*
X582369Y611431D01*
X581807Y610591D01*
X581610Y609600D01*
Y427793D01*
X466287Y312470D01*
X402859D01*
X401868Y312273D01*
X401028Y311711D01*
X355484Y266167D01*
X354922Y265327D01*
X354725Y264336D01*
Y246628D01*
X316064Y207966D01*
X315920Y208026D01*
X314000D01*
X312226Y207291D01*
X310869Y205934D01*
X310134Y204160D01*
Y202240D01*
X310869Y200466D01*
X312226Y199109D01*
X314000Y198374D01*
X315920D01*
X317694Y199109D01*
X319051Y200466D01*
X319786Y202240D01*
Y204160D01*
X319726Y204304D01*
X359146Y243724D01*
X359707Y244564D01*
X359905Y245555D01*
Y263263D01*
X394230Y297589D01*
X397226Y296993D01*
X397229Y296986D01*
X398586Y295629D01*
X400360Y294894D01*
X402280D01*
X404054Y295629D01*
X405411Y296986D01*
X405471Y297130D01*
X472440D01*
X473431Y297327D01*
X474271Y297889D01*
X602927Y426545D01*
X603489Y427385D01*
X603686Y428376D01*
Y615263D01*
X813340Y824918D01*
X813902Y825758D01*
X814099Y826749D01*
Y964340D01*
X814243Y964399D01*
X815601Y965757D01*
X816335Y967531D01*
Y969451D01*
X816276Y969595D01*
X842492Y995811D01*
X843053Y996651D01*
X843250Y997642D01*
Y1024588D01*
X849551Y1030889D01*
X850113Y1031729D01*
X850310Y1032720D01*
Y1090975D01*
X852095Y1091901D01*
X852850Y1092101D01*
X854845Y1090949D01*
X857267Y1090300D01*
X859773D01*
X862195Y1090949D01*
X864365Y1092202D01*
X866138Y1093975D01*
X867391Y1096145D01*
X868040Y1098567D01*
Y1101073D01*
X867391Y1103495D01*
X866138Y1105665D01*
X864365Y1107438D01*
X862195Y1108691D01*
X860718Y1111717D01*
X860754Y1111835D01*
X862984D01*
X863975Y1112032D01*
X864816Y1112594D01*
X874951Y1122729D01*
X875513Y1123570D01*
X875710Y1124561D01*
Y1176679D01*
X875513Y1177670D01*
X874951Y1178511D01*
X864821Y1188641D01*
X863980Y1189203D01*
X863567Y1191875D01*
X865145Y1192786D01*
X867154Y1194795D01*
X868575Y1197255D01*
X869310Y1199999D01*
Y1200150D01*
D02*
G37*
G36*
X1571775Y1179944D02*
X1568170D01*
Y1168860D01*
X1579254D01*
Y1172465D01*
X1578999Y1174401D01*
X1578252Y1176205D01*
X1577063Y1177754D01*
X1575515Y1178942D01*
X1573711Y1179689D01*
X1571775Y1179944D01*
D02*
G37*
G36*
X1565630D02*
X1562025D01*
X1560089Y1179689D01*
X1558286Y1178942D01*
X1556737Y1177754D01*
X1555548Y1176205D01*
X1554801Y1174401D01*
X1554546Y1172465D01*
Y1168860D01*
X1565630D01*
Y1179944D01*
D02*
G37*
G36*
X1029953Y1185540D02*
X1027447D01*
X1025025Y1184891D01*
X1022855Y1183638D01*
X1021082Y1181865D01*
X1019829Y1179695D01*
X1019180Y1177273D01*
Y1174767D01*
X1019829Y1172345D01*
X1021082Y1170175D01*
X1022855Y1168402D01*
X1025025Y1167149D01*
X1027447Y1166500D01*
X1029953D01*
X1032375Y1167149D01*
X1034545Y1168402D01*
X1036318Y1170175D01*
X1037571Y1172345D01*
X1038220Y1174767D01*
Y1177273D01*
X1037571Y1179695D01*
X1036318Y1181865D01*
X1034545Y1183638D01*
X1032375Y1184891D01*
X1029953Y1185540D01*
D02*
G37*
G36*
X1004553D02*
X1002047D01*
X999625Y1184891D01*
X997455Y1183638D01*
X995682Y1181865D01*
X994429Y1179695D01*
X993780Y1177273D01*
Y1174767D01*
X994429Y1172345D01*
X995682Y1170175D01*
X997455Y1168402D01*
X999625Y1167149D01*
X1002047Y1166500D01*
X1004553D01*
X1006975Y1167149D01*
X1009145Y1168402D01*
X1010918Y1170175D01*
X1012171Y1172345D01*
X1012820Y1174767D01*
Y1177273D01*
X1012171Y1179695D01*
X1010918Y1181865D01*
X1009145Y1183638D01*
X1006975Y1184891D01*
X1004553Y1185540D01*
D02*
G37*
G36*
X394953Y1183000D02*
X392447D01*
X390025Y1182351D01*
X387855Y1181098D01*
X386082Y1179325D01*
X384829Y1177155D01*
X384180Y1174733D01*
Y1172227D01*
X384829Y1169805D01*
X386082Y1167635D01*
X387855Y1165862D01*
X390025Y1164609D01*
X392447Y1163960D01*
X394953D01*
X397375Y1164609D01*
X399545Y1165862D01*
X401318Y1167635D01*
X402571Y1169805D01*
X403220Y1172227D01*
Y1174733D01*
X402571Y1177155D01*
X401318Y1179325D01*
X399545Y1181098D01*
X397375Y1182351D01*
X394953Y1183000D01*
D02*
G37*
G36*
X369553D02*
X367047D01*
X364625Y1182351D01*
X362455Y1181098D01*
X360682Y1179325D01*
X359429Y1177155D01*
X358780Y1174733D01*
Y1172227D01*
X359429Y1169805D01*
X360682Y1167635D01*
X362455Y1165862D01*
X364625Y1164609D01*
X367047Y1163960D01*
X369553D01*
X371975Y1164609D01*
X374145Y1165862D01*
X375918Y1167635D01*
X377171Y1169805D01*
X377820Y1172227D01*
Y1174733D01*
X377171Y1177155D01*
X375918Y1179325D01*
X374145Y1181098D01*
X371975Y1182351D01*
X369553Y1183000D01*
D02*
G37*
G36*
X1804851Y1179420D02*
X1801949D01*
X1799146Y1178669D01*
X1796634Y1177218D01*
X1794582Y1175166D01*
X1793131Y1172654D01*
X1792380Y1169851D01*
Y1166949D01*
X1793131Y1164146D01*
X1794582Y1161634D01*
X1796634Y1159582D01*
X1799146Y1158131D01*
X1801949Y1157380D01*
X1804851D01*
X1807654Y1158131D01*
X1810166Y1159582D01*
X1812218Y1161634D01*
X1813669Y1164146D01*
X1814420Y1166949D01*
Y1169851D01*
X1813669Y1172654D01*
X1812218Y1175166D01*
X1810166Y1177218D01*
X1807654Y1178669D01*
X1804851Y1179420D01*
D02*
G37*
G36*
X1779451D02*
X1776549D01*
X1773746Y1178669D01*
X1771234Y1177218D01*
X1769182Y1175166D01*
X1767731Y1172654D01*
X1766980Y1169851D01*
Y1166949D01*
X1767731Y1164146D01*
X1769182Y1161634D01*
X1771234Y1159582D01*
X1773746Y1158131D01*
X1776549Y1157380D01*
X1779451D01*
X1782254Y1158131D01*
X1784766Y1159582D01*
X1786818Y1161634D01*
X1788269Y1164146D01*
X1789020Y1166949D01*
Y1169851D01*
X1788269Y1172654D01*
X1786818Y1175166D01*
X1784766Y1177218D01*
X1782254Y1178669D01*
X1779451Y1179420D01*
D02*
G37*
G36*
X1754051D02*
X1751149D01*
X1748346Y1178669D01*
X1745834Y1177218D01*
X1743782Y1175166D01*
X1742331Y1172654D01*
X1741580Y1169851D01*
Y1166949D01*
X1742331Y1164146D01*
X1743782Y1161634D01*
X1745834Y1159582D01*
X1748346Y1158131D01*
X1751149Y1157380D01*
X1754051D01*
X1756854Y1158131D01*
X1759366Y1159582D01*
X1761418Y1161634D01*
X1762869Y1164146D01*
X1763620Y1166949D01*
Y1169851D01*
X1762869Y1172654D01*
X1761418Y1175166D01*
X1759366Y1177218D01*
X1756854Y1178669D01*
X1754051Y1179420D01*
D02*
G37*
G36*
X1682931D02*
X1680029D01*
X1677226Y1178669D01*
X1674714Y1177218D01*
X1672662Y1175166D01*
X1671211Y1172654D01*
X1670460Y1169851D01*
Y1166949D01*
X1671211Y1164146D01*
X1672662Y1161634D01*
X1674714Y1159582D01*
X1677226Y1158131D01*
X1680029Y1157380D01*
X1682931D01*
X1685734Y1158131D01*
X1688246Y1159582D01*
X1690298Y1161634D01*
X1691749Y1164146D01*
X1692500Y1166949D01*
Y1169851D01*
X1691749Y1172654D01*
X1690298Y1175166D01*
X1688246Y1177218D01*
X1685734Y1178669D01*
X1682931Y1179420D01*
D02*
G37*
G36*
X1657531D02*
X1654629D01*
X1651826Y1178669D01*
X1649314Y1177218D01*
X1647262Y1175166D01*
X1645811Y1172654D01*
X1645060Y1169851D01*
Y1166949D01*
X1645811Y1164146D01*
X1647262Y1161634D01*
X1649314Y1159582D01*
X1651826Y1158131D01*
X1654629Y1157380D01*
X1657531D01*
X1660334Y1158131D01*
X1662846Y1159582D01*
X1664898Y1161634D01*
X1666349Y1164146D01*
X1667100Y1166949D01*
Y1169851D01*
X1666349Y1172654D01*
X1664898Y1175166D01*
X1662846Y1177218D01*
X1660334Y1178669D01*
X1657531Y1179420D01*
D02*
G37*
G36*
X1632131D02*
X1629229D01*
X1626426Y1178669D01*
X1623914Y1177218D01*
X1621862Y1175166D01*
X1620411Y1172654D01*
X1619660Y1169851D01*
Y1166949D01*
X1620411Y1164146D01*
X1621862Y1161634D01*
X1623914Y1159582D01*
X1626426Y1158131D01*
X1629229Y1157380D01*
X1632131D01*
X1634934Y1158131D01*
X1637446Y1159582D01*
X1639498Y1161634D01*
X1640949Y1164146D01*
X1641700Y1166949D01*
Y1169851D01*
X1640949Y1172654D01*
X1639498Y1175166D01*
X1637446Y1177218D01*
X1634934Y1178669D01*
X1632131Y1179420D01*
D02*
G37*
G36*
X1833675Y1179540D02*
X1823925D01*
X1821527Y1179063D01*
X1819495Y1177705D01*
X1818136Y1175673D01*
X1817660Y1173275D01*
Y1163525D01*
X1818136Y1161127D01*
X1819495Y1159095D01*
X1821527Y1157737D01*
X1823925Y1157260D01*
X1833675D01*
X1836073Y1157737D01*
X1838105Y1159095D01*
X1839464Y1161127D01*
X1839940Y1163525D01*
Y1173275D01*
X1839464Y1175673D01*
X1838105Y1177705D01*
X1836073Y1179063D01*
X1833675Y1179540D01*
D02*
G37*
G36*
X1711755D02*
X1702005D01*
X1699607Y1179063D01*
X1697575Y1177705D01*
X1696216Y1175673D01*
X1695740Y1173275D01*
Y1163525D01*
X1696216Y1161127D01*
X1697575Y1159095D01*
X1699607Y1157737D01*
X1702005Y1157260D01*
X1711755D01*
X1714153Y1157737D01*
X1716185Y1159095D01*
X1717543Y1161127D01*
X1718020Y1163525D01*
Y1173275D01*
X1717543Y1175673D01*
X1716185Y1177705D01*
X1714153Y1179063D01*
X1711755Y1179540D01*
D02*
G37*
G36*
X1533351Y1178610D02*
X1530449D01*
X1527646Y1177859D01*
X1525134Y1176408D01*
X1523082Y1174357D01*
X1521631Y1171844D01*
X1520880Y1169041D01*
Y1166139D01*
X1521631Y1163337D01*
X1523082Y1160824D01*
X1525134Y1158772D01*
X1527646Y1157321D01*
X1530449Y1156570D01*
X1533351D01*
X1536154Y1157321D01*
X1538666Y1158772D01*
X1540718Y1160824D01*
X1542169Y1163337D01*
X1542920Y1166139D01*
Y1169041D01*
X1542169Y1171844D01*
X1540718Y1174357D01*
X1538666Y1176408D01*
X1536154Y1177859D01*
X1533351Y1178610D01*
D02*
G37*
G36*
X1434996D02*
X1432094D01*
X1429292Y1177859D01*
X1426779Y1176408D01*
X1424727Y1174357D01*
X1423276Y1171844D01*
X1422525Y1169041D01*
Y1166139D01*
X1423276Y1163337D01*
X1424727Y1160824D01*
X1426779Y1158772D01*
X1429292Y1157321D01*
X1432094Y1156570D01*
X1434996D01*
X1437799Y1157321D01*
X1440311Y1158772D01*
X1442363Y1160824D01*
X1443814Y1163337D01*
X1444565Y1166139D01*
Y1169041D01*
X1443814Y1171844D01*
X1442363Y1174357D01*
X1440311Y1176408D01*
X1437799Y1177859D01*
X1434996Y1178610D01*
D02*
G37*
G36*
X1336641D02*
X1333739D01*
X1330937Y1177859D01*
X1328424Y1176408D01*
X1326372Y1174357D01*
X1324921Y1171844D01*
X1324170Y1169041D01*
Y1166139D01*
X1324921Y1163337D01*
X1326372Y1160824D01*
X1328424Y1158772D01*
X1330937Y1157321D01*
X1333739Y1156570D01*
X1336641D01*
X1339444Y1157321D01*
X1341956Y1158772D01*
X1344008Y1160824D01*
X1345459Y1163337D01*
X1346210Y1166139D01*
Y1169041D01*
X1345459Y1171844D01*
X1344008Y1174357D01*
X1341956Y1176408D01*
X1339444Y1177859D01*
X1336641Y1178610D01*
D02*
G37*
G36*
X1238286D02*
X1235384D01*
X1232582Y1177859D01*
X1230069Y1176408D01*
X1228017Y1174357D01*
X1226566Y1171844D01*
X1225815Y1169041D01*
Y1166139D01*
X1226566Y1163337D01*
X1228017Y1160824D01*
X1230069Y1158772D01*
X1232582Y1157321D01*
X1235384Y1156570D01*
X1238286D01*
X1241089Y1157321D01*
X1243602Y1158772D01*
X1245653Y1160824D01*
X1247104Y1163337D01*
X1247855Y1166139D01*
Y1169041D01*
X1247104Y1171844D01*
X1245653Y1174357D01*
X1243602Y1176408D01*
X1241089Y1177859D01*
X1238286Y1178610D01*
D02*
G37*
G36*
X1139931D02*
X1137029D01*
X1134226Y1177859D01*
X1131713Y1176408D01*
X1129662Y1174357D01*
X1128211Y1171844D01*
X1127460Y1169041D01*
Y1166139D01*
X1128211Y1163337D01*
X1129662Y1160824D01*
X1131713Y1158772D01*
X1134226Y1157321D01*
X1137029Y1156570D01*
X1139931D01*
X1142733Y1157321D01*
X1145246Y1158772D01*
X1147298Y1160824D01*
X1148749Y1163337D01*
X1149500Y1166139D01*
Y1169041D01*
X1148749Y1171844D01*
X1147298Y1174357D01*
X1145246Y1176408D01*
X1142733Y1177859D01*
X1139931Y1178610D01*
D02*
G37*
G36*
X1375065Y1178731D02*
X1365315D01*
X1362917Y1178254D01*
X1360885Y1176896D01*
X1359526Y1174863D01*
X1359049Y1172465D01*
Y1162715D01*
X1359526Y1160318D01*
X1360885Y1158285D01*
X1362917Y1156927D01*
X1365315Y1156450D01*
X1375065D01*
X1377462Y1156927D01*
X1379495Y1158285D01*
X1380853Y1160318D01*
X1381330Y1162715D01*
Y1172465D01*
X1380853Y1174863D01*
X1379495Y1176896D01*
X1377462Y1178254D01*
X1375065Y1178731D01*
D02*
G37*
G36*
X1276710D02*
X1266960D01*
X1264562Y1178254D01*
X1262530Y1176896D01*
X1261171Y1174863D01*
X1260695Y1172465D01*
Y1162715D01*
X1261171Y1160318D01*
X1262530Y1158285D01*
X1264562Y1156927D01*
X1266960Y1156450D01*
X1276710D01*
X1279108Y1156927D01*
X1281140Y1158285D01*
X1282498Y1160318D01*
X1282975Y1162715D01*
Y1172465D01*
X1282498Y1174863D01*
X1281140Y1176896D01*
X1279108Y1178254D01*
X1276710Y1178731D01*
D02*
G37*
G36*
X1178355D02*
X1168605D01*
X1166207Y1178254D01*
X1164175Y1176896D01*
X1162816Y1174863D01*
X1162340Y1172465D01*
Y1162715D01*
X1162816Y1160318D01*
X1164175Y1158285D01*
X1166207Y1156927D01*
X1168605Y1156450D01*
X1178355D01*
X1180753Y1156927D01*
X1182785Y1158285D01*
X1184144Y1160318D01*
X1184620Y1162715D01*
Y1172465D01*
X1184144Y1174863D01*
X1182785Y1176896D01*
X1180753Y1178254D01*
X1178355Y1178731D01*
D02*
G37*
G36*
X1579254Y1166320D02*
X1568170D01*
Y1155236D01*
X1571775D01*
X1573711Y1155491D01*
X1575515Y1156238D01*
X1577063Y1157427D01*
X1578252Y1158976D01*
X1578999Y1160779D01*
X1579254Y1162715D01*
Y1166320D01*
D02*
G37*
G36*
X1565630D02*
X1554546D01*
Y1162715D01*
X1554801Y1160779D01*
X1555548Y1158976D01*
X1556737Y1157427D01*
X1558286Y1156238D01*
X1560089Y1155491D01*
X1562025Y1155236D01*
X1565630D01*
Y1166320D01*
D02*
G37*
G36*
X1029953Y1160140D02*
X1027447D01*
X1025025Y1159491D01*
X1022855Y1158238D01*
X1021082Y1156465D01*
X1019829Y1154295D01*
X1019180Y1151873D01*
Y1149367D01*
X1019829Y1146945D01*
X1021082Y1144775D01*
X1022855Y1143002D01*
X1025025Y1141749D01*
X1027447Y1141100D01*
X1029953D01*
X1032375Y1141749D01*
X1034545Y1143002D01*
X1036318Y1144775D01*
X1037571Y1146945D01*
X1038220Y1149367D01*
Y1151873D01*
X1037571Y1154295D01*
X1036318Y1156465D01*
X1034545Y1158238D01*
X1032375Y1159491D01*
X1029953Y1160140D01*
D02*
G37*
G36*
X1004553D02*
X1002047D01*
X999625Y1159491D01*
X997455Y1158238D01*
X995682Y1156465D01*
X994429Y1154295D01*
X993780Y1151873D01*
Y1149367D01*
X994429Y1146945D01*
X995682Y1144775D01*
X997455Y1143002D01*
X999625Y1141749D01*
X1002047Y1141100D01*
X1004553D01*
X1006975Y1141749D01*
X1009145Y1143002D01*
X1010918Y1144775D01*
X1012171Y1146945D01*
X1012820Y1149367D01*
Y1151873D01*
X1012171Y1154295D01*
X1010918Y1156465D01*
X1009145Y1158238D01*
X1006975Y1159491D01*
X1004553Y1160140D01*
D02*
G37*
G36*
X394953Y1157600D02*
X392447D01*
X390025Y1156951D01*
X387855Y1155698D01*
X386082Y1153925D01*
X384829Y1151755D01*
X384180Y1149333D01*
Y1146827D01*
X384829Y1144405D01*
X386082Y1142235D01*
X387855Y1140462D01*
X390025Y1139209D01*
X392447Y1138560D01*
X394953D01*
X397375Y1139209D01*
X399545Y1140462D01*
X401318Y1142235D01*
X402571Y1144405D01*
X403220Y1146827D01*
Y1149333D01*
X402571Y1151755D01*
X401318Y1153925D01*
X399545Y1155698D01*
X397375Y1156951D01*
X394953Y1157600D01*
D02*
G37*
G36*
X369553D02*
X367047D01*
X364625Y1156951D01*
X362455Y1155698D01*
X360682Y1153925D01*
X359429Y1151755D01*
X358780Y1149333D01*
Y1146827D01*
X359429Y1144405D01*
X360682Y1142235D01*
X362455Y1140462D01*
X364625Y1139209D01*
X367047Y1138560D01*
X369553D01*
X371975Y1139209D01*
X374145Y1140462D01*
X375918Y1142235D01*
X377171Y1144405D01*
X377820Y1146827D01*
Y1149333D01*
X377171Y1151755D01*
X375918Y1153925D01*
X374145Y1155698D01*
X371975Y1156951D01*
X369553Y1157600D01*
D02*
G37*
G36*
X1029953Y1134740D02*
X1027447D01*
X1025025Y1134091D01*
X1022855Y1132838D01*
X1021082Y1131065D01*
X1019829Y1128895D01*
X1019180Y1126473D01*
Y1123967D01*
X1019829Y1121545D01*
X1021082Y1119375D01*
X1022855Y1117602D01*
X1025025Y1116349D01*
X1027447Y1115700D01*
X1029953D01*
X1032375Y1116349D01*
X1034545Y1117602D01*
X1036318Y1119375D01*
X1037571Y1121545D01*
X1038220Y1123967D01*
Y1126473D01*
X1037571Y1128895D01*
X1036318Y1131065D01*
X1034545Y1132838D01*
X1032375Y1134091D01*
X1029953Y1134740D01*
D02*
G37*
G36*
X1004553D02*
X1002047D01*
X999625Y1134091D01*
X997455Y1132838D01*
X995682Y1131065D01*
X994429Y1128895D01*
X993780Y1126473D01*
Y1123967D01*
X994429Y1121545D01*
X995682Y1119375D01*
X997455Y1117602D01*
X999625Y1116349D01*
X1002047Y1115700D01*
X1004553D01*
X1006975Y1116349D01*
X1009145Y1117602D01*
X1010918Y1119375D01*
X1012171Y1121545D01*
X1012820Y1123967D01*
Y1126473D01*
X1012171Y1128895D01*
X1010918Y1131065D01*
X1009145Y1132838D01*
X1006975Y1134091D01*
X1004553Y1134740D01*
D02*
G37*
G36*
X394953Y1132200D02*
X392447D01*
X390025Y1131551D01*
X387855Y1130298D01*
X386082Y1128525D01*
X384829Y1126355D01*
X384180Y1123933D01*
Y1121427D01*
X384829Y1119005D01*
X386082Y1116835D01*
X387855Y1115062D01*
X390025Y1113809D01*
X392447Y1113160D01*
X394953D01*
X397375Y1113809D01*
X399545Y1115062D01*
X401318Y1116835D01*
X402571Y1119005D01*
X403220Y1121427D01*
Y1123933D01*
X402571Y1126355D01*
X401318Y1128525D01*
X399545Y1130298D01*
X397375Y1131551D01*
X394953Y1132200D01*
D02*
G37*
G36*
X369553D02*
X367047D01*
X364625Y1131551D01*
X362455Y1130298D01*
X360682Y1128525D01*
X359429Y1126355D01*
X358780Y1123933D01*
Y1121427D01*
X359429Y1119005D01*
X360682Y1116835D01*
X362455Y1115062D01*
X364625Y1113809D01*
X367047Y1113160D01*
X369553D01*
X371975Y1113809D01*
X374145Y1115062D01*
X375918Y1116835D01*
X377171Y1119005D01*
X377820Y1121427D01*
Y1123933D01*
X377171Y1126355D01*
X375918Y1128525D01*
X374145Y1130298D01*
X371975Y1131551D01*
X369553Y1132200D01*
D02*
G37*
G36*
X1030120Y1110610D02*
X1029970D01*
Y1101090D01*
X1039490D01*
Y1101240D01*
X1038755Y1103985D01*
X1037334Y1106445D01*
X1035325Y1108454D01*
X1032865Y1109875D01*
X1030120Y1110610D01*
D02*
G37*
G36*
X1004721D02*
X1004570D01*
Y1101090D01*
X1014090D01*
Y1101240D01*
X1013355Y1103985D01*
X1011934Y1106445D01*
X1009925Y1108454D01*
X1007465Y1109875D01*
X1004721Y1110610D01*
D02*
G37*
G36*
X1027430D02*
X1027280D01*
X1024535Y1109875D01*
X1022075Y1108454D01*
X1020066Y1106445D01*
X1018645Y1103985D01*
X1017910Y1101240D01*
Y1101090D01*
X1027430D01*
Y1110610D01*
D02*
G37*
G36*
X1002030D02*
X1001880D01*
X999135Y1109875D01*
X996675Y1108454D01*
X994666Y1106445D01*
X993245Y1103985D01*
X992510Y1101240D01*
Y1101090D01*
X1002030D01*
Y1110610D01*
D02*
G37*
G36*
X1039490Y1098550D02*
X1029970D01*
Y1089030D01*
X1030120D01*
X1032865Y1089765D01*
X1035325Y1091186D01*
X1037334Y1093195D01*
X1038755Y1095655D01*
X1039490Y1098400D01*
Y1098550D01*
D02*
G37*
G36*
X1027430D02*
X1017910D01*
Y1098400D01*
X1018645Y1095655D01*
X1020066Y1093195D01*
X1022075Y1091186D01*
X1024535Y1089765D01*
X1027280Y1089030D01*
X1027430D01*
Y1098550D01*
D02*
G37*
G36*
X1014090D02*
X1004570D01*
Y1089030D01*
X1004721D01*
X1007465Y1089765D01*
X1009925Y1091186D01*
X1011934Y1093195D01*
X1013355Y1095655D01*
X1014090Y1098400D01*
Y1098550D01*
D02*
G37*
G36*
X1002030D02*
X992510D01*
Y1098400D01*
X993245Y1095655D01*
X994666Y1093195D01*
X996675Y1091186D01*
X999135Y1089765D01*
X1001880Y1089030D01*
X1002030D01*
Y1098550D01*
D02*
G37*
G36*
X394953Y1106800D02*
X392447D01*
X390025Y1106151D01*
X387855Y1104898D01*
X386082Y1103125D01*
X384829Y1100955D01*
X384180Y1098533D01*
Y1096027D01*
X384829Y1093605D01*
X386082Y1091435D01*
X387855Y1089662D01*
X390025Y1088409D01*
X392447Y1087760D01*
X394953D01*
X397375Y1088409D01*
X399545Y1089662D01*
X401318Y1091435D01*
X402571Y1093605D01*
X403220Y1096027D01*
Y1098533D01*
X402571Y1100955D01*
X401318Y1103125D01*
X399545Y1104898D01*
X397375Y1106151D01*
X394953Y1106800D01*
D02*
G37*
G36*
X369553D02*
X367047D01*
X364625Y1106151D01*
X362455Y1104898D01*
X360682Y1103125D01*
X359429Y1100955D01*
X358780Y1098533D01*
Y1096027D01*
X359429Y1093605D01*
X360682Y1091435D01*
X362455Y1089662D01*
X364625Y1088409D01*
X367047Y1087760D01*
X369553D01*
X371975Y1088409D01*
X374145Y1089662D01*
X375918Y1091435D01*
X377171Y1093605D01*
X377820Y1096027D01*
Y1098533D01*
X377171Y1100955D01*
X375918Y1103125D01*
X374145Y1104898D01*
X371975Y1106151D01*
X369553Y1106800D01*
D02*
G37*
G36*
X943460Y1067122D02*
X941540D01*
X939766Y1066387D01*
X938409Y1065030D01*
X937674Y1063256D01*
Y1061336D01*
X938409Y1059562D01*
X939766Y1058205D01*
X941540Y1057470D01*
X943460D01*
X945234Y1058205D01*
X946591Y1059562D01*
X947326Y1061336D01*
Y1063256D01*
X946591Y1065030D01*
X945234Y1066387D01*
X943460Y1067122D01*
D02*
G37*
G36*
X689081Y1050721D02*
X687161D01*
X685387Y1049987D01*
X684029Y1048629D01*
X683295Y1046855D01*
Y1044936D01*
X684029Y1043162D01*
X685387Y1041804D01*
X687161Y1041069D01*
X689081D01*
X690854Y1041804D01*
X692212Y1043162D01*
X692947Y1044936D01*
Y1046855D01*
X692212Y1048629D01*
X690854Y1049987D01*
X689081Y1050721D01*
D02*
G37*
G36*
X731210Y1047496D02*
X729290D01*
X727516Y1046761D01*
X726159Y1045404D01*
X725424Y1043630D01*
Y1041710D01*
X726159Y1039936D01*
X727516Y1038579D01*
X729290Y1037844D01*
X731210D01*
X732984Y1038579D01*
X734341Y1039936D01*
X735076Y1041710D01*
Y1043630D01*
X734341Y1045404D01*
X732984Y1046761D01*
X731210Y1047496D01*
D02*
G37*
G36*
X748990Y1044956D02*
X747070D01*
X745296Y1044221D01*
X743939Y1042864D01*
X743204Y1041090D01*
Y1039170D01*
X743939Y1037396D01*
X745296Y1036039D01*
X747070Y1035304D01*
X748990D01*
X750764Y1036039D01*
X752121Y1037396D01*
X752856Y1039170D01*
Y1041090D01*
X752121Y1042864D01*
X750764Y1044221D01*
X748990Y1044956D01*
D02*
G37*
G36*
X1765960Y1037326D02*
X1764040D01*
X1762266Y1036591D01*
X1760909Y1035234D01*
X1760174Y1033460D01*
Y1031540D01*
X1760909Y1029766D01*
X1762266Y1028409D01*
X1764040Y1027674D01*
X1765960D01*
X1767734Y1028409D01*
X1769091Y1029766D01*
X1769826Y1031540D01*
Y1033460D01*
X1769091Y1035234D01*
X1767734Y1036591D01*
X1765960Y1037326D01*
D02*
G37*
G36*
X1690960Y1032326D02*
X1689040D01*
X1687266Y1031591D01*
X1685909Y1030234D01*
X1685174Y1028460D01*
Y1026540D01*
X1685909Y1024766D01*
X1687266Y1023409D01*
X1689040Y1022674D01*
X1690960D01*
X1692734Y1023409D01*
X1694091Y1024766D01*
X1694826Y1026540D01*
Y1028460D01*
X1694091Y1030234D01*
X1692734Y1031591D01*
X1690960Y1032326D01*
D02*
G37*
G36*
X1630960D02*
X1629040D01*
X1627266Y1031591D01*
X1625909Y1030234D01*
X1625174Y1028460D01*
Y1026540D01*
X1625909Y1024766D01*
X1627266Y1023409D01*
X1629040Y1022674D01*
X1630960D01*
X1632734Y1023409D01*
X1634091Y1024766D01*
X1634826Y1026540D01*
Y1028460D01*
X1634091Y1030234D01*
X1632734Y1031591D01*
X1630960Y1032326D01*
D02*
G37*
G36*
X1825960Y1027326D02*
X1824040D01*
X1822266Y1026591D01*
X1820909Y1025234D01*
X1820174Y1023460D01*
Y1021540D01*
X1820909Y1019766D01*
X1822266Y1018409D01*
X1824040Y1017674D01*
X1825960D01*
X1827734Y1018409D01*
X1829091Y1019766D01*
X1829826Y1021540D01*
Y1023460D01*
X1829091Y1025234D01*
X1827734Y1026591D01*
X1825960Y1027326D01*
D02*
G37*
G36*
X513770Y1013572D02*
Y1008770D01*
X518572D01*
X517668Y1010953D01*
X515953Y1012668D01*
X513770Y1013572D01*
D02*
G37*
G36*
X511230D02*
X509047Y1012668D01*
X507332Y1010953D01*
X506428Y1008770D01*
X511230D01*
Y1013572D01*
D02*
G37*
G36*
X538460Y1017326D02*
X536540D01*
X534766Y1016591D01*
X533409Y1015234D01*
X532674Y1013460D01*
Y1011540D01*
X533409Y1009766D01*
X534766Y1008409D01*
X536540Y1007674D01*
X538460D01*
X540234Y1008409D01*
X541591Y1009766D01*
X542326Y1011540D01*
Y1013460D01*
X541591Y1015234D01*
X540234Y1016591D01*
X538460Y1017326D01*
D02*
G37*
G36*
X518572Y1006230D02*
X513770D01*
Y1001428D01*
X515953Y1002332D01*
X517668Y1004047D01*
X518572Y1006230D01*
D02*
G37*
G36*
X511230D02*
X506428D01*
X507332Y1004047D01*
X509047Y1002332D01*
X511230Y1001428D01*
Y1006230D01*
D02*
G37*
G36*
X1012380Y1010133D02*
X1004380D01*
X1002324Y1009724D01*
X1000581Y1008560D01*
X999416Y1006816D01*
X999007Y1004760D01*
Y996760D01*
X999416Y994704D01*
X1000581Y992961D01*
X1002324Y991796D01*
X1004380Y991387D01*
X1012380D01*
X1014436Y991796D01*
X1016180Y992961D01*
X1017344Y994704D01*
X1017753Y996760D01*
Y1004760D01*
X1017344Y1006816D01*
X1016180Y1008560D01*
X1014436Y1009724D01*
X1012380Y1010133D01*
D02*
G37*
G36*
X1047440Y1000506D02*
X1045520D01*
X1043746Y999771D01*
X1042389Y998414D01*
X1041654Y996640D01*
Y994720D01*
X1042389Y992946D01*
X1043746Y991589D01*
X1045520Y990854D01*
X1047440D01*
X1049214Y991589D01*
X1050571Y992946D01*
X1051306Y994720D01*
Y996640D01*
X1050571Y998414D01*
X1049214Y999771D01*
X1047440Y1000506D01*
D02*
G37*
G36*
X1073150Y991592D02*
Y986790D01*
X1077952D01*
X1077048Y988973D01*
X1075333Y990688D01*
X1073150Y991592D01*
D02*
G37*
G36*
X1070610D02*
X1068427Y990688D01*
X1066712Y988973D01*
X1065808Y986790D01*
X1070610D01*
Y991592D01*
D02*
G37*
G36*
X683770Y991072D02*
Y986270D01*
X688572D01*
X687668Y988453D01*
X685953Y990168D01*
X683770Y991072D01*
D02*
G37*
G36*
X681230D02*
X679047Y990168D01*
X677332Y988453D01*
X676428Y986270D01*
X681230D01*
Y991072D01*
D02*
G37*
G36*
X1504850Y1003300D02*
X1502510D01*
X1500249Y1002694D01*
X1498221Y1001524D01*
X1496566Y999869D01*
X1495396Y997841D01*
X1494790Y995580D01*
Y993240D01*
X1495396Y990979D01*
X1496566Y988951D01*
X1498221Y987296D01*
X1500249Y986126D01*
X1502510Y985520D01*
X1504850D01*
X1507111Y986126D01*
X1509139Y987296D01*
X1510794Y988951D01*
X1511964Y990979D01*
X1512570Y993240D01*
Y995580D01*
X1511964Y997841D01*
X1510794Y999869D01*
X1509139Y1001524D01*
X1507111Y1002694D01*
X1504850Y1003300D01*
D02*
G37*
G36*
X705960Y994826D02*
X704040D01*
X702266Y994091D01*
X700909Y992734D01*
X700174Y990960D01*
Y989040D01*
X700909Y987266D01*
X702266Y985909D01*
X704040Y985174D01*
X705960D01*
X707734Y985909D01*
X709091Y987266D01*
X709826Y989040D01*
Y990960D01*
X709091Y992734D01*
X707734Y994091D01*
X705960Y994826D01*
D02*
G37*
G36*
X1070610Y984250D02*
X1065808D01*
X1066712Y982067D01*
X1068427Y980352D01*
X1070610Y979448D01*
Y984250D01*
D02*
G37*
G36*
X688572Y983730D02*
X683770D01*
Y978928D01*
X685953Y979832D01*
X687668Y981547D01*
X688572Y983730D01*
D02*
G37*
G36*
X681230D02*
X676428D01*
X677332Y981547D01*
X679047Y979832D01*
X681230Y978928D01*
Y983730D01*
D02*
G37*
G36*
X1047440Y980186D02*
X1045520D01*
X1043746Y979451D01*
X1042389Y978094D01*
X1041654Y976320D01*
Y974400D01*
X1042389Y972626D01*
X1043746Y971269D01*
X1045520Y970534D01*
X1047440D01*
X1049214Y971269D01*
X1050571Y972626D01*
X1051306Y974400D01*
Y976320D01*
X1050571Y978094D01*
X1049214Y979451D01*
X1047440Y980186D01*
D02*
G37*
G36*
X1504850Y977900D02*
X1502510D01*
X1500249Y977294D01*
X1498221Y976124D01*
X1496566Y974469D01*
X1495396Y972441D01*
X1494790Y970180D01*
Y967840D01*
X1495396Y965579D01*
X1496566Y963551D01*
X1498221Y961896D01*
X1500249Y960726D01*
X1502510Y960120D01*
X1504850D01*
X1507111Y960726D01*
X1509139Y961896D01*
X1510794Y963551D01*
X1511964Y965579D01*
X1512570Y967840D01*
Y970180D01*
X1511964Y972441D01*
X1510794Y974469D01*
X1509139Y976124D01*
X1507111Y977294D01*
X1504850Y977900D01*
D02*
G37*
G36*
X1012380Y974573D02*
X1004380D01*
X1002324Y974164D01*
X1000581Y973000D01*
X999416Y971256D01*
X999007Y969200D01*
Y961200D01*
X999416Y959144D01*
X1000581Y957401D01*
X1002324Y956236D01*
X1004380Y955827D01*
X1012380D01*
X1014436Y956236D01*
X1016180Y957401D01*
X1017344Y959144D01*
X1017753Y961200D01*
Y969200D01*
X1017344Y971256D01*
X1016180Y973000D01*
X1014436Y974164D01*
X1012380Y974573D01*
D02*
G37*
G36*
X1196299Y1002030D02*
X1191301D01*
X1186365Y1001248D01*
X1181612Y999704D01*
X1177159Y997435D01*
X1173116Y994498D01*
X1169583Y990964D01*
X1166645Y986921D01*
X1164376Y982468D01*
X1162832Y977715D01*
X1162050Y972779D01*
Y967781D01*
X1162832Y962845D01*
X1164376Y958092D01*
X1166645Y953639D01*
X1169583Y949596D01*
X1173116Y946062D01*
X1177159Y943125D01*
X1181612Y940856D01*
X1186365Y939312D01*
X1191301Y938530D01*
X1196299D01*
X1201235Y939312D01*
X1205988Y940856D01*
X1210441Y943125D01*
X1214484Y946062D01*
X1218018Y949596D01*
X1220955Y953639D01*
X1223224Y958092D01*
X1224768Y962845D01*
X1225550Y967781D01*
Y972779D01*
X1224768Y977715D01*
X1223224Y982468D01*
X1220955Y986921D01*
X1218018Y990964D01*
X1214484Y994498D01*
X1210441Y997435D01*
X1205988Y999704D01*
X1201235Y1001248D01*
X1196299Y1002030D01*
D02*
G37*
G36*
X1504850Y952500D02*
X1502510D01*
X1500249Y951894D01*
X1498221Y950724D01*
X1496566Y949069D01*
X1495396Y947041D01*
X1494790Y944780D01*
Y942440D01*
X1495396Y940179D01*
X1496566Y938151D01*
X1498221Y936496D01*
X1500249Y935326D01*
X1502510Y934720D01*
X1504850D01*
X1507111Y935326D01*
X1509139Y936496D01*
X1510794Y938151D01*
X1511964Y940179D01*
X1512570Y942440D01*
Y944780D01*
X1511964Y947041D01*
X1510794Y949069D01*
X1509139Y950724D01*
X1507111Y951894D01*
X1504850Y952500D01*
D02*
G37*
G36*
X984200Y1010030D02*
X981760D01*
X979402Y1009398D01*
X977288Y1008178D01*
X975562Y1006452D01*
X974342Y1004338D01*
X973710Y1001981D01*
Y999540D01*
X974342Y997182D01*
X975562Y995068D01*
X977288Y993342D01*
X979402Y992122D01*
X980390Y991857D01*
Y985319D01*
X970609Y975537D01*
X970047Y974697D01*
X969850Y973706D01*
Y955086D01*
X970047Y954095D01*
X970609Y953255D01*
X982413Y941450D01*
X982000Y939845D01*
X981445Y938826D01*
X979402Y938278D01*
X977288Y937058D01*
X975562Y935332D01*
X974342Y933218D01*
X973710Y930861D01*
Y928420D01*
X974342Y926062D01*
X975562Y923948D01*
X977288Y922222D01*
X979402Y921002D01*
X981760Y920370D01*
X984200D01*
X986558Y921002D01*
X988390Y922060D01*
X989503Y921732D01*
X990930Y920889D01*
Y829616D01*
X991127Y828625D01*
X991689Y827785D01*
X1004173Y815301D01*
X1002734Y813148D01*
X1001908Y813490D01*
X999612D01*
X997492Y812612D01*
X995868Y810988D01*
X994990Y808868D01*
Y806572D01*
X995868Y804452D01*
X997492Y802828D01*
X999612Y801950D01*
X1001908D01*
X1004028Y802828D01*
X1005652Y804452D01*
X1006530Y806572D01*
Y808868D01*
X1006188Y809694D01*
X1008341Y811133D01*
X1074545Y744929D01*
X1075385Y744367D01*
X1076376Y744170D01*
X1377609D01*
X1377669Y744026D01*
X1379026Y742669D01*
X1380800Y741934D01*
X1382720D01*
X1384494Y742669D01*
X1385851Y744026D01*
X1386586Y745800D01*
Y747720D01*
X1385851Y749494D01*
X1385040Y750305D01*
X1384708Y751840D01*
X1385040Y753374D01*
X1385851Y754186D01*
X1386586Y755960D01*
Y757880D01*
X1385851Y759654D01*
X1384494Y761011D01*
X1382720Y761746D01*
X1380800D01*
X1379026Y761011D01*
X1377669Y759654D01*
X1377609Y759510D01*
X1129201D01*
X1127503Y762050D01*
X1127506Y762056D01*
Y763976D01*
X1126771Y765750D01*
X1125414Y767107D01*
X1123640Y767842D01*
X1121720D01*
X1119946Y767107D01*
X1118589Y765750D01*
X1117854Y763976D01*
Y762056D01*
X1117857Y762050D01*
X1116159Y759510D01*
X1072953D01*
X1032859Y799603D01*
X1033461Y802593D01*
X1034029Y802828D01*
X1035652Y804452D01*
X1036530Y806572D01*
Y808868D01*
X1035652Y810988D01*
X1034029Y812612D01*
X1031908Y813490D01*
X1029613D01*
X1027492Y812612D01*
X1025869Y810988D01*
X1025634Y810421D01*
X1022644Y809819D01*
X1000430Y832033D01*
Y918887D01*
X1001038Y919461D01*
X1002970Y920547D01*
X1004380Y920267D01*
X1012380D01*
X1014436Y920676D01*
X1016180Y921841D01*
X1017344Y923584D01*
X1017753Y925640D01*
Y933640D01*
X1017344Y935696D01*
X1016180Y937440D01*
X1014436Y938604D01*
X1012380Y939013D01*
X1004380D01*
X1002324Y938604D01*
X1002239Y938548D01*
X999894Y938204D01*
X999161Y939019D01*
X985570Y952611D01*
Y956297D01*
X986558Y956562D01*
X988672Y957782D01*
X990398Y959508D01*
X991618Y961622D01*
X992250Y963980D01*
Y966421D01*
X991618Y968778D01*
X990398Y970892D01*
X988672Y972618D01*
X986558Y973838D01*
X984200Y974470D01*
X981760D01*
X979982Y973994D01*
X978503Y976106D01*
X984811Y982415D01*
X985373Y983255D01*
X985570Y984246D01*
Y991857D01*
X986558Y992122D01*
X988672Y993342D01*
X990398Y995068D01*
X991618Y997182D01*
X992250Y999540D01*
Y1001981D01*
X991618Y1004338D01*
X990398Y1006452D01*
X988672Y1008178D01*
X986558Y1009398D01*
X984200Y1010030D01*
D02*
G37*
G36*
X1067760Y939546D02*
X1065840D01*
X1064066Y938811D01*
X1062709Y937454D01*
X1061974Y935680D01*
Y933760D01*
X1062709Y931986D01*
X1063521Y931174D01*
X1063852Y929640D01*
X1063521Y928105D01*
X1062709Y927294D01*
X1061974Y925520D01*
Y923600D01*
X1062709Y921826D01*
X1064066Y920469D01*
X1065840Y919734D01*
X1067760D01*
X1069534Y920469D01*
X1070891Y921826D01*
X1071626Y923600D01*
Y925520D01*
X1070891Y927294D01*
X1070079Y928105D01*
X1069748Y929640D01*
X1070079Y931174D01*
X1070891Y931986D01*
X1071626Y933760D01*
Y935680D01*
X1070891Y937454D01*
X1069534Y938811D01*
X1067760Y939546D01*
D02*
G37*
G36*
X590960Y907326D02*
X589040D01*
X587266Y906591D01*
X585909Y905234D01*
X585174Y903460D01*
Y901540D01*
X585909Y899766D01*
X587266Y898409D01*
X589040Y897674D01*
X590960D01*
X592734Y898409D01*
X594091Y899766D01*
X594826Y901540D01*
Y903460D01*
X594091Y905234D01*
X592734Y906591D01*
X590960Y907326D01*
D02*
G37*
G36*
X366989Y951230D02*
X361991D01*
X357055Y950448D01*
X352302Y948904D01*
X347849Y946635D01*
X343806Y943698D01*
X340272Y940164D01*
X337335Y936121D01*
X335066Y931668D01*
X333522Y926915D01*
X332740Y921979D01*
Y916981D01*
X333522Y912045D01*
X335066Y907292D01*
X337335Y902839D01*
X340272Y898796D01*
X343806Y895263D01*
X347849Y892325D01*
X352302Y890056D01*
X357055Y888512D01*
X361991Y887730D01*
X366989D01*
X371925Y888512D01*
X376678Y890056D01*
X381131Y892325D01*
X385174Y895263D01*
X388708Y898796D01*
X391645Y902839D01*
X393914Y907292D01*
X395458Y912045D01*
X396240Y916981D01*
Y921979D01*
X395458Y926915D01*
X393914Y931668D01*
X391645Y936121D01*
X388708Y940164D01*
X385174Y943698D01*
X381131Y946635D01*
X376678Y948904D01*
X371925Y950448D01*
X366989Y951230D01*
D02*
G37*
G36*
X590960Y894826D02*
X589040D01*
X587266Y894091D01*
X585909Y892734D01*
X585174Y890960D01*
Y889040D01*
X585909Y887266D01*
X587266Y885909D01*
X589040Y885174D01*
X590960D01*
X592734Y885909D01*
X594091Y887266D01*
X594826Y889040D01*
Y890960D01*
X594091Y892734D01*
X592734Y894091D01*
X590960Y894826D01*
D02*
G37*
G36*
X1431690Y889400D02*
X1415650D01*
Y873360D01*
X1431690D01*
Y889400D01*
D02*
G37*
G36*
X1399326D02*
X1397214D01*
X1395174Y888854D01*
X1393346Y887798D01*
X1391852Y886304D01*
X1390797Y884476D01*
X1390250Y882436D01*
Y880324D01*
X1390797Y878284D01*
X1391852Y876456D01*
X1393346Y874962D01*
X1395174Y873906D01*
X1397214Y873360D01*
X1399326D01*
X1401366Y873906D01*
X1403194Y874962D01*
X1404688Y876456D01*
X1405744Y878284D01*
X1406290Y880324D01*
Y882436D01*
X1405744Y884476D01*
X1404688Y886304D01*
X1403194Y887798D01*
X1401366Y888854D01*
X1399326Y889400D01*
D02*
G37*
G36*
X1473420Y1178731D02*
X1463670D01*
X1461272Y1178254D01*
X1459240Y1176896D01*
X1457882Y1174863D01*
X1457405Y1172465D01*
Y1163775D01*
X1369207Y1075577D01*
X1368085Y1073897D01*
X1367690Y1071915D01*
Y887542D01*
X1366452Y886304D01*
X1365397Y884476D01*
X1364850Y882436D01*
Y880324D01*
X1365397Y878284D01*
X1366452Y876456D01*
X1367946Y874962D01*
X1369774Y873906D01*
X1371814Y873360D01*
X1373926D01*
X1375966Y873906D01*
X1377794Y874962D01*
X1379288Y876456D01*
X1380343Y878284D01*
X1380890Y880324D01*
Y882436D01*
X1380343Y884476D01*
X1379288Y886304D01*
X1378049Y887542D01*
Y1069770D01*
X1464730Y1156450D01*
X1473420D01*
X1475818Y1156927D01*
X1477850Y1158285D01*
X1479209Y1160318D01*
X1479686Y1162715D01*
Y1172465D01*
X1479209Y1174863D01*
X1477850Y1176896D01*
X1475818Y1178254D01*
X1473420Y1178731D01*
D02*
G37*
G36*
X590960Y882326D02*
X589040D01*
X587266Y881591D01*
X585909Y880234D01*
X585174Y878460D01*
Y876540D01*
X585909Y874766D01*
X587266Y873409D01*
X589040Y872674D01*
X590960D01*
X592734Y873409D01*
X594091Y874766D01*
X594826Y876540D01*
Y878460D01*
X594091Y880234D01*
X592734Y881591D01*
X590960Y882326D01*
D02*
G37*
G36*
X437840Y878586D02*
X435920D01*
X434146Y877851D01*
X432789Y876494D01*
X432054Y874720D01*
Y872800D01*
X432789Y871026D01*
X434146Y869669D01*
X435920Y868934D01*
X437840D01*
X439614Y869669D01*
X440971Y871026D01*
X441706Y872800D01*
Y874720D01*
X440971Y876494D01*
X439614Y877851D01*
X437840Y878586D01*
D02*
G37*
G36*
X448000Y868426D02*
X446080D01*
X444306Y867691D01*
X442949Y866334D01*
X442214Y864560D01*
Y862640D01*
X442949Y860866D01*
X444306Y859509D01*
X446080Y858774D01*
X448000D01*
X449774Y859509D01*
X451131Y860866D01*
X451866Y862640D01*
Y864560D01*
X451131Y866334D01*
X449774Y867691D01*
X448000Y868426D01*
D02*
G37*
G36*
X588460Y864826D02*
X586540D01*
X584766Y864091D01*
X583409Y862734D01*
X582674Y860960D01*
Y859040D01*
X583409Y857266D01*
X584766Y855909D01*
X586540Y855174D01*
X588460D01*
X590234Y855909D01*
X591591Y857266D01*
X592326Y859040D01*
Y860960D01*
X591591Y862734D01*
X590234Y864091D01*
X588460Y864826D01*
D02*
G37*
G36*
X1077952Y984250D02*
X1073150D01*
Y979448D01*
X1073956Y979782D01*
X1089610Y964127D01*
Y900233D01*
X1043476Y854098D01*
X1042670Y854432D01*
Y849630D01*
X1047472D01*
X1047138Y850436D01*
X1094031Y897329D01*
X1094593Y898169D01*
X1094790Y899160D01*
Y965200D01*
X1094593Y966191D01*
X1094031Y967031D01*
X1077618Y983444D01*
X1077952Y984250D01*
D02*
G37*
G36*
X1040130Y854432D02*
X1037947Y853528D01*
X1036232Y851813D01*
X1035328Y849630D01*
X1040130D01*
Y854432D01*
D02*
G37*
G36*
X1047472Y847090D02*
X1042670D01*
Y842288D01*
X1044853Y843192D01*
X1046568Y844907D01*
X1047472Y847090D01*
D02*
G37*
G36*
X1040130D02*
X1035328D01*
X1036232Y844907D01*
X1037947Y843192D01*
X1040130Y842288D01*
Y847090D01*
D02*
G37*
G36*
X1770380Y841732D02*
Y836930D01*
X1775182D01*
X1774278Y839113D01*
X1772563Y840828D01*
X1770380Y841732D01*
D02*
G37*
G36*
X1767840D02*
X1765657Y840828D01*
X1763942Y839113D01*
X1763038Y836930D01*
X1767840D01*
Y841732D01*
D02*
G37*
G36*
X1775182Y834390D02*
X1770380D01*
Y829588D01*
X1772563Y830492D01*
X1774278Y832207D01*
X1775182Y834390D01*
D02*
G37*
G36*
X1767840D02*
X1763038D01*
X1763942Y832207D01*
X1765657Y830492D01*
X1767840Y829588D01*
Y834390D01*
D02*
G37*
G36*
X495960Y834826D02*
X494040D01*
X492266Y834091D01*
X490909Y832734D01*
X490174Y830960D01*
Y829040D01*
X490909Y827266D01*
X492266Y825909D01*
X494040Y825174D01*
X495960D01*
X497733Y825909D01*
X499091Y827266D01*
X499826Y829040D01*
Y830960D01*
X499091Y832734D01*
X497733Y834091D01*
X495960Y834826D01*
D02*
G37*
G36*
X1844745Y826205D02*
X1835150D01*
Y816610D01*
X1844745D01*
Y826205D01*
D02*
G37*
G36*
X1832610D02*
X1823015D01*
Y816610D01*
X1832610D01*
Y826205D01*
D02*
G37*
G36*
X1809743Y824935D02*
X1807217D01*
X1804776Y824281D01*
X1802589Y823018D01*
X1800802Y821232D01*
X1799539Y819044D01*
X1798885Y816603D01*
Y814077D01*
X1799539Y811637D01*
X1800802Y809448D01*
X1802589Y807662D01*
X1804776Y806399D01*
X1807217Y805745D01*
X1809743D01*
X1812184Y806399D01*
X1814371Y807662D01*
X1816158Y809448D01*
X1817421Y811637D01*
X1818075Y814077D01*
Y816603D01*
X1817421Y819044D01*
X1816158Y821232D01*
X1814371Y823018D01*
X1812184Y824281D01*
X1809743Y824935D01*
D02*
G37*
G36*
X1662389Y868680D02*
X1657391D01*
X1652455Y867898D01*
X1647702Y866354D01*
X1643249Y864085D01*
X1639206Y861148D01*
X1635672Y857614D01*
X1632735Y853571D01*
X1630466Y849118D01*
X1628922Y844365D01*
X1628140Y839429D01*
Y834431D01*
X1628922Y829495D01*
X1630466Y824742D01*
X1632735Y820289D01*
X1635672Y816246D01*
X1639206Y812712D01*
X1643249Y809775D01*
X1647702Y807506D01*
X1652455Y805962D01*
X1657391Y805180D01*
X1662389D01*
X1667325Y805962D01*
X1672078Y807506D01*
X1676531Y809775D01*
X1680574Y812712D01*
X1684108Y816246D01*
X1687045Y820289D01*
X1689314Y824742D01*
X1690858Y829495D01*
X1691640Y834431D01*
Y839429D01*
X1690858Y844365D01*
X1689314Y849118D01*
X1687045Y853571D01*
X1684108Y857614D01*
X1680574Y861148D01*
X1676531Y864085D01*
X1672078Y866354D01*
X1667325Y867898D01*
X1662389Y868680D01*
D02*
G37*
G36*
X1844745Y814070D02*
X1835150D01*
Y804475D01*
X1844745D01*
Y814070D01*
D02*
G37*
G36*
X1832610D02*
X1823015D01*
Y804475D01*
X1832610D01*
Y814070D01*
D02*
G37*
G36*
X1179468Y810830D02*
X1177172D01*
X1175052Y809952D01*
X1173429Y808329D01*
X1172550Y806208D01*
Y803913D01*
X1173429Y801792D01*
X1175052Y800169D01*
X1177172Y799290D01*
X1179468D01*
X1181589Y800169D01*
X1183212Y801792D01*
X1184090Y803913D01*
Y806208D01*
X1183212Y808329D01*
X1181589Y809952D01*
X1179468Y810830D01*
D02*
G37*
G36*
X1149467D02*
X1147172D01*
X1145051Y809952D01*
X1143428Y808329D01*
X1142550Y806208D01*
Y803913D01*
X1143428Y801792D01*
X1145051Y800169D01*
X1147172Y799290D01*
X1149467D01*
X1151588Y800169D01*
X1153211Y801792D01*
X1154090Y803913D01*
Y806208D01*
X1153211Y808329D01*
X1151588Y809952D01*
X1149467Y810830D01*
D02*
G37*
G36*
X1474160Y792226D02*
X1472240D01*
X1470466Y791491D01*
X1469109Y790134D01*
X1468374Y788360D01*
Y786440D01*
X1469109Y784666D01*
X1470466Y783309D01*
X1472240Y782574D01*
X1474160D01*
X1475934Y783309D01*
X1477291Y784666D01*
X1478026Y786440D01*
Y788360D01*
X1477291Y790134D01*
X1475934Y791491D01*
X1474160Y792226D01*
D02*
G37*
G36*
X1835143Y799535D02*
X1832617D01*
X1830177Y798881D01*
X1827988Y797618D01*
X1826202Y795832D01*
X1824939Y793643D01*
X1824285Y791203D01*
Y788677D01*
X1824939Y786236D01*
X1826202Y784048D01*
X1827988Y782262D01*
X1830177Y780999D01*
X1832617Y780345D01*
X1835143D01*
X1837583Y780999D01*
X1839772Y782262D01*
X1841558Y784048D01*
X1842821Y786236D01*
X1843475Y788677D01*
Y791203D01*
X1842821Y793643D01*
X1841558Y795832D01*
X1839772Y797618D01*
X1837583Y798881D01*
X1835143Y799535D01*
D02*
G37*
G36*
X1809743D02*
X1807217D01*
X1804776Y798881D01*
X1802589Y797618D01*
X1800802Y795832D01*
X1799539Y793643D01*
X1798885Y791203D01*
Y788677D01*
X1799539Y786236D01*
X1800802Y784048D01*
X1802589Y782262D01*
X1804776Y780999D01*
X1807217Y780345D01*
X1809743D01*
X1812184Y780999D01*
X1814371Y782262D01*
X1816158Y784048D01*
X1817421Y786236D01*
X1818075Y788677D01*
Y791203D01*
X1817421Y793643D01*
X1816158Y795832D01*
X1814371Y797618D01*
X1812184Y798881D01*
X1809743Y799535D01*
D02*
G37*
G36*
X610960Y789826D02*
X609040D01*
X607266Y789091D01*
X605909Y787734D01*
X605174Y785960D01*
Y784040D01*
X605909Y782266D01*
X607266Y780909D01*
X609040Y780174D01*
X610960D01*
X612734Y780909D01*
X614091Y782266D01*
X614826Y784040D01*
Y785960D01*
X614091Y787734D01*
X612734Y789091D01*
X610960Y789826D01*
D02*
G37*
G36*
X1714190Y768096D02*
X1712270D01*
X1710496Y767361D01*
X1709139Y766004D01*
X1708404Y764230D01*
Y762310D01*
X1709139Y760536D01*
X1710496Y759179D01*
X1712270Y758444D01*
X1714190D01*
X1715964Y759179D01*
X1717321Y760536D01*
X1718056Y762310D01*
Y764230D01*
X1717321Y766004D01*
X1715964Y767361D01*
X1714190Y768096D01*
D02*
G37*
G36*
X1835143Y774135D02*
X1832617D01*
X1830177Y773481D01*
X1827988Y772218D01*
X1826202Y770432D01*
X1824939Y768243D01*
X1824285Y765803D01*
Y763277D01*
X1824939Y760836D01*
X1826202Y758649D01*
X1827988Y756862D01*
X1830177Y755599D01*
X1832617Y754945D01*
X1835143D01*
X1837583Y755599D01*
X1839772Y756862D01*
X1841558Y758649D01*
X1842821Y760836D01*
X1843475Y763277D01*
Y765803D01*
X1842821Y768243D01*
X1841558Y770432D01*
X1839772Y772218D01*
X1837583Y773481D01*
X1835143Y774135D01*
D02*
G37*
G36*
X1809743D02*
X1807217D01*
X1804776Y773481D01*
X1802589Y772218D01*
X1800802Y770432D01*
X1799539Y768243D01*
X1798885Y765803D01*
Y763277D01*
X1799539Y760836D01*
X1800802Y758649D01*
X1802589Y756862D01*
X1804776Y755599D01*
X1807217Y754945D01*
X1809743D01*
X1812184Y755599D01*
X1814371Y756862D01*
X1816158Y758649D01*
X1817421Y760836D01*
X1818075Y763277D01*
Y765803D01*
X1817421Y768243D01*
X1816158Y770432D01*
X1814371Y772218D01*
X1812184Y773481D01*
X1809743Y774135D01*
D02*
G37*
G36*
X626110Y753572D02*
Y748770D01*
X630912D01*
X630008Y750953D01*
X628293Y752668D01*
X626110Y753572D01*
D02*
G37*
G36*
X623570D02*
X621387Y752668D01*
X619672Y750953D01*
X618768Y748770D01*
X623570D01*
Y753572D01*
D02*
G37*
G36*
X630912Y746230D02*
X626110D01*
Y741428D01*
X628293Y742332D01*
X630008Y744047D01*
X630912Y746230D01*
D02*
G37*
G36*
X623570D02*
X618768D01*
X619672Y744047D01*
X621387Y742332D01*
X623570Y741428D01*
Y746230D01*
D02*
G37*
G36*
X1835143Y748735D02*
X1832617D01*
X1830177Y748081D01*
X1827988Y746818D01*
X1826202Y745032D01*
X1824939Y742843D01*
X1824285Y740403D01*
Y737877D01*
X1824939Y735436D01*
X1826202Y733249D01*
X1827988Y731462D01*
X1830177Y730199D01*
X1832617Y729545D01*
X1835143D01*
X1837583Y730199D01*
X1839772Y731462D01*
X1841558Y733249D01*
X1842821Y735436D01*
X1843475Y737877D01*
Y740403D01*
X1842821Y742843D01*
X1841558Y745032D01*
X1839772Y746818D01*
X1837583Y748081D01*
X1835143Y748735D01*
D02*
G37*
G36*
X1809743D02*
X1807217D01*
X1804776Y748081D01*
X1802589Y746818D01*
X1800802Y745032D01*
X1799539Y742843D01*
X1798885Y740403D01*
Y737877D01*
X1799539Y735436D01*
X1800802Y733249D01*
X1802589Y731462D01*
X1804776Y730199D01*
X1807217Y729545D01*
X1809743D01*
X1812184Y730199D01*
X1814371Y731462D01*
X1816158Y733249D01*
X1817421Y735436D01*
X1818075Y737877D01*
Y740403D01*
X1817421Y742843D01*
X1816158Y745032D01*
X1814371Y746818D01*
X1812184Y748081D01*
X1809743Y748735D01*
D02*
G37*
G36*
X1771340Y732536D02*
X1769420D01*
X1767646Y731801D01*
X1766289Y730444D01*
X1765554Y728670D01*
Y726750D01*
X1766289Y724976D01*
X1767646Y723619D01*
X1769420Y722884D01*
X1771340D01*
X1773114Y723619D01*
X1774471Y724976D01*
X1775206Y726750D01*
Y728670D01*
X1774471Y730444D01*
X1773114Y731801D01*
X1771340Y732536D01*
D02*
G37*
G36*
X1571950Y720852D02*
X1570030D01*
X1568256Y720117D01*
X1566899Y718760D01*
X1566164Y716986D01*
Y715066D01*
X1566899Y713292D01*
X1568256Y711935D01*
X1570030Y711200D01*
X1571950D01*
X1573724Y711935D01*
X1575081Y713292D01*
X1575816Y715066D01*
Y716986D01*
X1575081Y718760D01*
X1573724Y720117D01*
X1571950Y720852D01*
D02*
G37*
G36*
X762960Y690626D02*
X761040D01*
X759266Y689891D01*
X757909Y688534D01*
X757174Y686760D01*
Y684840D01*
X757909Y683066D01*
X759266Y681709D01*
X761040Y680974D01*
X762960D01*
X764734Y681709D01*
X766091Y683066D01*
X766826Y684840D01*
Y686760D01*
X766091Y688534D01*
X764734Y689891D01*
X762960Y690626D01*
D02*
G37*
G36*
X1853890Y685546D02*
X1851970D01*
X1850196Y684811D01*
X1848839Y683454D01*
X1848104Y681680D01*
Y679760D01*
X1848839Y677986D01*
X1850196Y676629D01*
X1851970Y675894D01*
X1853890D01*
X1855664Y676629D01*
X1857021Y677986D01*
X1857756Y679760D01*
Y681680D01*
X1857021Y683454D01*
X1855664Y684811D01*
X1853890Y685546D01*
D02*
G37*
G36*
X1263904Y679246D02*
X777089D01*
X776098Y679049D01*
X775258Y678487D01*
X769920Y673150D01*
X740751D01*
X740691Y673294D01*
X739334Y674651D01*
X737560Y675386D01*
X735640D01*
X733866Y674651D01*
X732509Y673294D01*
X731774Y671520D01*
Y669600D01*
X732509Y667826D01*
X733866Y666469D01*
X735640Y665734D01*
X737560D01*
X739334Y666469D01*
X740691Y667826D01*
X740751Y667970D01*
X770993D01*
X771984Y668167D01*
X772824Y668729D01*
X778162Y674066D01*
X799825D01*
X801579Y671830D01*
X807720D01*
Y670560D01*
X808990D01*
Y664488D01*
X809796Y664822D01*
X850850Y623767D01*
Y417006D01*
X849987Y416648D01*
X848272Y414933D01*
X847368Y412750D01*
X859512D01*
X858608Y414933D01*
X856893Y416648D01*
X856030Y417006D01*
Y624840D01*
X855833Y625831D01*
X855271Y626671D01*
X816319Y665624D01*
X817291Y667970D01*
X1066355D01*
X1066712Y667107D01*
X1068427Y665392D01*
X1070610Y664488D01*
Y670560D01*
X1073150D01*
Y664488D01*
X1075333Y665392D01*
X1077048Y667107D01*
X1077405Y667970D01*
X1157167D01*
X1166569Y658569D01*
X1167409Y658007D01*
X1168400Y657810D01*
X1276924D01*
X1279044Y656590D01*
X1283970D01*
Y661392D01*
X1282982Y660983D01*
X1281734Y662231D01*
X1280894Y662793D01*
X1279903Y662990D01*
X1169473D01*
X1160936Y671526D01*
X1161988Y674066D01*
X1262831D01*
X1265234Y671664D01*
X1265174Y671520D01*
Y669600D01*
X1265909Y667826D01*
X1267266Y666469D01*
X1269040Y665734D01*
X1270960D01*
X1272734Y666469D01*
X1274091Y667826D01*
X1274826Y669600D01*
Y671520D01*
X1274091Y673294D01*
X1272734Y674651D01*
X1270960Y675386D01*
X1269040D01*
X1268896Y675326D01*
X1265735Y678487D01*
X1264895Y679049D01*
X1263904Y679246D01*
D02*
G37*
G36*
X1814520Y677926D02*
X1812600D01*
X1810826Y677191D01*
X1809469Y675834D01*
X1808734Y674060D01*
Y672140D01*
X1809469Y670366D01*
X1810826Y669009D01*
X1812600Y668274D01*
X1814520D01*
X1816294Y669009D01*
X1817651Y670366D01*
X1818386Y672140D01*
Y674060D01*
X1817651Y675834D01*
X1816294Y677191D01*
X1814520Y677926D01*
D02*
G37*
G36*
X1840230Y671552D02*
Y666750D01*
X1845032D01*
X1844128Y668933D01*
X1842413Y670648D01*
X1840230Y671552D01*
D02*
G37*
G36*
X1837690D02*
X1835507Y670648D01*
X1833792Y668933D01*
X1832888Y666750D01*
X1837690D01*
Y671552D01*
D02*
G37*
G36*
X806450Y669290D02*
X801648D01*
X802552Y667107D01*
X804267Y665392D01*
X806450Y664488D01*
Y669290D01*
D02*
G37*
G36*
X1845032Y664210D02*
X1840230D01*
Y659408D01*
X1842413Y660312D01*
X1844128Y662027D01*
X1845032Y664210D01*
D02*
G37*
G36*
X1837690D02*
X1832888D01*
X1833792Y662027D01*
X1835507Y660312D01*
X1837690Y659408D01*
Y664210D01*
D02*
G37*
G36*
X1286510Y661392D02*
Y656590D01*
X1291312D01*
X1290408Y658773D01*
X1288693Y660488D01*
X1286510Y661392D01*
D02*
G37*
G36*
X1667510Y656312D02*
Y651510D01*
X1672312D01*
X1671408Y653693D01*
X1669693Y655408D01*
X1667510Y656312D01*
D02*
G37*
G36*
X1664970D02*
X1662787Y655408D01*
X1661072Y653693D01*
X1660168Y651510D01*
X1664970D01*
Y656312D01*
D02*
G37*
G36*
X1291312Y654050D02*
X1286510D01*
Y649248D01*
X1288693Y650152D01*
X1290408Y651867D01*
X1291312Y654050D01*
D02*
G37*
G36*
X1283970D02*
X1279168D01*
X1280072Y651867D01*
X1281787Y650152D01*
X1283970Y649248D01*
Y654050D01*
D02*
G37*
G36*
X1672312Y648970D02*
X1660168D01*
X1661072Y646787D01*
X1662649Y645210D01*
X1662597Y644527D01*
X1661949Y642670D01*
X1625941D01*
X1625881Y642814D01*
X1624524Y644171D01*
X1622750Y644906D01*
X1620830D01*
X1619056Y644171D01*
X1617699Y642814D01*
X1616964Y641040D01*
Y639120D01*
X1617699Y637346D01*
X1619056Y635989D01*
X1620830Y635254D01*
X1622750D01*
X1624524Y635989D01*
X1625881Y637346D01*
X1625941Y637490D01*
X1721047D01*
X1789744Y568794D01*
X1789684Y568650D01*
Y566730D01*
X1790419Y564956D01*
X1791776Y563599D01*
X1793550Y562864D01*
X1795470D01*
X1797244Y563599D01*
X1798601Y564956D01*
X1799336Y566730D01*
Y568650D01*
X1798601Y570424D01*
X1797244Y571781D01*
X1795470Y572516D01*
X1793550D01*
X1793406Y572456D01*
X1786291Y579571D01*
X1786887Y582567D01*
X1787084Y582649D01*
X1788441Y584006D01*
X1789176Y585780D01*
Y587700D01*
X1788441Y589474D01*
X1787084Y590831D01*
X1785310Y591566D01*
X1783390D01*
X1781616Y590831D01*
X1780259Y589474D01*
X1780177Y589277D01*
X1777181Y588681D01*
X1723951Y641911D01*
X1723111Y642473D01*
X1722120Y642670D01*
X1670531D01*
X1669883Y644527D01*
X1669831Y645210D01*
X1671408Y646787D01*
X1672312Y648970D01*
D02*
G37*
G36*
X1782770Y636016D02*
X1780850D01*
X1779076Y635281D01*
X1777719Y633924D01*
X1776984Y632150D01*
Y630230D01*
X1777719Y628456D01*
X1779076Y627099D01*
X1780850Y626364D01*
X1782770D01*
X1784544Y627099D01*
X1785901Y628456D01*
X1786636Y630230D01*
Y632150D01*
X1785901Y633924D01*
X1784544Y635281D01*
X1782770Y636016D01*
D02*
G37*
G36*
X1810710Y629666D02*
X1808790D01*
X1807016Y628931D01*
X1805659Y627574D01*
X1804924Y625800D01*
Y623880D01*
X1805659Y622106D01*
X1807016Y620749D01*
X1808790Y620014D01*
X1810710D01*
X1812484Y620749D01*
X1813841Y622106D01*
X1814576Y623880D01*
Y625800D01*
X1813841Y627574D01*
X1812484Y628931D01*
X1810710Y629666D01*
D02*
G37*
G36*
X1590040Y620752D02*
Y615950D01*
X1594842D01*
X1593938Y618133D01*
X1592223Y619848D01*
X1590040Y620752D01*
D02*
G37*
G36*
X1587500D02*
X1585317Y619848D01*
X1583602Y618133D01*
X1582698Y615950D01*
X1587500D01*
Y620752D01*
D02*
G37*
G36*
X1594842Y613410D02*
X1590040D01*
Y608608D01*
X1592223Y609512D01*
X1593938Y611227D01*
X1594842Y613410D01*
D02*
G37*
G36*
X1587500D02*
X1582698D01*
X1583602Y611227D01*
X1585317Y609512D01*
X1587500Y608608D01*
Y613410D01*
D02*
G37*
G36*
X1780540Y606782D02*
X1778357Y605878D01*
X1776642Y604163D01*
X1775738Y601980D01*
X1780540D01*
Y606782D01*
D02*
G37*
G36*
X1787882Y599440D02*
X1783080D01*
Y594638D01*
X1785263Y595542D01*
X1786978Y597257D01*
X1787882Y599440D01*
D02*
G37*
G36*
X1780540D02*
X1775738D01*
X1776642Y597257D01*
X1778357Y595542D01*
X1780540Y594638D01*
Y599440D01*
D02*
G37*
G36*
X1753560Y648716D02*
X1751640D01*
X1749866Y647981D01*
X1748509Y646624D01*
X1747774Y644850D01*
Y642930D01*
X1748509Y641156D01*
X1749866Y639799D01*
X1751640Y639064D01*
X1753560D01*
X1753704Y639124D01*
X1783675Y609153D01*
X1783503Y608533D01*
X1783080Y607853D01*
Y601980D01*
X1788953D01*
X1789633Y602403D01*
X1790253Y602575D01*
X1810645Y582182D01*
X1810739Y579314D01*
X1810004Y577540D01*
Y575620D01*
X1810739Y573846D01*
X1812096Y572489D01*
X1813870Y571754D01*
X1815790D01*
X1817564Y572489D01*
X1818921Y573846D01*
X1819656Y575620D01*
Y577540D01*
X1818921Y579314D01*
X1817564Y580671D01*
X1816545Y581093D01*
Y582535D01*
X1816348Y583526D01*
X1815786Y584366D01*
X1757366Y642786D01*
X1757426Y642930D01*
Y644850D01*
X1756691Y646624D01*
X1755334Y647981D01*
X1753560Y648716D01*
D02*
G37*
G36*
X1747210Y581406D02*
X1745290D01*
X1743516Y580671D01*
X1742159Y579314D01*
X1741424Y577540D01*
Y575620D01*
X1742159Y573846D01*
X1743516Y572489D01*
X1745290Y571754D01*
X1747210D01*
X1748984Y572489D01*
X1750341Y573846D01*
X1751076Y575620D01*
Y577540D01*
X1750341Y579314D01*
X1748984Y580671D01*
X1747210Y581406D01*
D02*
G37*
G36*
X1806900Y567436D02*
X1804980D01*
X1803206Y566701D01*
X1801849Y565344D01*
X1801114Y563570D01*
Y561650D01*
X1801849Y559876D01*
X1803206Y558519D01*
X1804980Y557784D01*
X1806900D01*
X1808674Y558519D01*
X1810031Y559876D01*
X1810766Y561650D01*
Y563570D01*
X1810031Y565344D01*
X1808674Y566701D01*
X1806900Y567436D01*
D02*
G37*
G36*
X1306520Y558546D02*
X1304600D01*
X1302826Y557811D01*
X1302014Y557000D01*
X1300480Y556668D01*
X1298945Y557000D01*
X1298134Y557811D01*
X1296360Y558546D01*
X1294440D01*
X1292666Y557811D01*
X1291309Y556454D01*
X1290574Y554680D01*
Y552760D01*
X1291309Y550986D01*
X1292666Y549629D01*
X1294440Y548894D01*
X1296360D01*
X1298134Y549629D01*
X1298945Y550440D01*
X1300480Y550772D01*
X1302014Y550440D01*
X1302826Y549629D01*
X1304600Y548894D01*
X1306520D01*
X1308294Y549629D01*
X1309651Y550986D01*
X1310386Y552760D01*
Y554680D01*
X1309651Y556454D01*
X1308294Y557811D01*
X1306520Y558546D01*
D02*
G37*
G36*
X1392880Y568706D02*
X1390960D01*
X1389186Y567971D01*
X1387829Y566614D01*
X1387094Y564840D01*
Y562920D01*
X1387749Y561340D01*
X1388445Y558962D01*
X1387618Y558039D01*
X1386752Y557173D01*
X1385848Y554990D01*
X1397992D01*
X1397088Y557173D01*
X1396222Y558039D01*
X1395395Y558962D01*
X1396091Y561340D01*
X1396746Y562920D01*
Y564840D01*
X1396011Y566614D01*
X1394654Y567971D01*
X1392880Y568706D01*
D02*
G37*
G36*
X1761180D02*
X1759260D01*
X1757486Y567971D01*
X1756129Y566614D01*
X1755394Y564840D01*
Y564346D01*
X1753706Y562514D01*
X1753047Y562356D01*
X1751640D01*
X1749866Y561621D01*
X1748509Y560264D01*
X1747774Y558490D01*
Y556570D01*
X1747834Y556426D01*
X1733243Y541835D01*
X1732681Y540995D01*
X1732484Y540004D01*
Y444115D01*
X1730359Y443518D01*
X1729944Y443501D01*
X1728664Y444781D01*
X1726890Y445516D01*
X1724970D01*
X1723196Y444781D01*
X1721839Y443424D01*
X1721104Y441650D01*
Y439730D01*
X1721839Y437956D01*
X1723196Y436599D01*
X1724970Y435864D01*
X1726890D01*
X1728664Y436599D01*
X1730021Y437956D01*
X1730034Y437988D01*
X1732676Y437728D01*
X1732681Y437701D01*
X1733243Y436860D01*
X1742352Y427752D01*
X1742211Y425247D01*
X1739850Y423669D01*
X1739844Y423672D01*
X1737924D01*
X1736150Y422937D01*
X1734793Y421580D01*
X1734058Y419806D01*
Y417886D01*
X1734793Y416112D01*
X1736150Y414755D01*
X1737924Y414020D01*
X1739844D01*
X1739850Y414023D01*
X1742390Y412325D01*
Y384695D01*
X1740501Y382805D01*
X1739940Y381965D01*
X1739742Y380974D01*
Y346139D01*
X1739598Y346079D01*
X1738241Y344722D01*
X1737506Y342948D01*
Y341028D01*
X1738241Y339254D01*
X1739598Y337897D01*
X1741372Y337162D01*
X1743292D01*
X1745066Y337897D01*
X1746423Y339254D01*
X1747158Y341028D01*
Y342948D01*
X1746423Y344722D01*
X1745066Y346079D01*
X1744922Y346139D01*
Y379901D01*
X1746811Y381791D01*
X1747373Y382631D01*
X1747570Y383622D01*
Y428786D01*
X1747373Y429777D01*
X1746811Y430617D01*
X1737664Y439764D01*
Y474809D01*
X1740204Y476507D01*
X1740210Y476504D01*
X1742130D01*
X1743904Y477239D01*
X1745261Y478596D01*
X1745996Y480370D01*
Y482290D01*
X1745762Y482854D01*
X1745891Y484692D01*
X1747058Y485857D01*
X1747714Y486129D01*
X1749071Y487486D01*
X1749806Y489260D01*
Y491180D01*
X1749071Y492954D01*
X1747714Y494311D01*
X1745940Y495046D01*
X1744020D01*
X1742246Y494311D01*
X1740889Y492954D01*
X1740154Y491180D01*
X1737664Y491300D01*
Y538931D01*
X1751496Y552764D01*
X1751640Y552704D01*
X1753560D01*
X1755334Y553439D01*
X1756691Y554796D01*
X1757426Y556570D01*
Y557064D01*
X1759114Y558896D01*
X1759773Y559054D01*
X1761180D01*
X1762954Y559789D01*
X1764311Y561146D01*
X1765046Y562920D01*
Y564840D01*
X1764311Y566614D01*
X1762954Y567971D01*
X1761180Y568706D01*
D02*
G37*
G36*
X1903420Y559816D02*
X1901500D01*
X1899726Y559081D01*
X1898369Y557724D01*
X1897634Y555950D01*
Y554030D01*
X1898369Y552256D01*
X1899726Y550899D01*
X1901500Y550164D01*
X1903420D01*
X1905194Y550899D01*
X1906551Y552256D01*
X1907286Y554030D01*
Y555950D01*
X1906551Y557724D01*
X1905194Y559081D01*
X1903420Y559816D01*
D02*
G37*
G36*
X1397992Y552450D02*
X1393190D01*
Y547648D01*
X1395373Y548552D01*
X1397088Y550267D01*
X1397992Y552450D01*
D02*
G37*
G36*
X1390650D02*
X1385848D01*
X1386752Y550267D01*
X1388467Y548552D01*
X1390650Y547648D01*
Y552450D01*
D02*
G37*
G36*
X1832184Y555221D02*
X1830264D01*
X1828491Y554486D01*
X1827133Y553129D01*
X1826398Y551355D01*
Y549435D01*
X1827133Y547661D01*
X1828491Y546304D01*
X1830264Y545569D01*
X1832184D01*
X1833958Y546304D01*
X1835316Y547661D01*
X1836050Y549435D01*
Y551355D01*
X1835316Y553129D01*
X1833958Y554486D01*
X1832184Y555221D01*
D02*
G37*
G36*
X1199840Y543306D02*
X1197920D01*
X1196146Y542571D01*
X1195334Y541759D01*
X1193800Y541428D01*
X1192265Y541759D01*
X1191454Y542571D01*
X1189680Y543306D01*
X1187760D01*
X1185986Y542571D01*
X1185174Y541759D01*
X1183640Y541428D01*
X1182105Y541759D01*
X1181294Y542571D01*
X1179520Y543306D01*
X1177600D01*
X1175826Y542571D01*
X1174469Y541214D01*
X1173734Y539440D01*
Y537520D01*
X1174469Y535746D01*
X1175826Y534389D01*
X1177600Y533654D01*
X1179520D01*
X1181294Y534389D01*
X1182105Y535201D01*
X1183640Y535532D01*
X1185174Y535201D01*
X1185986Y534389D01*
X1187760Y533654D01*
X1189680D01*
X1191454Y534389D01*
X1192265Y535201D01*
X1193800Y535532D01*
X1195334Y535201D01*
X1196146Y534389D01*
X1196290Y534329D01*
Y483673D01*
X1159344Y446726D01*
X1159200Y446786D01*
X1157280D01*
X1155506Y446051D01*
X1154149Y444694D01*
X1153414Y442920D01*
Y441000D01*
X1154149Y439226D01*
X1155506Y437869D01*
X1157280Y437134D01*
X1159200D01*
X1160974Y437869D01*
X1162331Y439226D01*
X1163066Y441000D01*
Y442920D01*
X1163006Y443064D01*
X1200711Y480769D01*
X1201273Y481609D01*
X1201470Y482600D01*
Y534329D01*
X1201614Y534389D01*
X1202971Y535746D01*
X1203706Y537520D01*
Y539440D01*
X1202971Y541214D01*
X1201614Y542571D01*
X1199840Y543306D01*
D02*
G37*
G36*
X392120Y547116D02*
X390200D01*
X388426Y546381D01*
X387069Y545024D01*
X386334Y543250D01*
Y541330D01*
X387069Y539556D01*
X388426Y538199D01*
X390200Y537464D01*
X392120D01*
X393894Y538199D01*
X395251Y539556D01*
X395986Y541330D01*
Y543250D01*
X395251Y545024D01*
X393894Y546381D01*
X392120Y547116D01*
D02*
G37*
G36*
X1903192Y546048D02*
X1901272D01*
X1899498Y545313D01*
X1898141Y543956D01*
X1897406Y542182D01*
Y540262D01*
X1898141Y538488D01*
X1899498Y537131D01*
X1901272Y536396D01*
X1903192D01*
X1904966Y537131D01*
X1906323Y538488D01*
X1907058Y540262D01*
Y542182D01*
X1906323Y543956D01*
X1904966Y545313D01*
X1903192Y546048D01*
D02*
G37*
G36*
X1724350Y544576D02*
X1722430D01*
X1720656Y543841D01*
X1719299Y542484D01*
X1718564Y540710D01*
Y538790D01*
X1719299Y537016D01*
X1720656Y535659D01*
X1722430Y534924D01*
X1724350D01*
X1726124Y535659D01*
X1727481Y537016D01*
X1728216Y538790D01*
Y540710D01*
X1727481Y542484D01*
X1726124Y543841D01*
X1724350Y544576D01*
D02*
G37*
G36*
X1692600D02*
X1690680D01*
X1688906Y543841D01*
X1687549Y542484D01*
X1686814Y540710D01*
Y538790D01*
X1687549Y537016D01*
X1688906Y535659D01*
X1690680Y534924D01*
X1692600D01*
X1694374Y535659D01*
X1695731Y537016D01*
X1696466Y538790D01*
Y540710D01*
X1695731Y542484D01*
X1694374Y543841D01*
X1692600Y544576D01*
D02*
G37*
G36*
X1799656Y532930D02*
X1798156D01*
X1796770Y532356D01*
X1795710Y531295D01*
X1795136Y529910D01*
Y528410D01*
X1795710Y527024D01*
X1796770Y525964D01*
X1798156Y525390D01*
X1799656D01*
X1801041Y525964D01*
X1802102Y527024D01*
X1802676Y528410D01*
Y529910D01*
X1802102Y531295D01*
X1801041Y532356D01*
X1799656Y532930D01*
D02*
G37*
G36*
X1788656D02*
X1787156D01*
X1785771Y532356D01*
X1784710Y531295D01*
X1784136Y529910D01*
Y528410D01*
X1784710Y527024D01*
X1785771Y525964D01*
X1787156Y525390D01*
X1788656D01*
X1790042Y525964D01*
X1791102Y527024D01*
X1791676Y528410D01*
Y529910D01*
X1791102Y531295D01*
X1790042Y532356D01*
X1788656Y532930D01*
D02*
G37*
G36*
X1777656D02*
X1776156D01*
X1774770Y532356D01*
X1773710Y531295D01*
X1773136Y529910D01*
Y528410D01*
X1773710Y527024D01*
X1774770Y525964D01*
X1776156Y525390D01*
X1777656D01*
X1779041Y525964D01*
X1780102Y527024D01*
X1780676Y528410D01*
Y529910D01*
X1780102Y531295D01*
X1779041Y532356D01*
X1777656Y532930D01*
D02*
G37*
G36*
X745440Y542670D02*
X743000D01*
X740642Y542038D01*
X738528Y540818D01*
X736802Y539092D01*
X735582Y536978D01*
X734950Y534620D01*
Y532180D01*
X735582Y529822D01*
X736802Y527708D01*
X738528Y525982D01*
X740642Y524762D01*
X743000Y524130D01*
X745440D01*
X747798Y524762D01*
X749912Y525982D01*
X751638Y527708D01*
X752858Y529822D01*
X753490Y532180D01*
Y534620D01*
X752858Y536978D01*
X751638Y539092D01*
X749912Y540818D01*
X747798Y542038D01*
X745440Y542670D01*
D02*
G37*
G36*
X773620Y542773D02*
X765620D01*
X763564Y542364D01*
X761821Y541199D01*
X760656Y539456D01*
X760247Y537400D01*
Y529400D01*
X760656Y527344D01*
X761821Y525601D01*
X763564Y524436D01*
X765620Y524027D01*
X773620D01*
X775676Y524436D01*
X777420Y525601D01*
X778584Y527344D01*
X778993Y529400D01*
Y537400D01*
X778584Y539456D01*
X777420Y541199D01*
X775676Y542364D01*
X773620Y542773D01*
D02*
G37*
G36*
X1903420Y531876D02*
X1901500D01*
X1899726Y531141D01*
X1898369Y529784D01*
X1897634Y528010D01*
Y526090D01*
X1898369Y524316D01*
X1899726Y522959D01*
X1901500Y522224D01*
X1903420D01*
X1905194Y522959D01*
X1906551Y524316D01*
X1907286Y526090D01*
Y528010D01*
X1906551Y529784D01*
X1905194Y531141D01*
X1903420Y531876D01*
D02*
G37*
G36*
X1828490Y539496D02*
X1826570D01*
X1824796Y538761D01*
X1823439Y537404D01*
X1822704Y535630D01*
Y533710D01*
X1823312Y532242D01*
X1824165Y529903D01*
X1823193Y528863D01*
X1822826Y528496D01*
X1822091Y526722D01*
Y524802D01*
X1822826Y523028D01*
X1824184Y521671D01*
X1825957Y520936D01*
X1827877D01*
X1829651Y521671D01*
X1831009Y523028D01*
X1831743Y524802D01*
Y526722D01*
X1831135Y528190D01*
X1830282Y530529D01*
X1831254Y531569D01*
X1831621Y531936D01*
X1832356Y533710D01*
Y535630D01*
X1831621Y537404D01*
X1830264Y538761D01*
X1828490Y539496D01*
D02*
G37*
G36*
X1418280Y528066D02*
X1416360D01*
X1414586Y527331D01*
X1413229Y525974D01*
X1412494Y524200D01*
Y522280D01*
X1413229Y520506D01*
X1414586Y519149D01*
X1416360Y518414D01*
X1418280D01*
X1420054Y519149D01*
X1421411Y520506D01*
X1422146Y522280D01*
Y524200D01*
X1421411Y525974D01*
X1420054Y527331D01*
X1418280Y528066D01*
D02*
G37*
G36*
X1542521Y524334D02*
X1540601D01*
X1538827Y523599D01*
X1537470Y522242D01*
X1536735Y520468D01*
Y518548D01*
X1537470Y516774D01*
X1538827Y515416D01*
X1540601Y514682D01*
X1542521D01*
X1544294Y515416D01*
X1545652Y516774D01*
X1546387Y518548D01*
Y520468D01*
X1545652Y522242D01*
X1544294Y523599D01*
X1542521Y524334D01*
D02*
G37*
G36*
X1799656Y521930D02*
X1798156D01*
X1796770Y521356D01*
X1795710Y520296D01*
X1795136Y518910D01*
Y517410D01*
X1795710Y516025D01*
X1796770Y514964D01*
X1798156Y514390D01*
X1799656D01*
X1801041Y514964D01*
X1802102Y516025D01*
X1802676Y517410D01*
Y518910D01*
X1802102Y520296D01*
X1801041Y521356D01*
X1799656Y521930D01*
D02*
G37*
G36*
X1788656D02*
X1787156D01*
X1785771Y521356D01*
X1784710Y520296D01*
X1784136Y518910D01*
Y517410D01*
X1784710Y516025D01*
X1785771Y514964D01*
X1787156Y514390D01*
X1788656D01*
X1790042Y514964D01*
X1791102Y516025D01*
X1791676Y517410D01*
Y518910D01*
X1791102Y520296D01*
X1790042Y521356D01*
X1788656Y521930D01*
D02*
G37*
G36*
X1777656D02*
X1776156D01*
X1774770Y521356D01*
X1773710Y520296D01*
X1773136Y518910D01*
Y517410D01*
X1773710Y516025D01*
X1774770Y514964D01*
X1776156Y514390D01*
X1777656D01*
X1779041Y514964D01*
X1780102Y516025D01*
X1780676Y517410D01*
Y518910D01*
X1780102Y520296D01*
X1779041Y521356D01*
X1777656Y521930D01*
D02*
G37*
G36*
X432760Y517906D02*
X430840D01*
X429066Y517171D01*
X427709Y515814D01*
X426974Y514040D01*
Y512120D01*
X427034Y511976D01*
X421857Y506800D01*
X382624D01*
X382564Y506944D01*
X381207Y508301D01*
X379433Y509036D01*
X377513D01*
X375739Y508301D01*
X374381Y506944D01*
X373647Y505170D01*
Y503250D01*
X374381Y501476D01*
X375739Y500119D01*
X377513Y499384D01*
X379433D01*
X381207Y500119D01*
X382564Y501476D01*
X382624Y501620D01*
X422930D01*
X423921Y501817D01*
X424761Y502379D01*
X430696Y508314D01*
X430840Y508254D01*
X432760D01*
X434534Y508989D01*
X435891Y510346D01*
X436626Y512120D01*
Y514040D01*
X435891Y515814D01*
X434534Y517171D01*
X432760Y517906D01*
D02*
G37*
G36*
X1799656Y510930D02*
X1798156D01*
X1796770Y510356D01*
X1795710Y509296D01*
X1795136Y507910D01*
Y506410D01*
X1795710Y505024D01*
X1796770Y503964D01*
X1798156Y503390D01*
X1799656D01*
X1801041Y503964D01*
X1802102Y505024D01*
X1802676Y506410D01*
Y507910D01*
X1802102Y509296D01*
X1801041Y510356D01*
X1799656Y510930D01*
D02*
G37*
G36*
X1788656D02*
X1787156D01*
X1785771Y510356D01*
X1784710Y509296D01*
X1784136Y507910D01*
Y506410D01*
X1784710Y505024D01*
X1785771Y503964D01*
X1787156Y503390D01*
X1788656D01*
X1790042Y503964D01*
X1791102Y505024D01*
X1791676Y506410D01*
Y507910D01*
X1791102Y509296D01*
X1790042Y510356D01*
X1788656Y510930D01*
D02*
G37*
G36*
X1777656D02*
X1776156D01*
X1774770Y510356D01*
X1773710Y509296D01*
X1773136Y507910D01*
Y506410D01*
X1773710Y505024D01*
X1774770Y503964D01*
X1776156Y503390D01*
X1777656D01*
X1779041Y503964D01*
X1780102Y505024D01*
X1780676Y506410D01*
Y507910D01*
X1780102Y509296D01*
X1779041Y510356D01*
X1777656Y510930D01*
D02*
G37*
G36*
X1245560Y634746D02*
X1243640D01*
X1241866Y634011D01*
X1240509Y632654D01*
X1239774Y630880D01*
Y628960D01*
X1240509Y627186D01*
X1241866Y625829D01*
X1243640Y625094D01*
X1245560D01*
X1247334Y625829D01*
X1248691Y627186D01*
X1248751Y627330D01*
X1268927D01*
X1308809Y587449D01*
X1309649Y586887D01*
X1310640Y586690D01*
X1336969D01*
X1337029Y586546D01*
X1338386Y585189D01*
X1340160Y584454D01*
X1342080D01*
X1343854Y585189D01*
X1345211Y586546D01*
X1345271Y586690D01*
X1385767D01*
X1404570Y567887D01*
Y507071D01*
X1404426Y507011D01*
X1403069Y505654D01*
X1402334Y503880D01*
Y501960D01*
X1403069Y500186D01*
X1404426Y498829D01*
X1406200Y498094D01*
X1408120D01*
X1409894Y498829D01*
X1411251Y500186D01*
X1411986Y501960D01*
Y503880D01*
X1411251Y505654D01*
X1409894Y507011D01*
X1409750Y507071D01*
Y568960D01*
X1409553Y569951D01*
X1408991Y570791D01*
X1388671Y591111D01*
X1387831Y591673D01*
X1386840Y591870D01*
X1345271D01*
X1345211Y592014D01*
X1343854Y593371D01*
X1342080Y594106D01*
X1340160D01*
X1338386Y593371D01*
X1337029Y592014D01*
X1336969Y591870D01*
X1311713D01*
X1271831Y631751D01*
X1270991Y632313D01*
X1270000Y632510D01*
X1248751D01*
X1248691Y632654D01*
X1247334Y634011D01*
X1245560Y634746D01*
D02*
G37*
G36*
X1169360Y507746D02*
X1167440D01*
X1165666Y507011D01*
X1164309Y505654D01*
X1163574Y503880D01*
Y501960D01*
X1164309Y500186D01*
X1165666Y498829D01*
X1167440Y498094D01*
X1169360D01*
X1171134Y498829D01*
X1172491Y500186D01*
X1173226Y501960D01*
Y503880D01*
X1172491Y505654D01*
X1171134Y507011D01*
X1169360Y507746D01*
D02*
G37*
G36*
X432760Y502666D02*
X430840D01*
X429066Y501931D01*
X427709Y500574D01*
X426974Y498800D01*
Y496880D01*
X427709Y495106D01*
X429066Y493749D01*
X430840Y493014D01*
X432760D01*
X434534Y493749D01*
X435891Y495106D01*
X436626Y496880D01*
Y498800D01*
X435891Y500574D01*
X434534Y501931D01*
X432760Y502666D01*
D02*
G37*
G36*
X1907402Y501494D02*
X1905482D01*
X1903709Y500759D01*
X1902351Y499401D01*
X1901616Y497628D01*
Y495708D01*
X1902351Y493934D01*
X1903709Y492576D01*
X1905482Y491842D01*
X1907402D01*
X1909176Y492576D01*
X1910534Y493934D01*
X1911268Y495708D01*
Y497628D01*
X1910534Y499401D01*
X1909176Y500759D01*
X1907402Y501494D01*
D02*
G37*
G36*
X1905960Y484886D02*
X1904040D01*
X1902266Y484151D01*
X1900909Y482794D01*
X1900174Y481020D01*
Y479100D01*
X1900909Y477326D01*
X1902266Y475969D01*
X1904040Y475234D01*
X1905960D01*
X1907734Y475969D01*
X1909091Y477326D01*
X1909826Y479100D01*
Y481020D01*
X1909091Y482794D01*
X1907734Y484151D01*
X1905960Y484886D01*
D02*
G37*
G36*
X1869130Y482346D02*
X1867210D01*
X1865436Y481611D01*
X1864079Y480254D01*
X1863344Y478480D01*
Y476560D01*
X1864079Y474786D01*
X1865436Y473429D01*
X1867210Y472694D01*
X1869130D01*
X1870904Y473429D01*
X1872261Y474786D01*
X1872996Y476560D01*
Y478480D01*
X1872261Y480254D01*
X1870904Y481611D01*
X1869130Y482346D01*
D02*
G37*
G36*
X1806736Y472265D02*
X1804816D01*
X1803042Y471530D01*
X1801685Y470172D01*
X1800950Y468398D01*
Y466479D01*
X1801685Y464705D01*
X1803042Y463347D01*
X1804816Y462612D01*
X1806736D01*
X1808510Y463347D01*
X1809867Y464705D01*
X1810602Y466479D01*
Y468398D01*
X1809867Y470172D01*
X1808510Y471530D01*
X1806736Y472265D01*
D02*
G37*
G36*
X1905960Y470916D02*
X1904040D01*
X1902266Y470181D01*
X1900909Y468824D01*
X1900174Y467050D01*
Y465130D01*
X1900909Y463356D01*
X1902266Y461999D01*
X1904040Y461264D01*
X1905960D01*
X1907734Y461999D01*
X1909091Y463356D01*
X1909826Y465130D01*
Y467050D01*
X1909091Y468824D01*
X1907734Y470181D01*
X1905960Y470916D01*
D02*
G37*
G36*
X1818330Y467106D02*
X1816410D01*
X1814636Y466371D01*
X1813279Y465014D01*
X1812544Y463240D01*
Y461320D01*
X1813279Y459546D01*
X1814636Y458189D01*
X1816410Y457454D01*
X1818330D01*
X1820104Y458189D01*
X1821461Y459546D01*
X1822196Y461320D01*
Y463240D01*
X1821461Y465014D01*
X1820104Y466371D01*
X1818330Y467106D01*
D02*
G37*
G36*
X379420D02*
X377500D01*
X375726Y466371D01*
X374369Y465014D01*
X373634Y463240D01*
Y461320D01*
X374369Y459546D01*
X375726Y458189D01*
X377500Y457454D01*
X379420D01*
X381194Y458189D01*
X382551Y459546D01*
X383286Y461320D01*
Y463240D01*
X382551Y465014D01*
X381194Y466371D01*
X379420Y467106D01*
D02*
G37*
G36*
X1917390Y465836D02*
X1915470D01*
X1913696Y465101D01*
X1912339Y463744D01*
X1911604Y461970D01*
Y460050D01*
X1912339Y458276D01*
X1913696Y456919D01*
X1915470Y456184D01*
X1917390D01*
X1919164Y456919D01*
X1920521Y458276D01*
X1921256Y460050D01*
Y461970D01*
X1920521Y463744D01*
X1919164Y465101D01*
X1917390Y465836D01*
D02*
G37*
G36*
X331370Y560028D02*
X321870D01*
X320103Y559796D01*
X318456Y559113D01*
X317042Y558028D01*
X315956Y556614D01*
X315274Y554967D01*
X315042Y553200D01*
X315274Y551432D01*
X315956Y549786D01*
X316625Y548915D01*
X316033Y547078D01*
X315485Y546375D01*
X307670D01*
X306698Y545972D01*
X306296Y545000D01*
Y471000D01*
X306698Y470028D01*
X307670Y469625D01*
X315485D01*
X316033Y468922D01*
X316625Y467085D01*
X315956Y466214D01*
X315274Y464567D01*
X315042Y462800D01*
X315274Y461033D01*
X315956Y459386D01*
X317042Y457972D01*
X318456Y456887D01*
X320103Y456204D01*
X321870Y455972D01*
X331370D01*
X333138Y456204D01*
X334784Y456887D01*
X336199Y457972D01*
X337284Y459386D01*
X337966Y461033D01*
X338199Y462800D01*
X337966Y464567D01*
X337284Y466214D01*
X336616Y467085D01*
X337207Y468922D01*
X337756Y469625D01*
X352670D01*
X353642Y470028D01*
X354044Y471000D01*
Y545000D01*
X353642Y545972D01*
X352670Y546375D01*
X337756D01*
X337207Y547078D01*
X336616Y548915D01*
X337284Y549786D01*
X337966Y551432D01*
X338199Y553200D01*
X337966Y554967D01*
X337284Y556614D01*
X336199Y558028D01*
X334784Y559113D01*
X333138Y559796D01*
X331370Y560028D01*
D02*
G37*
G36*
X1597350Y462026D02*
X1595430D01*
X1593656Y461291D01*
X1592299Y459934D01*
X1591564Y458160D01*
Y456240D01*
X1592299Y454466D01*
X1593656Y453109D01*
X1595430Y452374D01*
X1597350D01*
X1599124Y453109D01*
X1600481Y454466D01*
X1601216Y456240D01*
Y458160D01*
X1600481Y459934D01*
X1599124Y461291D01*
X1597350Y462026D01*
D02*
G37*
G36*
X737560Y472186D02*
X735640D01*
X733866Y471451D01*
X732509Y470094D01*
X731774Y468320D01*
Y466400D01*
X732509Y464626D01*
X733320Y463815D01*
X733652Y462280D01*
X733320Y460746D01*
X732509Y459934D01*
X731774Y458160D01*
Y456240D01*
X732509Y454466D01*
X733866Y453109D01*
X735640Y452374D01*
X737560D01*
X739334Y453109D01*
X740691Y454466D01*
X741426Y456240D01*
Y458160D01*
X740691Y459934D01*
X739880Y460746D01*
X739548Y462280D01*
X739880Y463815D01*
X740691Y464626D01*
X741426Y466400D01*
Y468320D01*
X740691Y470094D01*
X739334Y471451D01*
X737560Y472186D01*
D02*
G37*
G36*
X1905960Y458216D02*
X1904040D01*
X1902266Y457481D01*
X1900909Y456124D01*
X1900174Y454350D01*
Y452430D01*
X1900909Y450656D01*
X1902266Y449299D01*
X1904040Y448564D01*
X1905960D01*
X1907734Y449299D01*
X1909091Y450656D01*
X1909826Y452430D01*
Y454350D01*
X1909091Y456124D01*
X1907734Y457481D01*
X1905960Y458216D01*
D02*
G37*
G36*
X1639260Y454406D02*
X1637340D01*
X1635566Y453671D01*
X1634209Y452314D01*
X1633474Y450540D01*
Y448620D01*
X1634209Y446846D01*
X1635566Y445489D01*
X1637340Y444754D01*
X1639260D01*
X1641034Y445489D01*
X1642391Y446846D01*
X1643126Y448620D01*
Y450540D01*
X1642391Y452314D01*
X1641034Y453671D01*
X1639260Y454406D01*
D02*
G37*
G36*
X1917390Y451866D02*
X1915470D01*
X1913696Y451131D01*
X1912339Y449774D01*
X1911604Y448000D01*
Y446080D01*
X1912339Y444306D01*
X1913696Y442949D01*
X1915470Y442214D01*
X1917390D01*
X1919164Y442949D01*
X1920521Y444306D01*
X1921256Y446080D01*
Y448000D01*
X1920521Y449774D01*
X1919164Y451131D01*
X1917390Y451866D01*
D02*
G37*
G36*
X1334770Y442952D02*
X1332587Y442048D01*
X1330872Y440333D01*
X1330515Y439470D01*
X1280605D01*
X1280248Y440333D01*
X1278533Y442048D01*
X1276350Y442952D01*
Y436880D01*
Y430808D01*
X1278533Y431712D01*
X1280248Y433427D01*
X1280605Y434290D01*
X1330515D01*
X1330872Y433427D01*
X1332587Y431712D01*
X1334770Y430808D01*
Y436880D01*
Y442952D01*
D02*
G37*
G36*
X1337310D02*
Y438150D01*
X1342112D01*
X1341208Y440333D01*
X1339493Y442048D01*
X1337310Y442952D01*
D02*
G37*
G36*
X1273810D02*
X1271627Y442048D01*
X1269912Y440333D01*
X1269008Y438150D01*
X1273810D01*
Y442952D01*
D02*
G37*
G36*
X1905960Y444246D02*
X1904040D01*
X1902266Y443511D01*
X1900909Y442154D01*
X1900174Y440380D01*
Y438460D01*
X1900909Y436686D01*
X1902266Y435329D01*
X1904040Y434594D01*
X1905960D01*
X1907734Y435329D01*
X1909091Y436686D01*
X1909826Y438460D01*
Y440380D01*
X1909091Y442154D01*
X1907734Y443511D01*
X1905960Y444246D01*
D02*
G37*
G36*
X1342112Y435610D02*
X1337310D01*
Y430808D01*
X1339493Y431712D01*
X1341208Y433427D01*
X1342112Y435610D01*
D02*
G37*
G36*
X1273810D02*
X1269008D01*
X1269912Y433427D01*
X1271627Y431712D01*
X1273810Y430808D01*
Y435610D01*
D02*
G37*
G36*
X1917162Y438098D02*
X1915242D01*
X1913468Y437363D01*
X1912111Y436006D01*
X1911376Y434232D01*
Y432312D01*
X1912111Y430538D01*
X1913468Y429181D01*
X1915242Y428446D01*
X1917162D01*
X1918936Y429181D01*
X1920293Y430538D01*
X1921028Y432312D01*
Y434232D01*
X1920293Y436006D01*
X1918936Y437363D01*
X1917162Y438098D01*
D02*
G37*
G36*
X1905732Y430478D02*
X1903812D01*
X1902038Y429743D01*
X1900681Y428386D01*
X1899946Y426612D01*
Y424692D01*
X1900681Y422918D01*
X1902038Y421561D01*
X1903812Y420826D01*
X1905732D01*
X1907506Y421561D01*
X1908863Y422918D01*
X1909598Y424692D01*
Y426612D01*
X1908863Y428386D01*
X1907506Y429743D01*
X1905732Y430478D01*
D02*
G37*
G36*
X1917162Y424128D02*
X1915242D01*
X1913468Y423393D01*
X1912111Y422036D01*
X1911376Y420262D01*
Y418342D01*
X1912111Y416568D01*
X1913468Y415211D01*
X1915242Y414476D01*
X1917162D01*
X1918936Y415211D01*
X1920293Y416568D01*
X1921028Y418342D01*
Y420262D01*
X1920293Y422036D01*
X1918936Y423393D01*
X1917162Y424128D01*
D02*
G37*
G36*
X1905732Y416508D02*
X1903812D01*
X1902038Y415773D01*
X1900681Y414416D01*
X1899946Y412642D01*
Y410722D01*
X1900681Y408948D01*
X1902038Y407591D01*
X1903812Y406856D01*
X1905732D01*
X1907506Y407591D01*
X1908863Y408948D01*
X1909598Y410722D01*
Y412642D01*
X1908863Y414416D01*
X1907506Y415773D01*
X1905732Y416508D01*
D02*
G37*
G36*
X1653230Y416306D02*
X1651310D01*
X1649536Y415571D01*
X1648179Y414214D01*
X1647444Y412440D01*
Y410520D01*
X1648179Y408746D01*
X1649536Y407389D01*
X1651310Y406654D01*
X1653230D01*
X1655004Y407389D01*
X1656361Y408746D01*
X1657096Y410520D01*
Y412440D01*
X1656361Y414214D01*
X1655004Y415571D01*
X1653230Y416306D01*
D02*
G37*
G36*
X859512Y410210D02*
X854710D01*
Y405408D01*
X856893Y406312D01*
X858608Y408027D01*
X859512Y410210D01*
D02*
G37*
G36*
X852170D02*
X847368D01*
X848272Y408027D01*
X849987Y406312D01*
X852170Y405408D01*
Y410210D01*
D02*
G37*
G36*
X1917162Y411428D02*
X1915242D01*
X1913468Y410693D01*
X1912111Y409336D01*
X1911376Y407562D01*
Y405642D01*
X1912111Y403868D01*
X1913468Y402511D01*
X1915242Y401776D01*
X1917162D01*
X1918936Y402511D01*
X1920293Y403868D01*
X1921028Y405642D01*
Y407562D01*
X1920293Y409336D01*
X1918936Y410693D01*
X1917162Y411428D01*
D02*
G37*
G36*
X1761180Y409956D02*
X1759260D01*
X1757486Y409221D01*
X1756129Y407864D01*
X1755394Y406090D01*
Y404170D01*
X1756129Y402396D01*
X1757486Y401039D01*
X1759260Y400304D01*
X1761180D01*
X1762954Y401039D01*
X1764311Y402396D01*
X1765046Y404170D01*
Y406090D01*
X1764311Y407864D01*
X1762954Y409221D01*
X1761180Y409956D01*
D02*
G37*
G36*
X1487170Y399772D02*
Y394970D01*
X1491972D01*
X1491068Y397153D01*
X1489353Y398868D01*
X1487170Y399772D01*
D02*
G37*
G36*
X1484630D02*
X1482447Y398868D01*
X1480732Y397153D01*
X1479828Y394970D01*
X1484630D01*
Y399772D01*
D02*
G37*
G36*
X1905732Y403808D02*
X1903812D01*
X1902038Y403073D01*
X1900681Y401716D01*
X1899946Y399942D01*
Y398022D01*
X1900681Y396248D01*
X1902038Y394891D01*
X1903812Y394156D01*
X1905732D01*
X1907506Y394891D01*
X1908863Y396248D01*
X1909598Y398022D01*
Y399942D01*
X1908863Y401716D01*
X1907506Y403073D01*
X1905732Y403808D01*
D02*
G37*
G36*
X1838650Y398526D02*
X1836730D01*
X1834956Y397791D01*
X1833599Y396434D01*
X1832864Y394660D01*
Y394465D01*
X1830482Y393923D01*
X1830324Y393921D01*
X1828994Y395251D01*
X1827220Y395986D01*
X1825300D01*
X1823526Y395251D01*
X1822169Y393894D01*
X1821434Y392120D01*
Y390200D01*
X1822169Y388426D01*
X1823526Y387069D01*
X1825300Y386334D01*
X1827220D01*
X1828994Y387069D01*
X1830351Y388426D01*
X1831086Y390200D01*
Y390395D01*
X1833468Y390937D01*
X1833626Y390939D01*
X1834956Y389609D01*
X1836730Y388874D01*
X1838650D01*
X1840424Y389609D01*
X1841781Y390966D01*
X1842516Y392740D01*
Y394660D01*
X1841781Y396434D01*
X1840424Y397791D01*
X1838650Y398526D01*
D02*
G37*
G36*
X1804670Y397232D02*
Y392430D01*
X1809472D01*
X1808568Y394613D01*
X1806853Y396328D01*
X1804670Y397232D01*
D02*
G37*
G36*
X1802130D02*
X1799947Y396328D01*
X1798232Y394613D01*
X1797328Y392430D01*
X1802130D01*
Y397232D01*
D02*
G37*
G36*
X1917162Y397458D02*
X1915242D01*
X1913468Y396723D01*
X1912111Y395366D01*
X1911376Y393592D01*
Y391672D01*
X1912111Y389898D01*
X1913468Y388541D01*
X1915242Y387806D01*
X1917162D01*
X1918936Y388541D01*
X1920293Y389898D01*
X1921028Y391672D01*
Y393592D01*
X1920293Y395366D01*
X1918936Y396723D01*
X1917162Y397458D01*
D02*
G37*
G36*
X1491972Y392430D02*
X1487170D01*
Y387628D01*
X1489353Y388532D01*
X1491068Y390247D01*
X1491972Y392430D01*
D02*
G37*
G36*
X1484630D02*
X1479828D01*
X1480732Y390247D01*
X1482447Y388532D01*
X1484630Y387628D01*
Y392430D01*
D02*
G37*
G36*
X1296360Y395986D02*
X1294440D01*
X1292666Y395251D01*
X1291309Y393894D01*
X1290574Y392120D01*
Y390200D01*
X1291309Y388426D01*
X1292666Y387069D01*
X1294440Y386334D01*
X1296360D01*
X1298134Y387069D01*
X1299491Y388426D01*
X1300226Y390200D01*
Y392120D01*
X1299491Y393894D01*
X1298134Y395251D01*
X1296360Y395986D01*
D02*
G37*
G36*
X1809472Y389890D02*
X1804670D01*
Y385088D01*
X1806853Y385992D01*
X1808568Y387707D01*
X1809472Y389890D01*
D02*
G37*
G36*
X1802130D02*
X1797328D01*
X1798232Y387707D01*
X1799947Y385992D01*
X1802130Y385088D01*
Y389890D01*
D02*
G37*
G36*
X1543000Y402970D02*
X1540560D01*
X1538202Y402338D01*
X1536088Y401118D01*
X1534362Y399392D01*
X1533142Y397278D01*
X1532510Y394920D01*
Y392480D01*
X1533142Y390122D01*
X1534362Y388008D01*
X1536088Y386282D01*
X1538202Y385062D01*
X1540560Y384430D01*
X1543000D01*
X1545358Y385062D01*
X1547472Y386282D01*
X1549198Y388008D01*
X1550418Y390122D01*
X1551050Y392480D01*
Y394920D01*
X1550418Y397278D01*
X1549198Y399392D01*
X1547472Y401118D01*
X1545358Y402338D01*
X1543000Y402970D01*
D02*
G37*
G36*
X1571180Y403073D02*
X1563180D01*
X1561124Y402664D01*
X1559380Y401499D01*
X1558216Y399756D01*
X1557807Y397700D01*
Y389700D01*
X1558216Y387644D01*
X1559380Y385900D01*
X1561124Y384736D01*
X1563180Y384327D01*
X1571180D01*
X1573236Y384736D01*
X1574980Y385900D01*
X1576144Y387644D01*
X1576553Y389700D01*
Y397700D01*
X1576144Y399756D01*
X1574980Y401499D01*
X1573236Y402664D01*
X1571180Y403073D01*
D02*
G37*
G36*
X1905732Y389838D02*
X1903812D01*
X1902038Y389103D01*
X1900681Y387746D01*
X1899946Y385972D01*
Y384052D01*
X1900681Y382278D01*
X1902038Y380921D01*
X1903812Y380186D01*
X1905732D01*
X1907506Y380921D01*
X1908863Y382278D01*
X1909598Y384052D01*
Y385972D01*
X1908863Y387746D01*
X1907506Y389103D01*
X1905732Y389838D01*
D02*
G37*
G36*
X1255720Y381983D02*
X1253800D01*
X1252026Y381249D01*
X1250669Y379891D01*
X1249934Y378117D01*
Y376197D01*
X1250669Y374423D01*
X1252026Y373066D01*
X1253800Y372331D01*
X1255720D01*
X1257494Y373066D01*
X1258851Y374423D01*
X1259586Y376197D01*
Y378117D01*
X1258851Y379891D01*
X1257494Y381249D01*
X1255720Y381983D01*
D02*
G37*
G36*
X747720Y375666D02*
X745800D01*
X744026Y374931D01*
X742669Y373574D01*
X741934Y371800D01*
Y369880D01*
X742669Y368106D01*
X744026Y366749D01*
X745800Y366014D01*
X747720D01*
X749494Y366749D01*
X750851Y368106D01*
X751586Y369880D01*
Y371800D01*
X750851Y373574D01*
X749494Y374931D01*
X747720Y375666D01*
D02*
G37*
G36*
X610560D02*
X608640D01*
X606866Y374931D01*
X605509Y373574D01*
X604774Y371800D01*
Y369880D01*
X605509Y368106D01*
X606866Y366749D01*
X608640Y366014D01*
X610560D01*
X612334Y366749D01*
X613691Y368106D01*
X614426Y369880D01*
Y371800D01*
X613691Y373574D01*
X612334Y374931D01*
X610560Y375666D01*
D02*
G37*
G36*
X313880Y380213D02*
X305880D01*
X303824Y379804D01*
X302080Y378639D01*
X300916Y376896D01*
X300507Y374840D01*
Y366840D01*
X300916Y364784D01*
X302080Y363041D01*
X303824Y361876D01*
X305880Y361467D01*
X313880D01*
X315936Y361876D01*
X317680Y363041D01*
X318844Y364784D01*
X319253Y366840D01*
Y374840D01*
X318844Y376896D01*
X317680Y378639D01*
X315936Y379804D01*
X313880Y380213D01*
D02*
G37*
G36*
X1531310Y354076D02*
X1529390D01*
X1527616Y353341D01*
X1527385Y353110D01*
X619760D01*
X618769Y352913D01*
X617929Y352351D01*
X569260Y303683D01*
X530642D01*
X530582Y303827D01*
X529224Y305184D01*
X527450Y305919D01*
X525531D01*
X523757Y305184D01*
X522399Y303827D01*
X521665Y302053D01*
Y300133D01*
X522399Y298359D01*
X523757Y297001D01*
X525531Y296267D01*
X527450D01*
X529224Y297001D01*
X530582Y298359D01*
X530642Y298503D01*
X570333D01*
X571324Y298700D01*
X572164Y299262D01*
X620833Y347930D01*
X1525673D01*
X1526259Y346516D01*
X1527616Y345159D01*
X1529390Y344424D01*
X1531310D01*
X1533084Y345159D01*
X1534441Y346516D01*
X1535176Y348290D01*
Y350210D01*
X1534441Y351984D01*
X1533084Y353341D01*
X1531310Y354076D01*
D02*
G37*
G36*
X311100Y354710D02*
X308660D01*
X306302Y354078D01*
X304188Y352858D01*
X302462Y351132D01*
X301242Y349018D01*
X300610Y346660D01*
Y344220D01*
X301242Y341862D01*
X302462Y339748D01*
X304188Y338022D01*
X306302Y336802D01*
X308660Y336170D01*
X311100D01*
X313458Y336802D01*
X315572Y338022D01*
X317298Y339748D01*
X318518Y341862D01*
X319150Y344220D01*
Y346660D01*
X318518Y349018D01*
X317298Y351132D01*
X315572Y352858D01*
X313458Y354078D01*
X311100Y354710D01*
D02*
G37*
G36*
X1518610Y341376D02*
X1516690D01*
X1514916Y340641D01*
X1513559Y339284D01*
X1513499Y339140D01*
X712470D01*
X711479Y338943D01*
X710639Y338381D01*
X675655Y303397D01*
X641468D01*
X641409Y303541D01*
X640051Y304898D01*
X638277Y305633D01*
X636358D01*
X634584Y304898D01*
X633226Y303541D01*
X632491Y301767D01*
Y299847D01*
X633226Y298074D01*
X634584Y296716D01*
X636358Y295981D01*
X638277D01*
X640051Y296716D01*
X641409Y298074D01*
X641468Y298218D01*
X676727D01*
X677718Y298415D01*
X678559Y298976D01*
X713543Y333960D01*
X1131537D01*
X1133202Y331420D01*
X1133094Y331160D01*
Y329240D01*
X1133829Y327466D01*
X1135186Y326109D01*
X1136960Y325374D01*
X1138880D01*
X1140654Y326109D01*
X1142011Y327466D01*
X1142746Y329240D01*
Y331160D01*
X1142638Y331420D01*
X1144303Y333960D01*
X1513499D01*
X1513559Y333816D01*
X1514916Y332459D01*
X1516690Y331724D01*
X1518610D01*
X1520384Y332459D01*
X1521741Y333816D01*
X1522476Y335590D01*
Y337510D01*
X1521741Y339284D01*
X1520384Y340641D01*
X1518610Y341376D01*
D02*
G37*
G36*
X1784665Y330887D02*
X1781810D01*
Y321310D01*
X1791387D01*
Y324165D01*
X1791158Y325905D01*
X1790487Y327526D01*
X1789418Y328918D01*
X1788026Y329987D01*
X1786405Y330658D01*
X1784665Y330887D01*
D02*
G37*
G36*
X1779270D02*
X1776415D01*
X1774675Y330658D01*
X1773054Y329987D01*
X1771662Y328918D01*
X1770593Y327526D01*
X1769922Y325905D01*
X1769693Y324165D01*
Y321310D01*
X1779270D01*
Y330887D01*
D02*
G37*
G36*
X1483360Y323572D02*
Y318770D01*
X1488162D01*
X1487258Y320953D01*
X1485543Y322668D01*
X1483360Y323572D01*
D02*
G37*
G36*
X1480820D02*
X1478637Y322668D01*
X1476922Y320953D01*
X1476018Y318770D01*
X1480820D01*
Y323572D01*
D02*
G37*
G36*
X1488162Y316230D02*
X1483360D01*
Y311428D01*
X1485543Y312332D01*
X1487258Y314047D01*
X1488162Y316230D01*
D02*
G37*
G36*
X1480820D02*
X1476018D01*
X1476922Y314047D01*
X1478637Y312332D01*
X1480820Y311428D01*
Y316230D01*
D02*
G37*
G36*
X1756393Y329560D02*
X1753887D01*
X1751465Y328911D01*
X1749295Y327658D01*
X1747522Y325885D01*
X1746269Y323714D01*
X1745620Y321293D01*
Y318787D01*
X1746269Y316365D01*
X1747522Y314195D01*
X1749295Y312422D01*
X1751465Y311169D01*
X1753887Y310520D01*
X1756393D01*
X1758815Y311169D01*
X1760985Y312422D01*
X1762758Y314195D01*
X1764011Y316365D01*
X1764660Y318787D01*
Y321293D01*
X1764011Y323714D01*
X1762758Y325885D01*
X1760985Y327658D01*
X1758815Y328911D01*
X1756393Y329560D01*
D02*
G37*
G36*
X1730993D02*
X1728487D01*
X1726065Y328911D01*
X1723895Y327658D01*
X1722122Y325885D01*
X1720869Y323714D01*
X1720220Y321293D01*
Y318787D01*
X1720869Y316365D01*
X1722122Y314195D01*
X1723895Y312422D01*
X1726065Y311169D01*
X1728487Y310520D01*
X1730993D01*
X1733415Y311169D01*
X1735585Y312422D01*
X1737358Y314195D01*
X1738611Y316365D01*
X1739260Y318787D01*
Y321293D01*
X1738611Y323714D01*
X1737358Y325885D01*
X1735585Y327658D01*
X1733415Y328911D01*
X1730993Y329560D01*
D02*
G37*
G36*
X1705593D02*
X1703087D01*
X1700665Y328911D01*
X1698495Y327658D01*
X1696722Y325885D01*
X1695469Y323714D01*
X1694820Y321293D01*
Y318787D01*
X1695469Y316365D01*
X1696722Y314195D01*
X1698495Y312422D01*
X1700665Y311169D01*
X1703087Y310520D01*
X1705593D01*
X1708015Y311169D01*
X1710185Y312422D01*
X1711958Y314195D01*
X1713211Y316365D01*
X1713860Y318787D01*
Y321293D01*
X1713211Y323714D01*
X1711958Y325885D01*
X1710185Y327658D01*
X1708015Y328911D01*
X1705593Y329560D01*
D02*
G37*
G36*
X1680193D02*
X1677687D01*
X1675265Y328911D01*
X1673095Y327658D01*
X1671322Y325885D01*
X1670069Y323714D01*
X1669420Y321293D01*
Y318787D01*
X1670069Y316365D01*
X1671322Y314195D01*
X1673095Y312422D01*
X1675265Y311169D01*
X1677687Y310520D01*
X1680193D01*
X1682615Y311169D01*
X1684785Y312422D01*
X1686558Y314195D01*
X1687811Y316365D01*
X1688460Y318787D01*
Y321293D01*
X1687811Y323714D01*
X1686558Y325885D01*
X1684785Y327658D01*
X1682615Y328911D01*
X1680193Y329560D01*
D02*
G37*
G36*
X1791387Y318770D02*
X1781810D01*
Y309192D01*
X1784665D01*
X1786405Y309422D01*
X1788026Y310093D01*
X1789418Y311161D01*
X1790487Y312554D01*
X1791158Y314175D01*
X1791387Y315915D01*
Y318770D01*
D02*
G37*
G36*
X1779270D02*
X1769693D01*
Y315915D01*
X1769922Y314175D01*
X1770593Y312554D01*
X1771662Y311161D01*
X1773054Y310093D01*
X1774675Y309422D01*
X1776415Y309192D01*
X1779270D01*
Y318770D01*
D02*
G37*
G36*
X1544270Y326765D02*
X1541830D01*
X1539472Y326133D01*
X1537358Y324913D01*
X1535632Y323187D01*
X1534412Y321073D01*
X1533780Y318715D01*
Y316275D01*
X1534412Y313917D01*
X1535632Y311803D01*
X1537358Y310077D01*
X1539472Y308857D01*
X1541830Y308225D01*
X1544270D01*
X1546628Y308857D01*
X1548742Y310077D01*
X1550468Y311803D01*
X1551688Y313917D01*
X1552320Y316275D01*
Y318715D01*
X1551688Y321073D01*
X1550468Y323187D01*
X1548742Y324913D01*
X1546628Y326133D01*
X1544270Y326765D01*
D02*
G37*
G36*
X1572450Y326868D02*
X1564450D01*
X1562394Y326459D01*
X1560650Y325294D01*
X1559486Y323551D01*
X1559077Y321495D01*
Y313495D01*
X1559486Y311439D01*
X1560650Y309695D01*
X1562394Y308531D01*
X1564450Y308122D01*
X1572450D01*
X1574506Y308531D01*
X1576250Y309695D01*
X1577414Y311439D01*
X1577823Y313495D01*
Y321495D01*
X1577414Y323551D01*
X1576250Y325294D01*
X1574506Y326459D01*
X1572450Y326868D01*
D02*
G37*
G36*
X1781960Y305430D02*
X1781810D01*
Y295910D01*
X1791330D01*
Y296060D01*
X1790595Y298805D01*
X1789174Y301265D01*
X1787165Y303274D01*
X1784705Y304695D01*
X1781960Y305430D01*
D02*
G37*
G36*
X1779270D02*
X1779120D01*
X1776375Y304695D01*
X1773915Y303274D01*
X1771906Y301265D01*
X1770485Y298805D01*
X1769750Y296060D01*
Y295910D01*
X1779270D01*
Y305430D01*
D02*
G37*
G36*
X1756393Y304160D02*
X1753887D01*
X1751465Y303511D01*
X1749295Y302258D01*
X1747522Y300485D01*
X1746269Y298314D01*
X1745620Y295893D01*
Y293387D01*
X1746269Y290965D01*
X1747522Y288794D01*
X1749295Y287022D01*
X1751465Y285769D01*
X1753887Y285120D01*
X1756393D01*
X1758815Y285769D01*
X1760985Y287022D01*
X1762758Y288794D01*
X1764011Y290965D01*
X1764660Y293387D01*
Y295893D01*
X1764011Y298314D01*
X1762758Y300485D01*
X1760985Y302258D01*
X1758815Y303511D01*
X1756393Y304160D01*
D02*
G37*
G36*
X1730993D02*
X1728487D01*
X1726065Y303511D01*
X1723895Y302258D01*
X1722122Y300485D01*
X1720869Y298314D01*
X1720220Y295893D01*
Y293387D01*
X1720869Y290965D01*
X1722122Y288794D01*
X1723895Y287022D01*
X1726065Y285769D01*
X1728487Y285120D01*
X1730993D01*
X1733415Y285769D01*
X1735585Y287022D01*
X1737358Y288794D01*
X1738611Y290965D01*
X1739260Y293387D01*
Y295893D01*
X1738611Y298314D01*
X1737358Y300485D01*
X1735585Y302258D01*
X1733415Y303511D01*
X1730993Y304160D01*
D02*
G37*
G36*
X1705593D02*
X1703087D01*
X1700665Y303511D01*
X1698495Y302258D01*
X1696722Y300485D01*
X1695469Y298314D01*
X1694820Y295893D01*
Y293387D01*
X1695469Y290965D01*
X1696722Y288794D01*
X1698495Y287022D01*
X1700665Y285769D01*
X1703087Y285120D01*
X1705593D01*
X1708015Y285769D01*
X1710185Y287022D01*
X1711958Y288794D01*
X1713211Y290965D01*
X1713860Y293387D01*
Y295893D01*
X1713211Y298314D01*
X1711958Y300485D01*
X1710185Y302258D01*
X1708015Y303511D01*
X1705593Y304160D01*
D02*
G37*
G36*
X1680193D02*
X1677687D01*
X1675265Y303511D01*
X1673095Y302258D01*
X1671322Y300485D01*
X1670069Y298314D01*
X1669420Y295893D01*
Y293387D01*
X1670069Y290965D01*
X1671322Y288794D01*
X1673095Y287022D01*
X1675265Y285769D01*
X1677687Y285120D01*
X1680193D01*
X1682615Y285769D01*
X1684785Y287022D01*
X1686558Y288794D01*
X1687811Y290965D01*
X1688460Y293387D01*
Y295893D01*
X1687811Y298314D01*
X1686558Y300485D01*
X1684785Y302258D01*
X1682615Y303511D01*
X1680193Y304160D01*
D02*
G37*
G36*
X1138880Y294386D02*
X1136960D01*
X1135186Y293651D01*
X1133829Y292294D01*
X1133094Y290520D01*
Y288600D01*
X1133829Y286826D01*
X1135186Y285469D01*
X1136960Y284734D01*
X1138880D01*
X1140654Y285469D01*
X1142011Y286826D01*
X1142746Y288600D01*
Y290520D01*
X1142011Y292294D01*
X1140654Y293651D01*
X1138880Y294386D01*
D02*
G37*
G36*
X1791330Y293370D02*
X1781810D01*
Y283850D01*
X1781960D01*
X1784705Y284585D01*
X1787165Y286006D01*
X1789174Y288015D01*
X1790595Y290475D01*
X1791330Y293219D01*
Y293370D01*
D02*
G37*
G36*
X1779270D02*
X1769750D01*
Y293219D01*
X1770485Y290475D01*
X1771906Y288015D01*
X1773915Y286006D01*
X1776375Y284585D01*
X1779120Y283850D01*
X1779270D01*
Y293370D01*
D02*
G37*
G36*
X1201379Y320040D02*
X1196381D01*
X1191445Y319258D01*
X1186692Y317714D01*
X1182239Y315445D01*
X1178196Y312507D01*
X1174662Y308974D01*
X1171725Y304931D01*
X1169456Y300478D01*
X1167912Y295725D01*
X1167130Y290789D01*
Y285791D01*
X1167912Y280855D01*
X1169456Y276102D01*
X1171725Y271649D01*
X1174662Y267606D01*
X1178196Y264072D01*
X1182239Y261135D01*
X1186692Y258866D01*
X1191445Y257322D01*
X1196381Y256540D01*
X1201379D01*
X1206315Y257322D01*
X1211068Y258866D01*
X1215521Y261135D01*
X1219564Y264072D01*
X1223098Y267606D01*
X1226035Y271649D01*
X1228304Y276102D01*
X1229848Y280855D01*
X1230630Y285791D01*
Y290789D01*
X1229848Y295725D01*
X1228304Y300478D01*
X1226035Y304931D01*
X1223098Y308974D01*
X1219564Y312507D01*
X1215521Y315445D01*
X1211068Y317714D01*
X1206315Y319258D01*
X1201379Y320040D01*
D02*
G37*
G36*
X806401Y268350D02*
X803960D01*
X801602Y267718D01*
X799488Y266498D01*
X797762Y264772D01*
X796542Y262658D01*
X795910Y260300D01*
Y257859D01*
X796542Y255502D01*
X797762Y253388D01*
X799488Y251662D01*
X801602Y250442D01*
X803960Y249810D01*
X806401D01*
X808758Y250442D01*
X810872Y251662D01*
X812598Y253388D01*
X813818Y255502D01*
X814450Y257859D01*
Y260300D01*
X813818Y262658D01*
X812598Y264772D01*
X810872Y266498D01*
X808758Y267718D01*
X806401Y268350D01*
D02*
G37*
G36*
X834580Y268453D02*
X826580D01*
X824524Y268044D01*
X822781Y266879D01*
X821616Y265136D01*
X821207Y263080D01*
Y255080D01*
X821616Y253024D01*
X822781Y251280D01*
X824524Y250116D01*
X826580Y249707D01*
X834580D01*
X836636Y250116D01*
X838380Y251280D01*
X839544Y253024D01*
X839953Y255080D01*
Y263080D01*
X839544Y265136D01*
X838380Y266879D01*
X836636Y268044D01*
X834580Y268453D01*
D02*
G37*
G36*
X831800Y227710D02*
X829359D01*
X827002Y227078D01*
X824888Y225858D01*
X823162Y224132D01*
X821942Y222018D01*
X821310Y219661D01*
Y217220D01*
X821942Y214862D01*
X823162Y212748D01*
X824888Y211022D01*
X827002Y209802D01*
X829359Y209170D01*
X831800D01*
X834158Y209802D01*
X836272Y211022D01*
X837998Y212748D01*
X839218Y214862D01*
X839850Y217220D01*
Y219661D01*
X839218Y222018D01*
X837998Y224132D01*
X836272Y225858D01*
X834158Y227078D01*
X831800Y227710D01*
D02*
G37*
G36*
X809180Y227813D02*
X801180D01*
X799124Y227404D01*
X797380Y226240D01*
X796216Y224496D01*
X795807Y222440D01*
Y214440D01*
X796216Y212384D01*
X797380Y210641D01*
X799124Y209476D01*
X801180Y209067D01*
X809180D01*
X811236Y209476D01*
X812979Y210641D01*
X814144Y212384D01*
X814553Y214440D01*
Y222440D01*
X814144Y224496D01*
X812979Y226240D01*
X811236Y227404D01*
X809180Y227813D01*
D02*
G37*
G36*
X831800Y187070D02*
X829359D01*
X827002Y186438D01*
X824888Y185218D01*
X823162Y183492D01*
X821942Y181378D01*
X821310Y179021D01*
Y176580D01*
X821942Y174222D01*
X823162Y172108D01*
X824888Y170382D01*
X827002Y169162D01*
X829359Y168530D01*
X831800D01*
X834158Y169162D01*
X836272Y170382D01*
X837998Y172108D01*
X839218Y174222D01*
X839850Y176580D01*
Y179021D01*
X839218Y181378D01*
X837998Y183492D01*
X836272Y185218D01*
X834158Y186438D01*
X831800Y187070D01*
D02*
G37*
G36*
X809180Y187173D02*
X801180D01*
X799124Y186764D01*
X797380Y185600D01*
X796216Y183856D01*
X795807Y181800D01*
Y173800D01*
X796216Y171744D01*
X797380Y170001D01*
X799124Y168836D01*
X801180Y168427D01*
X809180D01*
X811236Y168836D01*
X812979Y170001D01*
X814144Y171744D01*
X814553Y173800D01*
Y181800D01*
X814144Y183856D01*
X812979Y185600D01*
X811236Y186764D01*
X809180Y187173D01*
D02*
G37*
%LPD*%
G36*
X870530Y1173781D02*
Y1152918D01*
X868416Y1151891D01*
X868084Y1151876D01*
X867431Y1154145D01*
X867391Y1154295D01*
X866138Y1156465D01*
X864365Y1158238D01*
X862195Y1159491D01*
X859773Y1160140D01*
X857267D01*
X854845Y1159491D01*
X852675Y1158238D01*
X850902Y1156465D01*
X849649Y1154295D01*
X849000Y1151873D01*
Y1149367D01*
X849649Y1146945D01*
X850902Y1144775D01*
X852675Y1143002D01*
X854845Y1141749D01*
X857267Y1141100D01*
X859773D01*
X862195Y1141749D01*
X864365Y1143002D01*
X866138Y1144775D01*
X867391Y1146945D01*
X867431Y1147095D01*
X868084Y1149364D01*
X868416Y1149349D01*
X870530Y1148322D01*
Y1127459D01*
X870415Y1127423D01*
X867391Y1128895D01*
X866138Y1131065D01*
X864365Y1132838D01*
X862195Y1134091D01*
X859773Y1134740D01*
X857267D01*
X854845Y1134091D01*
X852675Y1132838D01*
X850902Y1131065D01*
X849649Y1128895D01*
X849000Y1126473D01*
X846500Y1126569D01*
Y1129689D01*
X846303Y1130680D01*
X845741Y1131521D01*
X837629Y1139633D01*
Y1142231D01*
X838965Y1143002D01*
X840738Y1144775D01*
X841991Y1146945D01*
X842640Y1149367D01*
Y1151873D01*
X841991Y1154295D01*
X840738Y1156465D01*
X840175Y1157028D01*
X839975Y1157706D01*
X840129Y1160202D01*
X840255Y1160413D01*
X850119Y1170278D01*
X850902Y1170175D01*
X852675Y1168402D01*
X854845Y1167149D01*
X857267Y1166500D01*
X859773D01*
X862195Y1167149D01*
X864365Y1168402D01*
X866138Y1170175D01*
X867391Y1172345D01*
X870415Y1173817D01*
X870530Y1173781D01*
D02*
G37*
G36*
X598156Y1173700D02*
X598865Y1173290D01*
X599459Y1171075D01*
X600712Y1168905D01*
X602485Y1167132D01*
X603821Y1166361D01*
Y1163763D01*
X592316Y1152258D01*
X589970Y1153230D01*
Y1167987D01*
X596270Y1174287D01*
X598156Y1173700D01*
D02*
G37*
G36*
X825184Y1157071D02*
X825395Y1156280D01*
X824249Y1154295D01*
X823600Y1151873D01*
Y1149367D01*
X824249Y1146945D01*
X825502Y1144775D01*
X827275Y1143002D01*
X829445Y1141749D01*
X831867Y1141100D01*
X832450D01*
Y1138560D01*
X832647Y1137569D01*
X832840Y1137280D01*
X832178Y1135369D01*
X831660Y1134685D01*
X829445Y1134091D01*
X827275Y1132838D01*
X825502Y1131065D01*
X824249Y1128895D01*
X823600Y1126473D01*
Y1123967D01*
X824249Y1121545D01*
X824810Y1120573D01*
X820130Y1115892D01*
X817590Y1116813D01*
Y1156427D01*
X819983Y1158820D01*
X824265D01*
X825184Y1157071D01*
D02*
G37*
G36*
X600712Y1118105D02*
X602485Y1116332D01*
X604655Y1115079D01*
X607077Y1114430D01*
X609583D01*
X612005Y1115079D01*
X612977Y1115640D01*
X619690Y1108927D01*
Y1102749D01*
X617201Y1102225D01*
X615948Y1104395D01*
X614175Y1106168D01*
X612005Y1107421D01*
X609583Y1108070D01*
X607077D01*
X604655Y1107421D01*
X602485Y1106168D01*
X600712Y1104395D01*
X600130Y1103387D01*
X597590Y1104067D01*
Y1118433D01*
X600130Y1119113D01*
X600712Y1118105D01*
D02*
G37*
G36*
X664910Y1083927D02*
Y992697D01*
X662370Y991645D01*
X661864Y992151D01*
X660090Y992886D01*
X658170D01*
X658164Y992883D01*
X655624Y994581D01*
Y997354D01*
X655427Y998345D01*
X654865Y999185D01*
X624870Y1029181D01*
Y1090355D01*
X627410Y1091407D01*
X627885Y1090932D01*
X630055Y1089679D01*
X632477Y1089030D01*
X634983D01*
X637405Y1089679D01*
X639575Y1090932D01*
X641348Y1092705D01*
X642601Y1094875D01*
X643250Y1097297D01*
Y1099803D01*
X642601Y1102225D01*
X642028Y1103217D01*
X644061Y1104777D01*
X664910Y1083927D01*
D02*
G37*
G36*
X619690Y1094351D02*
Y1032291D01*
X617344Y1031319D01*
X597590Y1051073D01*
Y1093033D01*
X600130Y1093713D01*
X600712Y1092705D01*
X602485Y1090932D01*
X604655Y1089679D01*
X607077Y1089030D01*
X609583D01*
X612005Y1089679D01*
X614175Y1090932D01*
X615948Y1092705D01*
X617201Y1094875D01*
X619690Y1094351D01*
D02*
G37*
G36*
X584790Y1165309D02*
Y1028353D01*
X583846Y1027132D01*
X582072Y1026397D01*
X580715Y1025040D01*
X580712Y1025033D01*
X577716Y1024437D01*
X572590Y1029564D01*
Y1156427D01*
X582444Y1166281D01*
X584790Y1165309D01*
D02*
G37*
G36*
X609739Y1002331D02*
X609559Y1000640D01*
X606954Y1000160D01*
X606831Y1000343D01*
X605343Y1001831D01*
X604503Y1002393D01*
X603512Y1002590D01*
X599563D01*
X586937Y1015216D01*
X587533Y1018212D01*
X587540Y1018215D01*
X588897Y1019572D01*
X588900Y1019578D01*
X591896Y1020174D01*
X609739Y1002331D01*
D02*
G37*
G36*
X634910Y1006427D02*
Y992475D01*
X632393Y992112D01*
X631831Y992952D01*
X597150Y1027634D01*
X598202Y1030174D01*
X598460D01*
X600234Y1030909D01*
X601591Y1032266D01*
X602326Y1034040D01*
Y1035419D01*
X603876Y1036426D01*
X604673Y1036665D01*
X634910Y1006427D01*
D02*
G37*
G36*
X664910Y983423D02*
Y982500D01*
X665107Y981509D01*
X665669Y980669D01*
X717242Y929096D01*
X717165Y927264D01*
X714677Y926177D01*
X689007Y951848D01*
X688167Y952409D01*
X687176Y952606D01*
X686056D01*
X657826Y980836D01*
X659021Y983234D01*
X660090D01*
X661864Y983969D01*
X662370Y984475D01*
X664910Y983423D01*
D02*
G37*
G36*
X804922Y967574D02*
X806973Y966831D01*
X807418Y965757D01*
X808775Y964399D01*
X808919Y964340D01*
Y827822D01*
X644708Y663610D01*
X642591Y665086D01*
X642670Y665480D01*
Y829007D01*
X656396Y842734D01*
X656540Y842674D01*
X658460D01*
X660234Y843409D01*
X661591Y844766D01*
X662326Y846540D01*
Y848460D01*
X662266Y848604D01*
X718359Y904696D01*
X733920D01*
X734040Y902206D01*
X733541Y901999D01*
X732266Y901471D01*
X730909Y900114D01*
X730174Y898340D01*
Y896420D01*
X730909Y894646D01*
X732266Y893289D01*
X734040Y892554D01*
X735960D01*
X737734Y893289D01*
X739091Y894646D01*
X739826Y896420D01*
Y898340D01*
X739091Y900114D01*
X737734Y901471D01*
X736459Y901999D01*
X735960Y902206D01*
X736080Y904696D01*
X740174D01*
X741165Y904893D01*
X742005Y905455D01*
X804143Y967593D01*
X804922Y967574D01*
D02*
G37*
G36*
X710586Y907841D02*
X711504Y905166D01*
X659342Y853004D01*
X657888Y853133D01*
X656931Y855769D01*
X709178Y908016D01*
X710586Y907841D01*
D02*
G37*
G36*
X627410Y990048D02*
Y854151D01*
X627266Y854091D01*
X626568Y853393D01*
X625000Y852975D01*
X623432Y853393D01*
X622734Y854091D01*
X620960Y854826D01*
X619040D01*
X617429Y854159D01*
X616491Y854564D01*
X615368Y855248D01*
X615090Y855507D01*
Y999050D01*
X617436Y1000022D01*
X627410Y990048D01*
D02*
G37*
G36*
X598585Y616730D02*
X598506Y616336D01*
Y429449D01*
X471367Y302310D01*
X405471D01*
X405411Y302454D01*
X404054Y303811D01*
X405004Y306161D01*
X405946Y307290D01*
X467360D01*
X468351Y307487D01*
X469191Y308049D01*
X586031Y424889D01*
X586593Y425729D01*
X586790Y426720D01*
Y608527D01*
X596468Y618206D01*
X598585Y616730D01*
D02*
G37*
%LPC*%
G36*
X790960Y834826D02*
X789040D01*
X787266Y834091D01*
X785909Y832734D01*
X785174Y830960D01*
Y829040D01*
X785909Y827266D01*
X787266Y825909D01*
X789040Y825174D01*
X790960D01*
X792734Y825909D01*
X794091Y827266D01*
X794826Y829040D01*
Y830960D01*
X794091Y832734D01*
X792734Y834091D01*
X790960Y834826D01*
D02*
G37*
G36*
X683770Y821072D02*
Y816270D01*
X688572D01*
X687668Y818453D01*
X685953Y820168D01*
X683770Y821072D01*
D02*
G37*
G36*
X681230D02*
X679047Y820168D01*
X677332Y818453D01*
X676428Y816270D01*
X681230D01*
Y821072D01*
D02*
G37*
G36*
X688572Y813730D02*
X683770D01*
Y808928D01*
X685953Y809832D01*
X687668Y811547D01*
X688572Y813730D01*
D02*
G37*
G36*
X681230D02*
X676428D01*
X677332Y811547D01*
X679047Y809832D01*
X681230Y808928D01*
Y813730D01*
D02*
G37*
G36*
X668460Y809826D02*
X666540D01*
X664766Y809091D01*
X663409Y807734D01*
X662674Y805960D01*
Y804040D01*
X663409Y802266D01*
X664766Y800909D01*
X666540Y800174D01*
X668460D01*
X670234Y800909D01*
X671591Y802266D01*
X672326Y804040D01*
Y805960D01*
X671591Y807734D01*
X670234Y809091D01*
X668460Y809826D01*
D02*
G37*
G36*
X661360Y771906D02*
X659440D01*
X657666Y771171D01*
X656854Y770359D01*
X655320Y770028D01*
X653785Y770359D01*
X652974Y771171D01*
X651200Y771906D01*
X649280D01*
X647506Y771171D01*
X646149Y769814D01*
X645414Y768040D01*
Y766120D01*
X646149Y764346D01*
X647506Y762989D01*
X649280Y762254D01*
X651200D01*
X652974Y762989D01*
X653785Y763801D01*
X655320Y764132D01*
X656854Y763801D01*
X657666Y762989D01*
X659440Y762254D01*
X661360D01*
X663134Y762989D01*
X664491Y764346D01*
X665226Y766120D01*
Y768040D01*
X664491Y769814D01*
X663134Y771171D01*
X661360Y771906D01*
D02*
G37*
%LPD*%
G36*
X1377669Y754186D02*
X1378481Y753374D01*
X1378812Y751840D01*
X1378481Y750305D01*
X1377669Y749494D01*
X1377609Y749350D01*
X1077449D01*
X1074815Y751984D01*
X1075787Y754330D01*
X1377609D01*
X1377669Y754186D01*
D02*
G37*
D19*
X653034Y981966D02*
X684984Y950016D01*
X676727Y300807D02*
X712470Y336550D01*
X1517650D01*
X619760Y350520D02*
X1530350D01*
X1735074Y540004D02*
X1752600Y557530D01*
X1735074Y438692D02*
Y540004D01*
Y438692D02*
X1744980Y428786D01*
Y383622D02*
Y428786D01*
X1742332Y380974D02*
X1744980Y383622D01*
X1742332Y341988D02*
Y380974D01*
X1722120Y640080D02*
X1794510Y567690D01*
X1621790Y640080D02*
X1722120D01*
X1813955Y577455D02*
X1814830Y576580D01*
X1813955Y577455D02*
Y582535D01*
X1752600Y643890D02*
X1813955Y582535D01*
X1386840Y589280D02*
X1407160Y568960D01*
Y502920D02*
Y568960D01*
X1275080Y436880D02*
X1336040D01*
X1341120Y589280D02*
X1386840D01*
X1310640D02*
X1341120D01*
X1158240Y441960D02*
X1198880Y482600D01*
Y538480D01*
X1244600Y629920D02*
X1270000D01*
X1310640Y589280D01*
X1092200Y899160D02*
Y965200D01*
X1071880Y985520D02*
X1092200Y965200D01*
X1076376Y746760D02*
X1381214D01*
X993520Y829616D02*
X1076376Y746760D01*
X1071880Y756920D02*
X1381760D01*
X1028120Y800680D02*
X1071880Y756920D01*
X570333Y301093D02*
X619760Y350520D01*
X1041400Y848360D02*
X1092200Y899160D01*
X1168400Y660400D02*
X1279903D01*
X1284983Y655320D01*
X1285240D01*
X1158240Y670560D02*
X1168400Y660400D01*
X1071880Y670560D02*
X1158240D01*
X853440Y411480D02*
Y624840D01*
X807720Y670560D02*
X1071880D01*
X807720D02*
X853440Y624840D01*
X972440Y955086D02*
Y973706D01*
X993520Y829616D02*
Y934006D01*
X1023720Y804804D02*
Y805080D01*
X997330Y930196D02*
X997840Y929686D01*
X972440Y973706D02*
X982980Y984246D01*
X1027844Y800680D02*
X1028120D01*
X972440Y955086D02*
X993520Y934006D01*
X997840Y830960D02*
X1023720Y805080D01*
X997330Y930196D02*
Y937188D01*
X997840Y830960D02*
Y929686D01*
X1023720Y804804D02*
X1027844Y800680D01*
X982980Y951538D02*
X997330Y937188D01*
X982980Y951538D02*
Y965200D01*
X637318Y300807D02*
X676727D01*
X526491Y301093D02*
X570333D01*
X1263904Y676656D02*
X1270000Y670560D01*
X777089Y676656D02*
X1263904D01*
X982980Y984246D02*
Y1000760D01*
X770993Y670560D02*
X777089Y676656D01*
X736600Y670560D02*
X770993D01*
X640080Y665480D02*
Y830080D01*
X584200Y609600D02*
X640080Y665480D01*
Y830080D02*
X657500Y847500D01*
X584200Y426720D02*
Y609600D01*
X467360Y309880D02*
X584200Y426720D01*
X402859Y309880D02*
X467360D01*
X357315Y264336D02*
X402859Y309880D01*
X357315Y245555D02*
Y264336D01*
X314960Y203200D02*
X357315Y245555D01*
X601096Y616336D02*
X811509Y826749D01*
X601096Y428376D02*
Y616336D01*
X811509Y826749D02*
Y968491D01*
X840661Y997642D01*
X740174Y907286D02*
X807475Y974587D01*
X738596Y911096D02*
X805897Y978397D01*
X708596Y911096D02*
X738596D01*
X717286Y907286D02*
X740174D01*
X401320Y299720D02*
X472440D01*
X601096Y428376D01*
X422930Y504210D02*
X431800Y513080D01*
X378473Y504210D02*
X422930D01*
X836851Y999220D02*
Y1027239D01*
X807475Y974587D02*
X812217D01*
X835039Y1138560D02*
X843910Y1129689D01*
Y1034298D02*
Y1129689D01*
X836851Y1027239D02*
X843910Y1034298D01*
X835039Y1138560D02*
Y1148701D01*
X833120Y1150620D02*
X835039Y1148701D01*
X812217Y974587D02*
X836851Y999220D01*
X657500Y847500D02*
X717286Y907286D01*
X815000Y1085000D02*
Y1157500D01*
X705875Y975875D02*
X815000Y1085000D01*
X818910Y1161410D02*
X837589D01*
X815000Y1157500D02*
X818910Y1161410D01*
X837589D02*
X849528Y1173349D01*
X855849D02*
X858520Y1176020D01*
X849528Y1173349D02*
X855849D01*
X821310Y1046310D02*
Y1113410D01*
X833120Y1125220D01*
X805897Y978397D02*
X807406D01*
X830755Y1001745D01*
X840661Y1025661D02*
X847720Y1032720D01*
X720000Y945000D02*
X821310Y1046310D01*
X840661Y997642D02*
Y1025661D01*
X687176Y950016D02*
X720000Y917192D01*
X684984Y950016D02*
X687176D01*
X617500Y810000D02*
Y820000D01*
X708596Y911096D01*
X653034Y981966D02*
Y997354D01*
X637500Y862500D02*
Y1007500D01*
X630000Y850000D02*
Y991121D01*
X607500Y850417D02*
X612500Y855417D01*
Y1003233D01*
X607500Y850000D02*
Y850417D01*
X591190Y1029931D02*
X630000Y991121D01*
X833120Y1176020D02*
X843910Y1186810D01*
X862989D01*
X873120Y1176679D01*
Y1124561D02*
Y1176679D01*
X862984Y1114425D02*
X873120Y1124561D01*
X857866Y1114425D02*
X862984D01*
X847720Y1104279D02*
X857866Y1114425D01*
X847720Y1032720D02*
Y1104279D01*
X702500Y975000D02*
X703375Y975875D01*
X705875D01*
X667500Y982500D02*
X722500Y927500D01*
X667500Y982500D02*
Y1085000D01*
X608330Y1123950D02*
X622280Y1110000D01*
Y1028108D02*
Y1110000D01*
Y1028108D02*
X653034Y997354D01*
X633730Y1123950D02*
X636401Y1121279D01*
Y1116099D02*
Y1121279D01*
Y1116099D02*
X667500Y1085000D01*
X570000Y1157500D02*
X601850Y1189350D01*
X587380Y1028353D02*
X612500Y1003233D01*
X587380Y1169059D02*
X603861Y1185540D01*
X591190Y1147469D02*
X606411Y1162690D01*
X570000Y1028491D02*
X598491Y1000000D01*
X570000Y1028491D02*
Y1157500D01*
X595000Y1050000D02*
X637500Y1007500D01*
X587380Y1028353D02*
Y1169059D01*
X591190Y1029931D02*
Y1147469D01*
X595000Y1050000D02*
Y1136020D01*
X608330Y1149350D01*
X595000Y850000D02*
X605000Y860000D01*
Y998512D01*
X603512Y1000000D02*
X605000Y998512D01*
X598491Y1000000D02*
X603512D01*
X601850Y1189350D02*
X634389D01*
X644520Y1179219D01*
Y1160140D02*
Y1179219D01*
X633730Y1149350D02*
X644520Y1160140D01*
X603861Y1185540D02*
X612799D01*
X621670Y1176669D01*
X631811D01*
X633730Y1174750D01*
X606411Y1162690D02*
Y1172831D01*
X608330Y1174750D01*
D115*
X1148320Y805060D02*
D03*
X1178320D02*
D03*
X1000760Y807720D02*
D03*
X1030760D02*
D03*
D133*
X326620Y462800D02*
D03*
Y553200D02*
D03*
D148*
X1372870Y1071915D02*
X1468545Y1167590D01*
X1372870Y881380D02*
Y1071915D01*
D159*
X1423670Y881380D02*
D03*
D160*
X1372870D02*
D03*
X1398270D02*
D03*
D161*
X1808480Y739140D02*
D03*
X1833880D02*
D03*
X1808480Y815340D02*
D03*
X1833880Y764540D02*
D03*
X1808480Y789940D02*
D03*
Y764540D02*
D03*
X1833880Y789940D02*
D03*
D162*
Y815340D02*
D03*
D163*
X1566900Y1167590D02*
D03*
X1828800Y1168400D02*
D03*
X1706880D02*
D03*
X1468545Y1167590D02*
D03*
X1271835D02*
D03*
X1370190D02*
D03*
X1173480D02*
D03*
D164*
X1531900D02*
D03*
X1803400Y1168400D02*
D03*
X1778000D02*
D03*
X1752600D02*
D03*
X1681480D02*
D03*
X1656080D02*
D03*
X1630680D02*
D03*
X1433545Y1167590D02*
D03*
X1236835D02*
D03*
X1335190D02*
D03*
X1138480D02*
D03*
D165*
X1755140Y294640D02*
D03*
Y320040D02*
D03*
X1729740D02*
D03*
Y294640D02*
D03*
X1704340Y320040D02*
D03*
Y294640D02*
D03*
X1780540D02*
D03*
X1678940D02*
D03*
Y320040D02*
D03*
X393700Y1173480D02*
D03*
X368300D02*
D03*
Y1148080D02*
D03*
X393700D02*
D03*
X368300Y1122680D02*
D03*
X393700D02*
D03*
Y1198880D02*
D03*
X368300Y1097280D02*
D03*
X393700D02*
D03*
X633730Y1123950D02*
D03*
X608330D02*
D03*
X633730Y1149350D02*
D03*
X608330D02*
D03*
Y1174750D02*
D03*
X633730D02*
D03*
Y1200150D02*
D03*
Y1098550D02*
D03*
X608330D02*
D03*
X1028700Y1176020D02*
D03*
X1003300D02*
D03*
Y1150620D02*
D03*
X1028700D02*
D03*
Y1125220D02*
D03*
X1003300D02*
D03*
Y1099820D02*
D03*
X1028700D02*
D03*
Y1201420D02*
D03*
X833120Y1176020D02*
D03*
X858520Y1150620D02*
D03*
X833120Y1125220D02*
D03*
X858520D02*
D03*
Y1176020D02*
D03*
X833120Y1150620D02*
D03*
X858520Y1201420D02*
D03*
X833120Y1099820D02*
D03*
X858520D02*
D03*
D166*
X1780540Y320040D02*
D03*
D167*
X982980Y1000760D02*
D03*
X1543050Y317495D02*
D03*
X1541780Y393700D02*
D03*
X982980Y965200D02*
D03*
Y929640D02*
D03*
X309880Y345440D02*
D03*
X744220Y533400D02*
D03*
X805180Y259080D02*
D03*
X830580Y218440D02*
D03*
Y177800D02*
D03*
D168*
X1008380Y1000760D02*
D03*
X1568450Y317495D02*
D03*
X1567180Y393700D02*
D03*
X1008380Y965200D02*
D03*
Y929640D02*
D03*
X769620Y533400D02*
D03*
X830580Y259080D02*
D03*
X805180Y218440D02*
D03*
Y177800D02*
D03*
D169*
X368300Y1198880D02*
D03*
X608330Y1200150D02*
D03*
X1003300Y1201420D02*
D03*
X833120D02*
D03*
D170*
X309880Y370840D02*
D03*
D171*
X1776906Y529160D02*
D03*
Y507160D02*
D03*
X1787906Y518160D02*
D03*
X1776906D02*
D03*
X1787906Y529160D02*
D03*
X1798906Y507160D02*
D03*
X1787906D02*
D03*
X1798906Y518160D02*
D03*
Y529160D02*
D03*
D172*
X748030Y1040130D02*
D03*
X651510Y971550D02*
D03*
X391160Y542290D02*
D03*
X378460Y462280D02*
D03*
X1666240Y650240D02*
D03*
X1826917Y525762D02*
D03*
X1827530Y534670D02*
D03*
X1831224Y550395D02*
D03*
X1837690Y393700D02*
D03*
X1752600Y557530D02*
D03*
X1742332Y341988D02*
D03*
X1760220Y563880D02*
D03*
X1826260Y391160D02*
D03*
X1784350Y586740D02*
D03*
X1813560Y673100D02*
D03*
X1781810Y631190D02*
D03*
X1746250Y576580D02*
D03*
X1769110Y835660D02*
D03*
X1852930Y680720D02*
D03*
X1805940Y562610D02*
D03*
X1814830Y576580D02*
D03*
X1752600Y643890D02*
D03*
X1794510Y567690D02*
D03*
X1621790Y640080D02*
D03*
X1781810Y600710D02*
D03*
X1805776Y467439D02*
D03*
X1809750Y624840D02*
D03*
X1725930Y440690D02*
D03*
X1738884Y418846D02*
D03*
X1652270Y411480D02*
D03*
X1517650Y336550D02*
D03*
X1541561Y519508D02*
D03*
X1905000Y453390D02*
D03*
X1916430Y473710D02*
D03*
X1868170Y477520D02*
D03*
X1916430Y461010D02*
D03*
X1905000Y466090D02*
D03*
Y480060D02*
D03*
X1817370Y462280D02*
D03*
X1744980Y490220D02*
D03*
X1741170Y481330D02*
D03*
X1638300Y449580D02*
D03*
X1803400Y391160D02*
D03*
X1916202Y433272D02*
D03*
Y392632D02*
D03*
Y419302D02*
D03*
Y406602D02*
D03*
X1916430Y447040D02*
D03*
X1905000Y439420D02*
D03*
X1904772Y425652D02*
D03*
Y385012D02*
D03*
Y398982D02*
D03*
Y411682D02*
D03*
X1760220Y405130D02*
D03*
X1691640Y539750D02*
D03*
X1723390D02*
D03*
X1916202Y555192D02*
D03*
X1921510Y527050D02*
D03*
X1916430Y487680D02*
D03*
Y541020D02*
D03*
Y514350D02*
D03*
X1902460Y554990D02*
D03*
Y527050D02*
D03*
X1902232Y541222D02*
D03*
X1905172Y514448D02*
D03*
X1906442Y496668D02*
D03*
X1921510Y497840D02*
D03*
X1916430Y568960D02*
D03*
X1838960Y665480D02*
D03*
X1588770Y614680D02*
D03*
X1596390Y457200D02*
D03*
X1530350Y349250D02*
D03*
X1485900Y393700D02*
D03*
X1482090Y317500D02*
D03*
X1570990Y716026D02*
D03*
X1713230Y763270D02*
D03*
X1770380Y727710D02*
D03*
X1391920Y553720D02*
D03*
X1407160Y502920D02*
D03*
X1341120Y589280D02*
D03*
X1391920Y563880D02*
D03*
X1336040Y436880D02*
D03*
X1275080D02*
D03*
X1178560Y538480D02*
D03*
X1188720D02*
D03*
X1198880D02*
D03*
X705000Y990000D02*
D03*
X790000Y830000D02*
D03*
X735000Y897380D02*
D03*
X537500Y1012500D02*
D03*
X495000Y830000D02*
D03*
X667500Y805000D02*
D03*
X1168400Y502920D02*
D03*
X1244600Y629920D02*
D03*
X1071880Y985520D02*
D03*
X1381760Y746760D02*
D03*
Y756920D02*
D03*
X1473200Y787400D02*
D03*
X1046480Y975360D02*
D03*
X1122680Y763016D02*
D03*
X762000Y685800D02*
D03*
X1254760Y377157D02*
D03*
X1295400Y391160D02*
D03*
X1041400Y848360D02*
D03*
X1285240Y655320D02*
D03*
X1071880Y670560D02*
D03*
X682500Y985000D02*
D03*
X735000Y917500D02*
D03*
X682500Y815000D02*
D03*
X512500Y1007500D02*
D03*
X807720Y670560D02*
D03*
X853440Y411480D02*
D03*
X624840Y747500D02*
D03*
X1158240Y441960D02*
D03*
X1417320Y523240D02*
D03*
X736600Y467360D02*
D03*
X436880Y873760D02*
D03*
X447040Y863600D02*
D03*
X736600Y457200D02*
D03*
X746760Y370840D02*
D03*
X1295400Y553720D02*
D03*
X1137920Y289560D02*
D03*
X1270000Y670560D02*
D03*
X1305560Y553720D02*
D03*
X1137920Y330200D02*
D03*
X736600Y670560D02*
D03*
X660400Y767080D02*
D03*
X650240D02*
D03*
X1066800Y924560D02*
D03*
X610000Y785000D02*
D03*
X1066800Y934720D02*
D03*
X431800Y497840D02*
D03*
Y513080D02*
D03*
X378473Y504210D02*
D03*
X1046480Y995680D02*
D03*
X526491Y301093D02*
D03*
X609600Y370840D02*
D03*
X314960Y203200D02*
D03*
X401320Y299720D02*
D03*
X637318Y300807D02*
D03*
X657500Y847500D02*
D03*
X811509Y968491D02*
D03*
X830755Y1001745D02*
D03*
X720000Y917192D02*
D03*
X617500Y810000D02*
D03*
X630000Y850000D02*
D03*
X637500Y862500D02*
D03*
X620000Y850000D02*
D03*
X720000Y945000D02*
D03*
X702500Y975000D02*
D03*
X673596Y1037500D02*
D03*
X659130Y988060D02*
D03*
X942500Y1062296D02*
D03*
X587500Y860000D02*
D03*
X597500Y867500D02*
D03*
X590000Y877500D02*
D03*
X721706Y980094D02*
D03*
X607500Y850000D02*
D03*
X595000D02*
D03*
X722500Y927500D02*
D03*
X590000Y890000D02*
D03*
Y902500D02*
D03*
X597500Y1035000D02*
D03*
X584806Y1022306D02*
D03*
X1765000Y1032500D02*
D03*
X688121Y1045895D02*
D03*
X1825000Y1022500D02*
D03*
X1630000Y1027500D02*
D03*
X730250Y1042670D02*
D03*
X1690000Y1027500D02*
D03*
D173*
X1659890Y836930D02*
D03*
X1198880Y288290D02*
D03*
X1193800Y970280D02*
D03*
X364490Y919480D02*
D03*
D174*
X1503680Y994410D02*
D03*
Y943610D02*
D03*
Y969010D02*
D03*
M02*
