G04*
G04 #@! TF.GenerationSoftware,Altium Limited,Altium Designer,25.4.2 (15)*
G04*
G04 Layer_Color=32896*
%FSLAX44Y44*%
%MOMM*%
G71*
G04*
G04 #@! TF.SameCoordinates,145FFF0F-7840-416A-8FEA-007F4607A66E*
G04*
G04*
G04 #@! TF.FilePolarity,Positive*
G04*
G01*
G75*
%ADD10C,0.5080*%
%ADD18C,0.2000*%
%ADD19C,0.2540*%
D10*
X1507490Y1046480D02*
G03*
X1507490Y1046480I-3810J0D01*
G01*
D18*
X1152320Y529490D02*
X1154320D01*
X1152320Y516990D02*
X1154320D01*
X1152320Y549810D02*
X1154320D01*
X1152320Y537310D02*
X1154320D01*
D19*
X787149Y944114D02*
X789688Y946653D01*
X794767D01*
X797306Y944114D01*
Y933957D01*
X794767Y931418D01*
X789688D01*
X787149Y933957D01*
X771914Y931418D02*
X782071D01*
X771914Y941575D01*
Y944114D01*
X774453Y946653D01*
X779532D01*
X782071Y944114D01*
X766836D02*
X764297Y946653D01*
X759218D01*
X756679Y944114D01*
Y933957D01*
X759218Y931418D01*
X764297D01*
X766836Y933957D01*
Y944114D01*
X720729Y791614D02*
X719036Y789922D01*
X715650D01*
X713958Y791614D01*
Y798386D01*
X715650Y800078D01*
X719036D01*
X720729Y798386D01*
X730885Y800078D02*
X724114D01*
X730885Y793307D01*
Y791614D01*
X729193Y789922D01*
X725807D01*
X724114Y791614D01*
X734271Y789922D02*
X741042D01*
Y791614D01*
X734271Y798386D01*
Y800078D01*
X1133061Y516222D02*
Y531457D01*
X1125443D01*
X1122904Y528918D01*
Y523839D01*
X1125443Y521300D01*
X1133061D01*
X1127982D02*
X1122904Y516222D01*
X1107669Y531457D02*
X1117825D01*
Y523839D01*
X1112747Y526379D01*
X1110208D01*
X1107669Y523839D01*
Y518761D01*
X1110208Y516222D01*
X1115286D01*
X1117825Y518761D01*
X1102590Y516222D02*
X1097512D01*
X1100051D01*
Y531457D01*
X1102590Y528918D01*
X1132833Y535942D02*
Y551177D01*
X1125216D01*
X1122677Y548638D01*
Y543560D01*
X1125216Y541021D01*
X1132833D01*
X1127755D02*
X1122677Y535942D01*
X1107442Y551177D02*
X1117598D01*
Y543560D01*
X1112520Y546099D01*
X1109981D01*
X1107442Y543560D01*
Y538482D01*
X1109981Y535942D01*
X1115059D01*
X1117598Y538482D01*
X1092207Y535942D02*
X1102363D01*
X1092207Y546099D01*
Y548638D01*
X1094746Y551177D01*
X1099824D01*
X1102363Y548638D01*
M02*
