G04*
G04 #@! TF.GenerationSoftware,Altium Limited,Altium Designer,25.4.2 (15)*
G04*
G04 Layer_Physical_Order=1*
G04 Layer_Color=255*
%FSLAX44Y44*%
%MOMM*%
G71*
G04*
G04 #@! TF.SameCoordinates,145FFF0F-7840-416A-8FEA-007F4607A66E*
G04*
G04*
G04 #@! TF.FilePolarity,Positive*
G04*
G01*
G75*
%ADD19C,0.2540*%
%ADD22R,0.6000X0.6000*%
%ADD23R,0.5588X1.7018*%
%ADD24R,1.6500X0.6500*%
%ADD25R,1.3500X1.5500*%
%ADD26R,1.5500X1.4000*%
%ADD27R,1.0000X1.2500*%
%ADD28R,1.3500X1.0000*%
%ADD29R,1.4500X1.2000*%
%ADD30R,0.8000X1.2500*%
%ADD31R,1.4000X1.1000*%
%ADD32R,1.0500X1.4500*%
%ADD33R,1.3500X0.8500*%
%ADD34R,0.3000X1.4750*%
%ADD35R,1.4750X0.3000*%
G04:AMPARAMS|DCode=36|XSize=0.45mm|YSize=1.4mm|CornerRadius=0.0495mm|HoleSize=0mm|Usage=FLASHONLY|Rotation=180.000|XOffset=0mm|YOffset=0mm|HoleType=Round|Shape=RoundedRectangle|*
%AMROUNDEDRECTD36*
21,1,0.4500,1.3010,0,0,180.0*
21,1,0.3510,1.4000,0,0,180.0*
1,1,0.0990,-0.1755,0.6505*
1,1,0.0990,0.1755,0.6505*
1,1,0.0990,0.1755,-0.6505*
1,1,0.0990,-0.1755,-0.6505*
%
%ADD36ROUNDEDRECTD36*%
%ADD37R,0.3810X0.8992*%
%ADD38R,0.3810X0.5004*%
%ADD39R,1.2000X1.2000*%
%ADD40O,2.1000X0.3000*%
%ADD41O,0.3000X2.1000*%
%ADD42R,0.9000X1.1000*%
%ADD43R,0.4500X0.4500*%
%ADD44R,1.0000X1.3500*%
%ADD45R,1.3000X1.5500*%
%ADD46R,0.7000X1.5000*%
%ADD47R,1.0000X0.8000*%
%ADD48R,0.6250X0.8500*%
%ADD49R,0.3500X0.5750*%
%ADD50R,0.5750X0.3500*%
%ADD51R,1.2850X1.4700*%
%ADD52R,0.9578X1.2621*%
%ADD53R,4.0000X2.0000*%
%ADD54R,1.6000X3.2000*%
%ADD55R,2.0000X4.0000*%
%ADD56R,1.6000X2.8000*%
%ADD57R,1.6000X4.0000*%
%ADD58R,1.3621X1.1549*%
%ADD59R,1.2621X1.0046*%
%ADD60R,1.2565X0.3125*%
G04:AMPARAMS|DCode=61|XSize=1.2565mm|YSize=0.3125mm|CornerRadius=0.1562mm|HoleSize=0mm|Usage=FLASHONLY|Rotation=180.000|XOffset=0mm|YOffset=0mm|HoleType=Round|Shape=RoundedRectangle|*
%AMROUNDEDRECTD61*
21,1,1.2565,0.0000,0,0,180.0*
21,1,0.9440,0.3125,0,0,180.0*
1,1,0.3125,-0.4720,0.0000*
1,1,0.3125,0.4720,0.0000*
1,1,0.3125,0.4720,0.0000*
1,1,0.3125,-0.4720,0.0000*
%
%ADD61ROUNDEDRECTD61*%
%ADD62R,1.4500X0.9500*%
%ADD63R,0.8065X1.3082*%
%ADD64R,1.2065X1.5082*%
%ADD65R,0.5200X0.5200*%
%ADD66R,1.4562X1.3781*%
%ADD67R,0.9500X1.3500*%
%ADD68R,0.7500X0.9000*%
%ADD69R,1.1000X0.6000*%
%ADD70R,1.0500X1.3000*%
%ADD71R,1.4000X1.2000*%
G04:AMPARAMS|DCode=72|XSize=1.5242mm|YSize=0.578mm|CornerRadius=0.289mm|HoleSize=0mm|Usage=FLASHONLY|Rotation=90.000|XOffset=0mm|YOffset=0mm|HoleType=Round|Shape=RoundedRectangle|*
%AMROUNDEDRECTD72*
21,1,1.5242,0.0000,0,0,90.0*
21,1,0.9463,0.5780,0,0,90.0*
1,1,0.5780,0.0000,0.4731*
1,1,0.5780,0.0000,-0.4731*
1,1,0.5780,0.0000,-0.4731*
1,1,0.5780,0.0000,0.4731*
%
%ADD72ROUNDEDRECTD72*%
%ADD73R,0.5780X1.5242*%
%ADD74R,1.0000X0.3000*%
%ADD75R,1.3046X1.4562*%
%ADD76R,3.7000X3.7000*%
%ADD77O,0.2500X0.7000*%
%ADD78O,0.7000X0.2500*%
G04:AMPARAMS|DCode=79|XSize=0.3mm|YSize=0.3mm|CornerRadius=0.0495mm|HoleSize=0mm|Usage=FLASHONLY|Rotation=270.000|XOffset=0mm|YOffset=0mm|HoleType=Round|Shape=RoundedRectangle|*
%AMROUNDEDRECTD79*
21,1,0.3000,0.2010,0,0,270.0*
21,1,0.2010,0.3000,0,0,270.0*
1,1,0.0990,-0.1005,-0.1005*
1,1,0.0990,-0.1005,0.1005*
1,1,0.0990,0.1005,0.1005*
1,1,0.0990,0.1005,-0.1005*
%
%ADD79ROUNDEDRECTD79*%
%ADD80R,1.5000X1.5500*%
%ADD81R,1.3500X1.1000*%
%ADD82R,2.1000X5.6000*%
%ADD83R,1.3500X0.9500*%
%ADD84R,1.4562X1.3046*%
%ADD85R,3.2000X1.6000*%
%ADD86R,1.3000X1.0500*%
%ADD87R,1.5500X1.3500*%
%ADD88R,1.4000X1.5500*%
%ADD89R,1.3082X0.8065*%
%ADD90R,1.2500X1.0000*%
%ADD91R,1.0000X1.3500*%
%ADD92R,1.3500X1.0000*%
%ADD93R,1.2000X1.4500*%
%ADD94R,1.3781X1.4562*%
%ADD114R,1.5500X0.6000*%
%ADD115C,0.9000*%
%ADD130C,1.2700*%
G04:AMPARAMS|DCode=133|XSize=1.1mm|YSize=2.05mm|CornerRadius=0.55mm|HoleSize=0mm|Usage=FLASHONLY|Rotation=270.000|XOffset=0mm|YOffset=0mm|HoleType=Round|Shape=RoundedRectangle|*
%AMROUNDEDRECTD133*
21,1,1.1000,0.9500,0,0,270.0*
21,1,0.0000,2.0500,0,0,270.0*
1,1,1.1000,-0.4750,0.0000*
1,1,1.1000,-0.4750,0.0000*
1,1,1.1000,0.4750,0.0000*
1,1,1.1000,0.4750,0.0000*
%
%ADD133ROUNDEDRECTD133*%
%ADD147C,0.3810*%
%ADD148C,0.7620*%
%ADD149R,0.5004X4.9936*%
%ADD150R,0.5004X1.9990*%
%ADD151R,2.6391X0.5004*%
%ADD152R,0.5004X2.7000*%
%ADD153R,3.9421X0.5004*%
%ADD154R,4.8997X0.5004*%
%ADD155R,4.8997X0.8992*%
%ADD156R,0.5080X0.8992*%
%ADD157R,0.3277X0.5004*%
%ADD158R,0.5004X0.3277*%
%ADD159R,1.3500X1.3500*%
%ADD160C,1.3500*%
%ADD161C,1.6650*%
%ADD162R,1.6650X1.6650*%
G04:AMPARAMS|DCode=163|XSize=1.95mm|YSize=1.95mm|CornerRadius=0.4875mm|HoleSize=0mm|Usage=FLASHONLY|Rotation=180.000|XOffset=0mm|YOffset=0mm|HoleType=Round|Shape=RoundedRectangle|*
%AMROUNDEDRECTD163*
21,1,1.9500,0.9750,0,0,180.0*
21,1,0.9750,1.9500,0,0,180.0*
1,1,0.9750,-0.4875,0.4875*
1,1,0.9750,0.4875,0.4875*
1,1,0.9750,0.4875,-0.4875*
1,1,0.9750,-0.4875,-0.4875*
%
%ADD163ROUNDEDRECTD163*%
%ADD164C,1.9500*%
%ADD165C,1.6500*%
G04:AMPARAMS|DCode=166|XSize=1.65mm|YSize=1.65mm|CornerRadius=0.4125mm|HoleSize=0mm|Usage=FLASHONLY|Rotation=180.000|XOffset=0mm|YOffset=0mm|HoleType=Round|Shape=RoundedRectangle|*
%AMROUNDEDRECTD166*
21,1,1.6500,0.8250,0,0,180.0*
21,1,0.8250,1.6500,0,0,180.0*
1,1,0.8250,-0.4125,0.4125*
1,1,0.8250,0.4125,0.4125*
1,1,0.8250,0.4125,-0.4125*
1,1,0.8250,-0.4125,-0.4125*
%
%ADD166ROUNDEDRECTD166*%
%ADD167C,1.6000*%
G04:AMPARAMS|DCode=168|XSize=1.6mm|YSize=1.6mm|CornerRadius=0.4mm|HoleSize=0mm|Usage=FLASHONLY|Rotation=180.000|XOffset=0mm|YOffset=0mm|HoleType=Round|Shape=RoundedRectangle|*
%AMROUNDEDRECTD168*
21,1,1.6000,0.8000,0,0,180.0*
21,1,0.8000,1.6000,0,0,180.0*
1,1,0.8000,-0.4000,0.4000*
1,1,0.8000,0.4000,0.4000*
1,1,0.8000,0.4000,-0.4000*
1,1,0.8000,-0.4000,-0.4000*
%
%ADD168ROUNDEDRECTD168*%
G04:AMPARAMS|DCode=169|XSize=1.65mm|YSize=1.65mm|CornerRadius=0.4125mm|HoleSize=0mm|Usage=FLASHONLY|Rotation=270.000|XOffset=0mm|YOffset=0mm|HoleType=Round|Shape=RoundedRectangle|*
%AMROUNDEDRECTD169*
21,1,1.6500,0.8250,0,0,270.0*
21,1,0.8250,1.6500,0,0,270.0*
1,1,0.8250,-0.4125,-0.4125*
1,1,0.8250,-0.4125,0.4125*
1,1,0.8250,0.4125,0.4125*
1,1,0.8250,0.4125,-0.4125*
%
%ADD169ROUNDEDRECTD169*%
G04:AMPARAMS|DCode=170|XSize=1.6mm|YSize=1.6mm|CornerRadius=0.4mm|HoleSize=0mm|Usage=FLASHONLY|Rotation=270.000|XOffset=0mm|YOffset=0mm|HoleType=Round|Shape=RoundedRectangle|*
%AMROUNDEDRECTD170*
21,1,1.6000,0.8000,0,0,270.0*
21,1,0.8000,1.6000,0,0,270.0*
1,1,0.8000,-0.4000,-0.4000*
1,1,0.8000,-0.4000,0.4000*
1,1,0.8000,0.4000,0.4000*
1,1,0.8000,0.4000,-0.4000*
%
%ADD170ROUNDEDRECTD170*%
%ADD171C,0.5000*%
%ADD172C,0.7112*%
%ADD173C,6.0960*%
G36*
X359370Y457300D02*
X360247Y457300D01*
X361912Y457846D01*
X363326Y458882D01*
X364348Y460307D01*
X364876Y461979D01*
X364859Y463731D01*
X364297Y465392D01*
X363247Y466796D01*
X362530Y467300D01*
X362530Y467300D01*
X350710D01*
X349993Y466796D01*
X348943Y465392D01*
X348381Y463731D01*
X348364Y461979D01*
X348892Y460307D01*
X349914Y458882D01*
X351328Y457846D01*
X352994Y457300D01*
X353870Y457300D01*
Y457300D01*
X359370D01*
D02*
G37*
G36*
Y558700D02*
X360247Y558700D01*
X361912Y558154D01*
X363326Y557118D01*
X364348Y555693D01*
X364876Y554021D01*
X364859Y552268D01*
X364297Y550608D01*
X363247Y549204D01*
X362530Y548700D01*
X362530Y548700D01*
X350710Y548700D01*
X349993Y549204D01*
X348943Y550608D01*
X348381Y552268D01*
X348364Y554021D01*
X348892Y555693D01*
X349914Y557118D01*
X351328Y558154D01*
X352994Y558700D01*
X353870Y558700D01*
Y558700D01*
X359370Y558700D01*
D02*
G37*
D19*
X747950Y1040050D02*
X748030Y1040130D01*
X747950Y1020045D02*
Y1040050D01*
X646070Y942570D02*
Y966110D01*
X651510Y971550D01*
X326620Y462800D02*
X326870Y462550D01*
X356370D01*
X356620Y462300D01*
X680331Y817169D02*
X682500Y815000D01*
X365928Y545500D02*
X382838D01*
X360620D02*
X365928D01*
X390285Y543165D02*
X391160Y542290D01*
X382838Y545500D02*
X385173Y543165D01*
X390285D01*
X1353117Y624069D02*
X1385013D01*
X378460Y462280D02*
X379658D01*
X384838Y467460D01*
X387878Y464420D01*
X356620Y462300D02*
X365740D01*
X326870Y553450D02*
X356620D01*
X1101130Y514005D02*
X1128630D01*
X1811656Y535660D02*
X1816490D01*
X1831224Y550395D01*
X1837490Y505660D02*
X1837690Y505460D01*
X1811656Y505660D02*
X1837490D01*
X1666240Y650240D02*
X1682750D01*
X1696280Y663770D01*
X1811656Y530660D02*
X1822283D01*
X1826293Y534670D02*
X1827530D01*
X1822283Y530660D02*
X1826293Y534670D01*
X1826836Y525680D02*
X1826917Y525762D01*
X1811676Y525680D02*
X1826836D01*
X469540Y178690D02*
Y179940D01*
X446380Y203100D02*
X469540Y179940D01*
Y178690D02*
X517780D01*
X528035Y188945D02*
Y188980D01*
X517780Y178690D02*
X528035Y188945D01*
X444414Y178690D02*
X469540D01*
X536300Y258190D02*
Y291283D01*
X434124Y188980D02*
X444414Y178690D01*
X1587502Y336548D02*
X1652270Y401315D01*
Y411480D01*
X1589822Y370840D02*
X1591310Y372328D01*
Y412750D01*
X1551940Y370840D02*
X1589822D01*
X1567180Y393700D02*
Y436880D01*
X1591310Y412750D01*
X1541780Y462280D02*
X1567180Y436880D01*
X1796678Y352688D02*
X1837690Y393700D01*
X1787788Y352688D02*
X1796678D01*
X1755140Y320040D02*
X1787788Y352688D01*
X1791598Y356498D02*
X1826260Y391160D01*
X1740798Y356498D02*
X1791598D01*
X1704340Y320040D02*
X1740798Y356498D01*
X1775300Y391160D02*
X1803400D01*
X1826260Y488950D02*
X1826768Y489458D01*
X1774030Y389890D02*
X1775300Y391160D01*
X1730333Y556485D02*
Y567457D01*
X1734143Y558063D02*
Y573739D01*
Y558063D02*
X1761526Y530680D01*
X1730333Y556485D02*
X1759948Y526870D01*
X1770406Y541910D02*
Y544120D01*
X1757871Y556655D02*
X1770406Y544120D01*
X1753475Y556655D02*
X1757871D01*
X1752600Y557530D02*
X1753475Y556655D01*
X1742332Y332632D02*
Y341988D01*
X1729740Y320040D02*
X1742332Y332632D01*
X1612048Y605230D02*
X1702652D01*
X1734143Y573739D01*
X1746885Y576580D02*
X1759585Y563880D01*
X1760220D01*
X1811656Y525660D02*
X1811676Y525680D01*
X1766570Y577850D02*
X1775460D01*
X1784350Y586740D01*
X1813560Y673100D02*
X1844745Y704285D01*
Y743640D01*
X1835645Y752740D02*
X1844745Y743640D01*
X1820280Y752740D02*
X1835645D01*
X1808480Y764540D02*
X1820280Y752740D01*
X1785406Y567576D02*
X1797070Y579240D01*
X1785406Y541910D02*
Y567576D01*
X1790406Y562349D02*
X1794510Y566453D01*
X1790406Y541910D02*
Y562349D01*
X1781810Y631190D02*
Y631922D01*
X1767809Y645923D02*
X1781810Y631922D01*
X1798320Y613410D02*
X1809750Y624840D01*
X1798320Y594240D02*
Y613410D01*
X1797050Y612140D02*
X1798320Y613410D01*
X1693350Y612140D02*
X1797050D01*
X1570990Y715010D02*
X1809750D01*
X1570990Y506730D02*
Y716026D01*
X1746250Y576580D02*
X1746885D01*
X1769110Y835660D02*
X1813560D01*
X1833880Y815340D01*
X1852930Y680720D02*
Y745490D01*
X1833880Y764540D02*
X1852930Y745490D01*
X1800406Y541910D02*
Y557076D01*
X1805940Y562610D01*
X1765300Y645923D02*
X1767809D01*
X1805406Y541910D02*
Y544120D01*
X1814830Y553544D01*
Y576580D01*
X1752600Y643890D02*
Y669023D01*
X1738630Y682993D02*
X1752600Y669023D01*
X1794510Y566453D02*
Y567690D01*
X1607820Y654050D02*
X1621790Y640080D01*
X1607820Y654050D02*
Y669290D01*
X1760220Y563880D02*
X1775406Y548694D01*
X1766570Y592850D02*
X1770300Y596580D01*
X1776443D01*
X1780573Y600710D01*
X1781810D01*
X1627320Y669290D02*
X1652320D01*
X1693300D02*
X1696280Y672270D01*
X1671320Y669290D02*
X1693300D01*
X1704780Y672270D02*
X1711730D01*
X1730767Y691307D01*
X1746493D01*
X1760029Y677771D01*
Y665703D02*
Y677771D01*
Y665703D02*
X1762791Y662940D01*
X1765300D01*
X1704780Y663770D02*
X1736920D01*
X1738630Y665480D01*
X1800406Y472894D02*
Y494410D01*
Y472894D02*
X1805776Y467524D01*
Y467439D02*
Y467524D01*
X1761500Y441830D02*
X1764170Y444500D01*
X1738884Y418846D02*
X1791098D01*
X1738884Y419464D02*
X1761250Y441830D01*
X1709420Y440280D02*
X1709830Y440690D01*
X1725930D01*
X1735713Y420780D02*
X1737647Y418846D01*
X1738884D01*
X1709420Y420780D02*
X1735713D01*
X1738884Y418846D02*
Y419464D01*
X1541780Y462280D02*
Y519289D01*
X1587500Y336550D02*
X1587502Y336548D01*
X1517650Y336550D02*
X1587500D01*
X1568450Y317495D02*
X1587502Y336548D01*
X1775406Y541910D02*
Y548694D01*
X1541561Y519508D02*
X1541780Y519289D01*
X1621350Y599440D02*
X1626350D01*
X1619370Y610160D02*
X1621350Y612140D01*
X1698350Y599440D02*
X1730333Y567457D01*
X1693350Y599440D02*
X1698350D01*
X1626350D02*
X1639580Y586210D01*
X1612048Y580950D02*
X1629532D01*
X1638300Y449580D02*
X1647190D01*
X1661470Y463860D01*
Y481812D01*
X1671322Y467358D02*
X1684020Y454660D01*
X1671322Y467358D02*
Y476038D01*
X1653680Y474930D02*
Y476180D01*
X1638300Y459549D02*
X1653680Y474930D01*
X1616350Y586740D02*
X1621350D01*
X1606750Y586248D02*
Y605320D01*
X1610560Y603742D02*
X1612048Y605230D01*
X1610560Y592530D02*
Y603742D01*
Y592530D02*
X1616350Y586740D01*
X1606750Y586248D02*
X1612048Y580950D01*
X1611590Y610160D02*
X1619370D01*
X1606750Y605320D02*
X1611590Y610160D01*
X1595120Y574040D02*
X1621350D01*
X1638300Y449580D02*
Y459549D01*
X1628140Y506730D02*
X1636890Y515480D01*
X1628140Y493790D02*
Y506730D01*
Y459740D02*
X1638300Y449580D01*
X1628140Y459740D02*
Y478790D01*
X1682560Y580950D02*
X1688350Y586740D01*
X1693350Y574040D02*
X1698350D01*
X1688350Y586740D02*
X1693350D01*
X1682560Y569738D02*
X1741638Y510660D01*
X1639580Y562060D02*
Y586210D01*
Y562060D02*
X1654810Y546830D01*
X1686303Y544830D02*
X1691383Y539750D01*
X1654810Y544830D02*
Y546830D01*
X1673310Y544830D02*
X1686303D01*
X1682560Y569738D02*
Y580950D01*
X1629532D02*
X1635770Y574712D01*
Y547778D02*
Y574712D01*
Y547778D02*
X1660308Y523240D01*
X1588770Y580390D02*
X1595120Y574040D01*
X1588770Y596506D02*
Y614680D01*
X1570990Y506730D02*
X1582700Y495020D01*
X1596390D01*
Y457200D02*
Y477520D01*
X1653680Y499180D02*
Y515480D01*
X1657631Y519430D01*
X1636890Y515480D02*
X1653680D01*
X1660308Y523240D02*
X1716078D01*
X1692910Y519430D02*
X1738630Y473710D01*
X1657631Y519430D02*
X1692910D01*
X1671180Y499180D02*
X1672415Y497945D01*
X1695990Y478910D02*
X1697990D01*
X1671180Y476180D02*
X1671322Y476038D01*
X1661470Y481812D02*
X1665959Y486301D01*
X1676220Y493910D02*
X1697990D01*
X1691640Y472560D02*
X1692510Y473430D01*
X1665959Y486301D02*
X1668611D01*
X1691640Y454660D02*
Y472560D01*
X1672415Y490106D02*
X1676220Y493910D01*
X1672415Y490106D02*
Y497945D01*
X1668611Y486301D02*
X1672415Y490106D01*
X1684020Y454660D02*
X1691640D01*
X1692510Y475430D02*
X1695990Y478910D01*
X1692510Y473430D02*
Y475430D01*
X1754030Y389890D02*
X1757760Y393620D01*
Y401433D01*
X1760220Y403893D01*
Y405130D01*
X1823840Y610870D02*
Y612870D01*
X1812745Y623965D02*
X1823840Y612870D01*
X1921510Y527050D02*
X1922116Y526444D01*
X1809750Y625260D02*
X1823840Y639350D01*
X1809750Y624840D02*
Y625260D01*
Y624840D02*
X1810625Y623965D01*
X1823840Y639350D02*
Y641350D01*
X1810625Y623965D02*
X1812745D01*
X1827965Y584345D02*
Y585470D01*
X1837690Y505460D02*
X1859280D01*
X1837690Y494460D02*
X1851230D01*
X1868170Y477520D01*
X1869045Y478395D01*
X1873045D02*
X1892300Y497650D01*
X1869045Y478395D02*
X1873045D01*
X1892399Y505550D02*
X1930400D01*
X1771550Y572870D02*
Y574120D01*
X1767820Y577850D02*
X1771550Y574120D01*
X1892300Y505650D02*
X1892399Y505550D01*
X1871470Y505650D02*
X1892300D01*
X1871280Y505460D02*
X1871470Y505650D01*
X1797070Y579240D02*
X1798320D01*
X1771550Y572870D02*
X1780406Y564014D01*
X1698350Y574040D02*
X1751730Y520660D01*
X1780406Y541910D02*
Y564014D01*
X1691383Y539750D02*
X1691640D01*
X1805406Y492200D02*
Y494410D01*
X1817370Y462280D02*
Y480236D01*
X1805406Y492200D02*
X1817370Y480236D01*
X1760736Y526870D02*
X1761926Y525680D01*
X1759948Y526870D02*
X1760736D01*
X1751730Y520660D02*
X1764156D01*
X1747480Y515660D02*
X1764156D01*
X1723390Y539750D02*
X1747480Y515660D01*
X1733658Y505660D02*
X1764156D01*
X1716078Y523240D02*
X1733658Y505660D01*
X1764170Y444500D02*
X1776620D01*
X1785386Y488716D02*
Y492180D01*
X1741638Y510660D02*
X1764156D01*
X1761526Y530680D02*
X1764136D01*
X1764156Y530660D01*
X1738630Y473710D02*
X1762316D01*
X1744980Y490220D02*
X1766216D01*
X1741734Y481894D02*
X1765499D01*
X1741170Y481330D02*
X1741734Y481894D01*
X1761250Y441830D02*
X1761500D01*
X1779196Y490590D02*
Y490990D01*
X1780386Y492180D01*
X1778006Y489400D02*
X1779196Y490590D01*
X1775406Y492706D02*
Y494410D01*
X1774196Y490590D02*
Y491496D01*
X1775406Y492706D01*
X1766216Y490220D02*
X1770406Y494410D01*
X1767077Y478084D02*
X1778006Y489012D01*
X1751330Y454660D02*
X1785386Y488716D01*
X1766689Y478084D02*
X1767077D01*
X1762316Y473710D02*
X1766689Y478084D01*
X1778006Y489012D02*
Y489400D01*
X1765499Y481894D02*
X1774196Y490590D01*
X1691640Y454660D02*
X1751330D01*
X1530350Y349250D02*
X1551940Y370840D01*
X1485900Y393700D02*
X1498720D01*
X1498720Y393700D01*
X1482090Y317500D02*
X1496300D01*
X1511305Y317495D02*
X1543050D01*
X1511300Y317500D02*
X1511305Y317495D01*
X1513720Y393700D02*
X1541780D01*
X1513720Y393700D02*
X1513720Y393700D01*
X1809750Y715010D02*
X1833880Y739140D01*
X1765300Y815340D02*
X1808480D01*
X1713230Y763270D02*
X1765300Y815340D01*
X1770380Y727710D02*
X1781810Y739140D01*
X1808480D01*
X1780193Y932180D02*
X1824624D01*
X1325880Y624100D02*
X1329690Y620290D01*
X1325140Y624840D02*
X1325880Y624100D01*
X1349339Y620290D02*
X1353117Y624069D01*
X1329690Y620290D02*
X1349339D01*
X1168869Y472399D02*
X1178100Y481629D01*
X1148080Y472399D02*
X1168869D01*
X747470Y1001795D02*
X747950Y1001315D01*
X731325Y1010920D02*
X737042D01*
X1383570Y545370D02*
X1391920Y553720D01*
X1378350Y532160D02*
X1379590Y533400D01*
X1383570Y537380D02*
Y545370D01*
X1379590Y533400D02*
X1383570Y537380D01*
X1365200Y537160D02*
X1391920Y563880D01*
X1346220Y537160D02*
X1365200D01*
X1407160Y540118D02*
Y567472D01*
X1405672Y538630D02*
X1407160Y540118D01*
X1404656Y569976D02*
X1407160Y567472D01*
X1166469Y833120D02*
X1181787D01*
X1189852D01*
X1176860Y828193D02*
X1181787Y833120D01*
X1163320Y852190D02*
Y853440D01*
X1158590Y847460D02*
X1163320Y852190D01*
X1199820Y814710D02*
Y823152D01*
Y795410D02*
Y814710D01*
X1189852Y833120D02*
X1199820Y823152D01*
X1176860Y814008D02*
Y828193D01*
X1155332Y792480D02*
X1176860Y814008D01*
X1151128Y847460D02*
X1158590D01*
X1130550Y826882D02*
X1151128Y847460D01*
X1129010Y812520D02*
X1145869D01*
X1127820Y814710D02*
X1130550Y817440D01*
Y826882D01*
X1126820Y814710D02*
X1127820D01*
X1126820D02*
X1129010Y812520D01*
X1145869D02*
X1166469Y833120D01*
X1129550Y792680D02*
X1131838D01*
X1132038Y792480D02*
X1155332D01*
X1131838Y792680D02*
X1132038Y792480D01*
X1126820Y795410D02*
X1129550Y792680D01*
X1397000Y502920D02*
X1407160D01*
X1341120Y589280D02*
X1366478Y614638D01*
X1372616Y569976D02*
X1404656D01*
X1359800Y557160D02*
X1372616Y569976D01*
X1346220Y557160D02*
X1359800D01*
X1329320D02*
X1346220D01*
X1401340Y467870D02*
Y486430D01*
X1371600Y438130D02*
X1401340Y467870D01*
X1371600Y436880D02*
Y438130D01*
X1336040Y436880D02*
X1357100D01*
X1322720Y450200D02*
X1336040Y436880D01*
X1322720Y450200D02*
Y468660D01*
X1393550Y478640D02*
X1401340Y486430D01*
X1267720Y444240D02*
X1275080Y436880D01*
X1280160Y418730D02*
Y431543D01*
X1275080Y436623D02*
Y436880D01*
X1267720Y444240D02*
Y468660D01*
X1275080Y436623D02*
X1280160Y431543D01*
X1333180Y500487D02*
X1336419Y497248D01*
X1280160Y404230D02*
X1280310Y404080D01*
Y385930D02*
Y404080D01*
X1209040Y513080D02*
X1214960Y507160D01*
X1205030Y513080D02*
X1209040D01*
X1214960Y507160D02*
X1234220D01*
X1201050Y509100D02*
X1205030Y513080D01*
X1366478Y614638D02*
X1376680D01*
X1349339Y609600D02*
X1361440D01*
X1201050Y508000D02*
Y509250D01*
X1193260Y517040D02*
X1201050Y509250D01*
X1180248Y517040D02*
X1193260D01*
X1178760Y515552D02*
X1180248Y517040D01*
X1178760Y513280D02*
Y515552D01*
X1168400Y502920D02*
X1178760Y513280D01*
X1178560Y538480D02*
X1189880Y527160D01*
X1148080Y538480D02*
X1163320D01*
X1172000Y547160D01*
X1234220D01*
X1200117Y538480D02*
X1201438Y537160D01*
X1234220D01*
X1195040Y532160D02*
X1234220D01*
X1188720Y538480D02*
X1195040Y532160D01*
X1198880Y538480D02*
X1200117D01*
X1189880Y527160D02*
X1234220D01*
X1172400Y522160D02*
X1234220D01*
X1163320Y513080D02*
X1172400Y522160D01*
X1317720Y561880D02*
X1328960D01*
X1372288Y605208D01*
X1385013D01*
X1390329Y492910D02*
Y496249D01*
X1386840Y487680D02*
Y492760D01*
Y502920D01*
Y492760D02*
X1390179D01*
X1390329Y492910D01*
Y496249D02*
X1397000Y502920D01*
X1380538Y478640D02*
X1393550D01*
X1379050Y480128D02*
X1380538Y478640D01*
X1379050Y480128D02*
Y480230D01*
X1362120Y497160D02*
X1379050Y480230D01*
X1346220Y497160D02*
X1362120D01*
X1336419Y497248D02*
X1346132D01*
X1346220Y497160D01*
Y507160D02*
X1382600D01*
X1386840Y502920D01*
X1147689Y472399D02*
X1148080D01*
X1644420Y932292D02*
X1704686D01*
X1824736D02*
X1840460D01*
X1704686D02*
X1780193D01*
X1824624Y932180D02*
X1824736Y932292D01*
X1780193Y932180D02*
Y932292D01*
X1595740Y969010D02*
X1632458Y932292D01*
X1644420D01*
X1503680Y969010D02*
X1595740D01*
X1107440Y960120D02*
X1117977D01*
X1001671Y1011300D02*
X1015089D01*
X997840Y1007469D02*
X1001671Y1011300D01*
X1015089D02*
X1035050Y991339D01*
X997840Y994051D02*
X1018920Y972971D01*
X1102360Y939800D02*
Y955040D01*
X1107440Y960120D01*
X1051560Y919788D02*
Y940540D01*
X1035050Y955800D02*
Y991339D01*
X1018920Y940180D02*
Y972971D01*
X1050310Y940540D02*
X1051560D01*
X1035050Y955800D02*
X1050310Y940540D01*
X1188050Y847460D02*
X1189300D01*
X1183320Y852190D02*
X1188050Y847460D01*
X1198160Y838600D02*
X1207360Y829400D01*
X1189300Y847460D02*
X1198160Y838600D01*
X1207360Y786131D02*
Y829400D01*
X1198160Y838600D02*
X1299210D01*
X1102360Y939800D02*
X1108740Y933420D01*
Y916758D02*
Y933420D01*
X1030932Y929640D02*
X1076960Y883612D01*
X1105366Y913384D02*
X1108740Y916758D01*
X1057964Y913384D02*
X1105366D01*
X1008380Y929640D02*
X1018920Y940180D01*
X1051560Y919788D02*
X1057964Y913384D01*
X1008380Y929640D02*
X1030932D01*
X1076960Y853120D02*
Y883612D01*
X1183320Y852190D02*
Y853440D01*
X1135920Y741440D02*
X1137920D01*
X1062160Y853120D02*
X1076960D01*
X1038260Y829220D02*
X1062160Y853120D01*
X1038260Y825220D02*
Y829220D01*
X1385013Y624069D02*
X1386501Y622581D01*
Y606696D02*
Y622581D01*
X1385013Y605208D02*
X1386501Y606696D01*
X1398070Y538630D02*
X1405672D01*
X1325880Y500487D02*
Y553720D01*
X1394090Y534650D02*
X1398070Y538630D01*
X1295400Y624840D02*
X1325140D01*
X1295400D02*
Y679597D01*
X1246110Y728886D02*
X1295400Y679597D01*
X1234220Y562160D02*
X1268876D01*
X1317720Y561880D02*
X1325880Y553720D01*
X1329320Y557160D01*
X1314320Y542160D02*
X1325880Y553720D01*
X1317720Y561880D02*
Y580660D01*
X1268876Y562160D02*
X1288876Y542160D01*
X1314320D01*
X1234220D02*
X1288876D01*
X1394090Y533400D02*
Y534650D01*
X1325880Y500487D02*
X1333180D01*
X1312830D02*
X1325880D01*
X1301496Y387096D02*
Y431092D01*
X1292720Y439868D02*
X1301496Y431092D01*
X1280760Y492160D02*
X1292632Y480288D01*
X1312830Y500487D01*
X1270760Y502160D02*
X1280760Y492160D01*
X1292632Y468748D02*
X1292720Y468660D01*
X1292632Y468748D02*
Y480288D01*
X1260760Y512160D02*
X1270760Y502160D01*
X1255760Y517160D02*
X1260760Y512160D01*
X1234220Y492160D02*
X1280760D01*
X1234220Y502160D02*
X1270760D01*
X1292720Y439868D02*
Y468660D01*
X1291372Y376972D02*
X1301496Y387096D01*
X1289268Y376972D02*
X1291372D01*
X1280310Y385930D02*
X1289268Y376972D01*
X1234006Y728886D02*
X1246110D01*
X1232518Y693386D02*
Y727399D01*
X1234006Y728886D01*
X1226002Y686870D02*
X1232518Y693386D01*
X1225020Y666220D02*
X1229720Y670920D01*
X1224180Y685140D02*
X1228140Y681180D01*
X1228232D01*
X1223410Y686870D02*
X1226002D01*
X1229720Y670920D02*
Y679692D01*
X1228232Y681180D02*
X1229720Y679692D01*
X1226119Y613580D02*
X1230099Y609600D01*
X1225020Y633010D02*
Y655320D01*
Y666220D01*
X1226119Y613580D02*
Y631910D01*
X1225020Y633010D02*
X1226119Y631910D01*
X1162669Y741440D02*
X1207360Y786131D01*
X1221680Y685140D02*
X1223410Y686870D01*
X1137920Y741440D02*
X1162669D01*
X1221680Y685140D02*
X1224180D01*
X1092200Y697720D02*
X1135920Y741440D01*
X1074405Y676656D02*
X1078023Y673038D01*
X1069355Y676656D02*
X1074405D01*
X1092200Y629680D02*
Y697720D01*
X1081640Y629680D02*
X1092200D01*
X1078023Y633298D02*
Y673038D01*
X1021450Y628751D02*
X1069355Y676656D01*
X1078023Y633298D02*
X1081640Y629680D01*
X1021450Y465388D02*
Y628751D01*
X1234220Y517160D02*
X1255760D01*
X1234220Y512160D02*
X1260760D01*
X1210552Y502160D02*
X1234220D01*
X1186550Y506750D02*
Y508000D01*
X1194340Y498960D02*
X1207352D01*
X1186550Y506750D02*
X1194340Y498960D01*
X1207352D02*
X1210552Y502160D01*
X1178100Y481629D02*
Y498300D01*
X1186550Y506750D01*
X1142069Y466388D02*
Y466778D01*
X1103100Y467360D02*
Y486899D01*
X1142069Y466778D02*
X1147689Y472399D01*
X1103100Y466110D02*
Y467360D01*
X1102360Y466620D02*
X1103100Y467360D01*
X1102318Y487680D02*
X1103100Y486899D01*
X1102318Y487289D02*
Y487680D01*
X1096698Y481669D02*
X1102318Y487289D01*
X1074182Y481669D02*
X1096698D01*
X1103100Y466110D02*
X1110890Y458320D01*
X1134001D02*
X1142069Y466388D01*
X1110890Y458320D02*
X1134001D01*
X1102360Y436880D02*
Y466620D01*
X1056413Y463900D02*
X1074182Y481669D01*
X1022938Y463900D02*
X1056413D01*
X1021450Y465388D02*
X1022938Y463900D01*
X997840Y994051D02*
Y1007469D01*
X747950Y1000670D02*
X766370Y982250D01*
X742950Y1001795D02*
X747470D01*
X747950Y1000670D02*
Y1001315D01*
X847049Y848980D02*
X927709Y929640D01*
X982980D02*
X1008380D01*
X927709D02*
X982980D01*
X774530Y982250D02*
X778510Y978270D01*
X766370Y982250D02*
X774530D01*
X778510Y948510D02*
Y978270D01*
X737042Y1010920D02*
X742470Y1005492D01*
Y1002275D02*
X742950Y1001795D01*
X742470Y1002275D02*
Y1005492D01*
X731325Y1010920D02*
Y1013420D01*
Y1008420D02*
Y1010920D01*
X704125Y989125D02*
X705000Y990000D01*
X733763Y905000D02*
X735000D01*
X778510Y948510D01*
X732476Y903714D02*
X733763Y905000D01*
X732476Y903714D02*
X734125Y902065D01*
X731453Y902690D02*
X732476Y903714D01*
X704125Y987685D02*
Y989125D01*
X684160Y967720D02*
X704125Y987685D01*
X789940Y848980D02*
X847049D01*
X901330Y707370D02*
X935400Y741440D01*
X1135920D01*
X885170Y723530D02*
X901330Y707370D01*
X788690Y848980D02*
X789940D01*
X775210Y835500D02*
X784500D01*
X775210D02*
X788690Y848980D01*
X784500Y835500D02*
X790000Y830000D01*
X901330Y706120D02*
Y707370D01*
X897350Y702140D02*
X901330Y706120D01*
X897350Y653510D02*
Y702140D01*
X880490Y636650D02*
X897350Y653510D01*
X781910Y644090D02*
Y715030D01*
X880490Y610070D02*
Y636650D01*
X873760Y603340D02*
X880490Y610070D01*
X734125Y898255D02*
X735000Y897380D01*
X717500Y835500D02*
X775210D01*
X734125Y898255D02*
Y902065D01*
X680950Y902690D02*
X731453D01*
X772160Y723530D02*
X773410D01*
X751840D02*
X772160D01*
X773410D02*
X885170D01*
X773410D02*
X781910Y715030D01*
X733180Y706120D02*
X750590Y723530D01*
X751840D01*
X672730Y706120D02*
X733180D01*
X684160Y966470D02*
Y967720D01*
Y965220D02*
Y966470D01*
X671425Y952485D02*
X684160Y965220D01*
X658518Y952485D02*
X671425D01*
X657030Y950997D02*
X658518Y952485D01*
X559015Y973654D02*
X567453D01*
X657030Y949405D02*
Y950997D01*
X567453Y973654D02*
X590840Y950267D01*
X656070Y948445D02*
X657030Y949405D01*
X656070Y942570D02*
Y948445D01*
X590840Y942800D02*
Y950267D01*
Y942800D02*
X591070Y942570D01*
X528060Y1003060D02*
X537500Y1012500D01*
X553762Y987820D02*
X559015Y982567D01*
X528060Y987820D02*
X553762D01*
X528060D02*
Y1003060D01*
X559015Y973654D02*
Y982567D01*
X547601Y852690D02*
X566190D01*
X546815Y851905D02*
X547601Y852690D01*
X533573Y851905D02*
X546815D01*
X528320Y846652D02*
X533573Y851905D01*
X528320Y825130D02*
Y846652D01*
X675640Y709030D02*
Y796860D01*
X667500Y805000D02*
X675640Y796860D01*
X664940Y715160D02*
X672730Y707370D01*
X656070Y816430D02*
X667500Y805000D01*
X656070Y816430D02*
Y827810D01*
X610603Y715160D02*
X664940D01*
X672730Y706120D02*
X675640Y709030D01*
X589625Y694182D02*
X610603Y715160D01*
X672730Y706120D02*
Y707370D01*
X579120Y694182D02*
X589625D01*
X528320D02*
X579120D01*
X528320Y688467D02*
Y694182D01*
X495677Y830000D02*
X500547Y825130D01*
X528320D01*
X495000Y830000D02*
X495677D01*
X353120Y669840D02*
X416560D01*
X296328Y710080D02*
X309340D01*
X285750Y699502D02*
X296328Y710080D01*
X317130Y701040D02*
Y702290D01*
X309340Y710080D02*
X317130Y702290D01*
X509693Y669840D02*
X528320Y688467D01*
X325120Y641840D02*
X353120Y669840D01*
X416560D02*
X509693D01*
X317130Y649830D02*
Y701040D01*
X285750Y606618D02*
Y699502D01*
X325120Y635840D02*
Y641840D01*
X317130Y649830D02*
X325120Y641840D01*
X873760Y591340D02*
Y603340D01*
X867030Y584610D02*
X873760Y591340D01*
X859690Y584610D02*
X867030D01*
X833780Y558700D02*
X859690Y584610D01*
X831530Y558700D02*
X833780D01*
X828800Y553720D02*
Y555970D01*
X831530Y558700D01*
X820990Y553720D02*
X828800D01*
X819340Y552070D02*
X820990Y553720D01*
X875930Y365760D02*
X878840Y368670D01*
X855040Y360088D02*
X856528Y358600D01*
X855040Y365760D02*
X875930D01*
X819340Y546418D02*
Y552070D01*
X855040Y360088D02*
Y365760D01*
X795782Y522860D02*
X819340Y546418D01*
X742942Y589280D02*
X756672Y575550D01*
X721360Y589280D02*
X742942D01*
X767930Y578058D02*
Y584110D01*
X768910Y585090D01*
X685800Y591840D02*
Y599840D01*
X710800D02*
X721360Y589280D01*
X685800Y599840D02*
X710800D01*
X765422Y575550D02*
X767930Y578058D01*
X759080Y569208D02*
X765422Y575550D01*
X756672D02*
X765422D01*
X762911Y522860D02*
X795782D01*
X759080Y526691D02*
X762911Y522860D01*
X706120Y543150D02*
Y571520D01*
X685800Y591840D02*
X706120Y571520D01*
X759080Y526691D02*
Y569208D01*
X863842Y358600D02*
X865330Y357112D01*
Y345900D02*
Y357112D01*
X859790Y340360D02*
X865330Y345900D01*
Y320500D02*
Y334820D01*
X859790Y340360D02*
X865330Y334820D01*
X856528Y358600D02*
X863842D01*
X855040Y340360D02*
X859790D01*
X850290Y314960D02*
X855040D01*
X859790D02*
X865330Y320500D01*
X830225Y294894D02*
X850290Y314960D01*
X855040D02*
X859790D01*
X820040Y268551D02*
X830225Y278736D01*
Y294894D01*
X820040Y175411D02*
Y268551D01*
X811889Y167260D02*
X820040Y175411D01*
X798471Y167260D02*
X811889D01*
X794560Y300530D02*
X796290Y302260D01*
X698500D02*
X796290D01*
X801040D01*
X794560Y286868D02*
Y300530D01*
X669240Y323155D02*
X670737Y321659D01*
X679101D02*
X698500Y302260D01*
X670737Y321659D02*
X679101D01*
X783590Y275898D02*
X794560Y286868D01*
X783590Y182141D02*
Y275898D01*
Y182141D02*
X798471Y167260D01*
X693060Y178690D02*
Y179940D01*
X669240Y203760D02*
X684020Y188980D01*
X669240Y203760D02*
Y323155D01*
X684020Y188980D02*
X693060Y179940D01*
X639795Y188980D02*
X684020D01*
X462678Y499202D02*
Y505893D01*
X416240Y477520D02*
X440996D01*
X406400Y561710D02*
X408570Y563880D01*
X406400Y560460D02*
Y561710D01*
X398790Y552850D02*
X406400Y560460D01*
Y543560D02*
Y560460D01*
X390188Y552850D02*
X398790D01*
X440996Y477520D02*
X462678Y499202D01*
X410270Y464420D02*
X421320Y453370D01*
Y452120D02*
Y453370D01*
X412510Y466660D02*
Y473790D01*
X416240Y477520D01*
X410270Y464420D02*
X412510Y466660D01*
X387878Y464420D02*
X410270D01*
X367416Y547218D02*
Y556620D01*
X382838Y545500D02*
X390188Y552850D01*
X365928Y545730D02*
X367416Y547218D01*
X360620Y540500D02*
X377838D01*
X316068Y576300D02*
X347736D01*
X285750Y606618D02*
X316068Y576300D01*
X347736D02*
X367416Y556620D01*
X377838Y540500D02*
X382838Y545500D01*
X376798Y475500D02*
X381798Y470500D01*
X360620Y475500D02*
X376798D01*
X381798Y470500D02*
X384838Y467460D01*
X360620Y470500D02*
X381798D01*
X669240Y323155D02*
Y325120D01*
X557480Y203760D02*
X572260Y188980D01*
X581300Y179940D01*
X528035Y188980D02*
X572260D01*
X446380Y203100D02*
Y327236D01*
X557480Y203760D02*
Y325120D01*
X629505Y178690D02*
X639795Y188980D01*
X581300Y178690D02*
X629505D01*
X581300D02*
Y179940D01*
X421320Y450870D02*
Y452120D01*
X391546Y421096D02*
X421320Y450870D01*
X356114Y421096D02*
X391546D01*
X383220Y354109D02*
Y378142D01*
X380317Y381045D02*
X383220Y378142D01*
X331070Y383948D02*
Y396052D01*
X356114Y421096D01*
X333973Y381045D02*
X380317D01*
X331070Y383948D02*
X333973Y381045D01*
X360020Y330910D02*
X383220Y354109D01*
X348740Y254468D02*
X414227Y188980D01*
X434124D01*
X360020Y292849D02*
Y326178D01*
Y330910D01*
X348740Y254468D02*
Y281569D01*
X360020Y292849D01*
X1244600Y609600D02*
Y629920D01*
X1244600Y609600D02*
X1244600Y609600D01*
X1059565Y472440D02*
X1101130Y514005D01*
X1031240Y472440D02*
X1059565D01*
X1285240Y655320D02*
Y680720D01*
X1275280Y690680D02*
X1285240Y680720D01*
X1256140Y690680D02*
X1275280D01*
X1252180Y694640D02*
X1256140Y690680D01*
X1249680Y694640D02*
X1252180D01*
X1322720Y596122D02*
X1325880Y599282D01*
X1322720Y580660D02*
Y596122D01*
X1295400Y610340D02*
X1325140D01*
X1325880Y609600D01*
X1071880Y985520D02*
X1072082D01*
X1085782Y971819D01*
Y960008D02*
Y971819D01*
X1381760Y746760D02*
X1457960Y670560D01*
X1381760Y756920D02*
X1467041Y671639D01*
X1502628Y787400D02*
X1502728Y787500D01*
X1473200Y787400D02*
X1502628D01*
X1046480Y975360D02*
X1056720Y965120D01*
X1031240Y934720D02*
X1056386Y909574D01*
X1031240Y934720D02*
Y977900D01*
X1008380Y1000760D02*
X1031240Y977900D01*
X1056720Y965120D02*
X1076960D01*
X1122680Y763016D02*
X1122821Y762875D01*
X1146091D02*
X1185820Y802604D01*
X1122821Y762875D02*
X1146091D01*
X772160Y695960D02*
Y709030D01*
X762000Y685800D02*
X772160Y695960D01*
Y678570D02*
Y695960D01*
X1295400Y391160D02*
Y431800D01*
X1257720Y380117D02*
Y468660D01*
X1254760Y377157D02*
X1257720Y380117D01*
X1272720Y454480D02*
X1295400Y431800D01*
X1272720Y454480D02*
Y468660D01*
X1208930Y495150D02*
X1210940Y497160D01*
X1183640Y472440D02*
X1206350Y495150D01*
X1208930D01*
X1210940Y497160D02*
X1234220D01*
X1438910Y536209D02*
Y558996D01*
X1450367Y570452D01*
X1419845Y517144D02*
X1438910Y536209D01*
X1346220Y532160D02*
X1378350D01*
X1461681Y570452D02*
X1467041Y575812D01*
X1450367Y570452D02*
X1461681D01*
X1285240Y619250D02*
Y655320D01*
Y619250D02*
X1294150Y610340D01*
X1295400D01*
X1292720Y607659D02*
X1295400Y610340D01*
X1292720Y580660D02*
Y607659D01*
X1252720Y580660D02*
Y589660D01*
X1244600Y597780D02*
X1252720Y589660D01*
X1244600Y597780D02*
Y609600D01*
X1325880Y599282D02*
Y609600D01*
X1345358Y605620D02*
X1349339Y609600D01*
X1343680Y605620D02*
X1345358D01*
X1327720Y589660D02*
X1343680Y605620D01*
X1327720Y580660D02*
Y589660D01*
X1052810Y955040D02*
X1057890Y960120D01*
X1077072Y960008D02*
X1085782D01*
Y944721D02*
Y960008D01*
X1057890Y960120D02*
X1076960D01*
X1077072Y960008D01*
X1083200Y942138D02*
X1085782Y944721D01*
X1083200Y924560D02*
Y942138D01*
X1051560Y955040D02*
X1052810D01*
X1041400Y847360D02*
Y848360D01*
X1023260Y829220D02*
X1041400Y847360D01*
X1023260Y825220D02*
Y829220D01*
X1247950Y692910D02*
X1249680Y694640D01*
X1247180D02*
X1249680D01*
X1241550Y692910D02*
X1247950D01*
X1240058Y701762D02*
Y719596D01*
Y701762D02*
X1247180Y694640D01*
X1239520Y655320D02*
Y656570D01*
X1234440Y661650D02*
Y685800D01*
Y661650D02*
X1239520Y656570D01*
X1234440Y685800D02*
X1241550Y692910D01*
X1071880Y596155D02*
X1128630Y539405D01*
X1071880Y570755D02*
X1128630Y514005D01*
X1071880Y596155D02*
Y670560D01*
Y570755D02*
Y596155D01*
X1128630Y538480D02*
Y539405D01*
X1000760Y330200D02*
Y350520D01*
Y289560D02*
Y330200D01*
Y248920D02*
Y289560D01*
Y208280D02*
Y248920D01*
X754575Y1003420D02*
X766610D01*
X777260Y992770D01*
X896250D02*
X1003300Y1099820D01*
X778510Y992770D02*
X896250D01*
X777260D02*
X778510D01*
X677291Y979791D02*
X682500Y985000D01*
X737950Y921687D02*
Y1001795D01*
X669660Y967720D02*
X677291Y975352D01*
Y979791D01*
X735000Y918737D02*
X737950Y921687D01*
X735000Y917500D02*
Y918737D01*
X725190Y907690D02*
X735000Y917500D01*
X682500Y815000D02*
Y816237D01*
X680950Y907690D02*
X725190D01*
X661300Y821705D02*
X675795D01*
X680331Y817169D01*
X680950Y817787D02*
Y847690D01*
Y817787D02*
X682500Y816237D01*
X669660Y966470D02*
Y967720D01*
Y965220D02*
Y966470D01*
X660735Y956295D02*
X669660Y965220D01*
X651300Y950656D02*
X656940Y956295D01*
X536455Y963675D02*
X543955D01*
X558955Y948675D01*
X512500Y988880D02*
Y1007500D01*
X513560Y986570D02*
X536455Y963675D01*
X512500Y988880D02*
X513560Y987820D01*
Y986570D02*
Y987820D01*
X656940Y956295D02*
X660735D01*
X651070Y942570D02*
X651300Y942800D01*
Y950656D01*
X586070Y942570D02*
Y948445D01*
X661070Y821935D02*
X661300Y821705D01*
X661070Y821935D02*
Y827810D01*
X585840Y948675D02*
X586070Y948445D01*
X558955Y948675D02*
X585840D01*
X560315Y847690D02*
X566190D01*
X560085Y847460D02*
X560315Y847690D01*
X560085Y841145D02*
Y847460D01*
X529570Y810630D02*
X560085Y841145D01*
X873760Y691800D02*
X886830Y704870D01*
Y706120D01*
X873760Y665340D02*
Y691800D01*
X867030Y646610D02*
X873760Y653340D01*
Y665340D01*
X824410Y646610D02*
Y653870D01*
X807720Y670560D02*
X824410Y653870D01*
Y646610D02*
X867030D01*
X807720Y629920D02*
X824410Y646610D01*
X874860Y379190D02*
X878840Y383170D01*
X968110D01*
X877590D02*
X878840D01*
X867930Y379190D02*
X874860D01*
X968110Y383170D02*
X1000760Y350520D01*
X867200Y378460D02*
X867930Y379190D01*
X855040Y378460D02*
X867200D01*
X854315Y406445D02*
Y410605D01*
X853440Y411480D02*
X854315Y410605D01*
X650240Y386080D02*
X842670D01*
X854315Y406445D02*
X877590Y383170D01*
X842670Y386080D02*
X850290Y378460D01*
X855040D01*
X768910Y633170D02*
X772160Y629920D01*
X807720Y603360D02*
Y629920D01*
X768910Y633170D02*
Y644090D01*
X529570Y810630D02*
X574270Y765930D01*
X528320Y810630D02*
X529570D01*
X574270Y765930D02*
X624840D01*
Y747500D02*
Y765930D01*
X772160Y629920D02*
X807720D01*
X538480Y388840D02*
X647480D01*
X399001D02*
X426720D01*
X538480D01*
X647480D02*
X650240Y386080D01*
X382160Y390000D02*
X391160Y381000D01*
X399001Y388840D01*
X340360Y390000D02*
X382160D01*
X391160Y297900D02*
Y381000D01*
X357780Y264520D02*
X391160Y297900D01*
X357780Y263270D02*
Y264520D01*
X1143000Y416560D02*
X1183640Y457200D01*
Y472440D01*
X1068370Y416560D02*
X1143000D01*
X1157983Y441960D02*
X1158240D01*
X1152903Y436880D02*
X1157983Y441960D01*
X1123377Y436880D02*
X1152903D01*
X1032490Y452440D02*
X1068370Y416560D01*
X1031240Y452440D02*
X1032490D01*
X1148080Y487680D02*
X1168400D01*
X1467041Y575812D02*
Y671639D01*
X1457960Y548640D02*
Y563880D01*
X1421480Y512160D02*
X1457960Y548640D01*
X1346220Y512160D02*
X1421480D01*
X1387647Y517144D02*
X1419845D01*
X1387631Y517160D02*
X1387647Y517144D01*
X1346220Y517160D02*
X1387631D01*
X1416083Y523240D02*
X1417320D01*
X1346220Y522160D02*
X1415003D01*
X1416083Y523240D01*
X1457960Y580897D02*
Y670560D01*
X995680Y391160D02*
X1229360D01*
X736600Y467360D02*
X919480D01*
X995680Y391160D01*
X1229360D02*
X1234440Y396240D01*
Y409703D01*
X1234220Y426940D02*
X1234440Y426720D01*
X1234220Y426940D02*
Y487160D01*
X1252632Y459247D02*
Y468572D01*
X1252498Y389748D02*
Y459113D01*
X1243750Y381000D02*
X1252498Y389748D01*
X1252632Y468572D02*
X1252720Y468660D01*
X1252498Y459113D02*
X1252632Y459247D01*
X990600Y381000D02*
X1243750D01*
X914400Y457200D02*
X990600Y381000D01*
X736600Y457200D02*
X914400D01*
X452120Y889000D02*
X516002D01*
X436880Y873760D02*
X452120Y889000D01*
X461130Y877690D02*
X566190D01*
X447040Y863600D02*
X461130Y877690D01*
X746760Y370840D02*
X765810D01*
X796290Y340360D01*
X764038Y380130D02*
X778408Y365760D01*
X596030Y378540D02*
X658042D01*
X659632Y380130D01*
X764038D01*
X778408Y365760D02*
X801040D01*
X1262720Y580660D02*
Y662600D01*
X1253910Y671410D02*
X1262720Y662600D01*
X1253910Y671410D02*
Y673910D01*
X1252180Y675640D02*
X1253910Y673910D01*
X1249680Y675640D02*
X1252180D01*
X1148080Y487680D02*
Y513080D01*
X1163320D01*
X1297720Y557277D02*
Y580660D01*
X1295400Y554957D02*
X1297720Y557277D01*
X1295400Y553720D02*
Y554957D01*
X1062400Y289560D02*
X1137920D01*
X1137595Y527070D02*
X1148080Y537555D01*
Y538480D01*
X1137595Y504678D02*
Y527070D01*
X1132101Y499184D02*
X1137595Y504678D01*
X1117600Y488071D02*
X1128714Y499184D01*
X1132101D01*
X1117600Y487680D02*
Y488071D01*
Y467360D02*
Y487680D01*
X1257720Y580660D02*
Y652462D01*
X1241640Y668542D02*
X1257720Y652462D01*
X1241640Y668542D02*
Y679692D01*
X1243436Y681488D01*
X1243528D01*
X1247180Y685140D01*
X1249680D01*
X1267632Y580572D02*
X1267720Y580660D01*
X1267632Y570859D02*
Y580572D01*
X1264393Y567620D02*
X1267632Y570859D01*
X1251047Y567620D02*
X1264393D01*
X1194700Y623966D02*
X1251047Y567620D01*
X1194700Y623966D02*
Y670910D01*
X1189970Y675640D02*
X1194700Y670910D01*
X1188720Y675640D02*
X1189970D01*
X1188720D02*
X1221680D01*
X1118080Y590800D02*
X1156412D01*
X1195052Y552160D01*
X1234220D01*
X1275209Y599311D02*
Y665351D01*
X1270000Y670560D02*
Y670560D01*
Y670560D02*
X1275209Y665351D01*
Y599311D02*
X1277720Y596800D01*
Y580660D02*
Y596800D01*
X1195352Y557248D02*
X1234132D01*
X1168400Y584200D02*
X1195352Y557248D01*
X1168400Y584200D02*
Y637820D01*
X1094200Y614680D02*
X1118080Y590800D01*
X1092200Y614680D02*
X1094200D01*
X1137920Y668300D02*
X1168400Y637820D01*
X1234132Y557248D02*
X1234220Y557160D01*
X1137920Y668300D02*
Y685800D01*
Y726440D01*
X1302720Y557797D02*
Y580660D01*
Y557797D02*
X1305560Y554957D01*
Y553720D02*
Y554957D01*
X1060400Y330200D02*
X1137920D01*
X1060400Y248920D02*
X1224280D01*
X1317720Y332200D02*
Y468660D01*
X1224280Y248920D02*
X1312720Y337360D01*
Y468660D01*
X1193800Y208280D02*
X1317720Y332200D01*
X1061720Y208280D02*
X1193800D01*
X715880Y649840D02*
X736600Y670560D01*
X685800Y649840D02*
X715880D01*
X1189720Y694640D02*
X1221680D01*
X1188720Y695640D02*
X1189720Y694640D01*
X1221680Y719219D02*
X1222058Y719596D01*
X1221680Y694640D02*
Y719219D01*
X594440Y380130D02*
X596030Y378540D01*
X523138Y370840D02*
X532428Y380130D01*
X594440D01*
X660400Y767080D02*
X667628Y774308D01*
Y788844D01*
X650240Y767080D02*
Y782320D01*
X666140Y790332D02*
X667628Y788844D01*
X634242Y790332D02*
X666140D01*
X624840Y780930D02*
X634242Y790332D01*
X1066800Y924560D02*
X1076960Y934720D01*
X1066800D02*
Y950482D01*
X1070541Y954222D01*
X1071184D01*
X1072082Y955120D01*
X1076960D01*
X624840Y780930D02*
Y793564D01*
X651070Y801819D02*
Y827810D01*
X650240Y800988D02*
X651070Y801819D01*
X624840Y793564D02*
X646070Y814794D01*
X610000Y785000D02*
X625851Y800851D01*
Y827591D01*
X626070Y827810D01*
X1076960Y934720D02*
Y950120D01*
X1107694Y909574D02*
X1114167Y916047D01*
X1056386Y909574D02*
X1107694D01*
X723931Y877690D02*
X741096Y894855D01*
Y902475D01*
X395800Y498150D02*
X396110Y497840D01*
X431800D01*
X449626D01*
X406240Y482862D02*
X414874Y491497D01*
X449584D01*
X458218Y500131D01*
X449626Y497840D02*
X454179Y502393D01*
X391160Y513080D02*
X431800D01*
X450492D01*
X378453Y504230D02*
X378473Y504210D01*
X375607Y492760D02*
X390410D01*
X374029Y488950D02*
X386560D01*
X396240Y479270D01*
X371107Y504230D02*
X378453D01*
X390410Y492760D02*
X395800Y498150D01*
X369837Y505500D02*
X371107Y504230D01*
X680950Y877690D02*
X723931D01*
X798340Y592010D02*
X799320D01*
X767080Y599440D02*
X790910D01*
X799320Y592010D02*
X805970Y585360D01*
X790910Y599440D02*
X798340Y592010D01*
X775410Y644090D02*
Y675320D01*
X772160Y678570D02*
X775410Y675320D01*
X762410Y639340D02*
Y644090D01*
X736600Y613530D02*
X762410Y639340D01*
X736600Y597530D02*
Y613530D01*
X762410Y644090D02*
Y648840D01*
X751840Y659410D02*
X762410Y648840D01*
X751840Y659410D02*
Y709030D01*
X781910Y580340D02*
Y585090D01*
Y580340D02*
X782890Y579360D01*
X787160D01*
X807820Y558700D01*
X810070D01*
X812800Y555970D01*
Y553720D02*
Y555970D01*
X706120Y523650D02*
X708620D01*
X718370Y533400D01*
X744220D01*
X736600Y581030D02*
X739100D01*
X742080Y578050D01*
Y535540D02*
Y578050D01*
Y535540D02*
X744220Y533400D01*
X769620D02*
Y534878D01*
X775410Y540668D01*
Y585090D01*
X805970Y585360D02*
X807720D01*
X762410Y594770D02*
X767080Y599440D01*
X762410Y585090D02*
Y594770D01*
X750590Y709030D02*
X751840D01*
X706130Y664570D02*
X750590Y709030D01*
X692530Y664570D02*
X706130D01*
X685800Y657840D02*
X692530Y664570D01*
X670869Y649840D02*
X685800D01*
X614245Y593217D02*
X670869Y649840D01*
X606044Y593217D02*
X614245D01*
X604520Y591693D02*
X606044Y593217D01*
X604520Y585978D02*
Y591693D01*
X658230Y685410D02*
X685800Y657840D01*
X658230Y685410D02*
Y706120D01*
X416560Y538378D02*
Y574040D01*
X413682Y535500D02*
X416560Y538378D01*
X396240Y477520D02*
Y479270D01*
X367709Y495270D02*
X374029Y488950D01*
X360850Y495270D02*
X367709D01*
X360620Y495500D02*
X360850Y495270D01*
X372186Y485500D02*
X377186Y480500D01*
X360620Y485500D02*
X372186D01*
X416560Y574040D02*
X458218Y532382D01*
Y500131D02*
Y532382D01*
X406240Y472178D02*
Y482862D01*
X402292Y468230D02*
X406240Y472178D01*
X389456Y468230D02*
X402292D01*
X377186Y480500D02*
X389456Y468230D01*
X360620Y480500D02*
X377186D01*
X450492Y513080D02*
X454179Y509393D01*
X360620Y505500D02*
X369837D01*
X370840Y513080D02*
X385772D01*
X389765Y509087D01*
X368260Y510500D02*
X370840Y513080D01*
X386080Y518160D02*
X391160Y513080D01*
X368102Y515730D02*
X370532Y518160D01*
X386080D01*
X389765Y504185D02*
Y509087D01*
X377096Y535500D02*
X413682D01*
X372095Y530500D02*
X377096Y535500D01*
X360620Y530500D02*
X372095D01*
X360620Y535500D02*
X377096D01*
X402910Y527050D02*
X406400Y523560D01*
X374034Y527050D02*
X402910D01*
X372484Y525500D02*
X374034Y527050D01*
X360620Y525500D02*
X372484D01*
X375920Y452120D02*
X401320D01*
X365740Y462300D02*
X375920Y452120D01*
X326620Y553200D02*
X326870Y553450D01*
X309360Y462800D02*
X326620D01*
X299720Y472440D02*
X309360Y462800D01*
X299720Y472440D02*
Y543560D01*
X309360Y553200D01*
X326620D01*
X360850Y515730D02*
X368102D01*
X360620Y515500D02*
X360850Y515730D01*
X368827Y499540D02*
X375607Y492760D01*
X365080Y499540D02*
X368827D01*
X360620Y500500D02*
X364120D01*
X389765Y504185D02*
X395800Y498150D01*
X364120Y500500D02*
X365080Y499540D01*
X360620Y510500D02*
X368260D01*
X416560Y574040D02*
Y598840D01*
X502920Y585978D02*
Y591693D01*
X495773Y598840D02*
X502920Y591693D01*
X416560Y598840D02*
X495773D01*
X302630Y699790D02*
Y701040D01*
X289560Y686720D02*
X302630Y699790D01*
X289560Y619760D02*
Y686720D01*
Y619760D02*
X303750Y605570D01*
X318390D01*
X325120Y598840D01*
Y592840D02*
Y598840D01*
X351150Y580110D02*
X369880Y598840D01*
X416560D01*
X372460Y558800D02*
X395740D01*
X351150Y580110D02*
X372460Y558800D01*
X331850Y580110D02*
X351150D01*
X325120Y586840D02*
X331850Y580110D01*
X325120Y586840D02*
Y592840D01*
X1017777Y330200D02*
X1041400D01*
X1017777Y289560D02*
X1041400D01*
X1017777Y248920D02*
X1041400D01*
X1017777Y208280D02*
X1040720D01*
X1185820Y802604D02*
Y822560D01*
X1168836Y813236D02*
Y820576D01*
X1170820Y822560D01*
X1153160Y797560D02*
X1168836Y813236D01*
X1004570Y969010D02*
Y981933D01*
X994030Y992473D02*
X1004570Y981933D01*
X994030Y1009047D02*
X1000983Y1016000D01*
X1061575D01*
X994030Y992473D02*
Y1009047D01*
X1061575Y1016000D02*
X1111557Y966018D01*
X1107052Y965120D02*
X1111557D01*
X1112201Y966018D02*
X1113099Y965120D01*
X1117977D01*
X1111557Y966018D02*
X1112201D01*
X1004570Y969010D02*
X1008380Y965200D01*
X1098550Y956618D02*
X1107052Y965120D01*
X1101200Y924560D02*
Y935572D01*
X1098550Y938222D02*
Y956618D01*
Y938222D02*
X1101200Y935572D01*
X1107594Y944828D02*
X1114167Y938255D01*
Y916047D02*
Y938255D01*
X1109082Y955120D02*
X1117977D01*
X1107594Y953632D02*
X1109082Y955120D01*
X1107594Y944828D02*
Y953632D01*
X1117977Y970120D02*
X1122855D01*
X1123753Y969223D02*
X1124396D01*
X1117977Y950120D02*
X1118269Y950412D01*
X1124396Y969223D02*
X1126799Y966820D01*
Y953421D02*
Y966820D01*
X1123791Y950412D02*
X1126799Y953421D01*
X1118269Y950412D02*
X1123791D01*
X1122855Y970120D02*
X1123753Y969223D01*
X1117977Y921884D02*
Y950120D01*
X1046480Y995680D02*
X1046580D01*
X1072140Y970120D01*
X1076960D01*
X646070Y814794D02*
Y827810D01*
X1171860Y840058D02*
Y868001D01*
X1168732Y836930D02*
X1171860Y840058D01*
X1150521Y822560D02*
X1164891Y836930D01*
X1168732D01*
X1140820Y822560D02*
X1150521D01*
X1117977Y921884D02*
X1171860Y868001D01*
X1063958Y841660D02*
X1093820D01*
X1119280Y816200D01*
X1044510Y822212D02*
X1063958Y841660D01*
X1137920Y797560D02*
X1153160D01*
X1120768Y801950D02*
X1133530D01*
X1137920Y797560D01*
X1119280Y803438D02*
Y816200D01*
Y803438D02*
X1120768Y801950D01*
X1018708Y815180D02*
X1042812D01*
X1044510Y816878D02*
Y822212D01*
X1042812Y815180D02*
X1044510Y816878D01*
X1014898Y818990D02*
X1018708Y815180D01*
X995490Y818990D02*
X1014898D01*
X993260Y821220D02*
X995490Y818990D01*
X993260Y821220D02*
Y825220D01*
X1061070Y817370D02*
X1070980Y827280D01*
Y828390D02*
X1075710Y833120D01*
X1052260Y817370D02*
X1061070D01*
X1075710Y833120D02*
X1076960D01*
X1070980Y827280D02*
Y828390D01*
X1052260Y798070D02*
Y817370D01*
X979260Y798070D02*
X1052260D01*
X979260D02*
Y817370D01*
X472280Y370840D02*
X523138D01*
X563880Y346813D02*
Y370840D01*
X548538Y331471D02*
X563880Y346813D01*
X526491Y301093D02*
X536300Y291283D01*
X526491Y301093D02*
Y327234D01*
X539119Y339862D01*
X547980Y341359D02*
Y343324D01*
Y348055D01*
X538480Y357555D02*
Y370840D01*
Y357555D02*
X547980Y348055D01*
X583880Y370840D02*
X609600D01*
X794640Y276130D02*
X815140Y296630D01*
X794640Y254714D02*
Y276130D01*
Y254714D02*
X805180Y244174D01*
X809842Y345900D02*
X815140Y340602D01*
Y296630D02*
Y340602D01*
X802528Y345900D02*
X809842D01*
X801040Y347388D02*
Y353060D01*
Y347388D02*
X802528Y345900D01*
X805180Y218440D02*
Y244174D01*
X796290Y340360D02*
X801040D01*
Y372900D02*
Y378460D01*
Y372900D02*
X802640Y371300D01*
X809842D01*
X818950Y362192D01*
Y272850D02*
Y362192D01*
X805180Y259080D02*
X818950Y272850D01*
X787400Y195580D02*
X805180Y177800D01*
X787400Y195580D02*
Y274320D01*
X809800Y296720D01*
X805790Y327660D02*
X811330Y322120D01*
Y298208D02*
Y322120D01*
X801040Y327660D02*
X805790D01*
X809842Y296720D02*
X811330Y298208D01*
X809800Y296720D02*
X809842D01*
X775770Y314960D02*
X801040D01*
X719890Y370840D02*
X775770Y314960D01*
X695640Y370840D02*
X719890D01*
X650240Y325120D02*
Y329851D01*
X637318Y300807D02*
Y326301D01*
X650240Y329851D02*
X651860Y331471D01*
X648060Y258190D02*
Y290065D01*
X637318Y300807D02*
X648060Y290065D01*
X637318Y326301D02*
X650879Y339862D01*
X650240Y357555D02*
Y368079D01*
X660298Y331471D02*
X675640Y346813D01*
X659740Y343324D02*
Y348055D01*
X658243Y339862D02*
X659740Y341359D01*
X651860Y331471D02*
X660298D01*
X659740Y341359D02*
Y343324D01*
X675640Y346813D02*
Y370840D01*
X650879Y339862D02*
X658243D01*
X650240Y357555D02*
X659740Y348055D01*
X314960Y201963D02*
Y203200D01*
X312780Y199783D02*
X314960Y201963D01*
X312780Y183770D02*
Y199783D01*
X340360Y359273D02*
Y372000D01*
X350520Y344382D02*
Y349113D01*
X309880Y314800D02*
Y345440D01*
X340360Y359273D02*
X350520Y349113D01*
X539119Y339862D02*
X546483D01*
X538480Y329851D02*
X540100Y331471D01*
X538480Y325120D02*
Y329851D01*
X540100Y331471D02*
X548538D01*
X546483Y339862D02*
X547980Y341359D01*
X401320Y282660D02*
Y299720D01*
X373950Y352518D02*
Y368110D01*
X354590Y323802D02*
Y333159D01*
X401320Y299720D02*
Y315280D01*
X354590Y333159D02*
X373950Y352518D01*
X401320Y282660D02*
X424540Y259440D01*
Y258190D02*
Y259440D01*
X401320Y315280D02*
X428019Y341979D01*
X448550Y367110D02*
X452280Y370840D01*
X429000Y333587D02*
X437438D01*
X435383Y341979D02*
X436880Y343475D01*
Y345440D02*
Y350171D01*
X426720Y360331D02*
X436880Y350171D01*
X448550Y344699D02*
Y367110D01*
X426720Y360331D02*
Y370840D01*
X437438Y333587D02*
X448550Y344699D01*
X428019Y341979D02*
X435383D01*
X427380Y331968D02*
X429000Y333587D01*
X427380Y327236D02*
Y331968D01*
X436880Y343475D02*
Y345440D01*
X312780Y263270D02*
Y281992D01*
X320200Y294800D02*
X341020Y315620D01*
X309880Y294800D02*
X320200D01*
X312780Y281992D02*
X354590Y323802D01*
X341020Y315620D02*
Y326178D01*
X309880Y314800D02*
X309880Y314800D01*
X373950Y368110D02*
X376680Y370840D01*
X340360Y372000D02*
X359520D01*
X360680Y370840D01*
X656625Y846625D02*
X657500Y847500D01*
X652418Y846625D02*
X656625D01*
X641300Y835507D02*
X652418Y846625D01*
X641300Y828040D02*
Y835507D01*
X641070Y827810D02*
X641300Y828040D01*
X797500Y958879D02*
X801898D01*
X811509Y968491D01*
X824080Y1008420D02*
X830755Y1001745D01*
X741096Y902475D02*
X797500Y958879D01*
X718763Y917192D02*
X720000D01*
X711877Y917690D02*
X717475Y923288D01*
X718288D02*
X722500Y927500D01*
X717475Y923288D02*
X718288D01*
X680950Y912690D02*
X714261D01*
X718763Y917192D01*
X722500Y927500D02*
X722500D01*
X680950Y917690D02*
X711877D01*
X621070Y814807D02*
Y827810D01*
X617500Y811237D02*
X621070Y814807D01*
X617500Y810000D02*
Y811237D01*
X754575Y1008420D02*
X824080D01*
X616070Y844833D02*
X620000Y848763D01*
X636096Y859859D02*
X637500Y861263D01*
X636096Y827836D02*
Y859859D01*
X630840Y828040D02*
Y849160D01*
X630000Y850000D02*
X630840Y849160D01*
X620000Y848763D02*
Y850000D01*
X616070Y827810D02*
Y844833D01*
X637500Y861263D02*
Y862500D01*
X725190Y872690D02*
X736260Y883760D01*
X812800D01*
X709135Y945000D02*
X720000D01*
X686825Y922690D02*
X709135Y945000D01*
X680950Y922690D02*
X686825D01*
X699125Y966093D02*
Y971625D01*
X702500Y975000D01*
X675602Y942570D02*
X699125Y966093D01*
X661070Y942570D02*
X675602D01*
X655625Y1037500D02*
X673596D01*
X650932Y979862D02*
X659130Y988060D01*
X636070Y942570D02*
Y975442D01*
X631070Y942570D02*
Y975831D01*
X677949Y1022710D02*
X736411D01*
X636070Y975442D02*
X679048Y1018420D01*
X731325D01*
X631070Y975831D02*
X677949Y1022710D01*
X942500Y1062296D02*
Y1089820D01*
X1003300Y1150620D01*
X586263Y860000D02*
X587500D01*
X583573Y862690D02*
X586263Y860000D01*
X566190Y862690D02*
X583573D01*
X597405Y867595D02*
X597500Y867500D01*
X566285Y867595D02*
X597405D01*
X566190Y867690D02*
X566285Y867595D01*
X589203Y877500D02*
X590000D01*
X584393Y872690D02*
X589203Y877500D01*
X566190Y872690D02*
X584393D01*
X726197Y987817D02*
X731325Y992945D01*
X726197Y985821D02*
Y987817D01*
X721706Y980094D02*
Y981331D01*
X726197Y985821D01*
X595000Y850000D02*
X606070Y838930D01*
X607500Y848763D02*
Y850000D01*
Y848763D02*
X611070Y845193D01*
Y827810D02*
Y845193D01*
X582310Y897690D02*
X590000Y890000D01*
X566190Y897690D02*
X582310D01*
X589905Y902595D02*
X590000Y902500D01*
X566285Y902595D02*
X589905D01*
X566190Y902690D02*
X566285Y902595D01*
X710610Y1110610D02*
X833769D01*
X844809Y1121650D01*
Y1136909D01*
X617030Y1009918D02*
X676231Y1069119D01*
X843079D01*
X611070Y1011070D02*
X710610Y1110610D01*
X843079Y1069119D02*
X869310Y1095351D01*
Y1104289D01*
X860439Y1113160D02*
X869310Y1104289D01*
X648392Y979862D02*
X650932D01*
X606070Y827810D02*
Y838930D01*
X636070Y827810D02*
X636096Y827836D01*
X597500Y1035000D02*
X606070Y1026430D01*
Y942570D02*
Y1026430D01*
X601070Y942570D02*
Y1018930D01*
X584806Y1022306D02*
X586043D01*
X588737Y1025000D01*
X595000D01*
X569878Y977622D02*
Y987820D01*
Y977622D02*
X595840Y951660D01*
Y942800D02*
Y951660D01*
X611070Y942570D02*
Y1011070D01*
X595000Y1025000D02*
X601070Y1018930D01*
X630840Y828040D02*
X631070Y827810D01*
X657500Y1045000D02*
X679485D01*
X626070Y942570D02*
Y1008182D01*
X621070Y1008570D02*
X657500Y1045000D01*
X617030Y949405D02*
Y1009918D01*
X626070Y1008182D02*
X626307D01*
X655625Y1037500D01*
X621070Y942570D02*
Y1008570D01*
X844809Y1136909D02*
X858520Y1150620D01*
X860439Y1113160D02*
Y1123301D01*
X858520Y1125220D02*
X860439Y1123301D01*
X1780110Y1044060D02*
X1781360D01*
X1769425Y1033375D02*
X1780110Y1044060D01*
X1765875Y1033375D02*
X1769425D01*
X1765000Y1032500D02*
X1765875Y1033375D01*
X680380Y1045895D02*
X688121D01*
X679485Y1045000D02*
X680380Y1045895D01*
X1838210Y1005840D02*
X1838960D01*
X1825875Y1018175D02*
X1838210Y1005840D01*
X1825875Y1018175D02*
Y1021625D01*
X1825000Y1022500D02*
X1825875Y1021625D01*
X1635940Y1033440D02*
Y1040330D01*
X1630000Y1027500D02*
X1635940Y1033440D01*
X730902Y1042670D02*
X735785Y1037788D01*
X730250Y1042670D02*
X730902D01*
X735785Y1037788D02*
X738942D01*
X1702270Y1044060D02*
X1703520D01*
X1690875Y1032665D02*
X1702270Y1044060D01*
X1690875Y1028375D02*
Y1032665D01*
X1690000Y1027500D02*
X1690875Y1028375D01*
X1639670Y1044060D02*
X1640920D01*
X1635940Y1040330D02*
X1639670Y1044060D01*
X1645920Y1005840D02*
Y1044060D01*
X616070Y948445D02*
X617030Y949405D01*
X616070Y942570D02*
Y948445D01*
X595840Y942800D02*
X596070Y942570D01*
X367500Y1022500D02*
X418059D01*
X382910Y1079202D02*
Y1108070D01*
Y1079202D02*
X544422Y917690D01*
X419011Y1031310D02*
X420026D01*
X379100Y1077624D02*
Y1101739D01*
X418059Y1022500D02*
X552869Y887690D01*
X544658Y922842D02*
X566038D01*
X418447Y1027500D02*
X553257Y892690D01*
X544422Y917690D02*
X566190D01*
X552869Y887690D02*
X566190D01*
X379100Y1077624D02*
X544034Y912690D01*
X479127Y988373D02*
X544658Y922842D01*
X543646Y907690D02*
X566190D01*
X553257Y892690D02*
X566190D01*
X370000Y1027500D02*
X418447D01*
X479127Y988373D02*
Y1077912D01*
X544034Y912690D02*
X566190D01*
X420026Y1031310D02*
X543646Y907690D01*
X566038Y922842D02*
X566190Y922690D01*
X379090Y1133470D02*
X393700Y1148080D01*
X363831Y1133470D02*
X379090D01*
X357510Y1127149D02*
X363831Y1133470D01*
X357510Y1118211D02*
Y1127149D01*
Y1118211D02*
X365746Y1109975D01*
X370864D01*
X379100Y1101739D01*
X408300Y1148739D02*
Y1154128D01*
X384404Y1162680D02*
X399748D01*
X408300Y1154128D01*
X372759Y1137280D02*
X380995Y1145516D01*
Y1150634D01*
X389231Y1158870D01*
X398169D01*
X404490Y1152549D01*
X408300Y1148739D02*
X479127Y1077912D01*
X404490Y1133470D02*
Y1152549D01*
X353700Y1116633D02*
Y1128727D01*
Y1116633D02*
X357510Y1112822D01*
X362253Y1137280D02*
X372759D01*
X393700Y1122680D02*
X404490Y1133470D01*
X353700Y1128727D02*
X362253Y1137280D01*
X379090Y1158870D02*
X380594D01*
X384404Y1162680D01*
X357510Y1092811D02*
Y1112822D01*
X368300Y1122680D02*
X382910Y1108070D01*
X368300Y1148080D02*
X379090Y1158870D01*
X370930Y1160851D02*
X381640Y1171561D01*
X336148Y1160851D02*
X370930D01*
X325000Y1065000D02*
X367500Y1022500D01*
X328810Y1068690D02*
X370000Y1027500D01*
X357510Y1092811D02*
X419011Y1031310D01*
X391781Y1171561D02*
X393700Y1173480D01*
X381640Y1171561D02*
X391781D01*
X328810Y1153512D02*
X336148Y1160851D01*
X328810Y1068690D02*
Y1153512D01*
X325000Y1065000D02*
Y1158512D01*
X359481Y1164660D02*
X368300Y1173480D01*
X331148Y1164660D02*
X359481D01*
X325000Y1158512D02*
X331148Y1164660D01*
X1838960Y947308D02*
Y986840D01*
X1779693Y947308D02*
Y986840D01*
X1705187Y947308D02*
Y986840D01*
X1645920Y947308D02*
Y986840D01*
X1844040Y1059060D02*
Y1178560D01*
X1641856Y1059060D02*
Y1103376D01*
X1838960Y1005840D02*
Y1044060D01*
X1779693Y1005840D02*
Y1044060D01*
X1705187Y1005840D02*
Y1044060D01*
X789320Y863600D02*
X812800D01*
X739820Y849500D02*
X740570Y850250D01*
X717500Y849500D02*
X739820D01*
X716250D02*
X717500D01*
X698060Y867690D02*
X716250Y849500D01*
X680950Y867690D02*
X698060D01*
X680950Y872690D02*
X725190D01*
X1838960Y947308D02*
X1840460D01*
X1779693D02*
X1780193D01*
X1704686D02*
X1705187D01*
X1644420D02*
X1645920D01*
X1803400Y1168400D02*
Y1178560D01*
X1808480Y1183640D01*
X1838960D01*
X1844040Y1178560D01*
X1843960Y1059060D02*
X1844040D01*
X1781360D02*
X1820672D01*
X1828800Y1067188D01*
Y1168400D01*
X1681480D02*
X1702054Y1188974D01*
X1708912D01*
X1719326Y1178560D01*
Y1063378D02*
Y1178560D01*
X1715008Y1059060D02*
X1719326Y1063378D01*
X1703520Y1059060D02*
X1715008D01*
X1640920D02*
X1641856D01*
Y1103376D02*
X1706880Y1168400D01*
X1838960Y1044060D02*
X1843960D01*
X1779693D02*
X1781360D01*
X1703520D02*
X1705187D01*
X1640920D02*
X1645920D01*
X528320Y862768D02*
X544784D01*
X549862Y857690D01*
X566190D01*
X762840Y866520D02*
X786400D01*
X789320Y863600D01*
X812800D02*
Y863760D01*
X641070Y942570D02*
Y972540D01*
X648392Y979862D01*
X738942Y1037788D02*
X742950Y1033780D01*
Y1020045D02*
Y1033780D01*
X736411Y1022710D02*
X737950Y1021170D01*
Y1020045D02*
Y1021170D01*
X533018Y889000D02*
X544893D01*
X551203Y882690D01*
X566190D01*
X731325Y992945D02*
Y1003420D01*
D22*
X1837690Y494460D02*
D03*
Y505460D02*
D03*
D23*
X604520Y585978D02*
D03*
Y694182D02*
D03*
X502920D02*
D03*
Y585978D02*
D03*
X528320Y694182D02*
D03*
X579120D02*
D03*
D24*
X1693350Y612140D02*
D03*
Y574040D02*
D03*
Y586740D02*
D03*
Y599440D02*
D03*
X1621350Y612140D02*
D03*
Y599440D02*
D03*
Y586740D02*
D03*
Y574040D02*
D03*
D25*
X1607820Y669290D02*
D03*
X1627320D02*
D03*
D26*
X1838960Y986840D02*
D03*
Y1005840D02*
D03*
X1645920Y986840D02*
D03*
Y1005840D02*
D03*
X1705187Y986840D02*
D03*
Y1005840D02*
D03*
X1779693Y986840D02*
D03*
Y1005840D02*
D03*
D27*
X1513720Y393700D02*
D03*
X1498720D02*
D03*
X1496300Y317500D02*
D03*
X1511300D02*
D03*
D28*
X650240Y368079D02*
D03*
Y386080D02*
D03*
X807720Y585360D02*
D03*
Y603360D02*
D03*
X340360Y372000D02*
D03*
Y390000D02*
D03*
X426720Y370840D02*
D03*
Y388840D02*
D03*
X538480Y370840D02*
D03*
Y388840D02*
D03*
D29*
X812800Y863760D02*
D03*
Y883760D02*
D03*
X1076960Y833120D02*
D03*
Y853120D02*
D03*
X1031240Y452440D02*
D03*
Y472440D02*
D03*
X1188720Y695640D02*
D03*
Y675640D02*
D03*
D30*
X360680Y370840D02*
D03*
X376680D02*
D03*
X812800Y553720D02*
D03*
X828800D02*
D03*
D31*
X1596390Y495020D02*
D03*
Y477520D02*
D03*
D32*
X1654810Y544830D02*
D03*
X1673310D02*
D03*
D33*
X736600Y581030D02*
D03*
Y597530D02*
D03*
D34*
X601070Y942570D02*
D03*
X606070D02*
D03*
Y827810D02*
D03*
X611070D02*
D03*
X631070D02*
D03*
X636070D02*
D03*
X661070Y942570D02*
D03*
X646070D02*
D03*
X641070D02*
D03*
X636070D02*
D03*
X631070D02*
D03*
X626070D02*
D03*
X621070D02*
D03*
X616070D02*
D03*
X611070D02*
D03*
X596070D02*
D03*
X586070Y827810D02*
D03*
X591070D02*
D03*
X596070D02*
D03*
X601070D02*
D03*
X616070D02*
D03*
X621070D02*
D03*
X626070D02*
D03*
X651070D02*
D03*
X641070D02*
D03*
X646070D02*
D03*
X586070Y942570D02*
D03*
X651070D02*
D03*
X661070Y827810D02*
D03*
X591070Y942570D02*
D03*
X656070Y827810D02*
D03*
Y942570D02*
D03*
D35*
X680950Y912690D02*
D03*
Y917690D02*
D03*
Y852690D02*
D03*
Y857690D02*
D03*
Y862690D02*
D03*
Y867690D02*
D03*
Y872690D02*
D03*
Y877690D02*
D03*
Y882690D02*
D03*
Y887690D02*
D03*
Y892690D02*
D03*
Y897690D02*
D03*
Y922690D02*
D03*
X566190D02*
D03*
Y917690D02*
D03*
Y912690D02*
D03*
Y907690D02*
D03*
Y902690D02*
D03*
Y897690D02*
D03*
Y892690D02*
D03*
Y887690D02*
D03*
Y882690D02*
D03*
Y877690D02*
D03*
Y872690D02*
D03*
Y867690D02*
D03*
Y862690D02*
D03*
Y857690D02*
D03*
Y847690D02*
D03*
X680950Y907690D02*
D03*
Y847690D02*
D03*
X566190Y852690D02*
D03*
X680950Y902690D02*
D03*
D36*
X762410Y585090D02*
D03*
X775410D02*
D03*
X781910D02*
D03*
X762410Y644090D02*
D03*
X775410D02*
D03*
X768910D02*
D03*
Y585090D02*
D03*
X781910Y644090D02*
D03*
D37*
X1930523Y526444D02*
D03*
D38*
X1930400Y505460D02*
D03*
D39*
X1041400Y289560D02*
D03*
X1062400D02*
D03*
X1061720Y208280D02*
D03*
X1040720D02*
D03*
D40*
X1346220Y517160D02*
D03*
Y562160D02*
D03*
Y552160D02*
D03*
Y547160D02*
D03*
Y542160D02*
D03*
Y537160D02*
D03*
Y527160D02*
D03*
Y522160D02*
D03*
Y512160D02*
D03*
Y507160D02*
D03*
Y502160D02*
D03*
Y492160D02*
D03*
Y487160D02*
D03*
X1234220D02*
D03*
Y497160D02*
D03*
Y507160D02*
D03*
Y522160D02*
D03*
Y527160D02*
D03*
Y532160D02*
D03*
Y537160D02*
D03*
Y547160D02*
D03*
Y552160D02*
D03*
Y557160D02*
D03*
X1346220Y532160D02*
D03*
X1234220Y492160D02*
D03*
Y502160D02*
D03*
Y512160D02*
D03*
Y542160D02*
D03*
Y517160D02*
D03*
Y562160D02*
D03*
X1346220Y497160D02*
D03*
Y557160D02*
D03*
D41*
X1252720Y580660D02*
D03*
X1272720D02*
D03*
X1277720D02*
D03*
X1282720D02*
D03*
X1287720D02*
D03*
X1297720D02*
D03*
X1302720D02*
D03*
X1307720D02*
D03*
X1312720D02*
D03*
X1327720D02*
D03*
Y468660D02*
D03*
X1317720D02*
D03*
X1312720D02*
D03*
X1307720D02*
D03*
X1302720D02*
D03*
X1297720D02*
D03*
X1287720D02*
D03*
X1282720D02*
D03*
X1277720D02*
D03*
X1272720D02*
D03*
X1262720D02*
D03*
X1257720D02*
D03*
X1252720D02*
D03*
X1262720Y580660D02*
D03*
X1267720D02*
D03*
X1257720D02*
D03*
X1322720Y468660D02*
D03*
X1267720D02*
D03*
X1292720Y580660D02*
D03*
X1322720D02*
D03*
X1292720Y468660D02*
D03*
X1317720Y580660D02*
D03*
D42*
X1041400Y330200D02*
D03*
X1060400D02*
D03*
X1041400Y248920D02*
D03*
X1060400D02*
D03*
D43*
X1696280Y672270D02*
D03*
X1704780D02*
D03*
Y663770D02*
D03*
X1696280D02*
D03*
D44*
X675640Y370840D02*
D03*
X695640D02*
D03*
X1774030Y389890D02*
D03*
X1754030D02*
D03*
X396240Y477520D02*
D03*
X416240D02*
D03*
X452280Y370840D02*
D03*
X472280D02*
D03*
X583880Y370840D02*
D03*
X563880D02*
D03*
D45*
X357780Y183770D02*
D03*
X312780Y263270D02*
D03*
Y183770D02*
D03*
X357780Y263270D02*
D03*
X424540Y178690D02*
D03*
Y258190D02*
D03*
X469540D02*
D03*
Y178690D02*
D03*
X536300Y258190D02*
D03*
Y178690D02*
D03*
X581300Y258190D02*
D03*
Y178690D02*
D03*
X648060Y258190D02*
D03*
Y178690D02*
D03*
X693060Y258190D02*
D03*
Y178690D02*
D03*
D46*
X1170820Y822560D02*
D03*
X1185820D02*
D03*
X1140820D02*
D03*
X993260Y825220D02*
D03*
X1023260D02*
D03*
X1038260D02*
D03*
D47*
X1126820Y814710D02*
D03*
Y795410D02*
D03*
X1199820D02*
D03*
Y814710D02*
D03*
X979260Y817370D02*
D03*
X1052260D02*
D03*
X979260Y798070D02*
D03*
X1052260D02*
D03*
D48*
X1841215Y585470D02*
D03*
X1827965D02*
D03*
D49*
X737950Y1020045D02*
D03*
X747950D02*
D03*
X742950D02*
D03*
X737950Y1001795D02*
D03*
X742950D02*
D03*
X747950D02*
D03*
D50*
X754575Y1018420D02*
D03*
Y1013420D02*
D03*
Y1008420D02*
D03*
X731325Y1003420D02*
D03*
Y1018420D02*
D03*
X754575Y1003420D02*
D03*
X731325Y1013420D02*
D03*
Y1008420D02*
D03*
D51*
X1148080Y538480D02*
D03*
X1128630D02*
D03*
X1148080Y513080D02*
D03*
X1128630D02*
D03*
D52*
X1502728Y787500D02*
D03*
X1517272D02*
D03*
D53*
X1433710Y985520D02*
D03*
X1362710D02*
D03*
D54*
X685800Y649840D02*
D03*
Y599840D02*
D03*
X1299210Y888600D02*
D03*
Y838600D02*
D03*
D55*
X416560Y598840D02*
D03*
Y669840D02*
D03*
D56*
X325120Y592840D02*
D03*
Y635840D02*
D03*
D57*
X873760Y665340D02*
D03*
Y603340D02*
D03*
D58*
X1738630Y682993D02*
D03*
Y665480D02*
D03*
D59*
X1840460Y947308D02*
D03*
Y932292D02*
D03*
X1644420Y947308D02*
D03*
Y932292D02*
D03*
X1704686Y947308D02*
D03*
Y932292D02*
D03*
X1780193Y947308D02*
D03*
Y932292D02*
D03*
D60*
X1117977Y950120D02*
D03*
D61*
Y970120D02*
D03*
X1076960D02*
D03*
Y955120D02*
D03*
Y950120D02*
D03*
Y965120D02*
D03*
X1117977Y955120D02*
D03*
Y965120D02*
D03*
X1076960Y960120D02*
D03*
X1117977D02*
D03*
D62*
X706120Y523650D02*
D03*
Y543150D02*
D03*
D63*
X1017777Y289560D02*
D03*
X1000760D02*
D03*
X516002Y889000D02*
D03*
X533018D02*
D03*
X1017777Y330200D02*
D03*
X1000760D02*
D03*
X1017777Y208280D02*
D03*
X1000760D02*
D03*
X1017777Y248920D02*
D03*
X1000760D02*
D03*
D64*
X1123377Y436880D02*
D03*
X1102360D02*
D03*
D65*
X1892300Y497650D02*
D03*
Y505650D02*
D03*
D66*
X1376680Y614638D02*
D03*
Y629920D02*
D03*
X1148080Y487680D02*
D03*
Y472399D02*
D03*
D67*
X1823840Y641350D02*
D03*
X1838840D02*
D03*
X1823840Y610870D02*
D03*
X1838840D02*
D03*
D68*
X1859280Y505460D02*
D03*
X1871280D02*
D03*
D69*
X1221680Y694640D02*
D03*
Y675640D02*
D03*
X1249680Y685140D02*
D03*
Y675640D02*
D03*
Y694640D02*
D03*
X1221680Y685140D02*
D03*
D70*
X1671180Y499180D02*
D03*
X1653680Y476180D02*
D03*
Y499180D02*
D03*
X1671180Y476180D02*
D03*
X1239520Y655320D02*
D03*
X1225020D02*
D03*
X1476110Y889000D02*
D03*
X1490610D02*
D03*
X1419490Y919480D02*
D03*
X1404990D02*
D03*
X669660Y966470D02*
D03*
X684160D02*
D03*
X513560Y987820D02*
D03*
X528060D02*
D03*
X302630Y701040D02*
D03*
X317130D02*
D03*
X658230Y706120D02*
D03*
X672730D02*
D03*
X394070Y563880D02*
D03*
X408570D02*
D03*
X886830Y706120D02*
D03*
X901330D02*
D03*
X1201050Y508000D02*
D03*
X1186550D02*
D03*
X1401340Y487680D02*
D03*
X1386840D02*
D03*
X1244600Y609600D02*
D03*
X1230099D02*
D03*
X1357100Y436880D02*
D03*
X1371600D02*
D03*
X1379590Y533400D02*
D03*
X1394090D02*
D03*
X1117600Y467360D02*
D03*
X1103100D02*
D03*
D71*
X762840Y850520D02*
D03*
Y866520D02*
D03*
X740840D02*
D03*
Y850520D02*
D03*
D72*
X659740Y343324D02*
D03*
X669240Y325120D02*
D03*
X350520Y344382D02*
D03*
X360020Y326178D02*
D03*
X436880Y345440D02*
D03*
X446380Y327236D02*
D03*
X547980Y343324D02*
D03*
X557480Y325120D02*
D03*
D73*
X650240D02*
D03*
X341020Y326178D02*
D03*
X427380Y327236D02*
D03*
X538480Y325120D02*
D03*
D74*
X360620Y510500D02*
D03*
Y505500D02*
D03*
Y500500D02*
D03*
Y515500D02*
D03*
Y495500D02*
D03*
Y520500D02*
D03*
Y490500D02*
D03*
Y525500D02*
D03*
Y485500D02*
D03*
Y530500D02*
D03*
Y480500D02*
D03*
Y535500D02*
D03*
Y475500D02*
D03*
Y470500D02*
D03*
Y540500D02*
D03*
Y545500D02*
D03*
D75*
X569878Y987820D02*
D03*
X553762D02*
D03*
D76*
X1787906Y518160D02*
D03*
D77*
X1790406Y494410D02*
D03*
X1795406D02*
D03*
X1775406D02*
D03*
Y541910D02*
D03*
X1805406Y494410D02*
D03*
X1800406D02*
D03*
X1785406D02*
D03*
X1780406D02*
D03*
X1770406D02*
D03*
Y541910D02*
D03*
X1780406D02*
D03*
X1785406D02*
D03*
X1790406D02*
D03*
X1795406D02*
D03*
X1800406D02*
D03*
X1805406D02*
D03*
D78*
X1811656Y500660D02*
D03*
Y530660D02*
D03*
X1764156Y500660D02*
D03*
Y515660D02*
D03*
Y535660D02*
D03*
X1811656D02*
D03*
Y525660D02*
D03*
Y520660D02*
D03*
Y515660D02*
D03*
Y510660D02*
D03*
Y505660D02*
D03*
X1764156Y530660D02*
D03*
Y520660D02*
D03*
Y505660D02*
D03*
Y525660D02*
D03*
Y510660D02*
D03*
D79*
X454179Y502393D02*
D03*
Y509393D02*
D03*
X462678Y505893D02*
D03*
D80*
X1791098Y418846D02*
D03*
X1809098D02*
D03*
X1776620Y444500D02*
D03*
X1794620D02*
D03*
D81*
X717500Y849500D02*
D03*
Y835500D02*
D03*
X789940Y862980D02*
D03*
Y848980D02*
D03*
D82*
X1137920Y590800D02*
D03*
Y685800D02*
D03*
D83*
X1628140Y478790D02*
D03*
Y493790D02*
D03*
X1697990Y493910D02*
D03*
Y478910D02*
D03*
X1137920Y726440D02*
D03*
Y741440D02*
D03*
X1092200Y614680D02*
D03*
Y629680D02*
D03*
D84*
X1588770Y596506D02*
D03*
Y580390D02*
D03*
X528320Y862768D02*
D03*
Y846652D02*
D03*
D85*
X1482490Y839470D02*
D03*
X1532490D02*
D03*
D86*
X1470660Y974990D02*
D03*
Y960490D02*
D03*
X1301750Y940170D02*
D03*
Y954670D02*
D03*
X778510Y992770D02*
D03*
Y978270D02*
D03*
X528320Y810630D02*
D03*
Y825130D02*
D03*
X1051560Y955040D02*
D03*
Y940540D02*
D03*
X751840Y709030D02*
D03*
Y723530D02*
D03*
X772160Y709030D02*
D03*
Y723530D02*
D03*
X1280160Y418730D02*
D03*
Y404230D02*
D03*
X1295400Y610340D02*
D03*
Y624840D02*
D03*
X1168400Y487680D02*
D03*
Y473180D02*
D03*
X1349339Y609600D02*
D03*
Y624100D02*
D03*
X1325880Y609600D02*
D03*
Y624100D02*
D03*
X878840Y383170D02*
D03*
Y368670D02*
D03*
D87*
X1709420Y420780D02*
D03*
Y440280D02*
D03*
D88*
X1671320Y669290D02*
D03*
X1652320D02*
D03*
D89*
X1765300Y662940D02*
D03*
Y645923D02*
D03*
X650240Y799337D02*
D03*
Y782320D02*
D03*
X1234440Y409703D02*
D03*
Y426720D02*
D03*
X1457960Y580897D02*
D03*
Y563880D02*
D03*
D90*
X1640920Y1059060D02*
D03*
Y1044060D02*
D03*
X1703520Y1059060D02*
D03*
Y1044060D02*
D03*
X1781360Y1059060D02*
D03*
Y1044060D02*
D03*
X1843960Y1059060D02*
D03*
Y1044060D02*
D03*
X624840Y780930D02*
D03*
Y765930D02*
D03*
X1798320Y594240D02*
D03*
Y579240D02*
D03*
X1766570Y592850D02*
D03*
Y577850D02*
D03*
D91*
X1101200Y924560D02*
D03*
X1083200D02*
D03*
X1222058Y719596D02*
D03*
X1240058D02*
D03*
D92*
X406400Y523560D02*
D03*
Y543560D02*
D03*
X309880Y314800D02*
D03*
Y294800D02*
D03*
D93*
X1183320Y853440D02*
D03*
X1163320D02*
D03*
X401320Y452120D02*
D03*
X421320D02*
D03*
D94*
X1117600Y487680D02*
D03*
X1102318D02*
D03*
D114*
X801040Y340360D02*
D03*
Y378460D02*
D03*
Y365760D02*
D03*
Y353060D02*
D03*
Y327660D02*
D03*
Y314960D02*
D03*
X855040Y302260D02*
D03*
Y327660D02*
D03*
Y353060D02*
D03*
Y378460D02*
D03*
X801040Y302260D02*
D03*
X855040Y314960D02*
D03*
Y340360D02*
D03*
Y365760D02*
D03*
D115*
X356620Y462300D02*
D03*
Y553700D02*
D03*
X1148320Y805060D02*
D03*
X1178320D02*
D03*
X1000760Y807720D02*
D03*
X1030760D02*
D03*
D130*
X1503680Y994410D02*
D03*
Y943610D02*
D03*
Y969010D02*
D03*
D133*
X326620Y462800D02*
D03*
Y553200D02*
D03*
D147*
X1827965Y572335D02*
Y585470D01*
Y572335D02*
X1847850Y552450D01*
Y525780D02*
Y552450D01*
X1837730Y515660D02*
X1847850Y525780D01*
X1841215Y585470D02*
Y608495D01*
X1838840Y610870D02*
X1841215Y608495D01*
X1838840Y610870D02*
Y641350D01*
X1811656Y515660D02*
X1831380D01*
X1837730D01*
X1811656Y510660D02*
X1826380D01*
X1831380Y515660D01*
X1809098Y396858D02*
Y418846D01*
X1803400Y391160D02*
X1809098Y396858D01*
X1838840Y641350D02*
X1838960Y641470D01*
Y665480D01*
X1811656Y500660D02*
X1815566D01*
X1826768Y458978D02*
Y489458D01*
X1815566Y500660D02*
X1826768Y489458D01*
X1809098Y441308D02*
X1826768Y458978D01*
X1790406Y492200D02*
X1794510Y488096D01*
X1790406Y492200D02*
Y494410D01*
X1794510Y444610D02*
Y488096D01*
X1795406Y487200D02*
Y494410D01*
X1794510Y444610D02*
X1794620Y444500D01*
X1797812Y441308D01*
X1809098Y418846D02*
Y441308D01*
X1797812D02*
X1809098D01*
X1794510Y488096D02*
X1795406Y487200D01*
D148*
X1922116Y526444D02*
X1930523D01*
X1404874Y919480D02*
Y942964D01*
Y830326D02*
Y919480D01*
X1548892Y806196D02*
Y863600D01*
X1518666Y775970D02*
X1548892Y806196D01*
X1524508Y839470D02*
Y863600D01*
Y821560D02*
Y839470D01*
X1398270Y881380D02*
Y919480D01*
X1548892Y863600D02*
Y923798D01*
X1523492Y889000D02*
X1548892Y863600D01*
X1503680Y969010D02*
X1548892Y923798D01*
X1499108Y889000D02*
X1523492D01*
X1524508Y839470D02*
X1532490D01*
X1499108Y889000D02*
X1524508Y863600D01*
X1517272Y814324D02*
X1524508Y821560D01*
X1517272Y787500D02*
Y814324D01*
X1459230Y775970D02*
X1518666D01*
X1384670Y985520D02*
X1404990Y965200D01*
X1422400Y960490D02*
X1470660D01*
X1301750Y966470D02*
X1320800Y985520D01*
X1362710D02*
X1384670D01*
X1320800D02*
X1362710D01*
X1404990Y943080D02*
Y965200D01*
Y943080D02*
X1422400Y960490D01*
X1404874Y942964D02*
X1404990Y943080D01*
Y919480D02*
Y943080D01*
X1301750Y954670D02*
Y966470D01*
X1294522Y954670D02*
X1301750D01*
X1286002Y855472D02*
Y946150D01*
X1294522Y954670D01*
X1404874Y919480D02*
X1404990D01*
X1398270D02*
X1404874D01*
X1490610Y889000D02*
X1499108D01*
X1286002Y855472D02*
X1299210Y842264D01*
X1404874Y830326D02*
X1459230Y775970D01*
X1299210Y838600D02*
Y842264D01*
X1502728Y787500D02*
Y804926D01*
X1482344Y825310D02*
X1502728Y804926D01*
X1476110Y916040D02*
X1503680Y943610D01*
X1299210Y888600D02*
Y940170D01*
X1301750D01*
X1299210Y888492D02*
Y888600D01*
Y888492D02*
X1365758D01*
X1482344Y825310D02*
Y839470D01*
X1475994D02*
X1482344D01*
X1482490D01*
X1475994D02*
Y863600D01*
X1476110Y863716D01*
Y889000D01*
Y916040D01*
X1419490Y919480D02*
X1451864D01*
X1474724Y985520D02*
X1482344Y977900D01*
X1451864Y919480D02*
X1482344Y949960D01*
Y977900D01*
X1433710Y985520D02*
X1433830D01*
X1470660D01*
X1474724D01*
X1470660D02*
X1479550Y994410D01*
X1503680D01*
X1365758Y888492D02*
X1372870Y881380D01*
X1423670D02*
Y897890D01*
X1419490Y902070D02*
X1423670Y897890D01*
X1419490Y902070D02*
Y919480D01*
X1470660Y974990D02*
Y985520D01*
X1370190Y1167590D02*
X1433830Y1103950D01*
Y985520D02*
Y1103950D01*
D149*
X1980015Y505972D02*
D03*
D150*
X1953624Y471009D02*
D03*
Y424019D02*
D03*
D151*
X1964318Y483505D02*
D03*
Y458512D02*
D03*
Y436515D02*
D03*
Y411522D02*
D03*
D152*
X1980015Y447514D02*
D03*
Y400524D02*
D03*
D153*
X1957803Y389525D02*
D03*
D154*
X1953015Y505451D02*
D03*
D155*
Y526444D02*
D03*
D156*
X1977513D02*
D03*
D157*
X1976611Y505451D02*
D03*
Y483505D02*
D03*
X1978415Y458512D02*
D03*
Y436515D02*
D03*
X1976611Y411522D02*
D03*
Y389525D02*
D03*
D158*
X1953624Y480102D02*
D03*
Y460112D02*
D03*
Y434915D02*
D03*
Y414925D02*
D03*
D159*
X1423670Y881380D02*
D03*
D160*
X1372870D02*
D03*
X1398270D02*
D03*
D161*
X1808480Y739140D02*
D03*
X1833880D02*
D03*
X1808480Y815340D02*
D03*
X1833880Y764540D02*
D03*
X1808480Y789940D02*
D03*
Y764540D02*
D03*
X1833880Y789940D02*
D03*
D162*
Y815340D02*
D03*
D163*
X1566900Y1167590D02*
D03*
X1828800Y1168400D02*
D03*
X1706880D02*
D03*
X1468545Y1167590D02*
D03*
X1271835D02*
D03*
X1370190D02*
D03*
X1173480D02*
D03*
D164*
X1531900D02*
D03*
X1803400Y1168400D02*
D03*
X1778000D02*
D03*
X1752600D02*
D03*
X1681480D02*
D03*
X1656080D02*
D03*
X1630680D02*
D03*
X1433545Y1167590D02*
D03*
X1236835D02*
D03*
X1335190D02*
D03*
X1138480D02*
D03*
D165*
X1755140Y294640D02*
D03*
Y320040D02*
D03*
X1729740D02*
D03*
Y294640D02*
D03*
X1704340Y320040D02*
D03*
Y294640D02*
D03*
X1780540D02*
D03*
X1678940D02*
D03*
Y320040D02*
D03*
X393700Y1173480D02*
D03*
X368300D02*
D03*
Y1148080D02*
D03*
X393700D02*
D03*
X368300Y1122680D02*
D03*
X393700D02*
D03*
Y1198880D02*
D03*
X368300Y1097280D02*
D03*
X393700D02*
D03*
X633730Y1123950D02*
D03*
X608330D02*
D03*
X633730Y1149350D02*
D03*
X608330D02*
D03*
Y1174750D02*
D03*
X633730D02*
D03*
Y1200150D02*
D03*
Y1098550D02*
D03*
X608330D02*
D03*
X1028700Y1176020D02*
D03*
X1003300D02*
D03*
Y1150620D02*
D03*
X1028700D02*
D03*
Y1125220D02*
D03*
X1003300D02*
D03*
Y1099820D02*
D03*
X1028700D02*
D03*
Y1201420D02*
D03*
X833120Y1176020D02*
D03*
X858520Y1150620D02*
D03*
X833120Y1125220D02*
D03*
X858520D02*
D03*
Y1176020D02*
D03*
X833120Y1150620D02*
D03*
X858520Y1201420D02*
D03*
X833120Y1099820D02*
D03*
X858520D02*
D03*
D166*
X1780540Y320040D02*
D03*
D167*
X982980Y1000760D02*
D03*
X1543050Y317495D02*
D03*
X1541780Y393700D02*
D03*
X982980Y965200D02*
D03*
Y929640D02*
D03*
X309880Y345440D02*
D03*
X744220Y533400D02*
D03*
X805180Y259080D02*
D03*
X830580Y218440D02*
D03*
Y177800D02*
D03*
D168*
X1008380Y1000760D02*
D03*
X1568450Y317495D02*
D03*
X1567180Y393700D02*
D03*
X1008380Y965200D02*
D03*
Y929640D02*
D03*
X769620Y533400D02*
D03*
X830580Y259080D02*
D03*
X805180Y218440D02*
D03*
Y177800D02*
D03*
D169*
X368300Y1198880D02*
D03*
X608330Y1200150D02*
D03*
X1003300Y1201420D02*
D03*
X833120D02*
D03*
D170*
X309880Y370840D02*
D03*
D171*
X1776906Y529160D02*
D03*
Y507160D02*
D03*
X1787906Y518160D02*
D03*
X1776906D02*
D03*
X1787906Y529160D02*
D03*
X1798906Y507160D02*
D03*
X1787906D02*
D03*
X1798906Y518160D02*
D03*
Y529160D02*
D03*
D172*
X748030Y1040130D02*
D03*
X651510Y971550D02*
D03*
X391160Y542290D02*
D03*
X378460Y462280D02*
D03*
X1666240Y650240D02*
D03*
X1826917Y525762D02*
D03*
X1827530Y534670D02*
D03*
X1831224Y550395D02*
D03*
X1837690Y393700D02*
D03*
X1752600Y557530D02*
D03*
X1742332Y341988D02*
D03*
X1760220Y563880D02*
D03*
X1826260Y391160D02*
D03*
X1784350Y586740D02*
D03*
X1813560Y673100D02*
D03*
X1781810Y631190D02*
D03*
X1746250Y576580D02*
D03*
X1769110Y835660D02*
D03*
X1852930Y680720D02*
D03*
X1805940Y562610D02*
D03*
X1814830Y576580D02*
D03*
X1752600Y643890D02*
D03*
X1794510Y567690D02*
D03*
X1621790Y640080D02*
D03*
X1781810Y600710D02*
D03*
X1805776Y467439D02*
D03*
X1809750Y624840D02*
D03*
X1725930Y440690D02*
D03*
X1738884Y418846D02*
D03*
X1652270Y411480D02*
D03*
X1517650Y336550D02*
D03*
X1541561Y519508D02*
D03*
X1905000Y453390D02*
D03*
X1916430Y473710D02*
D03*
X1868170Y477520D02*
D03*
X1916430Y461010D02*
D03*
X1905000Y466090D02*
D03*
Y480060D02*
D03*
X1817370Y462280D02*
D03*
X1744980Y490220D02*
D03*
X1741170Y481330D02*
D03*
X1638300Y449580D02*
D03*
X1803400Y391160D02*
D03*
X1916202Y433272D02*
D03*
Y392632D02*
D03*
Y419302D02*
D03*
Y406602D02*
D03*
X1916430Y447040D02*
D03*
X1905000Y439420D02*
D03*
X1904772Y425652D02*
D03*
Y385012D02*
D03*
Y398982D02*
D03*
Y411682D02*
D03*
X1760220Y405130D02*
D03*
X1691640Y539750D02*
D03*
X1723390D02*
D03*
X1916202Y555192D02*
D03*
X1921510Y527050D02*
D03*
X1916430Y487680D02*
D03*
Y541020D02*
D03*
Y514350D02*
D03*
X1902460Y554990D02*
D03*
Y527050D02*
D03*
X1902232Y541222D02*
D03*
X1905172Y514448D02*
D03*
X1906442Y496668D02*
D03*
X1921510Y497840D02*
D03*
X1916430Y568960D02*
D03*
X1838960Y665480D02*
D03*
X1588770Y614680D02*
D03*
X1596390Y457200D02*
D03*
X1530350Y349250D02*
D03*
X1485900Y393700D02*
D03*
X1482090Y317500D02*
D03*
X1570990Y716026D02*
D03*
X1713230Y763270D02*
D03*
X1770380Y727710D02*
D03*
X1391920Y553720D02*
D03*
X1407160Y502920D02*
D03*
X1341120Y589280D02*
D03*
X1391920Y563880D02*
D03*
X1336040Y436880D02*
D03*
X1275080D02*
D03*
X1178560Y538480D02*
D03*
X1188720D02*
D03*
X1198880D02*
D03*
X705000Y990000D02*
D03*
X790000Y830000D02*
D03*
X735000Y897380D02*
D03*
X537500Y1012500D02*
D03*
X495000Y830000D02*
D03*
X667500Y805000D02*
D03*
X1168400Y502920D02*
D03*
X1244600Y629920D02*
D03*
X1071880Y985520D02*
D03*
X1381760Y746760D02*
D03*
Y756920D02*
D03*
X1473200Y787400D02*
D03*
X1046480Y975360D02*
D03*
X1122680Y763016D02*
D03*
X762000Y685800D02*
D03*
X1254760Y377157D02*
D03*
X1295400Y391160D02*
D03*
X1041400Y848360D02*
D03*
X1285240Y655320D02*
D03*
X1071880Y670560D02*
D03*
X682500Y985000D02*
D03*
X735000Y917500D02*
D03*
X682500Y815000D02*
D03*
X512500Y1007500D02*
D03*
X807720Y670560D02*
D03*
X853440Y411480D02*
D03*
X624840Y747500D02*
D03*
X1158240Y441960D02*
D03*
X1417320Y523240D02*
D03*
X736600Y467360D02*
D03*
X436880Y873760D02*
D03*
X447040Y863600D02*
D03*
X736600Y457200D02*
D03*
X746760Y370840D02*
D03*
X1295400Y553720D02*
D03*
X1137920Y289560D02*
D03*
X1270000Y670560D02*
D03*
X1305560Y553720D02*
D03*
X1137920Y330200D02*
D03*
X736600Y670560D02*
D03*
X660400Y767080D02*
D03*
X650240D02*
D03*
X1066800Y924560D02*
D03*
X610000Y785000D02*
D03*
X1066800Y934720D02*
D03*
X431800Y497840D02*
D03*
Y513080D02*
D03*
X378473Y504210D02*
D03*
X1046480Y995680D02*
D03*
X526491Y301093D02*
D03*
X609600Y370840D02*
D03*
X314960Y203200D02*
D03*
X401320Y299720D02*
D03*
X637318Y300807D02*
D03*
X657500Y847500D02*
D03*
X811509Y968491D02*
D03*
X830755Y1001745D02*
D03*
X720000Y917192D02*
D03*
X617500Y810000D02*
D03*
X630000Y850000D02*
D03*
X637500Y862500D02*
D03*
X620000Y850000D02*
D03*
X720000Y945000D02*
D03*
X702500Y975000D02*
D03*
X673596Y1037500D02*
D03*
X659130Y988060D02*
D03*
X942500Y1062296D02*
D03*
X587500Y860000D02*
D03*
X597500Y867500D02*
D03*
X590000Y877500D02*
D03*
X721706Y980094D02*
D03*
X607500Y850000D02*
D03*
X595000D02*
D03*
X722500Y927500D02*
D03*
X590000Y890000D02*
D03*
Y902500D02*
D03*
X597500Y1035000D02*
D03*
X584806Y1022306D02*
D03*
X1765000Y1032500D02*
D03*
X688121Y1045895D02*
D03*
X1825000Y1022500D02*
D03*
X1630000Y1027500D02*
D03*
X730250Y1042670D02*
D03*
X1690000Y1027500D02*
D03*
D173*
X1659890Y836930D02*
D03*
X1198880Y288290D02*
D03*
X1193800Y970280D02*
D03*
X364490Y919480D02*
D03*
M02*
