G04*
G04 #@! TF.GenerationSoftware,Altium Limited,Altium Designer,25.4.2 (15)*
G04*
G04 Layer_Color=8421504*
%FSLAX44Y44*%
%MOMM*%
G71*
G04*
G04 #@! TF.SameCoordinates,145FFF0F-7840-416A-8FEA-007F4607A66E*
G04*
G04*
G04 #@! TF.FilePolarity,Positive*
G04*
G01*
G75*
%ADD21R,1.5000X0.5500*%
%ADD22R,0.6000X0.6000*%
%ADD23R,0.5588X1.7018*%
%ADD24R,1.6500X0.6500*%
%ADD25R,1.3500X1.5500*%
%ADD26R,1.5500X1.4000*%
%ADD27R,1.0000X1.2500*%
%ADD28R,1.3500X1.0000*%
%ADD29R,1.4500X1.2000*%
%ADD30R,0.8000X1.2500*%
%ADD31R,1.4000X1.1000*%
%ADD32R,1.0500X1.4500*%
%ADD33R,1.3500X0.8500*%
%ADD34R,0.3000X1.4750*%
%ADD35R,1.4750X0.3000*%
G04:AMPARAMS|DCode=36|XSize=0.45mm|YSize=1.4mm|CornerRadius=0.0495mm|HoleSize=0mm|Usage=FLASHONLY|Rotation=180.000|XOffset=0mm|YOffset=0mm|HoleType=Round|Shape=RoundedRectangle|*
%AMROUNDEDRECTD36*
21,1,0.4500,1.3010,0,0,180.0*
21,1,0.3510,1.4000,0,0,180.0*
1,1,0.0990,-0.1755,0.6505*
1,1,0.0990,0.1755,0.6505*
1,1,0.0990,0.1755,-0.6505*
1,1,0.0990,-0.1755,-0.6505*
%
%ADD36ROUNDEDRECTD36*%
%ADD37R,0.3810X0.8992*%
%ADD38R,0.3810X0.5004*%
%ADD39R,1.2000X1.2000*%
%ADD40O,2.1000X0.3000*%
%ADD41O,0.3000X2.1000*%
%ADD42R,0.9000X1.1000*%
%ADD43R,0.4500X0.4500*%
%ADD44R,1.0000X1.3500*%
%ADD45R,1.3000X1.5500*%
%ADD46R,0.7000X1.5000*%
%ADD47R,1.0000X0.8000*%
%ADD48R,0.6250X0.8500*%
%ADD49R,0.3500X0.5750*%
%ADD50R,0.5750X0.3500*%
%ADD51R,1.2850X1.4700*%
%ADD52R,0.9578X1.2621*%
%ADD53R,4.0000X2.0000*%
%ADD54R,1.6000X3.2000*%
%ADD55R,2.0000X4.0000*%
%ADD56R,1.6000X2.8000*%
%ADD57R,1.6000X4.0000*%
%ADD58R,1.3621X1.1549*%
%ADD59R,1.2621X1.0046*%
%ADD60R,1.2565X0.3125*%
G04:AMPARAMS|DCode=61|XSize=1.2565mm|YSize=0.3125mm|CornerRadius=0.1562mm|HoleSize=0mm|Usage=FLASHONLY|Rotation=180.000|XOffset=0mm|YOffset=0mm|HoleType=Round|Shape=RoundedRectangle|*
%AMROUNDEDRECTD61*
21,1,1.2565,0.0000,0,0,180.0*
21,1,0.9440,0.3125,0,0,180.0*
1,1,0.3125,-0.4720,0.0000*
1,1,0.3125,0.4720,0.0000*
1,1,0.3125,0.4720,0.0000*
1,1,0.3125,-0.4720,0.0000*
%
%ADD61ROUNDEDRECTD61*%
%ADD62R,1.4500X0.9500*%
%ADD63R,0.8065X1.3082*%
%ADD64R,1.2065X1.5082*%
%ADD65R,0.5200X0.5200*%
%ADD66R,1.4562X1.3781*%
%ADD67R,0.9500X1.3500*%
%ADD68R,0.7500X0.9000*%
%ADD69R,1.1000X0.6000*%
%ADD70R,1.0500X1.3000*%
%ADD71R,1.4000X1.2000*%
G04:AMPARAMS|DCode=72|XSize=1.5242mm|YSize=0.578mm|CornerRadius=0.289mm|HoleSize=0mm|Usage=FLASHONLY|Rotation=90.000|XOffset=0mm|YOffset=0mm|HoleType=Round|Shape=RoundedRectangle|*
%AMROUNDEDRECTD72*
21,1,1.5242,0.0000,0,0,90.0*
21,1,0.9463,0.5780,0,0,90.0*
1,1,0.5780,0.0000,0.4731*
1,1,0.5780,0.0000,-0.4731*
1,1,0.5780,0.0000,-0.4731*
1,1,0.5780,0.0000,0.4731*
%
%ADD72ROUNDEDRECTD72*%
%ADD73R,0.5780X1.5242*%
%ADD74R,1.0000X0.3000*%
%ADD75R,1.3046X1.4562*%
%ADD76R,3.7000X3.7000*%
%ADD77O,0.2500X0.7000*%
%ADD78O,0.7000X0.2500*%
G04:AMPARAMS|DCode=79|XSize=0.3mm|YSize=0.3mm|CornerRadius=0.0495mm|HoleSize=0mm|Usage=FLASHONLY|Rotation=270.000|XOffset=0mm|YOffset=0mm|HoleType=Round|Shape=RoundedRectangle|*
%AMROUNDEDRECTD79*
21,1,0.3000,0.2010,0,0,270.0*
21,1,0.2010,0.3000,0,0,270.0*
1,1,0.0990,-0.1005,-0.1005*
1,1,0.0990,-0.1005,0.1005*
1,1,0.0990,0.1005,0.1005*
1,1,0.0990,0.1005,-0.1005*
%
%ADD79ROUNDEDRECTD79*%
%ADD80R,1.5000X1.5500*%
%ADD81R,1.3500X1.1000*%
%ADD82R,2.1000X5.6000*%
%ADD83R,1.3500X0.9500*%
%ADD84R,1.4562X1.3046*%
%ADD85R,3.2000X1.6000*%
%ADD86R,1.3000X1.0500*%
%ADD87R,1.5500X1.3500*%
%ADD88R,1.4000X1.5500*%
%ADD89R,1.3082X0.8065*%
%ADD90R,1.2500X1.0000*%
%ADD91R,1.0000X1.3500*%
%ADD92R,1.3500X1.0000*%
%ADD93R,1.2000X1.4500*%
%ADD94R,1.3781X1.4562*%
D21*
X855040Y302262D02*
D03*
Y314962D02*
D03*
Y327662D02*
D03*
Y340360D02*
D03*
Y353058D02*
D03*
Y365758D02*
D03*
Y378458D02*
D03*
X801040Y302262D02*
D03*
Y314962D02*
D03*
Y327662D02*
D03*
Y340360D02*
D03*
Y353058D02*
D03*
Y365758D02*
D03*
Y378458D02*
D03*
D22*
X1837690Y494460D02*
D03*
Y505460D02*
D03*
D23*
X604520Y585978D02*
D03*
Y694182D02*
D03*
X502920D02*
D03*
Y585978D02*
D03*
X528320Y694182D02*
D03*
X579120D02*
D03*
D24*
X1693350Y612140D02*
D03*
Y574040D02*
D03*
Y586740D02*
D03*
Y599440D02*
D03*
X1621350Y612140D02*
D03*
Y599440D02*
D03*
Y586740D02*
D03*
Y574040D02*
D03*
D25*
X1607820Y669290D02*
D03*
X1627320D02*
D03*
D26*
X1838960Y986840D02*
D03*
Y1005840D02*
D03*
X1645920Y986840D02*
D03*
Y1005840D02*
D03*
X1705187Y986840D02*
D03*
Y1005840D02*
D03*
X1779693Y986840D02*
D03*
Y1005840D02*
D03*
D27*
X1513720Y393700D02*
D03*
X1498720D02*
D03*
X1496300Y317500D02*
D03*
X1511300D02*
D03*
D28*
X650240Y368079D02*
D03*
Y386080D02*
D03*
X807720Y585360D02*
D03*
Y603360D02*
D03*
X340360Y372000D02*
D03*
Y390000D02*
D03*
X426720Y370840D02*
D03*
Y388840D02*
D03*
X538480Y370840D02*
D03*
Y388840D02*
D03*
D29*
X812800Y863760D02*
D03*
Y883760D02*
D03*
X1076960Y833120D02*
D03*
Y853120D02*
D03*
X1031240Y452440D02*
D03*
Y472440D02*
D03*
X1188720Y695640D02*
D03*
Y675640D02*
D03*
D30*
X360680Y370840D02*
D03*
X376680D02*
D03*
X812800Y553720D02*
D03*
X828800D02*
D03*
D31*
X1596390Y495020D02*
D03*
Y477520D02*
D03*
D32*
X1654810Y544830D02*
D03*
X1673310D02*
D03*
D33*
X736600Y581030D02*
D03*
Y597530D02*
D03*
D34*
X601070Y942570D02*
D03*
X606070D02*
D03*
Y827810D02*
D03*
X611070D02*
D03*
X631070D02*
D03*
X636070D02*
D03*
X661070Y942570D02*
D03*
X646070D02*
D03*
X641070D02*
D03*
X636070D02*
D03*
X631070D02*
D03*
X626070D02*
D03*
X621070D02*
D03*
X616070D02*
D03*
X611070D02*
D03*
X596070D02*
D03*
X586070Y827810D02*
D03*
X591070D02*
D03*
X596070D02*
D03*
X601070D02*
D03*
X616070D02*
D03*
X621070D02*
D03*
X626070D02*
D03*
X651070D02*
D03*
X641070D02*
D03*
X646070D02*
D03*
X586070Y942570D02*
D03*
X651070D02*
D03*
X661070Y827810D02*
D03*
X591070Y942570D02*
D03*
X656070Y827810D02*
D03*
Y942570D02*
D03*
D35*
X680950Y912690D02*
D03*
Y917690D02*
D03*
Y852690D02*
D03*
Y857690D02*
D03*
Y862690D02*
D03*
Y867690D02*
D03*
Y872690D02*
D03*
Y877690D02*
D03*
Y882690D02*
D03*
Y887690D02*
D03*
Y892690D02*
D03*
Y897690D02*
D03*
Y922690D02*
D03*
X566190D02*
D03*
Y917690D02*
D03*
Y912690D02*
D03*
Y907690D02*
D03*
Y902690D02*
D03*
Y897690D02*
D03*
Y892690D02*
D03*
Y887690D02*
D03*
Y882690D02*
D03*
Y877690D02*
D03*
Y872690D02*
D03*
Y867690D02*
D03*
Y862690D02*
D03*
Y857690D02*
D03*
Y847690D02*
D03*
X680950Y907690D02*
D03*
Y847690D02*
D03*
X566190Y852690D02*
D03*
X680950Y902690D02*
D03*
D36*
X762410Y585090D02*
D03*
X775410D02*
D03*
X781910D02*
D03*
X762410Y644090D02*
D03*
X775410D02*
D03*
X768910D02*
D03*
Y585090D02*
D03*
X781910Y644090D02*
D03*
D37*
X1930523Y526444D02*
D03*
D38*
X1930400Y505460D02*
D03*
D39*
X1041400Y289560D02*
D03*
X1062400D02*
D03*
X1061720Y208280D02*
D03*
X1040720D02*
D03*
D40*
X1346220Y517160D02*
D03*
Y562160D02*
D03*
Y552160D02*
D03*
Y547160D02*
D03*
Y542160D02*
D03*
Y537160D02*
D03*
Y527160D02*
D03*
Y522160D02*
D03*
Y512160D02*
D03*
Y507160D02*
D03*
Y502160D02*
D03*
Y492160D02*
D03*
Y487160D02*
D03*
X1234220D02*
D03*
Y497160D02*
D03*
Y507160D02*
D03*
Y522160D02*
D03*
Y527160D02*
D03*
Y532160D02*
D03*
Y537160D02*
D03*
Y547160D02*
D03*
Y552160D02*
D03*
Y557160D02*
D03*
X1346220Y532160D02*
D03*
X1234220Y492160D02*
D03*
Y502160D02*
D03*
Y512160D02*
D03*
Y542160D02*
D03*
Y517160D02*
D03*
Y562160D02*
D03*
X1346220Y497160D02*
D03*
Y557160D02*
D03*
D41*
X1252720Y580660D02*
D03*
X1272720D02*
D03*
X1277720D02*
D03*
X1282720D02*
D03*
X1287720D02*
D03*
X1297720D02*
D03*
X1302720D02*
D03*
X1307720D02*
D03*
X1312720D02*
D03*
X1327720D02*
D03*
Y468660D02*
D03*
X1317720D02*
D03*
X1312720D02*
D03*
X1307720D02*
D03*
X1302720D02*
D03*
X1297720D02*
D03*
X1287720D02*
D03*
X1282720D02*
D03*
X1277720D02*
D03*
X1272720D02*
D03*
X1262720D02*
D03*
X1257720D02*
D03*
X1252720D02*
D03*
X1262720Y580660D02*
D03*
X1267720D02*
D03*
X1257720D02*
D03*
X1322720Y468660D02*
D03*
X1267720D02*
D03*
X1292720Y580660D02*
D03*
X1322720D02*
D03*
X1292720Y468660D02*
D03*
X1317720Y580660D02*
D03*
D42*
X1041400Y330200D02*
D03*
X1060400D02*
D03*
X1041400Y248920D02*
D03*
X1060400D02*
D03*
D43*
X1696280Y672270D02*
D03*
X1704780D02*
D03*
Y663770D02*
D03*
X1696280D02*
D03*
D44*
X675640Y370840D02*
D03*
X695640D02*
D03*
X1774030Y389890D02*
D03*
X1754030D02*
D03*
X396240Y477520D02*
D03*
X416240D02*
D03*
X452280Y370840D02*
D03*
X472280D02*
D03*
X583880Y370840D02*
D03*
X563880D02*
D03*
D45*
X357780Y183770D02*
D03*
X312780Y263270D02*
D03*
Y183770D02*
D03*
X357780Y263270D02*
D03*
X424540Y178690D02*
D03*
Y258190D02*
D03*
X469540D02*
D03*
Y178690D02*
D03*
X536300Y258190D02*
D03*
Y178690D02*
D03*
X581300Y258190D02*
D03*
Y178690D02*
D03*
X648060Y258190D02*
D03*
Y178690D02*
D03*
X693060Y258190D02*
D03*
Y178690D02*
D03*
D46*
X1170820Y822560D02*
D03*
X1185820D02*
D03*
X1140820D02*
D03*
X993260Y825220D02*
D03*
X1023260D02*
D03*
X1038260D02*
D03*
D47*
X1126820Y814710D02*
D03*
Y795410D02*
D03*
X1199820D02*
D03*
Y814710D02*
D03*
X979260Y817370D02*
D03*
X1052260D02*
D03*
X979260Y798070D02*
D03*
X1052260D02*
D03*
D48*
X1841215Y585470D02*
D03*
X1827965D02*
D03*
D49*
X737950Y1020045D02*
D03*
X747950D02*
D03*
X742950D02*
D03*
X737950Y1001795D02*
D03*
X742950D02*
D03*
X747950D02*
D03*
D50*
X754575Y1018420D02*
D03*
Y1013420D02*
D03*
Y1008420D02*
D03*
X731325Y1003420D02*
D03*
Y1018420D02*
D03*
X754575Y1003420D02*
D03*
X731325Y1013420D02*
D03*
Y1008420D02*
D03*
D51*
X1148080Y538480D02*
D03*
X1128630D02*
D03*
X1148080Y513080D02*
D03*
X1128630D02*
D03*
D52*
X1502728Y787500D02*
D03*
X1517272D02*
D03*
D53*
X1433710Y985520D02*
D03*
X1362710D02*
D03*
D54*
X685800Y649840D02*
D03*
Y599840D02*
D03*
X1299210Y888600D02*
D03*
Y838600D02*
D03*
D55*
X416560Y598840D02*
D03*
Y669840D02*
D03*
D56*
X325120Y592840D02*
D03*
Y635840D02*
D03*
D57*
X873760Y665340D02*
D03*
Y603340D02*
D03*
D58*
X1738630Y682993D02*
D03*
Y665480D02*
D03*
D59*
X1840460Y947308D02*
D03*
Y932292D02*
D03*
X1644420Y947308D02*
D03*
Y932292D02*
D03*
X1704686Y947308D02*
D03*
Y932292D02*
D03*
X1780193Y947308D02*
D03*
Y932292D02*
D03*
D60*
X1117977Y950120D02*
D03*
D61*
Y970120D02*
D03*
X1076960D02*
D03*
Y955120D02*
D03*
Y950120D02*
D03*
Y965120D02*
D03*
X1117977Y955120D02*
D03*
Y965120D02*
D03*
X1076960Y960120D02*
D03*
X1117977D02*
D03*
D62*
X706120Y523650D02*
D03*
Y543150D02*
D03*
D63*
X1017777Y289560D02*
D03*
X1000760D02*
D03*
X516002Y889000D02*
D03*
X533018D02*
D03*
X1017777Y330200D02*
D03*
X1000760D02*
D03*
X1017777Y208280D02*
D03*
X1000760D02*
D03*
X1017777Y248920D02*
D03*
X1000760D02*
D03*
D64*
X1123377Y436880D02*
D03*
X1102360D02*
D03*
D65*
X1892300Y497650D02*
D03*
Y505650D02*
D03*
D66*
X1376680Y614638D02*
D03*
Y629920D02*
D03*
X1148080Y487680D02*
D03*
Y472399D02*
D03*
D67*
X1823840Y641350D02*
D03*
X1838840D02*
D03*
X1823840Y610870D02*
D03*
X1838840D02*
D03*
D68*
X1859280Y505460D02*
D03*
X1871280D02*
D03*
D69*
X1221680Y694640D02*
D03*
Y675640D02*
D03*
X1249680Y685140D02*
D03*
Y675640D02*
D03*
Y694640D02*
D03*
X1221680Y685140D02*
D03*
D70*
X1671180Y499180D02*
D03*
X1653680Y476180D02*
D03*
Y499180D02*
D03*
X1671180Y476180D02*
D03*
X1239520Y655320D02*
D03*
X1225020D02*
D03*
X1476110Y889000D02*
D03*
X1490610D02*
D03*
X1419490Y919480D02*
D03*
X1404990D02*
D03*
X669660Y966470D02*
D03*
X684160D02*
D03*
X513560Y987820D02*
D03*
X528060D02*
D03*
X302630Y701040D02*
D03*
X317130D02*
D03*
X658230Y706120D02*
D03*
X672730D02*
D03*
X394070Y563880D02*
D03*
X408570D02*
D03*
X886830Y706120D02*
D03*
X901330D02*
D03*
X1201050Y508000D02*
D03*
X1186550D02*
D03*
X1401340Y487680D02*
D03*
X1386840D02*
D03*
X1244600Y609600D02*
D03*
X1230099D02*
D03*
X1357100Y436880D02*
D03*
X1371600D02*
D03*
X1379590Y533400D02*
D03*
X1394090D02*
D03*
X1117600Y467360D02*
D03*
X1103100D02*
D03*
D71*
X762840Y850520D02*
D03*
Y866520D02*
D03*
X740840D02*
D03*
Y850520D02*
D03*
D72*
X659740Y343324D02*
D03*
X669240Y325120D02*
D03*
X350520Y344382D02*
D03*
X360020Y326178D02*
D03*
X436880Y345440D02*
D03*
X446380Y327236D02*
D03*
X547980Y343324D02*
D03*
X557480Y325120D02*
D03*
D73*
X650240D02*
D03*
X341020Y326178D02*
D03*
X427380Y327236D02*
D03*
X538480Y325120D02*
D03*
D74*
X360620Y510500D02*
D03*
Y505500D02*
D03*
Y500500D02*
D03*
Y515500D02*
D03*
Y495500D02*
D03*
Y520500D02*
D03*
Y490500D02*
D03*
Y525500D02*
D03*
Y485500D02*
D03*
Y530500D02*
D03*
Y480500D02*
D03*
Y535500D02*
D03*
Y475500D02*
D03*
Y470500D02*
D03*
Y540500D02*
D03*
Y545500D02*
D03*
D75*
X569878Y987820D02*
D03*
X553762D02*
D03*
D76*
X1787906Y518160D02*
D03*
D77*
X1790406Y494410D02*
D03*
X1795406D02*
D03*
X1775406D02*
D03*
Y541910D02*
D03*
X1805406Y494410D02*
D03*
X1800406D02*
D03*
X1785406D02*
D03*
X1780406D02*
D03*
X1770406D02*
D03*
Y541910D02*
D03*
X1780406D02*
D03*
X1785406D02*
D03*
X1790406D02*
D03*
X1795406D02*
D03*
X1800406D02*
D03*
X1805406D02*
D03*
D78*
X1811656Y500660D02*
D03*
Y530660D02*
D03*
X1764156Y500660D02*
D03*
Y515660D02*
D03*
Y535660D02*
D03*
X1811656D02*
D03*
Y525660D02*
D03*
Y520660D02*
D03*
Y515660D02*
D03*
Y510660D02*
D03*
Y505660D02*
D03*
X1764156Y530660D02*
D03*
Y520660D02*
D03*
Y505660D02*
D03*
Y525660D02*
D03*
Y510660D02*
D03*
D79*
X454179Y502393D02*
D03*
Y509393D02*
D03*
X462678Y505893D02*
D03*
D80*
X1791098Y418846D02*
D03*
X1809098D02*
D03*
X1776620Y444500D02*
D03*
X1794620D02*
D03*
D81*
X717500Y849500D02*
D03*
Y835500D02*
D03*
X789940Y862980D02*
D03*
Y848980D02*
D03*
D82*
X1137920Y590800D02*
D03*
Y685800D02*
D03*
D83*
X1628140Y478790D02*
D03*
Y493790D02*
D03*
X1697990Y493910D02*
D03*
Y478910D02*
D03*
X1137920Y726440D02*
D03*
Y741440D02*
D03*
X1092200Y614680D02*
D03*
Y629680D02*
D03*
D84*
X1588770Y596506D02*
D03*
Y580390D02*
D03*
X528320Y862768D02*
D03*
Y846652D02*
D03*
D85*
X1482490Y839470D02*
D03*
X1532490D02*
D03*
D86*
X1470660Y974990D02*
D03*
Y960490D02*
D03*
X1301750Y940170D02*
D03*
Y954670D02*
D03*
X778510Y992770D02*
D03*
Y978270D02*
D03*
X528320Y810630D02*
D03*
Y825130D02*
D03*
X1051560Y955040D02*
D03*
Y940540D02*
D03*
X751840Y709030D02*
D03*
Y723530D02*
D03*
X772160Y709030D02*
D03*
Y723530D02*
D03*
X1280160Y418730D02*
D03*
Y404230D02*
D03*
X1295400Y610340D02*
D03*
Y624840D02*
D03*
X1168400Y487680D02*
D03*
Y473180D02*
D03*
X1349339Y609600D02*
D03*
Y624100D02*
D03*
X1325880Y609600D02*
D03*
Y624100D02*
D03*
X878840Y383170D02*
D03*
Y368670D02*
D03*
D87*
X1709420Y420780D02*
D03*
Y440280D02*
D03*
D88*
X1671320Y669290D02*
D03*
X1652320D02*
D03*
D89*
X1765300Y662940D02*
D03*
Y645923D02*
D03*
X650240Y799337D02*
D03*
Y782320D02*
D03*
X1234440Y409703D02*
D03*
Y426720D02*
D03*
X1457960Y580897D02*
D03*
Y563880D02*
D03*
D90*
X1640920Y1059060D02*
D03*
Y1044060D02*
D03*
X1703520Y1059060D02*
D03*
Y1044060D02*
D03*
X1781360Y1059060D02*
D03*
Y1044060D02*
D03*
X1843960Y1059060D02*
D03*
Y1044060D02*
D03*
X624840Y780930D02*
D03*
Y765930D02*
D03*
X1798320Y594240D02*
D03*
Y579240D02*
D03*
X1766570Y592850D02*
D03*
Y577850D02*
D03*
D91*
X1101200Y924560D02*
D03*
X1083200D02*
D03*
X1222058Y719596D02*
D03*
X1240058D02*
D03*
D92*
X406400Y523560D02*
D03*
Y543560D02*
D03*
X309880Y314800D02*
D03*
Y294800D02*
D03*
D93*
X1183320Y853440D02*
D03*
X1163320D02*
D03*
X401320Y452120D02*
D03*
X421320D02*
D03*
D94*
X1117600Y487680D02*
D03*
X1102318D02*
D03*
M02*
