G04*
G04 #@! TF.GenerationSoftware,Altium Limited,Altium Designer,25.4.2 (15)*
G04*
G04 Layer_Color=65535*
%FSLAX44Y44*%
%MOMM*%
G71*
G04*
G04 #@! TF.SameCoordinates,145FFF0F-7840-416A-8FEA-007F4607A66E*
G04*
G04*
G04 #@! TF.FilePolarity,Positive*
G04*
G01*
G75*
%ADD10C,0.5080*%
%ADD11C,0.2500*%
%ADD12C,0.6000*%
%ADD13C,0.1000*%
%ADD14C,0.0571*%
%ADD15C,0.1142*%
%ADD16C,0.0571*%
%ADD17C,0.1524*%
%ADD18C,0.2000*%
%ADD19C,0.2540*%
%ADD20C,0.6350*%
G36*
X501015Y705231D02*
Y707771D01*
X504825D01*
Y705231D01*
X501015D01*
D02*
G37*
D10*
X1507490Y1046480D02*
G03*
X1507490Y1046480I-3810J0D01*
G01*
D11*
X1424820Y907830D02*
G03*
X1424820Y907830I-1250J0D01*
G01*
X687070Y840190D02*
G03*
X687070Y840190I-1250J0D01*
G01*
X755910Y585090D02*
G03*
X755910Y585090I-1250J0D01*
G01*
X1235470Y569160D02*
G03*
X1235470Y569160I-1250J0D01*
G01*
X1071900Y330200D02*
G03*
X1071900Y330200I-1250J0D01*
G01*
X1697530Y652520D02*
G03*
X1697530Y652520I-1250J0D01*
G01*
X359030Y277520D02*
G03*
X359030Y277520I-1250J0D01*
G01*
X1142070Y835810D02*
G03*
X1142070Y835810I-1250J0D01*
G01*
X720450Y1018420D02*
G03*
X720450Y1018420I-1250J0D01*
G01*
X1337960Y985520D02*
G03*
X1337960Y985520I-1250J0D01*
G01*
X687050Y577840D02*
G03*
X687050Y577840I-1250J0D01*
G01*
X417810Y695840D02*
G03*
X417810Y695840I-1250J0D01*
G01*
X326370Y655340D02*
G03*
X326370Y655340I-1250J0D01*
G01*
X875010Y577840D02*
G03*
X875010Y577840I-1250J0D01*
G01*
X1131260Y950120D02*
G03*
X1131260Y950120I-1250J0D01*
G01*
X789040Y378460D02*
G03*
X789040Y378460I-1250J0D01*
G01*
X1211680Y694640D02*
G03*
X1211680Y694640I-1250J0D01*
G01*
X1672430Y463930D02*
G03*
X1672430Y463930I-1250J0D01*
G01*
X729590Y850520D02*
G03*
X729590Y850520I-1250J0D01*
G01*
X372620Y545500D02*
G03*
X372620Y545500I-1250J0D01*
G01*
X1822406Y492910D02*
G03*
X1822406Y492910I-1250J0D01*
G01*
X1800590Y319840D02*
G03*
X1800590Y319840I-1250J0D01*
G01*
X1028330Y1000760D02*
G03*
X1028330Y1000760I-1250J0D01*
G01*
X1555740Y839470D02*
G03*
X1555740Y839470I-1250J0D01*
G01*
X1300460Y816600D02*
G03*
X1300460Y816600I-1250J0D01*
G01*
X1071900Y248920D02*
G03*
X1071900Y248920I-1250J0D01*
G01*
X1588400Y317495D02*
G03*
X1588400Y317495I-1250J0D01*
G01*
X1587130Y393700D02*
G03*
X1587130Y393700I-1250J0D01*
G01*
X369750Y1217680D02*
G03*
X369750Y1217680I-1250J0D01*
G01*
X609780Y1218950D02*
G03*
X609780Y1218950I-1250J0D01*
G01*
X1028330Y965200D02*
G03*
X1028330Y965200I-1250J0D01*
G01*
Y929640D02*
G03*
X1028330Y929640I-1250J0D01*
G01*
X311130Y389540D02*
G03*
X311130Y389540I-1250J0D01*
G01*
X789570Y533400D02*
G03*
X789570Y533400I-1250J0D01*
G01*
X850530Y259080D02*
G03*
X850530Y259080I-1250J0D01*
G01*
X787730Y218440D02*
G03*
X787730Y218440I-1250J0D01*
G01*
Y177800D02*
G03*
X787730Y177800I-1250J0D01*
G01*
X1004750Y1220220D02*
G03*
X1004750Y1220220I-1250J0D01*
G01*
X834570D02*
G03*
X834570Y1220220I-1250J0D01*
G01*
X994510Y838470D02*
G03*
X994510Y838470I-1250J0D01*
G01*
X470790Y272440D02*
G03*
X470790Y272440I-1250J0D01*
G01*
X582550D02*
G03*
X582550Y272440I-1250J0D01*
G01*
X694310D02*
G03*
X694310Y272440I-1250J0D01*
G01*
D12*
X769660Y606090D02*
G03*
X769660Y606090I-3000J0D01*
G01*
X1261720Y556160D02*
G03*
X1261720Y556160I-3000J0D01*
G01*
D13*
X1137920Y717300D02*
G03*
X1137920Y718300I0J500D01*
G01*
D02*
G03*
X1137920Y717300I0J-500D01*
G01*
X1793480Y853440D02*
X2040480D01*
X1793480Y701040D02*
Y853440D01*
Y701040D02*
X2040480D01*
Y853440D01*
D14*
X1330240Y224636D02*
G03*
X1330811Y224636I286J0D01*
G01*
D02*
G03*
X1330240Y224636I-286J0D01*
G01*
X1344993Y224398D02*
G03*
X1344422Y224398I-286J0D01*
G01*
X1363464Y224089D02*
G03*
X1362893Y224089I-286J0D01*
G01*
X1344422Y224398D02*
G03*
X1344993Y224398I286J0D01*
G01*
X1362893Y224089D02*
G03*
X1363464Y224089I286J0D01*
G01*
X1344442Y219183D02*
G03*
X1345013Y219183I286J0D01*
G01*
X1374555Y240619D02*
G03*
X1375126Y240619I286J0D01*
G01*
D02*
G03*
X1374555Y240619I-286J0D01*
G01*
X1374554Y240619D02*
G03*
X1375125Y240619I286J0D01*
G01*
D02*
G03*
X1374554Y240619I-286J0D01*
G01*
X1393644Y234233D02*
G03*
X1394215Y234233I286J0D01*
G01*
X1392793Y209689D02*
G03*
X1393364Y209689I286J0D01*
G01*
X1387730Y211057D02*
G03*
X1387159Y211057I-286J0D01*
G01*
X1392793Y209689D02*
G03*
X1393364Y209689I286J0D01*
G01*
Y209689D02*
G03*
X1392793Y209689I-286J0D01*
G01*
X1393364Y209689D02*
G03*
X1392793Y209689I-286J0D01*
G01*
X1362924Y219462D02*
G03*
X1363495Y219462I286J0D01*
G01*
X1348481Y219244D02*
G03*
X1349052Y219244I286J0D01*
G01*
D02*
G03*
X1348481Y219244I-286J0D01*
G01*
X1345013Y219183D02*
G03*
X1344442Y219183I-286J0D01*
G01*
X1363495Y219462D02*
G03*
X1362924Y219462I-286J0D01*
G01*
X1375531Y202944D02*
G03*
X1374960Y202944I-286J0D01*
G01*
X1379276Y200027D02*
G03*
X1378705Y200027I-286J0D01*
G01*
D02*
G03*
X1379276Y200027I286J0D01*
G01*
X1373063Y199922D02*
G03*
X1372492Y199922I-286J0D01*
G01*
X1378705Y200027D02*
G03*
X1379276Y200027I286J0D01*
G01*
X1366792Y224023D02*
G03*
X1367363Y224023I286J0D01*
G01*
D02*
G03*
X1366792Y224023I-286J0D01*
G01*
X1367399Y219521D02*
G03*
X1366828Y219521I-286J0D01*
G01*
X1367399Y219520D02*
G03*
X1366828Y219520I-286J0D01*
G01*
D02*
G03*
X1367399Y219520I286J0D01*
G01*
X1366828Y219521D02*
G03*
X1367399Y219521I286J0D01*
G01*
X1416084Y233715D02*
G03*
X1416655Y233715I286J0D01*
G01*
D02*
G03*
X1416084Y233715I-286J0D01*
G01*
X1419535Y235518D02*
G03*
X1420106Y235518I286J0D01*
G01*
X1403855Y227324D02*
G03*
X1404426Y227324I286J0D01*
G01*
X1420106Y235518D02*
G03*
X1419535Y235518I-286J0D01*
G01*
X1374960Y202944D02*
G03*
X1375531Y202944I286J0D01*
G01*
X1372492Y199922D02*
G03*
X1373063Y199922I286J0D01*
G01*
X1379276Y200027D02*
G03*
X1378705Y200027I-286J0D01*
G01*
X1381284Y219730D02*
G03*
X1380714Y219730I-286J0D01*
G01*
D02*
G03*
X1381284Y219730I286J0D01*
G01*
X1404426Y227324D02*
G03*
X1403855Y227324I-286J0D01*
G01*
X1432318Y242198D02*
G03*
X1432888Y242198I286J0D01*
G01*
D02*
G03*
X1432318Y242198I-286J0D01*
G01*
X1420106Y235518D02*
G03*
X1419535Y235518I-286J0D01*
G01*
X1436465Y244067D02*
G03*
X1435894Y244067I-286J0D01*
G01*
D02*
G03*
X1436465Y244067I286J0D01*
G01*
X1449052Y250592D02*
G03*
X1448481Y250592I-286J0D01*
G01*
D02*
G03*
X1449052Y250592I286J0D01*
G01*
X1419535Y235518D02*
G03*
X1420106Y235518I286J0D01*
G01*
X1375735Y246624D02*
G03*
X1376306Y246624I286J0D01*
G01*
D02*
G03*
X1375735Y246624I-286J0D01*
G01*
X1396314Y247819D02*
G03*
X1396885Y247819I286J0D01*
G01*
X1372640Y243633D02*
G03*
X1372069Y243633I-286J0D01*
G01*
X1366883Y258027D02*
G03*
X1367454Y258027I286J0D01*
G01*
D02*
G03*
X1366883Y258027I-286J0D01*
G01*
X1394215Y234233D02*
G03*
X1393644Y234233I-286J0D01*
G01*
D02*
G03*
X1394215Y234233I286J0D01*
G01*
X1398244Y233252D02*
G03*
X1397673Y233252I-286J0D01*
G01*
D02*
G03*
X1398244Y233252I286J0D01*
G01*
X1394215Y234233D02*
G03*
X1393644Y234233I-286J0D01*
G01*
X1401515Y213321D02*
G03*
X1402086Y213321I286J0D01*
G01*
D02*
G03*
X1401515Y213321I-286J0D01*
G01*
X1397684Y210473D02*
G03*
X1397113Y210473I-286J0D01*
G01*
X1397684Y210473D02*
G03*
X1397113Y210473I-286J0D01*
G01*
X1397113Y210473D02*
G03*
X1397684Y210473I286J0D01*
G01*
X1397113Y210473D02*
G03*
X1397684Y210473I286J0D01*
G01*
X1383727Y213683D02*
G03*
X1384298Y213683I286J0D01*
G01*
D02*
G03*
X1383727Y213683I-286J0D01*
G01*
X1417404Y213340D02*
G03*
X1417975Y213340I286J0D01*
G01*
D02*
G03*
X1417404Y213340I-286J0D01*
G01*
X1402417Y250551D02*
G03*
X1401846Y250551I-286J0D01*
G01*
X1405234Y264594D02*
G03*
X1405805Y264594I286J0D01*
G01*
X1405805Y264594D02*
G03*
X1405234Y264594I-286J0D01*
G01*
X1399850Y265808D02*
G03*
X1400421Y265808I286J0D01*
G01*
X1401846Y250551D02*
G03*
X1402417Y250551I286J0D01*
G01*
X1400421Y265808D02*
G03*
X1399850Y265808I-286J0D01*
G01*
X1405805Y264594D02*
G03*
X1405234Y264594I-286J0D01*
G01*
X1380713Y219730D02*
G03*
X1381284Y219730I286J0D01*
G01*
X1381212Y223791D02*
G03*
X1380641Y223791I-286J0D01*
G01*
D02*
G03*
X1381212Y223791I286J0D01*
G01*
X1381284Y219730D02*
G03*
X1380713Y219730I-286J0D01*
G01*
X1383400Y229896D02*
G03*
X1383971Y229896I286J0D01*
G01*
D02*
G03*
X1383400Y229896I-286J0D01*
G01*
X1387159Y211057D02*
G03*
X1387730Y211057I286J0D01*
G01*
X1372069Y243633D02*
G03*
X1372640Y243633I286J0D01*
G01*
X1403333Y283527D02*
G03*
X1403904Y283527I286J0D01*
G01*
X1401200Y269769D02*
G03*
X1400629Y269769I-286J0D01*
G01*
X1403904Y283527D02*
G03*
X1403333Y283527I-286J0D01*
G01*
X1403904Y283527D02*
G03*
X1403333Y283527I-286J0D01*
G01*
D02*
G03*
X1403904Y283527I286J0D01*
G01*
X1409508Y282313D02*
G03*
X1410079Y282313I286J0D01*
G01*
X1364978Y261217D02*
G03*
X1364407Y261217I-286J0D01*
G01*
X1355709Y272421D02*
G03*
X1356280Y272421I286J0D01*
G01*
D02*
G03*
X1355709Y272421I-286J0D01*
G01*
X1432318Y242198D02*
G03*
X1432889Y242198I286J0D01*
G01*
D02*
G03*
X1432318Y242198I-286J0D01*
G01*
X1410079Y282313D02*
G03*
X1409508Y282313I-286J0D01*
G01*
X1360305Y257894D02*
G03*
X1360876Y257894I286J0D01*
G01*
X1364407Y261217D02*
G03*
X1364978Y261217I286J0D01*
G01*
X1364407Y261217D02*
G03*
X1364978Y261217I286J0D01*
G01*
D02*
G03*
X1364407Y261217I-286J0D01*
G01*
X1360876Y257894D02*
G03*
X1360305Y257894I-286J0D01*
G01*
X1450411Y196174D02*
G03*
X1449840Y196174I-286J0D01*
G01*
D02*
G03*
X1450411Y196174I286J0D01*
G01*
X1433609Y204505D02*
G03*
X1434179Y204505I286J0D01*
G01*
D02*
G03*
X1433609Y204505I-286J0D01*
G01*
X1416084Y233715D02*
G03*
X1416655Y233715I286J0D01*
G01*
D02*
G03*
X1416084Y233715I-286J0D01*
G01*
X1396885Y247819D02*
G03*
X1396314Y247819I-286J0D01*
G01*
X1400931Y246755D02*
G03*
X1401502Y246755I286J0D01*
G01*
X1401501Y246756D02*
G03*
X1400930Y246756I-286J0D01*
G01*
D02*
G03*
X1401501Y246756I286J0D01*
G01*
X1399850Y265808D02*
G03*
X1400421Y265808I286J0D01*
G01*
X1405234Y264594D02*
G03*
X1405805Y264594I286J0D01*
G01*
X1401502Y246755D02*
G03*
X1400931Y246755I-286J0D01*
G01*
X1400421Y265808D02*
G03*
X1399850Y265808I-286J0D01*
G01*
X1351363Y268735D02*
G03*
X1351934Y268735I286J0D01*
G01*
D02*
G03*
X1351363Y268735I-286J0D01*
G01*
X1351363Y268735D02*
G03*
X1351934Y268735I286J0D01*
G01*
X1400629Y269769D02*
G03*
X1401200Y269769I286J0D01*
G01*
X1351934Y268735D02*
G03*
X1351363Y268735I-286J0D01*
G01*
X1363361Y188737D02*
G03*
X1363932Y188737I286J0D01*
G01*
X1360808Y185609D02*
G03*
X1361378Y185609I286J0D01*
G01*
X1363361Y188737D02*
G03*
X1363932Y188737I286J0D01*
G01*
X1365083Y182255D02*
G03*
X1365654Y182255I286J0D01*
G01*
D02*
G03*
X1365083Y182255I-286J0D01*
G01*
X1363932Y188737D02*
G03*
X1363361Y188737I-286J0D01*
G01*
X1361378Y185609D02*
G03*
X1360808Y185609I-286J0D01*
G01*
X1363932Y188737D02*
G03*
X1363361Y188737I-286J0D01*
G01*
X1402012Y193275D02*
G03*
X1401441Y193275I-286J0D01*
G01*
D02*
G03*
X1402012Y193275I286J0D01*
G01*
X1405534Y179279D02*
G03*
X1404963Y179279I-286J0D01*
G01*
X1402012Y193275D02*
G03*
X1401441Y193275I-286J0D01*
G01*
D02*
G03*
X1402012Y193275I286J0D01*
G01*
X1400208Y178110D02*
G03*
X1399637Y178110I-286J0D01*
G01*
X1395746Y196062D02*
G03*
X1396317Y196062I286J0D01*
G01*
D02*
G03*
X1395746Y196062I-286J0D01*
G01*
X1397146Y192240D02*
G03*
X1396575Y192240I-286J0D01*
G01*
X1400490Y197056D02*
G03*
X1401061Y197056I286J0D01*
G01*
D02*
G03*
X1400490Y197056I-286J0D01*
G01*
X1351812Y174592D02*
G03*
X1352383Y174592I286J0D01*
G01*
D02*
G03*
X1351812Y174592I-286J0D01*
G01*
X1357023Y170993D02*
G03*
X1356452Y170993I-286J0D01*
G01*
D02*
G03*
X1357023Y170993I286J0D01*
G01*
X1376329Y196927D02*
G03*
X1376900Y196927I286J0D01*
G01*
X1376329Y196927D02*
G03*
X1376900Y196927I286J0D01*
G01*
X1367540Y185460D02*
G03*
X1368112Y185460I286J0D01*
G01*
D02*
G03*
X1367540Y185460I-286J0D01*
G01*
X1376900Y196927D02*
G03*
X1376329Y196927I-286J0D01*
G01*
X1376900Y196927D02*
G03*
X1376329Y196927I-286J0D01*
G01*
X1396575Y192240D02*
G03*
X1397146Y192240I286J0D01*
G01*
X1433904Y196373D02*
G03*
X1434475Y196373I286J0D01*
G01*
X1450410Y196174D02*
G03*
X1449839Y196174I-286J0D01*
G01*
X1434475Y196373D02*
G03*
X1433905Y196373I-286J0D01*
G01*
X1434475Y196373D02*
G03*
X1433904Y196373I-286J0D01*
G01*
X1433905Y196373D02*
G03*
X1434475Y196373I286J0D01*
G01*
X1449839Y196174D02*
G03*
X1450410Y196174I286J0D01*
G01*
X1400208Y178110D02*
G03*
X1399637Y178110I-286J0D01*
G01*
X1399637Y178110D02*
G03*
X1400208Y178110I286J0D01*
G01*
X1404963Y179279D02*
G03*
X1405534Y179279I286J0D01*
G01*
X1399637Y178110D02*
G03*
X1400208Y178110I286J0D01*
G01*
X1406519Y175365D02*
G03*
X1405948Y175365I-286J0D01*
G01*
D02*
G03*
X1406519Y175365I286J0D01*
G01*
X1405948Y175365D02*
G03*
X1406519Y175365I286J0D01*
G01*
X1409981Y161611D02*
G03*
X1409410Y161611I-286J0D01*
G01*
D02*
G03*
X1409981Y161611I286J0D01*
G01*
X1406519Y175365D02*
G03*
X1405948Y175365I-286J0D01*
G01*
X1404070Y160288D02*
G03*
X1403499Y160288I-286J0D01*
G01*
D02*
G03*
X1404070Y160288I286J0D01*
G01*
D15*
X1380999Y219730D02*
G03*
X1384012Y213683I12080J2246D01*
G01*
X1387444Y211057D02*
G03*
X1393079Y209689I5634J10919D01*
G01*
X1348766Y219244D02*
G03*
X1363647Y188737I44313J2732D01*
G01*
X1344728Y219183D02*
G03*
X1361093Y185609I48351J2793D01*
G01*
X1330586Y218970D02*
G03*
X1352097Y174592I62494J2890D01*
G01*
X1367113Y219521D02*
G03*
X1375245Y202944I25966J2455D01*
G01*
X1363209Y219462D02*
G03*
X1372778Y199922I29870J2514D01*
G01*
X1378990Y200027D02*
G03*
X1396032Y196062I14088J21949D01*
G01*
X1404140Y227324D02*
G03*
X1397959Y233252I-11062J-5349D01*
G01*
X1374840Y240619D02*
G03*
X1367078Y224023I18239J-18643D01*
G01*
X1419821Y235518D02*
G03*
X1402132Y250551I-26742J-13542D01*
G01*
X1416369Y233715D02*
G03*
X1401216Y246755I-23290J-11739D01*
G01*
X1448766Y250592D02*
G03*
X1409794Y282313I-55687J-28616D01*
G01*
X1432603Y242198D02*
G03*
X1405519Y264594I-39524J-20222D01*
G01*
X1436179Y244066D02*
G03*
X1406467Y268520I-43100J-22090D01*
G01*
X1396600Y247818D02*
G03*
X1378412Y243543I-3521J-25843D01*
G01*
X1397352Y251645D02*
G03*
X1376021Y246624I-4273J-29669D01*
G01*
X1393930Y234233D02*
G03*
X1386907Y232600I-851J-12257D01*
G01*
X1397398Y210473D02*
G03*
X1401800Y213321I-4319J11503D01*
G01*
X1400775Y197056D02*
G03*
X1417689Y213340I-7696J24920D01*
G01*
X1372355Y243633D02*
G03*
X1363178Y224089I20724J-21657D01*
G01*
X1383685Y229896D02*
G03*
X1380927Y223791I9394J-7920D01*
G01*
X1403618Y283527D02*
G03*
X1355994Y272421I-10496J-62656D01*
G01*
X1400136Y265808D02*
G03*
X1367168Y258027I-7057J-43832D01*
G01*
X1400914Y269769D02*
G03*
X1364692Y261217I-7836J-47794D01*
G01*
X1401727Y193275D02*
G03*
X1417523Y204627I-8648J28701D01*
G01*
X1405249Y179279D02*
G03*
X1433894Y204505I-12170J42696D01*
G01*
X1409712Y161550D02*
G03*
X1450125Y196174I-16632J60310D01*
G01*
X1363161Y254778D02*
G03*
X1348745Y224331I29918J-32802D01*
G01*
X1351649Y268735D02*
G03*
X1330581Y224635I41432J-46876D01*
G01*
X1360591Y257894D02*
G03*
X1344708Y224398I32488J-35919D01*
G01*
X1365369Y182255D02*
G03*
X1400778Y174160I27710J39721D01*
G01*
X1367826Y185460D02*
G03*
X1399922Y178110I25253J36515D01*
G01*
X1376615Y196927D02*
G03*
X1396860Y192240I16464J25049D01*
G01*
X1406234Y175365D02*
G03*
X1434190Y196373I-13155J46611D01*
G01*
X1356737Y170993D02*
G03*
X1403784Y160288I36154J50160D01*
G01*
X1330526Y224636D02*
X1344708Y224398D01*
X1348744Y224331D02*
X1363178Y224089D01*
X1348766Y219244D02*
X1363209Y219462D01*
X1378990Y200027D02*
X1387444Y211057D01*
X1374840Y240619D02*
X1383685Y229896D01*
X1330541Y218969D02*
X1344728Y219183D01*
X1363647Y188737D02*
X1372778Y199922D01*
X1375245Y202945D02*
X1384012Y213683D01*
X1404141Y227324D02*
X1416369Y233715D01*
X1367078Y224023D02*
X1380927Y223791D01*
X1367113Y219520D02*
X1380999Y219730D01*
X1419821Y235518D02*
X1432603Y242198D01*
X1436179Y244067D02*
X1448745Y250633D01*
X1367168Y258027D02*
X1376021Y246624D01*
X1363161Y254778D02*
X1372354Y243633D01*
X1397398Y210473D02*
X1400775Y197056D01*
X1393079Y209689D02*
X1396032Y196062D01*
X1401800Y213321D02*
X1417689Y213340D01*
X1402132Y250551D02*
X1405519Y264594D01*
X1378413Y243543D02*
X1386907Y232600D01*
X1400914Y269769D02*
X1403618Y283527D01*
X1406467Y268520D02*
X1409794Y282313D01*
X1397352Y251645D02*
X1400136Y265808D01*
X1355994Y272421D02*
X1364692Y261217D01*
X1434190Y196373D02*
X1450125Y196174D01*
X1417523Y204627D02*
X1433894Y204505D01*
X1393930Y234233D02*
X1396600Y247819D01*
X1397959Y233252D02*
X1401216Y246756D01*
X1351649Y268735D02*
X1360591Y257895D01*
X1356737Y170993D02*
X1365369Y182255D01*
X1352122Y174620D02*
X1361093Y185609D01*
X1401727Y193275D02*
X1405249Y179280D01*
X1396860Y192240D02*
X1399922Y178110D01*
X1367826Y185460D02*
X1376615Y196927D01*
X1400778Y174160D02*
X1403784Y160288D01*
X1406234Y175365D02*
X1409695Y161611D01*
D16*
X1409712Y161550D02*
D03*
X1405249Y179280D02*
D03*
X1403784Y160288D02*
D03*
X1400778Y174160D02*
D03*
X1400778Y174160D02*
D03*
X1375245Y202945D02*
D03*
X1330581Y224635D02*
D03*
X1330541Y218969D02*
D03*
X1344708Y224398D02*
D03*
X1344728Y219183D02*
D03*
X1348766Y219244D02*
D03*
X1348744Y224331D02*
D03*
X1367078Y224023D02*
D03*
X1363178Y224089D02*
D03*
X1363209Y219462D02*
D03*
X1348745Y224331D02*
D03*
X1372778Y199922D02*
D03*
X1330586Y218970D02*
D03*
X1356737Y170993D02*
D03*
X1361093Y185609D02*
D03*
X1365369Y182255D02*
D03*
X1367826Y185460D02*
D03*
X1352122Y174620D02*
D03*
X1417523Y204627D02*
D03*
X1448745Y250633D02*
D03*
X1433894Y204505D02*
D03*
X1417689Y213340D02*
D03*
X1417523Y204627D02*
D03*
X1436179Y244066D02*
D03*
X1363161Y254778D02*
D03*
X1372354Y243633D02*
D03*
X1376021Y246624D02*
D03*
X1355994Y272421D02*
D03*
X1363161Y254778D02*
D03*
X1367168Y258027D02*
D03*
X1360591Y257895D02*
D03*
X1400914Y269769D02*
D03*
X1406467Y268520D02*
D03*
X1397959Y233252D02*
D03*
X1397352Y251645D02*
D03*
X1402132Y250551D02*
D03*
X1397352Y251645D02*
D03*
X1409794Y282313D02*
D03*
X1387444Y211057D02*
D03*
X1396032Y196062D02*
D03*
X1400775Y197056D02*
D03*
X1401800Y213321D02*
D03*
X1396600Y247819D02*
D03*
X1404140Y227324D02*
D03*
X1396860Y192240D02*
D03*
X1383685Y229896D02*
D03*
X1384012Y213683D02*
D03*
X1378413Y243543D02*
D03*
X1378412Y243543D02*
D03*
X1386907Y232600D02*
D03*
X1386907Y232600D02*
D03*
X1380927Y223791D02*
D03*
X1406467Y268520D02*
D03*
D17*
X1482090Y909320D02*
Y1028700D01*
Y909320D02*
X1560830D01*
Y1028700D01*
X1482090D02*
X1560830D01*
X476504Y687832D02*
X496799D01*
X630936Y592328D02*
Y687832D01*
X610641D02*
X630936D01*
X476504Y592328D02*
Y687832D01*
Y592328D02*
X496799D01*
X509041D02*
X598399D01*
X610641D02*
X630936D01*
X585241Y687832D02*
X598399D01*
X534441D02*
X572999D01*
X509041D02*
X522199D01*
D18*
X1339670Y825380D02*
X1456670D01*
X1339670D02*
Y901380D01*
X1456670Y825380D02*
Y901380D01*
X1339670D02*
X1456670D01*
X1633100Y566690D02*
X1681600D01*
X1633100D02*
Y619490D01*
X1681600D01*
Y566690D02*
Y619490D01*
X1685100Y567290D02*
X1701600D01*
X644490Y376080D02*
Y378080D01*
X655990Y376080D02*
Y378080D01*
X806550Y872760D02*
Y874760D01*
X819050Y872760D02*
Y874760D01*
X367680Y376090D02*
X369680D01*
X367680Y365590D02*
X369680D01*
X1663060Y551080D02*
X1665060D01*
X1663060Y538580D02*
X1665060D01*
X730850Y588280D02*
Y590280D01*
X742350Y588280D02*
Y590280D01*
X577070Y838690D02*
X670070D01*
X577070D02*
Y931690D01*
X670070D01*
Y838690D02*
Y931690D01*
X756660Y596090D02*
X787660D01*
X756660Y633090D02*
X787660D01*
X756660Y596090D02*
Y633090D01*
X787660Y596090D02*
Y633090D01*
X1051390Y283310D02*
X1052410D01*
X1051390Y295810D02*
X1052410D01*
X1054170Y299360D02*
Y312060D01*
X1047820D02*
X1054170Y305710D01*
X1047820Y299360D02*
X1054170Y305710D01*
X1047820Y299360D02*
Y312060D01*
X1248720Y483160D02*
X1331720D01*
X1248720Y566160D02*
X1331720D01*
Y483160D02*
Y566160D01*
X1248720Y483160D02*
Y566160D01*
X1040400Y340200D02*
X1061400D01*
X1040400Y320200D02*
X1061400D01*
X1690030Y657520D02*
Y678520D01*
X1711030D01*
Y657520D02*
Y678520D01*
X1690030Y657520D02*
X1711030D01*
X684390Y377840D02*
X686890D01*
X684390Y363840D02*
X686890D01*
X365280Y195270D02*
Y251770D01*
X323030Y193520D02*
X347530D01*
X305280Y195270D02*
Y251770D01*
X323030Y253520D02*
X347530D01*
X1148070Y818060D02*
X1163570D01*
X1178070D02*
X1178570D01*
X1196820Y777060D02*
Y787660D01*
Y803160D02*
Y806960D01*
X1129820Y777060D02*
X1196820D01*
X1129820D02*
Y787660D01*
Y803160D02*
Y806960D01*
X1825590Y593720D02*
X1843590D01*
X1825590Y577220D02*
X1843590D01*
X724700Y995170D02*
Y1026670D01*
Y995170D02*
X761200D01*
Y1026670D01*
X724700D02*
X761200D01*
X1127355Y526930D02*
X1149355D01*
X1127355Y549980D02*
X1149355D01*
X1497940Y776750D02*
X1522061D01*
X1497940Y798250D02*
X1522061D01*
X1430710Y1028020D02*
X1440710Y1018020D01*
X1430710Y943020D02*
X1440710Y953020D01*
Y970520D01*
Y1000520D02*
Y1018020D01*
X1355710Y1028020D02*
X1430710D01*
X1355710Y943020D02*
X1430710D01*
X1355710Y999270D02*
Y1028020D01*
Y943020D02*
Y971770D01*
X697550Y590840D02*
X719800D01*
X651800D02*
X674050D01*
X651800Y648840D02*
X661800Y658840D01*
X709800D02*
X719800Y648840D01*
Y590840D02*
Y648840D01*
X697800Y658840D02*
X709800D01*
X661800D02*
X673800D01*
X651800Y590840D02*
Y648840D01*
X374060Y676840D02*
X399560D01*
X433560D02*
X459060D01*
Y601840D02*
Y676840D01*
X374060Y601840D02*
Y676840D01*
Y601840D02*
X384060Y591840D01*
X449060D02*
X459060Y601840D01*
X433560Y591840D02*
X449060D01*
X384060D02*
X399560D01*
X307620Y586840D02*
X313370D01*
X336870D02*
X342620D01*
X297620Y596840D02*
X307620Y586840D01*
X297620Y596840D02*
Y641840D01*
X342620Y586840D02*
X352620Y596840D01*
Y641840D01*
X336870D02*
X352620D01*
X297620D02*
X313370D01*
X885510Y676840D02*
X906260D01*
X916260Y666840D01*
Y591840D02*
Y666840D01*
X841260Y676840D02*
X862010D01*
X831260Y666840D02*
X841260Y676840D01*
X831260Y591840D02*
Y666840D01*
Y591840D02*
X862010D01*
X885510D02*
X916260D01*
X1727819Y659706D02*
Y688767D01*
X1749441Y659706D02*
Y688767D01*
X1829710Y927269D02*
Y952331D01*
X1851210Y927269D02*
Y952331D01*
X1088242Y945120D02*
X1106694D01*
X1088242D02*
Y975120D01*
X1106694D01*
Y945120D02*
Y975120D01*
X812540Y384110D02*
X843540D01*
X812540Y296610D02*
X843540D01*
X699120Y532150D02*
Y534650D01*
X713120Y532150D02*
Y534650D01*
X1008543Y283310D02*
X1009995D01*
X1008543Y295810D02*
X1009995D01*
X1112143Y430630D02*
X1113594D01*
X1112143Y443130D02*
X1113594D01*
X1899073Y496387D02*
Y506886D01*
X1885550Y496400D02*
Y506900D01*
X1387961Y607748D02*
Y636810D01*
X1365399Y607748D02*
Y636810D01*
X1820340Y652100D02*
X1842340D01*
X1820340Y630600D02*
X1842340D01*
X1820393Y621697D02*
X1842393D01*
X1820340Y600120D02*
X1842340D01*
X1856477Y513990D02*
X1873976D01*
X1856530Y496960D02*
X1874030D01*
X1230930Y669640D02*
X1240430D01*
X1230930Y700640D02*
X1240430D01*
X1643680Y470680D02*
Y504680D01*
X1681180Y470680D02*
Y504680D01*
X735340Y876520D02*
X768340D01*
X735340Y840520D02*
X768340D01*
X656880Y327722D02*
X662600D01*
X674240Y336491D02*
Y340722D01*
X645240D02*
X653100D01*
X666380D02*
X674240D01*
X645240Y336491D02*
Y340722D01*
X314420Y563300D02*
X368870D01*
X314420Y452700D02*
X368870D01*
Y465250D01*
Y550750D02*
Y563300D01*
X547239Y999101D02*
X576401D01*
X547239Y976539D02*
X576401D01*
X1810656Y544910D02*
X1814656D01*
Y540910D02*
Y544910D01*
X1761156D02*
X1765156D01*
X1761156Y540910D02*
Y544910D01*
Y491410D02*
Y495410D01*
Y491410D02*
X1765156D01*
X1810656D02*
X1814656D01*
Y495410D01*
X459679Y500393D02*
X462678D01*
X459679Y511393D02*
X462678D01*
X1114420Y695300D02*
X1123920D01*
X1114420Y581300D02*
Y695300D01*
Y581300D02*
X1123920D01*
X1151920D02*
X1161420D01*
Y695300D01*
X1151920D02*
X1161420D01*
X1584400Y1138390D02*
Y1190790D01*
Y1127590D02*
Y1133390D01*
X1588400Y1132640D02*
Y1139140D01*
X1584400Y1133390D02*
X1588400Y1132640D01*
X1584400Y1138390D02*
X1588400Y1139140D01*
X1584400Y1195790D02*
Y1201590D01*
Y1190790D02*
X1588400Y1190040D01*
X1584400Y1195790D02*
X1588400Y1196540D01*
Y1190040D02*
Y1196540D01*
X1514400Y1127590D02*
Y1201590D01*
X1584400D01*
X1514400Y1127590D02*
X1584400D01*
X1737900Y1135900D02*
X1843500D01*
X1737900D02*
Y1200900D01*
X1843500D01*
Y1135900D02*
Y1200900D01*
X1794740Y281190D02*
Y333490D01*
X1664740D02*
X1794740D01*
X1664740Y281190D02*
X1794740D01*
X1664740D02*
Y333490D01*
X968780Y987310D02*
Y1014210D01*
Y987310D02*
X1022580D01*
Y1014210D01*
X968780D02*
X1022580D01*
X1617390Y475290D02*
Y497290D01*
X1638890Y475290D02*
Y497290D01*
X1600051Y573867D02*
Y603029D01*
X1577489Y573867D02*
Y603029D01*
X1687240Y475410D02*
Y497410D01*
X1708740Y475410D02*
Y497410D01*
X1483490Y805470D02*
X1541490D01*
X1473490Y815470D02*
Y827470D01*
Y851470D02*
Y863470D01*
X1483490Y873470D02*
X1541490D01*
X1473490Y863470D02*
X1483490Y873470D01*
X1473490Y815470D02*
X1483490Y805470D01*
X1541490D02*
Y827720D01*
Y851220D02*
Y873470D01*
X1265210Y829600D02*
Y887600D01*
X1275210Y897600D02*
X1287210D01*
X1311210D02*
X1323210D01*
X1333210Y829600D02*
Y887600D01*
X1323210Y897600D02*
X1333210Y887600D01*
X1265210D02*
X1275210Y897600D01*
X1265210Y829600D02*
X1287460D01*
X1310960D02*
X1333210D01*
X517039Y840129D02*
Y869291D01*
X539601Y840129D02*
Y869291D01*
X1127170Y722940D02*
Y744940D01*
X1148670Y722940D02*
Y744940D01*
X1081450Y611180D02*
Y633180D01*
X1102950Y611180D02*
Y633180D01*
X1040400Y258920D02*
X1061400D01*
X1040400Y238920D02*
X1061400D01*
X1050710Y202030D02*
X1051730D01*
X1050710Y214530D02*
X1051730D01*
X1053490Y218080D02*
Y230780D01*
X1047140D02*
X1053490Y224430D01*
X1047140Y218080D02*
X1053490Y224430D01*
X1047140Y218080D02*
Y230780D01*
X1127355Y501530D02*
X1149355D01*
X1127355Y524580D02*
X1149355D01*
X1615980Y1135900D02*
X1721580D01*
X1615980D02*
Y1200900D01*
X1721580D01*
Y1135900D02*
Y1200900D01*
X1486045Y1138390D02*
Y1190790D01*
Y1127590D02*
Y1133390D01*
X1490045Y1132640D02*
Y1139140D01*
X1486045Y1133390D02*
X1490045Y1132640D01*
X1486045Y1138390D02*
X1490045Y1139140D01*
X1486045Y1195790D02*
Y1201590D01*
Y1190790D02*
X1490045Y1190040D01*
X1486045Y1195790D02*
X1490045Y1196540D01*
Y1190040D02*
Y1196540D01*
X1416045Y1127590D02*
Y1201590D01*
X1486045D01*
X1416045Y1127590D02*
X1486045D01*
X1289335Y1138390D02*
Y1190790D01*
Y1127590D02*
Y1133390D01*
X1293335Y1132640D02*
Y1139140D01*
X1289335Y1133390D02*
X1293335Y1132640D01*
X1289335Y1138390D02*
X1293335Y1139140D01*
X1289335Y1195790D02*
Y1201590D01*
Y1190790D02*
X1293335Y1190040D01*
X1289335Y1195790D02*
X1293335Y1196540D01*
Y1190040D02*
Y1196540D01*
X1219335Y1127590D02*
Y1201590D01*
X1289335D01*
X1219335Y1127590D02*
X1289335D01*
X1387690Y1138390D02*
Y1190790D01*
Y1127590D02*
Y1133390D01*
X1391690Y1132640D02*
Y1139140D01*
X1387690Y1133390D02*
X1391690Y1132640D01*
X1387690Y1138390D02*
X1391690Y1139140D01*
X1387690Y1195790D02*
Y1201590D01*
Y1190790D02*
X1391690Y1190040D01*
X1387690Y1195790D02*
X1391690Y1196540D01*
Y1190040D02*
Y1196540D01*
X1317690Y1127590D02*
Y1201590D01*
X1387690D01*
X1317690Y1127590D02*
X1387690D01*
X1190980Y1138390D02*
Y1190790D01*
Y1127590D02*
Y1133390D01*
X1194980Y1132640D02*
Y1139140D01*
X1190980Y1133390D02*
X1194980Y1132640D01*
X1190980Y1138390D02*
X1194980Y1139140D01*
X1190980Y1195790D02*
Y1201590D01*
Y1190790D02*
X1194980Y1190040D01*
X1190980Y1195790D02*
X1194980Y1196540D01*
Y1190040D02*
Y1196540D01*
X1120980Y1127590D02*
Y1201590D01*
X1190980D01*
X1120980Y1127590D02*
X1190980D01*
X1528850Y330945D02*
X1582650D01*
Y304045D02*
Y330945D01*
X1528850Y304045D02*
X1582650D01*
X1528850D02*
Y330945D01*
X1527580Y380250D02*
Y407150D01*
Y380250D02*
X1581380D01*
Y407150D01*
X1527580D02*
X1581380D01*
X354850Y1213080D02*
X407150D01*
X354850Y1083080D02*
Y1213080D01*
X407150Y1083080D02*
Y1213080D01*
X354850Y1083080D02*
X407150D01*
X594880Y1084350D02*
X647180D01*
Y1214350D01*
X594880Y1084350D02*
Y1214350D01*
X647180D01*
X968780Y951750D02*
Y978650D01*
Y951750D02*
X1022580D01*
Y978650D01*
X968780D02*
X1022580D01*
X968780Y943090D02*
X1022580D01*
Y916190D02*
Y943090D01*
X968780Y916190D02*
X1022580D01*
X968780D02*
Y943090D01*
X296430Y331240D02*
Y385040D01*
X323330D01*
Y331240D02*
Y385040D01*
X296430Y331240D02*
X323330D01*
X730020Y519950D02*
Y546850D01*
Y519950D02*
X783820D01*
Y546850D01*
X730020D02*
X783820D01*
X790980Y245630D02*
Y272530D01*
Y245630D02*
X844780D01*
Y272530D01*
X790980D02*
X844780D01*
X844780Y204990D02*
Y231890D01*
X790980D02*
X844780D01*
X790980Y204990D02*
Y231890D01*
Y204990D02*
X844780D01*
Y164350D02*
Y191250D01*
X790980D02*
X844780D01*
X790980Y164350D02*
Y191250D01*
Y164350D02*
X844780D01*
X989850Y1215620D02*
X1042150D01*
X989850Y1085620D02*
Y1215620D01*
X1042150Y1085620D02*
Y1215620D01*
X989850Y1085620D02*
X1042150D01*
X819670Y1215620D02*
X871970D01*
X819670Y1085620D02*
Y1215620D01*
X871970Y1085620D02*
Y1215620D01*
X819670Y1085620D02*
X871970D01*
X336020Y337549D02*
Y341780D01*
X357160D02*
X365020D01*
X336020D02*
X343880D01*
X365020Y337549D02*
Y341780D01*
X347660Y328780D02*
X353380D01*
X422380Y338607D02*
Y342838D01*
X443520D02*
X451380D01*
X422380D02*
X430240D01*
X451380Y338607D02*
Y342838D01*
X434020Y329838D02*
X439740D01*
X533480Y336491D02*
Y340722D01*
X554620D02*
X562480D01*
X533480D02*
X541340D01*
X562480Y336491D02*
Y340722D01*
X545120Y327722D02*
X550840D01*
X1762780Y382890D02*
X1765280D01*
X1762780Y396890D02*
X1765280D01*
X1771550Y653706D02*
Y655157D01*
X1759050Y653706D02*
Y655157D01*
X1633670Y927269D02*
Y952331D01*
X1655170Y927269D02*
Y952331D01*
X1693937Y927269D02*
Y952331D01*
X1715437Y927269D02*
Y952331D01*
X1769443Y927269D02*
Y952331D01*
X1790943Y927269D02*
Y952331D01*
X643990Y790103D02*
Y791554D01*
X656490Y790103D02*
Y791554D01*
X523784Y895250D02*
X525236D01*
X523784Y882750D02*
X525236D01*
X1091200Y918810D02*
X1093200D01*
X1091200Y930310D02*
X1093200D01*
X1008543Y323950D02*
X1009995D01*
X1008543Y336450D02*
X1009995D01*
X813470Y593360D02*
Y595360D01*
X801970Y593360D02*
Y595360D01*
X819800Y548470D02*
X821800D01*
X819800Y558970D02*
X821800D01*
X399400Y532310D02*
Y534810D01*
X413400Y532310D02*
Y534810D01*
X1083210Y842120D02*
Y844120D01*
X1070710Y842120D02*
Y844120D01*
X1172320Y859690D02*
X1174320D01*
X1172320Y847190D02*
X1174320D01*
X404990Y484520D02*
X407490D01*
X404990Y470520D02*
X407490D01*
X334610Y380000D02*
Y382000D01*
X346110Y380000D02*
Y382000D01*
X316880Y303550D02*
Y306050D01*
X302880Y303550D02*
Y306050D01*
X410320Y445870D02*
X412320D01*
X410320Y458370D02*
X412320D01*
X1228190Y417486D02*
Y418937D01*
X1240690Y417486D02*
Y418937D01*
X432470Y378840D02*
Y380840D01*
X420970Y378840D02*
Y380840D01*
X461030Y377840D02*
X463530D01*
X461030Y363840D02*
X463530D01*
X1024990Y461440D02*
Y463440D01*
X1037490Y461440D02*
Y463440D01*
X1464210Y571663D02*
Y573114D01*
X1451710Y571663D02*
Y573114D01*
X1230058Y713846D02*
X1232058D01*
X1230058Y725347D02*
X1232058D01*
X544230Y378840D02*
Y380840D01*
X532730Y378840D02*
Y380840D01*
X572630Y377840D02*
X575130D01*
X572630Y363840D02*
X575130D01*
X1194970Y684640D02*
Y686640D01*
X1182470Y684640D02*
Y686640D01*
X1000510Y820720D02*
X1016010D01*
X1030510D02*
X1031010D01*
X1049260Y779720D02*
Y790320D01*
Y805820D02*
Y809620D01*
X982260Y779720D02*
X1049260D01*
X982260D02*
Y790320D01*
Y805820D02*
Y809620D01*
X434790Y248440D02*
X459290D01*
X417040Y190190D02*
Y246690D01*
X434790Y188440D02*
X459290D01*
X477040Y190190D02*
Y246690D01*
X546550Y248440D02*
X571050D01*
X528800Y190190D02*
Y246690D01*
X546550Y188440D02*
X571050D01*
X588800Y190190D02*
Y246690D01*
X658310Y248440D02*
X682810D01*
X640560Y190190D02*
Y246690D01*
X658310Y188440D02*
X682810D01*
X700560Y190190D02*
Y246690D01*
X1159361Y465508D02*
Y494571D01*
X1136799Y465508D02*
Y494571D01*
X1095428Y476399D02*
X1124490D01*
X1095428Y498961D02*
X1124490D01*
X1008543Y202030D02*
X1009995D01*
X1008543Y214530D02*
X1009995D01*
X1008543Y242670D02*
X1009995D01*
X1008543Y255170D02*
X1009995D01*
D19*
X933450Y1079500D02*
X1093470D01*
X933450Y1249680D02*
X1093470D01*
Y1079500D02*
Y1249680D01*
X933450Y1079500D02*
Y1249680D01*
X279400Y152400D02*
X934720D01*
X279400Y436880D02*
X934720D01*
Y152400D02*
Y436880D01*
X279400Y152400D02*
Y436880D01*
Y756920D02*
X919480D01*
X279400Y1061720D02*
X919480D01*
Y756920D02*
Y1061720D01*
X279400Y756920D02*
Y1061720D01*
X1249680Y769620D02*
X1587500D01*
X1249680Y1069340D02*
X1587500D01*
Y769620D02*
Y1069340D01*
X1249680Y769620D02*
Y1069340D01*
X751840Y1078230D02*
X920750D01*
X751840Y1249680D02*
X920750D01*
Y1078230D02*
Y1249680D01*
X751840Y1078230D02*
Y1249680D01*
X274320Y1078230D02*
X500380D01*
X274320Y1249680D02*
X500380D01*
Y1078230D02*
Y1249680D01*
X274320Y1078230D02*
Y1249680D01*
X944880Y772160D02*
X1244600D01*
X944880Y1052830D02*
X1244600D01*
Y772160D02*
Y1052830D01*
X944880Y772160D02*
Y1052830D01*
X1477010Y149860D02*
X1925320D01*
X1477010Y750570D02*
X1925320D01*
Y149860D02*
Y750570D01*
X1477010Y149860D02*
Y750570D01*
X1112520Y1079500D02*
X1596390D01*
X1112520Y1250950D02*
X1596390D01*
Y1079500D02*
Y1250950D01*
X1112520Y1079500D02*
Y1250950D01*
X946150Y151130D02*
X1473200D01*
X946150Y764540D02*
X1473200D01*
Y151130D02*
Y764540D01*
X946150Y151130D02*
Y764540D01*
X1732280Y909320D02*
X1859280D01*
X1732280Y1253490D02*
X1859280D01*
Y909320D02*
Y1253490D01*
X1732280Y909320D02*
Y1253490D01*
X1600200Y909320D02*
X1724660D01*
X1600200Y1250950D02*
X1724660D01*
Y909320D02*
Y1250950D01*
X1600200Y909320D02*
Y1250950D01*
X279400Y441960D02*
X934720D01*
X279400Y740410D02*
X934720D01*
Y441960D02*
Y740410D01*
X279400Y441960D02*
Y740410D01*
X509270Y1078230D02*
X745490D01*
X509270Y1249680D02*
X745490D01*
Y1078230D02*
Y1249680D01*
X509270Y1078230D02*
Y1249680D01*
X1818644Y485137D02*
Y469902D01*
X1828801D01*
X1844036D02*
X1833879D01*
X1844036Y480059D01*
Y482598D01*
X1841497Y485137D01*
X1836418D01*
X1833879Y482598D01*
X1535434Y1052828D02*
Y1040132D01*
X1537973Y1037592D01*
X1543052D01*
X1545591Y1040132D01*
Y1052828D01*
X1560826Y1037592D02*
X1550669D01*
X1560826Y1047749D01*
Y1050288D01*
X1558287Y1052828D01*
X1553208D01*
X1550669Y1050288D01*
X477012Y730499D02*
Y717803D01*
X479551Y715264D01*
X484630D01*
X487169Y717803D01*
Y730499D01*
X502404D02*
X492247D01*
Y722881D01*
X497325Y725421D01*
X499865D01*
X502404Y722881D01*
Y717803D01*
X499865Y715264D01*
X494786D01*
X492247Y717803D01*
X1343664Y924557D02*
Y911862D01*
X1346203Y909323D01*
X1351282D01*
X1353821Y911862D01*
Y924557D01*
X1358899Y922018D02*
X1361438Y924557D01*
X1366517D01*
X1369056Y922018D01*
Y919479D01*
X1366517Y916940D01*
X1363978D01*
X1366517D01*
X1369056Y914401D01*
Y911862D01*
X1366517Y909323D01*
X1361438D01*
X1358899Y911862D01*
X1711965Y600708D02*
X1717044D01*
X1714505D01*
Y585472D01*
X1711965D01*
X1717044D01*
X1734818Y598168D02*
X1732279Y600708D01*
X1727200D01*
X1724661Y598168D01*
Y588012D01*
X1727200Y585472D01*
X1732279D01*
X1734818Y588012D01*
X1739896Y585472D02*
X1744975D01*
X1742435D01*
Y600708D01*
X1739896Y598168D01*
X1597666Y688343D02*
Y703577D01*
X1605284D01*
X1607823Y701038D01*
Y695960D01*
X1605284Y693421D01*
X1597666D01*
X1602744D02*
X1607823Y688343D01*
X1612901D02*
X1617980D01*
X1615440D01*
Y703577D01*
X1612901Y701038D01*
X1625597D02*
X1628136Y703577D01*
X1633215D01*
X1635754Y701038D01*
Y690882D01*
X1633215Y688343D01*
X1628136D01*
X1625597Y690882D01*
Y701038D01*
X1821178Y976027D02*
X1805942D01*
Y983644D01*
X1808482Y986183D01*
X1813560D01*
X1816099Y983644D01*
Y976027D01*
Y981105D02*
X1821178Y986183D01*
Y1001418D02*
Y991262D01*
X1811021Y1001418D01*
X1808482D01*
X1805942Y998879D01*
Y993801D01*
X1808482Y991262D01*
X1805942Y1016654D02*
Y1006497D01*
X1813560D01*
X1811021Y1011575D01*
Y1014114D01*
X1813560Y1016654D01*
X1818638D01*
X1821178Y1014114D01*
Y1009036D01*
X1818638Y1006497D01*
X1495044Y409448D02*
Y424683D01*
X1502661D01*
X1505201Y422144D01*
Y417066D01*
X1502661Y414526D01*
X1495044D01*
X1500122D02*
X1505201Y409448D01*
X1510279Y424683D02*
X1520436D01*
Y422144D01*
X1510279Y411987D01*
Y409448D01*
X640087Y403862D02*
Y419098D01*
X647704D01*
X650243Y416558D01*
Y411480D01*
X647704Y408941D01*
X640087D01*
X645165D02*
X650243Y403862D01*
X665478Y419098D02*
X660400Y416558D01*
X655322Y411480D01*
Y406402D01*
X657861Y403862D01*
X662939D01*
X665478Y406402D01*
Y408941D01*
X662939Y411480D01*
X655322D01*
X670557Y416558D02*
X673096Y419098D01*
X678174D01*
X680713Y416558D01*
Y406402D01*
X678174Y403862D01*
X673096D01*
X670557Y406402D01*
Y416558D01*
X833122Y887462D02*
X843278D01*
Y882384D01*
X841586Y880691D01*
X838200D01*
X836507Y882384D01*
Y887462D01*
Y884077D02*
X833122Y880691D01*
X843278Y870534D02*
X841586Y873920D01*
X838200Y877306D01*
X834814D01*
X833122Y875613D01*
Y872227D01*
X834814Y870534D01*
X836507D01*
X838200Y872227D01*
Y877306D01*
X833122Y860378D02*
Y867149D01*
X839893Y860378D01*
X841586D01*
X843278Y862070D01*
Y865456D01*
X841586Y867149D01*
X358527Y383543D02*
Y398778D01*
X366144D01*
X368683Y396239D01*
Y391160D01*
X366144Y388621D01*
X358527D01*
X363605D02*
X368683Y383543D01*
X381379D02*
Y398778D01*
X373762Y391160D01*
X383918D01*
X399154Y398778D02*
X388997D01*
Y391160D01*
X394075Y393699D01*
X396614D01*
X399154Y391160D01*
Y386082D01*
X396614Y383543D01*
X391536D01*
X388997Y386082D01*
X1589278Y511048D02*
Y526283D01*
X1596895D01*
X1599435Y523744D01*
Y518666D01*
X1596895Y516126D01*
X1589278D01*
X1594356D02*
X1599435Y511048D01*
X1604513D02*
X1609591D01*
X1607052D01*
Y526283D01*
X1604513Y523744D01*
X1617074Y538482D02*
Y553717D01*
X1624692D01*
X1627231Y551178D01*
Y546100D01*
X1624692Y543561D01*
X1617074D01*
X1622153D02*
X1627231Y538482D01*
X1642466D02*
X1632309D01*
X1642466Y548639D01*
Y551178D01*
X1639927Y553717D01*
X1634848D01*
X1632309Y551178D01*
X744218Y611517D02*
X728982D01*
Y619134D01*
X731522Y621673D01*
X736600D01*
X739139Y619134D01*
Y611517D01*
Y616595D02*
X744218Y621673D01*
X731522Y626752D02*
X728982Y629291D01*
Y634369D01*
X731522Y636908D01*
X734061D01*
X736600Y634369D01*
Y631830D01*
Y634369D01*
X739139Y636908D01*
X741678D01*
X744218Y634369D01*
Y629291D01*
X741678Y626752D01*
X728982Y641987D02*
Y652143D01*
X731522D01*
X741678Y641987D01*
X744218D01*
X510546Y951227D02*
X515625D01*
X513085D01*
Y935993D01*
X510546D01*
X515625D01*
X533399Y948688D02*
X530860Y951227D01*
X525781D01*
X523242Y948688D01*
Y938532D01*
X525781Y935993D01*
X530860D01*
X533399Y938532D01*
X538477Y948688D02*
X541016Y951227D01*
X546095D01*
X548634Y948688D01*
Y946149D01*
X546095Y943610D01*
X543555D01*
X546095D01*
X548634Y941071D01*
Y938532D01*
X546095Y935993D01*
X541016D01*
X538477Y938532D01*
X754634Y676815D02*
Y664119D01*
X757173Y661580D01*
X762252D01*
X764791Y664119D01*
Y676815D01*
X769869D02*
X780026D01*
Y674276D01*
X769869Y664119D01*
Y661580D01*
X1946914Y364492D02*
Y379728D01*
X1954532D01*
X1957071Y377188D01*
Y372110D01*
X1954532Y369571D01*
X1946914D01*
X1951992D02*
X1957071Y364492D01*
X1972306Y379728D02*
X1962149D01*
Y372110D01*
X1967227D01*
X1962149D01*
Y364492D01*
X1080063Y297339D02*
Y282104D01*
X1087681D01*
X1090220Y284643D01*
Y294799D01*
X1087681Y297339D01*
X1080063D01*
X1105455Y294799D02*
X1102916Y297339D01*
X1097837D01*
X1095298Y294799D01*
Y292260D01*
X1097837Y289721D01*
X1102916D01*
X1105455Y287182D01*
Y284643D01*
X1102916Y282104D01*
X1097837D01*
X1095298Y284643D01*
X1120690Y282104D02*
X1110533D01*
X1120690Y292260D01*
Y294799D01*
X1118151Y297339D01*
X1113073D01*
X1110533Y294799D01*
X1277524Y533548D02*
Y520852D01*
X1280063Y518312D01*
X1285142D01*
X1287681Y520852D01*
Y533548D01*
X1292759Y520852D02*
X1295298Y518312D01*
X1300377D01*
X1302916Y520852D01*
Y531008D01*
X1300377Y533548D01*
X1295298D01*
X1292759Y531008D01*
Y528469D01*
X1295298Y525930D01*
X1302916D01*
X1079504Y337817D02*
Y322583D01*
X1087122D01*
X1089661Y325122D01*
Y335278D01*
X1087122Y337817D01*
X1079504D01*
X1094739Y335278D02*
X1097278Y337817D01*
X1102357D01*
X1104896Y335278D01*
Y332739D01*
X1102357Y330200D01*
X1099818D01*
X1102357D01*
X1104896Y327661D01*
Y325122D01*
X1102357Y322583D01*
X1097278D01*
X1094739Y325122D01*
X1691643Y703577D02*
Y688343D01*
X1699261D01*
X1701800Y690882D01*
Y701038D01*
X1699261Y703577D01*
X1691643D01*
X1706878Y688343D02*
X1711957D01*
X1709418D01*
Y703577D01*
X1706878Y701038D01*
X667706Y383543D02*
Y398778D01*
X675323D01*
X677862Y396238D01*
Y391160D01*
X675323Y388621D01*
X667706D01*
X672784D02*
X677862Y383543D01*
X693098Y398778D02*
X688019Y396238D01*
X682941Y391160D01*
Y386082D01*
X685480Y383543D01*
X690558D01*
X693098Y386082D01*
Y388621D01*
X690558Y391160D01*
X682941D01*
X698176Y383543D02*
X703254D01*
X700715D01*
Y398778D01*
X698176Y396238D01*
X381003Y187958D02*
X378464Y190497D01*
X373386D01*
X370847Y187958D01*
Y185419D01*
X373386Y182880D01*
X378464D01*
X381003Y180341D01*
Y177802D01*
X378464Y175263D01*
X373386D01*
X370847Y177802D01*
X386082Y190497D02*
Y175263D01*
X391160Y180341D01*
X396238Y175263D01*
Y190497D01*
X411473D02*
X401317D01*
Y182880D01*
X406395Y185419D01*
X408934D01*
X411473Y182880D01*
Y177802D01*
X408934Y175263D01*
X403856D01*
X401317Y177802D01*
X1112518Y817877D02*
X1115058Y820416D01*
Y825494D01*
X1112518Y828033D01*
X1109979D01*
X1107440Y825494D01*
Y820416D01*
X1104901Y817877D01*
X1102362D01*
X1099822Y820416D01*
Y825494D01*
X1102362Y828033D01*
X1115058Y812798D02*
X1099822D01*
X1104901Y807720D01*
X1099822Y802642D01*
X1115058D01*
X1099822Y789946D02*
X1115058D01*
X1107440Y797563D01*
Y787406D01*
X1852933Y593088D02*
Y577853D01*
X1863090D01*
X1868168D02*
X1873247D01*
X1870708D01*
Y593088D01*
X1868168Y590548D01*
X719328Y1052825D02*
Y1040129D01*
X721867Y1037590D01*
X726945D01*
X729485Y1040129D01*
Y1052825D01*
X742181Y1037590D02*
Y1052825D01*
X734563Y1045208D01*
X744720D01*
X1087123Y544559D02*
X1076967D01*
Y536941D01*
X1082045D01*
X1076967D01*
Y529324D01*
X1092202Y544559D02*
Y529324D01*
X1099819D01*
X1102358Y531863D01*
Y534402D01*
X1099819Y536941D01*
X1092202D01*
X1099819D01*
X1102358Y539481D01*
Y542020D01*
X1099819Y544559D01*
X1092202D01*
X1117593Y529324D02*
X1107437D01*
X1117593Y539481D01*
Y542020D01*
X1115054Y544559D01*
X1109976D01*
X1107437Y542020D01*
X1545561Y791308D02*
X1543022Y793848D01*
X1537943D01*
X1535404Y791308D01*
Y781152D01*
X1537943Y778613D01*
X1543022D01*
X1545561Y781152D01*
X1558257Y778613D02*
Y793848D01*
X1550639Y786230D01*
X1560796D01*
X1303023Y1019808D02*
X1300484Y1022347D01*
X1295405D01*
X1292866Y1019808D01*
Y1009652D01*
X1295405Y1007113D01*
X1300484D01*
X1303023Y1009652D01*
X1308101Y1007113D02*
X1313180D01*
X1310640D01*
Y1022347D01*
X1308101Y1019808D01*
X1330954Y1007113D02*
X1320797D01*
X1330954Y1017269D01*
Y1019808D01*
X1328415Y1022347D01*
X1323336D01*
X1320797Y1019808D01*
X660905Y689606D02*
X658365Y692145D01*
X653287D01*
X650748Y689606D01*
Y679449D01*
X653287Y676910D01*
X658365D01*
X660905Y679449D01*
X676140Y676910D02*
X665983D01*
X676140Y687067D01*
Y689606D01*
X673601Y692145D01*
X668522D01*
X665983Y689606D01*
X681218Y679449D02*
X683757Y676910D01*
X688836D01*
X691375Y679449D01*
Y689606D01*
X688836Y692145D01*
X683757D01*
X681218Y689606D01*
Y687067D01*
X683757Y684528D01*
X691375D01*
X383283Y718664D02*
X380743Y721203D01*
X375665D01*
X373126Y718664D01*
Y708507D01*
X375665Y705968D01*
X380743D01*
X383283Y708507D01*
X398518Y705968D02*
X388361D01*
X398518Y716125D01*
Y718664D01*
X395979Y721203D01*
X390900D01*
X388361Y718664D01*
X403596D02*
X406135Y721203D01*
X411214D01*
X413753Y718664D01*
Y716125D01*
X411214Y713586D01*
X413753Y711046D01*
Y708507D01*
X411214Y705968D01*
X406135D01*
X403596Y708507D01*
Y711046D01*
X406135Y713586D01*
X403596Y716125D01*
Y718664D01*
X406135Y713586D02*
X411214D01*
X306829Y678090D02*
X304289Y680629D01*
X299211D01*
X296672Y678090D01*
Y667933D01*
X299211Y665394D01*
X304289D01*
X306829Y667933D01*
X311907Y678090D02*
X314446Y680629D01*
X319525D01*
X322064Y678090D01*
Y675551D01*
X319525Y673012D01*
X316985D01*
X319525D01*
X322064Y670472D01*
Y667933D01*
X319525Y665394D01*
X314446D01*
X311907Y667933D01*
X327142Y678090D02*
X329681Y680629D01*
X334760D01*
X337299Y678090D01*
Y667933D01*
X334760Y665394D01*
X329681D01*
X327142Y667933D01*
Y678090D01*
X840483Y709266D02*
X837943Y711805D01*
X832865D01*
X830326Y709266D01*
Y699109D01*
X832865Y696570D01*
X837943D01*
X840483Y699109D01*
X845561Y709266D02*
X848100Y711805D01*
X853179D01*
X855718Y709266D01*
Y706727D01*
X853179Y704187D01*
X850639D01*
X853179D01*
X855718Y701648D01*
Y699109D01*
X853179Y696570D01*
X848100D01*
X845561Y699109D01*
X868414Y696570D02*
Y711805D01*
X860796Y704187D01*
X870953D01*
X1715776Y700909D02*
Y716144D01*
X1723394D01*
X1725933Y713605D01*
Y708527D01*
X1723394Y705987D01*
X1715776D01*
X1720854D02*
X1725933Y700909D01*
X1731011D02*
X1736090D01*
X1733550D01*
Y716144D01*
X1731011Y713605D01*
X1743707D02*
X1746246Y716144D01*
X1751325D01*
X1753864Y713605D01*
Y711066D01*
X1751325Y708527D01*
X1748786D01*
X1751325D01*
X1753864Y705987D01*
Y703448D01*
X1751325Y700909D01*
X1746246D01*
X1743707Y703448D01*
X1822677Y914407D02*
X1807442D01*
Y922024D01*
X1809982Y924563D01*
X1815060D01*
X1817599Y922024D01*
Y914407D01*
Y919485D02*
X1822677Y924563D01*
Y939798D02*
Y929642D01*
X1812521Y939798D01*
X1809982D01*
X1807442Y937259D01*
Y932181D01*
X1809982Y929642D01*
X1807442Y944877D02*
Y955033D01*
X1809982D01*
X1820138Y944877D01*
X1822677D01*
X1071118Y999993D02*
Y987297D01*
X1073657Y984758D01*
X1078736D01*
X1081275Y987297D01*
Y999993D01*
X1096510D02*
X1091431Y997454D01*
X1086353Y992375D01*
Y987297D01*
X1088892Y984758D01*
X1093971D01*
X1096510Y987297D01*
Y989836D01*
X1093971Y992375D01*
X1086353D01*
X787908Y410459D02*
Y397763D01*
X790447Y395224D01*
X795526D01*
X798065Y397763D01*
Y410459D01*
X803143Y395224D02*
X808221D01*
X805682D01*
Y410459D01*
X803143Y407920D01*
X815839D02*
X818378Y410459D01*
X823456D01*
X825996Y407920D01*
Y397763D01*
X823456Y395224D01*
X818378D01*
X815839Y397763D01*
Y407920D01*
X645167Y525783D02*
Y541017D01*
X652784D01*
X655323Y538478D01*
Y533400D01*
X652784Y530861D01*
X645167D01*
X650245D02*
X655323Y525783D01*
X668019D02*
Y541017D01*
X660402Y533400D01*
X670558D01*
X685793Y525783D02*
X675637D01*
X685793Y535939D01*
Y538478D01*
X683254Y541017D01*
X678176D01*
X675637Y538478D01*
X951236Y281943D02*
Y297178D01*
X958854D01*
X961393Y294638D01*
Y289560D01*
X958854Y287021D01*
X951236D01*
X956314D02*
X961393Y281943D01*
X966471D02*
X971550D01*
X969010D01*
Y297178D01*
X966471Y294638D01*
X989324Y297178D02*
X979167D01*
Y289560D01*
X984246Y292099D01*
X986785D01*
X989324Y289560D01*
Y284482D01*
X986785Y281943D01*
X981706D01*
X979167Y284482D01*
X1046487Y429263D02*
Y444497D01*
X1054104D01*
X1056643Y441958D01*
Y436880D01*
X1054104Y434341D01*
X1046487D01*
X1051565D02*
X1056643Y429263D01*
X1071878Y444497D02*
X1061722D01*
Y436880D01*
X1066800Y439419D01*
X1069339D01*
X1071878Y436880D01*
Y431802D01*
X1069339Y429263D01*
X1064261D01*
X1061722Y431802D01*
X1087113Y444497D02*
X1076957D01*
Y436880D01*
X1082035Y439419D01*
X1084574D01*
X1087113Y436880D01*
Y431802D01*
X1084574Y429263D01*
X1079496D01*
X1076957Y431802D01*
X1866903Y483868D02*
X1864364Y486408D01*
X1859285D01*
X1856746Y483868D01*
Y473712D01*
X1859285Y471172D01*
X1864364D01*
X1866903Y473712D01*
X1871981Y471172D02*
X1877060D01*
X1874520D01*
Y486408D01*
X1871981Y483868D01*
X1884677D02*
X1887216Y486408D01*
X1892295D01*
X1894834Y483868D01*
Y473712D01*
X1892295Y471172D01*
X1887216D01*
X1884677Y473712D01*
Y483868D01*
X1381758Y675595D02*
X1384297Y678134D01*
Y683213D01*
X1381758Y685752D01*
X1371602D01*
X1369062Y683213D01*
Y678134D01*
X1371602Y675595D01*
X1369062Y662899D02*
X1384297D01*
X1376680Y670517D01*
Y660360D01*
X1381758Y655282D02*
X1384297Y652742D01*
Y647664D01*
X1381758Y645125D01*
X1379219D01*
X1376680Y647664D01*
X1374141Y645125D01*
X1371602D01*
X1369062Y647664D01*
Y652742D01*
X1371602Y655282D01*
X1374141D01*
X1376680Y652742D01*
X1379219Y655282D01*
X1381758D01*
X1376680Y652742D02*
Y647664D01*
X1860551Y646428D02*
X1858012Y648968D01*
X1852933D01*
X1850394Y646428D01*
Y636272D01*
X1852933Y633732D01*
X1858012D01*
X1860551Y636272D01*
X1865629Y646428D02*
X1868168Y648968D01*
X1873247D01*
X1875786Y646428D01*
Y643889D01*
X1873247Y641350D01*
X1875786Y638811D01*
Y636272D01*
X1873247Y633732D01*
X1868168D01*
X1865629Y636272D01*
Y638811D01*
X1868168Y641350D01*
X1865629Y643889D01*
Y646428D01*
X1868168Y641350D02*
X1873247D01*
X1861821Y615948D02*
X1859282Y618488D01*
X1854203D01*
X1851664Y615948D01*
Y605792D01*
X1854203Y603252D01*
X1859282D01*
X1861821Y605792D01*
X1866899Y618488D02*
X1877056D01*
Y615948D01*
X1866899Y605792D01*
Y603252D01*
X1864865Y535428D02*
X1862325Y537967D01*
X1857247D01*
X1854708Y535428D01*
Y525271D01*
X1857247Y522732D01*
X1862325D01*
X1864865Y525271D01*
X1869943D02*
X1872482Y522732D01*
X1877561D01*
X1880100Y525271D01*
Y535428D01*
X1877561Y537967D01*
X1872482D01*
X1869943Y535428D01*
Y532889D01*
X1872482Y530350D01*
X1880100D01*
X1263655Y703577D02*
Y690882D01*
X1266195Y688343D01*
X1271273D01*
X1273812Y690882D01*
Y703577D01*
X1278890Y688343D02*
X1283969D01*
X1281430D01*
Y703577D01*
X1278890Y701038D01*
X1291586Y688343D02*
X1296665D01*
X1294126D01*
Y703577D01*
X1291586Y701038D01*
X1652273Y528317D02*
Y525778D01*
X1657352Y520700D01*
X1662430Y525778D01*
Y528317D01*
X1657352Y520700D02*
Y513083D01*
X1667508D02*
X1672587D01*
X1670048D01*
Y528317D01*
X1667508Y525778D01*
X759034Y835277D02*
Y832738D01*
X764112Y827660D01*
X769191Y832738D01*
Y835277D01*
X764112Y827660D02*
Y820042D01*
X784426D02*
X774269D01*
X784426Y830199D01*
Y832738D01*
X781887Y835277D01*
X776808D01*
X774269Y832738D01*
X685802Y342899D02*
X695958D01*
X698497Y345438D01*
Y350517D01*
X695958Y353056D01*
X685802D01*
X683262Y350517D01*
Y345438D01*
X688341Y347977D02*
X683262Y342899D01*
Y345438D02*
X685802Y342899D01*
X698497Y327664D02*
Y337821D01*
X690880D01*
X693419Y332743D01*
Y330203D01*
X690880Y327664D01*
X685802D01*
X683262Y330203D01*
Y335282D01*
X685802Y337821D01*
X294641Y581657D02*
X289562D01*
X292102D01*
Y568962D01*
X289562Y566423D01*
X287023D01*
X284484Y568962D01*
X299719D02*
X302258Y566423D01*
X307337D01*
X309876Y568962D01*
Y579118D01*
X307337Y581657D01*
X302258D01*
X299719Y579118D01*
Y576579D01*
X302258Y574040D01*
X309876D01*
X552933Y1018298D02*
X550394Y1020837D01*
X545315D01*
X542776Y1018298D01*
Y1008142D01*
X545315Y1005602D01*
X550394D01*
X552933Y1008142D01*
X558011Y1005602D02*
X563090D01*
X560550D01*
Y1020837D01*
X558011Y1018298D01*
X570707Y1008142D02*
X573246Y1005602D01*
X578325D01*
X580864Y1008142D01*
Y1018298D01*
X578325Y1020837D01*
X573246D01*
X570707Y1018298D01*
Y1015759D01*
X573246Y1013220D01*
X580864D01*
X1891028Y802634D02*
Y797555D01*
Y800095D01*
X1875793D01*
Y802634D01*
Y797555D01*
X1888488Y779781D02*
X1891028Y782320D01*
Y787399D01*
X1888488Y789938D01*
X1878332D01*
X1875793Y787399D01*
Y782320D01*
X1878332Y779781D01*
X1875793Y764546D02*
Y774703D01*
X1885949Y764546D01*
X1888488D01*
X1891028Y767085D01*
Y772164D01*
X1888488Y774703D01*
X1761998Y569463D02*
Y556767D01*
X1764537Y554228D01*
X1769615D01*
X1772155Y556767D01*
Y569463D01*
X1777233Y554228D02*
X1782311D01*
X1779772D01*
Y569463D01*
X1777233Y566924D01*
X477043Y511931D02*
Y499235D01*
X479582Y496696D01*
X484660D01*
X487199Y499235D01*
Y511931D01*
X492278Y509391D02*
X494817Y511931D01*
X499895D01*
X502434Y509391D01*
Y506852D01*
X499895Y504313D01*
X502434Y501774D01*
Y499235D01*
X499895Y496696D01*
X494817D01*
X492278Y499235D01*
Y501774D01*
X494817Y504313D01*
X492278Y506852D01*
Y509391D01*
X494817Y504313D02*
X499895D01*
X1219943Y640078D02*
X1217404Y642617D01*
X1212325D01*
X1209786Y640078D01*
Y629922D01*
X1212325Y627383D01*
X1217404D01*
X1219943Y629922D01*
X1235178Y642617D02*
X1225021D01*
Y635000D01*
X1230100Y637539D01*
X1232639D01*
X1235178Y635000D01*
Y629922D01*
X1232639Y627383D01*
X1227561D01*
X1225021Y629922D01*
X1250413Y642617D02*
X1240256D01*
Y635000D01*
X1245335Y637539D01*
X1247874D01*
X1250413Y635000D01*
Y629922D01*
X1247874Y627383D01*
X1242796D01*
X1240256Y629922D01*
X1755903Y423924D02*
X1753364Y426464D01*
X1748285D01*
X1745746Y423924D01*
Y413768D01*
X1748285Y411228D01*
X1753364D01*
X1755903Y413768D01*
X1771138Y426464D02*
X1766060Y423924D01*
X1760981Y418846D01*
Y413768D01*
X1763520Y411228D01*
X1768599D01*
X1771138Y413768D01*
Y416307D01*
X1768599Y418846D01*
X1760981D01*
X715729Y820886D02*
X714036Y822578D01*
X710650D01*
X708958Y820886D01*
Y814114D01*
X710650Y812422D01*
X714036D01*
X715729Y814114D01*
X725886Y812422D02*
X719114D01*
X725886Y819193D01*
Y820886D01*
X724193Y822578D01*
X720807D01*
X719114Y820886D01*
X736042Y822578D02*
X729271D01*
Y817500D01*
X732657Y819193D01*
X734350D01*
X736042Y817500D01*
Y814114D01*
X734350Y812422D01*
X730964D01*
X729271Y814114D01*
X1079504Y693418D02*
Y690878D01*
X1084583Y685800D01*
X1089661Y690878D01*
Y693418D01*
X1084583Y685800D02*
Y678183D01*
X1094739Y690878D02*
X1097278Y693418D01*
X1102357D01*
X1104896Y690878D01*
Y688339D01*
X1102357Y685800D01*
X1099818D01*
X1102357D01*
X1104896Y683261D01*
Y680722D01*
X1102357Y678183D01*
X1097278D01*
X1094739Y680722D01*
X1525271Y1121407D02*
X1520193D01*
X1522732D01*
Y1108712D01*
X1520193Y1106172D01*
X1517653D01*
X1515114Y1108712D01*
X1530349Y1118868D02*
X1532888Y1121407D01*
X1537967D01*
X1540506Y1118868D01*
Y1116329D01*
X1537967Y1113790D01*
X1540506Y1111251D01*
Y1108712D01*
X1537967Y1106172D01*
X1532888D01*
X1530349Y1108712D01*
Y1111251D01*
X1532888Y1113790D01*
X1530349Y1116329D01*
Y1118868D01*
X1532888Y1113790D02*
X1537967D01*
X1755141Y1127757D02*
X1750063D01*
X1752602D01*
Y1115062D01*
X1750063Y1112523D01*
X1747523D01*
X1744984Y1115062D01*
X1760219Y1127757D02*
X1770376D01*
Y1125218D01*
X1760219Y1115062D01*
Y1112523D01*
X1807216Y284482D02*
Y299718D01*
X1814834D01*
X1817373Y297178D01*
Y292100D01*
X1814834Y289561D01*
X1807216D01*
X1822451Y284482D02*
X1827530D01*
X1824990D01*
Y299718D01*
X1822451Y297178D01*
X1835147D02*
X1837686Y299718D01*
X1842765D01*
X1845304Y297178D01*
Y287022D01*
X1842765Y284482D01*
X1837686D01*
X1835147Y287022D01*
Y297178D01*
X948692Y1010917D02*
X963928D01*
Y1003299D01*
X961388Y1000760D01*
X956310D01*
X953771Y1003299D01*
Y1010917D01*
X948692Y995682D02*
Y990603D01*
Y993142D01*
X963928D01*
X961388Y995682D01*
X1628140Y525778D02*
X1625601Y528317D01*
X1620522D01*
X1617983Y525778D01*
Y515622D01*
X1620522Y513083D01*
X1625601D01*
X1628140Y515622D01*
X1633218Y513083D02*
X1638297D01*
X1635758D01*
Y528317D01*
X1633218Y525778D01*
X1587501Y633728D02*
X1584962Y636268D01*
X1579883D01*
X1577344Y633728D01*
Y623572D01*
X1579883Y621032D01*
X1584962D01*
X1587501Y623572D01*
X1602736Y621032D02*
X1592579D01*
X1602736Y631189D01*
Y633728D01*
X1600197Y636268D01*
X1595118D01*
X1592579Y633728D01*
X1694181Y525778D02*
X1691642Y528317D01*
X1686563D01*
X1684024Y525778D01*
Y515622D01*
X1686563Y513083D01*
X1691642D01*
X1694181Y515622D01*
X1699259Y525778D02*
X1701798Y528317D01*
X1706877D01*
X1709416Y525778D01*
Y523239D01*
X1706877Y520700D01*
X1704337D01*
X1706877D01*
X1709416Y518161D01*
Y515622D01*
X1706877Y513083D01*
X1701798D01*
X1699259Y515622D01*
X1742441Y450848D02*
X1739902Y453387D01*
X1734823D01*
X1732284Y450848D01*
Y440692D01*
X1734823Y438153D01*
X1739902D01*
X1742441Y440692D01*
X1757676Y453387D02*
X1747519D01*
Y445770D01*
X1752598Y448309D01*
X1755137D01*
X1757676Y445770D01*
Y440692D01*
X1755137Y438153D01*
X1750058D01*
X1747519Y440692D01*
X1564642Y836932D02*
X1562102Y834393D01*
Y829314D01*
X1564642Y826775D01*
X1574798D01*
X1577337Y829314D01*
Y834393D01*
X1574798Y836932D01*
X1577337Y842010D02*
Y847089D01*
Y844550D01*
X1562102D01*
X1564642Y842010D01*
X1577337Y854706D02*
Y859785D01*
Y857245D01*
X1562102D01*
X1564642Y854706D01*
X1464312Y998223D02*
X1461772Y995684D01*
Y990605D01*
X1464312Y988066D01*
X1474468D01*
X1477007Y990605D01*
Y995684D01*
X1474468Y998223D01*
X1477007Y1003301D02*
Y1008380D01*
Y1005840D01*
X1461772D01*
X1464312Y1003301D01*
Y1015997D02*
X1461772Y1018536D01*
Y1023615D01*
X1464312Y1026154D01*
X1466851D01*
X1469390Y1023615D01*
Y1021076D01*
Y1023615D01*
X1471929Y1026154D01*
X1474468D01*
X1477007Y1023615D01*
Y1018536D01*
X1474468Y1015997D01*
X1520193Y894078D02*
X1517654Y896618D01*
X1512575D01*
X1510036Y894078D01*
Y883922D01*
X1512575Y881383D01*
X1517654D01*
X1520193Y883922D01*
X1525271Y881383D02*
X1530350D01*
X1527810D01*
Y896618D01*
X1525271Y894078D01*
X1545585Y881383D02*
Y896618D01*
X1537967Y889000D01*
X1548124D01*
X1280919Y923032D02*
X1278380Y925571D01*
X1273301D01*
X1270762Y923032D01*
Y912875D01*
X1273301Y910336D01*
X1278380D01*
X1280919Y912875D01*
X1285997Y910336D02*
X1291075D01*
X1288536D01*
Y925571D01*
X1285997Y923032D01*
X1308850Y925571D02*
X1298693D01*
Y917953D01*
X1303771Y920493D01*
X1306310D01*
X1308850Y917953D01*
Y912875D01*
X1306310Y910336D01*
X1301232D01*
X1298693Y912875D01*
X1443993Y924558D02*
X1441454Y927097D01*
X1436375D01*
X1433836Y924558D01*
Y914402D01*
X1436375Y911862D01*
X1441454D01*
X1443993Y914402D01*
X1449071Y911862D02*
X1454150D01*
X1451610D01*
Y927097D01*
X1449071Y924558D01*
X1471924Y927097D02*
X1466846Y924558D01*
X1461767Y919480D01*
Y914402D01*
X1464306Y911862D01*
X1469385D01*
X1471924Y914402D01*
Y916941D01*
X1469385Y919480D01*
X1461767D01*
X1289053Y984248D02*
X1286514Y986787D01*
X1281435D01*
X1278896Y984248D01*
Y974092D01*
X1281435Y971553D01*
X1286514D01*
X1289053Y974092D01*
X1294131Y971553D02*
X1299210D01*
X1296670D01*
Y986787D01*
X1294131Y984248D01*
X1306827Y986787D02*
X1316984D01*
Y984248D01*
X1306827Y974092D01*
Y971553D01*
X478793Y858518D02*
X476254Y861058D01*
X471175D01*
X468636Y858518D01*
Y848362D01*
X471175Y845823D01*
X476254D01*
X478793Y848362D01*
X483871Y845823D02*
X488950D01*
X486410D01*
Y861058D01*
X483871Y858518D01*
X496567D02*
X499106Y861058D01*
X504185D01*
X506724Y858518D01*
Y855979D01*
X504185Y853440D01*
X506724Y850901D01*
Y848362D01*
X504185Y845823D01*
X499106D01*
X496567Y848362D01*
Y850901D01*
X499106Y853440D01*
X496567Y855979D01*
Y858518D01*
X499106Y853440D02*
X504185D01*
X675891Y994914D02*
X673352Y997453D01*
X668273D01*
X665734Y994914D01*
Y984757D01*
X668273Y982218D01*
X673352D01*
X675891Y984757D01*
X691126Y982218D02*
X680969D01*
X691126Y992375D01*
Y994914D01*
X688587Y997453D01*
X683508D01*
X680969Y994914D01*
X696204Y982218D02*
X701283D01*
X698743D01*
Y997453D01*
X696204Y994914D01*
X779783Y1029968D02*
X777244Y1032507D01*
X772166D01*
X769627Y1029968D01*
Y1019812D01*
X772166Y1017272D01*
X777244D01*
X779783Y1019812D01*
X795018Y1017272D02*
X784862D01*
X795018Y1027429D01*
Y1029968D01*
X792479Y1032507D01*
X787401D01*
X784862Y1029968D01*
X810253Y1017272D02*
X800097D01*
X810253Y1027429D01*
Y1029968D01*
X807714Y1032507D01*
X802636D01*
X800097Y1029968D01*
X497053Y1013218D02*
X494514Y1015758D01*
X489436D01*
X486897Y1013218D01*
Y1003062D01*
X489436Y1000523D01*
X494514D01*
X497053Y1003062D01*
X512288Y1000523D02*
X502132D01*
X512288Y1010679D01*
Y1013218D01*
X509749Y1015758D01*
X504671D01*
X502132Y1013218D01*
X517367D02*
X519906Y1015758D01*
X524984D01*
X527523Y1013218D01*
Y1010679D01*
X524984Y1008140D01*
X522445D01*
X524984D01*
X527523Y1005601D01*
Y1003062D01*
X524984Y1000523D01*
X519906D01*
X517367Y1003062D01*
X477523Y817878D02*
X474984Y820417D01*
X469906D01*
X467367Y817878D01*
Y807722D01*
X469906Y805182D01*
X474984D01*
X477523Y807722D01*
X492758Y805182D02*
X482602D01*
X492758Y815339D01*
Y817878D01*
X490219Y820417D01*
X485141D01*
X482602Y817878D01*
X505454Y805182D02*
Y820417D01*
X497837Y812800D01*
X507993D01*
X811109Y836506D02*
X809416Y838198D01*
X806031D01*
X804338Y836506D01*
Y829734D01*
X806031Y828042D01*
X809416D01*
X811109Y829734D01*
X821266Y828042D02*
X814494D01*
X821266Y834813D01*
Y836506D01*
X819573Y838198D01*
X816187D01*
X814494Y836506D01*
X831422Y838198D02*
X828037Y836506D01*
X824651Y833120D01*
Y829734D01*
X826344Y828042D01*
X829730D01*
X831422Y829734D01*
Y831427D01*
X829730Y833120D01*
X824651D01*
X308861Y729484D02*
X306322Y732023D01*
X301243D01*
X298704Y729484D01*
Y719327D01*
X301243Y716788D01*
X306322D01*
X308861Y719327D01*
X313939Y729484D02*
X316478Y732023D01*
X321557D01*
X324096Y729484D01*
Y726945D01*
X321557Y724406D01*
X319017D01*
X321557D01*
X324096Y721866D01*
Y719327D01*
X321557Y716788D01*
X316478D01*
X313939Y719327D01*
X329174Y716788D02*
X334253D01*
X331713D01*
Y732023D01*
X329174Y729484D01*
X664213Y732788D02*
X661674Y735328D01*
X656596D01*
X654057Y732788D01*
Y722632D01*
X656596Y720092D01*
X661674D01*
X664213Y722632D01*
X669292Y732788D02*
X671831Y735328D01*
X676909D01*
X679448Y732788D01*
Y730249D01*
X676909Y727710D01*
X674370D01*
X676909D01*
X679448Y725171D01*
Y722632D01*
X676909Y720092D01*
X671831D01*
X669292Y722632D01*
X694683Y720092D02*
X684527D01*
X694683Y730249D01*
Y732788D01*
X692144Y735328D01*
X687066D01*
X684527Y732788D01*
X1046482Y977003D02*
X1043943Y974464D01*
Y969386D01*
X1046482Y966846D01*
X1056638D01*
X1059178Y969386D01*
Y974464D01*
X1056638Y977003D01*
X1046482Y982081D02*
X1043943Y984621D01*
Y989699D01*
X1046482Y992238D01*
X1049021D01*
X1051560Y989699D01*
Y987160D01*
Y989699D01*
X1054099Y992238D01*
X1056638D01*
X1059178Y989699D01*
Y984621D01*
X1056638Y982081D01*
X1046482Y997317D02*
X1043943Y999856D01*
Y1004934D01*
X1046482Y1007473D01*
X1049021D01*
X1051560Y1004934D01*
Y1002395D01*
Y1004934D01*
X1054099Y1007473D01*
X1056638D01*
X1059178Y1004934D01*
Y999856D01*
X1056638Y997317D01*
X447043Y568958D02*
X444504Y571497D01*
X439426D01*
X436887Y568958D01*
Y558802D01*
X439426Y556263D01*
X444504D01*
X447043Y558802D01*
X452122Y568958D02*
X454661Y571497D01*
X459739D01*
X462278Y568958D01*
Y566419D01*
X459739Y563880D01*
X457200D01*
X459739D01*
X462278Y561341D01*
Y558802D01*
X459739Y556263D01*
X454661D01*
X452122Y558802D01*
X477513Y571497D02*
X467357D01*
Y563880D01*
X472435Y566419D01*
X474974D01*
X477513Y563880D01*
Y558802D01*
X474974Y556263D01*
X469896D01*
X467357Y558802D01*
X891543Y732788D02*
X889004Y735328D01*
X883926D01*
X881387Y732788D01*
Y722632D01*
X883926Y720092D01*
X889004D01*
X891543Y722632D01*
X896622Y732788D02*
X899161Y735328D01*
X904239D01*
X906778Y732788D01*
Y730249D01*
X904239Y727710D01*
X901700D01*
X904239D01*
X906778Y725171D01*
Y722632D01*
X904239Y720092D01*
X899161D01*
X896622Y722632D01*
X911857Y735328D02*
X922013D01*
Y732788D01*
X911857Y722632D01*
Y720092D01*
X736598Y726437D02*
X739138Y728976D01*
Y734054D01*
X736598Y736593D01*
X726442D01*
X723903Y734054D01*
Y728976D01*
X726442Y726437D01*
X736598Y721358D02*
X739138Y718819D01*
Y713741D01*
X736598Y711202D01*
X734059D01*
X731520Y713741D01*
Y716280D01*
Y713741D01*
X728981Y711202D01*
X726442D01*
X723903Y713741D01*
Y718819D01*
X726442Y721358D01*
X736598Y706123D02*
X739138Y703584D01*
Y698506D01*
X736598Y695966D01*
X734059D01*
X731520Y698506D01*
X728981Y695966D01*
X726442D01*
X723903Y698506D01*
Y703584D01*
X726442Y706123D01*
X728981D01*
X731520Y703584D01*
X734059Y706123D01*
X736598D01*
X731520Y703584D02*
Y698506D01*
X797558Y726437D02*
X800098Y728976D01*
Y734054D01*
X797558Y736593D01*
X787402D01*
X784863Y734054D01*
Y728976D01*
X787402Y726437D01*
X797558Y721358D02*
X800098Y718819D01*
Y713741D01*
X797558Y711202D01*
X795019D01*
X792480Y713741D01*
Y716280D01*
Y713741D01*
X789941Y711202D01*
X787402D01*
X784863Y713741D01*
Y718819D01*
X787402Y721358D01*
Y706123D02*
X784863Y703584D01*
Y698506D01*
X787402Y695966D01*
X797558D01*
X800098Y698506D01*
Y703584D01*
X797558Y706123D01*
X795019D01*
X792480Y703584D01*
Y695966D01*
X1188723Y492758D02*
X1186184Y495298D01*
X1181106D01*
X1178567Y492758D01*
Y482602D01*
X1181106Y480062D01*
X1186184D01*
X1188723Y482602D01*
X1201419Y480062D02*
Y495298D01*
X1193802Y487680D01*
X1203958D01*
X1209037Y492758D02*
X1211576Y495298D01*
X1216654D01*
X1219193Y492758D01*
Y482602D01*
X1216654Y480062D01*
X1211576D01*
X1209037Y482602D01*
Y492758D01*
X1424942D02*
X1422403Y495298D01*
X1417325D01*
X1414786Y492758D01*
Y482602D01*
X1417325Y480062D01*
X1422403D01*
X1424942Y482602D01*
X1437638Y480062D02*
Y495298D01*
X1430021Y487680D01*
X1440178D01*
X1445256Y480062D02*
X1450334D01*
X1447795D01*
Y495298D01*
X1445256Y492758D01*
X1188723Y614678D02*
X1186184Y617217D01*
X1181106D01*
X1178567Y614678D01*
Y604522D01*
X1181106Y601982D01*
X1186184D01*
X1188723Y604522D01*
X1201419Y601982D02*
Y617217D01*
X1193802Y609600D01*
X1203958D01*
X1219193Y601982D02*
X1209037D01*
X1219193Y612139D01*
Y614678D01*
X1216654Y617217D01*
X1211576D01*
X1209037Y614678D01*
X1275082Y361953D02*
X1272542Y359414D01*
Y354336D01*
X1275082Y351797D01*
X1285238D01*
X1287778Y354336D01*
Y359414D01*
X1285238Y361953D01*
X1287778Y374649D02*
X1272542D01*
X1280160Y367032D01*
Y377188D01*
X1275082Y382267D02*
X1272542Y384806D01*
Y389884D01*
X1275082Y392423D01*
X1277621D01*
X1280160Y389884D01*
Y387345D01*
Y389884D01*
X1282699Y392423D01*
X1285238D01*
X1287778Y389884D01*
Y384806D01*
X1285238Y382267D01*
X1391923Y441958D02*
X1389384Y444497D01*
X1384306D01*
X1381767Y441958D01*
Y431802D01*
X1384306Y429263D01*
X1389384D01*
X1391923Y431802D01*
X1404619Y429263D02*
Y444497D01*
X1397002Y436880D01*
X1407158D01*
X1419854Y429263D02*
Y444497D01*
X1412237Y436880D01*
X1422393D01*
X1417323Y538478D02*
X1414784Y541017D01*
X1409706D01*
X1407167Y538478D01*
Y528322D01*
X1409706Y525783D01*
X1414784D01*
X1417323Y528322D01*
X1430019Y525783D02*
Y541017D01*
X1422402Y533400D01*
X1432558D01*
X1447793Y541017D02*
X1437637D01*
Y533400D01*
X1442715Y535939D01*
X1445254D01*
X1447793Y533400D01*
Y528322D01*
X1445254Y525783D01*
X1440176D01*
X1437637Y528322D01*
X1300478Y666216D02*
X1303017Y668755D01*
Y673834D01*
X1300478Y676373D01*
X1290322D01*
X1287782Y673834D01*
Y668755D01*
X1290322Y666216D01*
X1287782Y653521D02*
X1303017D01*
X1295400Y661138D01*
Y650981D01*
X1303017Y635746D02*
X1300478Y640825D01*
X1295400Y645903D01*
X1290322D01*
X1287782Y643364D01*
Y638285D01*
X1290322Y635746D01*
X1292861D01*
X1295400Y638285D01*
Y645903D01*
X1163322Y426723D02*
X1160782Y424184D01*
Y419106D01*
X1163322Y416567D01*
X1173478D01*
X1176018Y419106D01*
Y424184D01*
X1173478Y426723D01*
X1176018Y439419D02*
X1160782D01*
X1168400Y431802D01*
Y441958D01*
X1173478Y447037D02*
X1176018Y449576D01*
Y454654D01*
X1173478Y457193D01*
X1163322D01*
X1160782Y454654D01*
Y449576D01*
X1163322Y447037D01*
X1165861D01*
X1168400Y449576D01*
Y457193D01*
X1060453Y469898D02*
X1057914Y472438D01*
X1052836D01*
X1050297Y469898D01*
Y459742D01*
X1052836Y457202D01*
X1057914D01*
X1060453Y459742D01*
X1075688Y472438D02*
X1065532D01*
Y464820D01*
X1070610Y467359D01*
X1073149D01*
X1075688Y464820D01*
Y459742D01*
X1073149Y457202D01*
X1068071D01*
X1065532Y459742D01*
X1080767Y469898D02*
X1083306Y472438D01*
X1088384D01*
X1090923Y469898D01*
Y459742D01*
X1088384Y457202D01*
X1083306D01*
X1080767Y459742D01*
Y469898D01*
X1354417Y667647D02*
X1356956Y670186D01*
Y675265D01*
X1354417Y677804D01*
X1344260D01*
X1341721Y675265D01*
Y670186D01*
X1344260Y667647D01*
X1356956Y652412D02*
Y662569D01*
X1349339D01*
X1351878Y657490D01*
Y654951D01*
X1349339Y652412D01*
X1344260D01*
X1341721Y654951D01*
Y660030D01*
X1344260Y662569D01*
X1341721Y637177D02*
Y647334D01*
X1351878Y637177D01*
X1354417D01*
X1356956Y639716D01*
Y644794D01*
X1354417Y647334D01*
X1330958Y669817D02*
X1333498Y672356D01*
Y677435D01*
X1330958Y679974D01*
X1320802D01*
X1318262Y677435D01*
Y672356D01*
X1320802Y669817D01*
X1333498Y654582D02*
Y664739D01*
X1325880D01*
X1328419Y659660D01*
Y657121D01*
X1325880Y654582D01*
X1320802D01*
X1318262Y657121D01*
Y662199D01*
X1320802Y664739D01*
X1330958Y649504D02*
X1333498Y646964D01*
Y641886D01*
X1330958Y639347D01*
X1328419D01*
X1325880Y641886D01*
Y644425D01*
Y641886D01*
X1323341Y639347D01*
X1320802D01*
X1318262Y641886D01*
Y646964D01*
X1320802Y649504D01*
X883923Y406398D02*
X881384Y408937D01*
X876306D01*
X873767Y406398D01*
Y396242D01*
X876306Y393703D01*
X881384D01*
X883923Y396242D01*
X899158Y408937D02*
X889002D01*
Y401320D01*
X894080Y403859D01*
X896619D01*
X899158Y401320D01*
Y396242D01*
X896619Y393703D01*
X891541D01*
X889002Y396242D01*
X911854Y393703D02*
Y408937D01*
X904237Y401320D01*
X914393D01*
X1092203Y736598D02*
X1089664Y739137D01*
X1084586D01*
X1082047Y736598D01*
Y726442D01*
X1084586Y723903D01*
X1089664D01*
X1092203Y726442D01*
X1107438Y739137D02*
X1097282D01*
Y731520D01*
X1102360Y734059D01*
X1104899D01*
X1107438Y731520D01*
Y726442D01*
X1104899Y723903D01*
X1099821D01*
X1097282Y726442D01*
X1122673Y739137D02*
X1117595Y736598D01*
X1112517Y731520D01*
Y726442D01*
X1115056Y723903D01*
X1120134D01*
X1122673Y726442D01*
Y728981D01*
X1120134Y731520D01*
X1112517D01*
X1061722Y614683D02*
X1059182Y612144D01*
Y607066D01*
X1061722Y604527D01*
X1071878D01*
X1074417Y607066D01*
Y612144D01*
X1071878Y614683D01*
X1059182Y629918D02*
Y619762D01*
X1066800D01*
X1064261Y624840D01*
Y627379D01*
X1066800Y629918D01*
X1071878D01*
X1074417Y627379D01*
Y622301D01*
X1071878Y619762D01*
X1059182Y634997D02*
Y645153D01*
X1061722D01*
X1071878Y634997D01*
X1074417D01*
X1079504Y256537D02*
Y241303D01*
X1087122D01*
X1089661Y243842D01*
Y253998D01*
X1087122Y256537D01*
X1079504D01*
X1104896Y241303D02*
X1094739D01*
X1104896Y251459D01*
Y253998D01*
X1102357Y256537D01*
X1097278D01*
X1094739Y253998D01*
X1079506Y215898D02*
Y200662D01*
X1087123D01*
X1089662Y203202D01*
Y213358D01*
X1087123Y215898D01*
X1079506D01*
X1104898Y213358D02*
X1102358Y215898D01*
X1097280D01*
X1094741Y213358D01*
Y210819D01*
X1097280Y208280D01*
X1102358D01*
X1104898Y205741D01*
Y203202D01*
X1102358Y200662D01*
X1097280D01*
X1094741Y203202D01*
X1109976Y200662D02*
X1115054D01*
X1112515D01*
Y215898D01*
X1109976Y213358D01*
X1089662Y520698D02*
X1079506D01*
Y513080D01*
X1084584D01*
X1079506D01*
Y505462D01*
X1094741Y520698D02*
Y505462D01*
X1102358D01*
X1104898Y508002D01*
Y510541D01*
X1102358Y513080D01*
X1094741D01*
X1102358D01*
X1104898Y515619D01*
Y518158D01*
X1102358Y520698D01*
X1094741D01*
X1109976Y505462D02*
X1115054D01*
X1112515D01*
Y520698D01*
X1109976Y518158D01*
X1633221Y1127757D02*
X1628143D01*
X1630682D01*
Y1115062D01*
X1628143Y1112523D01*
X1625603D01*
X1623064Y1115062D01*
X1648456Y1112523D02*
X1638299D01*
X1648456Y1122679D01*
Y1125218D01*
X1645917Y1127757D01*
X1640838D01*
X1638299Y1125218D01*
X1431996Y1116328D02*
X1426918D01*
X1429457D01*
Y1103632D01*
X1426918Y1101093D01*
X1424378D01*
X1421839Y1103632D01*
X1437074Y1113788D02*
X1439613Y1116328D01*
X1444692D01*
X1447231Y1113788D01*
Y1111249D01*
X1444692Y1108710D01*
X1442153D01*
X1444692D01*
X1447231Y1106171D01*
Y1103632D01*
X1444692Y1101093D01*
X1439613D01*
X1437074Y1103632D01*
X1230206Y1113788D02*
X1225127D01*
X1227667D01*
Y1101092D01*
X1225127Y1098552D01*
X1222588D01*
X1220049Y1101092D01*
X1242902Y1098552D02*
Y1113788D01*
X1235284Y1106170D01*
X1245441D01*
X1331101Y1117598D02*
X1326022D01*
X1328562D01*
Y1104902D01*
X1326022Y1102363D01*
X1323483D01*
X1320944Y1104902D01*
X1346336Y1117598D02*
X1336179D01*
Y1109980D01*
X1341257Y1112519D01*
X1343797D01*
X1346336Y1109980D01*
Y1104902D01*
X1343797Y1102363D01*
X1338718D01*
X1336179Y1104902D01*
X1135661Y1117598D02*
X1130583D01*
X1133122D01*
Y1104902D01*
X1130583Y1102363D01*
X1128043D01*
X1125504Y1104902D01*
X1150896Y1117598D02*
X1145817Y1115058D01*
X1140739Y1109980D01*
Y1104902D01*
X1143278Y1102363D01*
X1148357D01*
X1150896Y1104902D01*
Y1107441D01*
X1148357Y1109980D01*
X1140739D01*
X1529084Y276863D02*
Y292097D01*
X1536702D01*
X1539241Y289558D01*
Y284480D01*
X1536702Y281941D01*
X1529084D01*
X1554476Y276863D02*
X1544319D01*
X1554476Y287019D01*
Y289558D01*
X1551937Y292097D01*
X1546858D01*
X1544319Y289558D01*
X1530354Y414022D02*
Y429258D01*
X1537972D01*
X1540511Y426718D01*
Y421640D01*
X1537972Y419101D01*
X1530354D01*
X1545589Y426718D02*
X1548128Y429258D01*
X1553207D01*
X1555746Y426718D01*
Y424179D01*
X1553207Y421640D01*
X1550668D01*
X1553207D01*
X1555746Y419101D01*
Y416562D01*
X1553207Y414022D01*
X1548128D01*
X1545589Y416562D01*
X355092Y1227836D02*
Y1243071D01*
X362710D01*
X365249Y1240532D01*
Y1235453D01*
X362710Y1232914D01*
X355092D01*
X377945Y1227836D02*
Y1243071D01*
X370327Y1235453D01*
X380484D01*
X595122Y1229106D02*
Y1244341D01*
X602739D01*
X605279Y1241802D01*
Y1236723D01*
X602739Y1234184D01*
X595122D01*
X620514Y1244341D02*
X610357D01*
Y1236723D01*
X615435Y1239263D01*
X617975D01*
X620514Y1236723D01*
Y1231645D01*
X617975Y1229106D01*
X612896D01*
X610357Y1231645D01*
X948692Y977896D02*
X963928D01*
Y970278D01*
X961388Y967739D01*
X956310D01*
X953771Y970278D01*
Y977896D01*
X963928Y952504D02*
X961388Y957582D01*
X956310Y962661D01*
X951232D01*
X948692Y960122D01*
Y955043D01*
X951232Y952504D01*
X953771D01*
X956310Y955043D01*
Y962661D01*
X948692Y943606D02*
X963928D01*
Y935988D01*
X961388Y933449D01*
X956310D01*
X953771Y935988D01*
Y943606D01*
X963928Y928371D02*
Y918214D01*
X961388D01*
X951232Y928371D01*
X948692D01*
X296672Y399542D02*
Y414777D01*
X304289D01*
X306829Y412238D01*
Y407160D01*
X304289Y404620D01*
X296672D01*
X311907Y412238D02*
X314446Y414777D01*
X319525D01*
X322064Y412238D01*
Y409699D01*
X319525Y407160D01*
X322064Y404620D01*
Y402081D01*
X319525Y399542D01*
X314446D01*
X311907Y402081D01*
Y404620D01*
X314446Y407160D01*
X311907Y409699D01*
Y412238D01*
X314446Y407160D02*
X319525D01*
X795024Y525783D02*
Y541017D01*
X802642D01*
X805181Y538478D01*
Y533400D01*
X802642Y530861D01*
X795024D01*
X810259Y528322D02*
X812798Y525783D01*
X817877D01*
X820416Y528322D01*
Y538478D01*
X817877Y541017D01*
X812798D01*
X810259Y538478D01*
Y535939D01*
X812798Y533400D01*
X820416D01*
X857255Y251462D02*
Y266698D01*
X864873D01*
X867412Y264158D01*
Y259080D01*
X864873Y256541D01*
X857255D01*
X872490Y251462D02*
X877569D01*
X875030D01*
Y266698D01*
X872490Y264158D01*
X885186Y251462D02*
X890265D01*
X887726D01*
Y266698D01*
X885186Y264158D01*
X858137Y209552D02*
Y224788D01*
X865754D01*
X868293Y222248D01*
Y217170D01*
X865754Y214631D01*
X858137D01*
X873372Y209552D02*
X878450D01*
X875911D01*
Y224788D01*
X873372Y222248D01*
X896224Y209552D02*
X886068D01*
X896224Y219709D01*
Y222248D01*
X893685Y224788D01*
X888607D01*
X886068Y222248D01*
X858137Y167642D02*
Y182878D01*
X865754D01*
X868293Y180338D01*
Y175260D01*
X865754Y172721D01*
X858137D01*
X873372Y167642D02*
X878450D01*
X875911D01*
Y182878D01*
X873372Y180338D01*
X886068D02*
X888607Y182878D01*
X893685D01*
X896224Y180338D01*
Y177799D01*
X893685Y175260D01*
X891146D01*
X893685D01*
X896224Y172721D01*
Y170182D01*
X893685Y167642D01*
X888607D01*
X886068Y170182D01*
X990092Y1230376D02*
Y1245611D01*
X997710D01*
X1000249Y1243072D01*
Y1237993D01*
X997710Y1235454D01*
X990092D01*
X1005327Y1230376D02*
X1010405D01*
X1007866D01*
Y1245611D01*
X1005327Y1243072D01*
X1025640Y1230376D02*
Y1245611D01*
X1018023Y1237993D01*
X1028180D01*
X819912Y1230376D02*
Y1245611D01*
X827530D01*
X830069Y1243072D01*
Y1237993D01*
X827530Y1235454D01*
X819912D01*
X835147Y1230376D02*
X840225D01*
X837686D01*
Y1245611D01*
X835147Y1243072D01*
X858000Y1245611D02*
X847843D01*
Y1237993D01*
X852921Y1240533D01*
X855461D01*
X858000Y1237993D01*
Y1232915D01*
X855461Y1230376D01*
X850382D01*
X847843Y1232915D01*
X375922Y342899D02*
X386078D01*
X388618Y345438D01*
Y350517D01*
X386078Y353056D01*
X375922D01*
X373382Y350517D01*
Y345438D01*
X378461Y347977D02*
X373382Y342899D01*
Y345438D02*
X375922Y342899D01*
X373382Y327664D02*
Y337821D01*
X383539Y327664D01*
X386078D01*
X388618Y330203D01*
Y335282D01*
X386078Y337821D01*
X462942Y345015D02*
X473098D01*
X475637Y347555D01*
Y352633D01*
X473098Y355172D01*
X462942D01*
X460402Y352633D01*
Y347555D01*
X465481Y350094D02*
X460402Y345015D01*
Y347555D02*
X462942Y345015D01*
X473098Y339937D02*
X475637Y337398D01*
Y332320D01*
X473098Y329780D01*
X470559D01*
X468020Y332320D01*
Y334859D01*
Y332320D01*
X465481Y329780D01*
X462942D01*
X460402Y332320D01*
Y337398D01*
X462942Y339937D01*
X572722Y342899D02*
X582879D01*
X585418Y345438D01*
Y350517D01*
X582879Y353056D01*
X572722D01*
X570183Y350517D01*
Y345438D01*
X575261Y347977D02*
X570183Y342899D01*
Y345438D02*
X572722Y342899D01*
X570183Y330203D02*
X585418D01*
X577800Y337821D01*
Y327664D01*
X1667514Y424183D02*
Y439417D01*
X1675132D01*
X1677671Y436878D01*
Y431800D01*
X1675132Y429261D01*
X1667514D01*
X1672592D02*
X1677671Y424183D01*
X1692906Y439417D02*
X1682749D01*
Y431800D01*
X1687827Y434339D01*
X1690367D01*
X1692906Y431800D01*
Y426722D01*
X1690367Y424183D01*
X1685288D01*
X1682749Y426722D01*
X1714504Y382272D02*
Y397508D01*
X1722122D01*
X1724661Y394968D01*
Y389890D01*
X1722122Y387351D01*
X1714504D01*
X1719583D02*
X1724661Y382272D01*
X1729739Y394968D02*
X1732278Y397508D01*
X1737357D01*
X1739896Y394968D01*
Y392429D01*
X1737357Y389890D01*
X1739896Y387351D01*
Y384812D01*
X1737357Y382272D01*
X1732278D01*
X1729739Y384812D01*
Y387351D01*
X1732278Y389890D01*
X1729739Y392429D01*
Y394968D01*
X1732278Y389890D02*
X1737357D01*
X1645924Y687073D02*
Y702308D01*
X1653542D01*
X1656081Y699768D01*
Y694690D01*
X1653542Y692151D01*
X1645924D01*
X1651003D02*
X1656081Y687073D01*
X1661159Y689612D02*
X1663698Y687073D01*
X1668777D01*
X1671316Y689612D01*
Y699768D01*
X1668777Y702308D01*
X1663698D01*
X1661159Y699768D01*
Y697229D01*
X1663698Y694690D01*
X1671316D01*
X1760226Y671833D02*
Y687067D01*
X1767844D01*
X1770383Y684528D01*
Y679450D01*
X1767844Y676911D01*
X1760226D01*
X1765305D02*
X1770383Y671833D01*
X1775461D02*
X1780540D01*
X1778000D01*
Y687067D01*
X1775461Y684528D01*
X1798314Y671833D02*
X1788157D01*
X1798314Y681989D01*
Y684528D01*
X1795775Y687067D01*
X1790696D01*
X1788157Y684528D01*
X1623138Y1031247D02*
X1607903D01*
Y1038864D01*
X1610442Y1041403D01*
X1615520D01*
X1618059Y1038864D01*
Y1031247D01*
Y1036325D02*
X1623138Y1041403D01*
Y1046482D02*
Y1051560D01*
Y1049021D01*
X1607903D01*
X1610442Y1046482D01*
X1607903Y1069334D02*
X1610442Y1064256D01*
X1615520Y1059177D01*
X1620598D01*
X1623138Y1061717D01*
Y1066795D01*
X1620598Y1069334D01*
X1618059D01*
X1615520Y1066795D01*
Y1059177D01*
X1685737Y1031247D02*
X1670502D01*
Y1038864D01*
X1673042Y1041403D01*
X1678120D01*
X1680659Y1038864D01*
Y1031247D01*
Y1036325D02*
X1685737Y1041403D01*
Y1046482D02*
Y1051560D01*
Y1049021D01*
X1670502D01*
X1673042Y1046482D01*
X1670502Y1059177D02*
Y1069334D01*
X1673042D01*
X1683198Y1059177D01*
X1685737D01*
X1623058Y976027D02*
X1607822D01*
Y983644D01*
X1610362Y986183D01*
X1615440D01*
X1617979Y983644D01*
Y976027D01*
Y981105D02*
X1623058Y986183D01*
Y991262D02*
Y996340D01*
Y993801D01*
X1607822D01*
X1610362Y991262D01*
Y1003958D02*
X1607822Y1006497D01*
Y1011575D01*
X1610362Y1014114D01*
X1612901D01*
X1615440Y1011575D01*
X1617979Y1014114D01*
X1620518D01*
X1623058Y1011575D01*
Y1006497D01*
X1620518Y1003958D01*
X1617979D01*
X1615440Y1006497D01*
X1612901Y1003958D01*
X1610362D01*
X1615440Y1006497D02*
Y1011575D01*
X1682324Y976027D02*
X1667089D01*
Y983644D01*
X1669628Y986183D01*
X1674707D01*
X1677246Y983644D01*
Y976027D01*
Y981105D02*
X1682324Y986183D01*
Y991262D02*
Y996340D01*
Y993801D01*
X1667089D01*
X1669628Y991262D01*
X1679785Y1003958D02*
X1682324Y1006497D01*
Y1011575D01*
X1679785Y1014114D01*
X1669628D01*
X1667089Y1011575D01*
Y1006497D01*
X1669628Y1003958D01*
X1672168D01*
X1674707Y1006497D01*
Y1014114D01*
X1621557Y914407D02*
X1606322D01*
Y922024D01*
X1608862Y924563D01*
X1613940D01*
X1616479Y922024D01*
Y914407D01*
Y919485D02*
X1621557Y924563D01*
Y939798D02*
Y929642D01*
X1611401Y939798D01*
X1608862D01*
X1606322Y937259D01*
Y932181D01*
X1608862Y929642D01*
Y944877D02*
X1606322Y947416D01*
Y952494D01*
X1608862Y955033D01*
X1619018D01*
X1621557Y952494D01*
Y947416D01*
X1619018Y944877D01*
X1608862D01*
X1681824Y914407D02*
X1666589D01*
Y922024D01*
X1669128Y924563D01*
X1674207D01*
X1676746Y922024D01*
Y914407D01*
Y919485D02*
X1681824Y924563D01*
Y939798D02*
Y929642D01*
X1671667Y939798D01*
X1669128D01*
X1666589Y937259D01*
Y932181D01*
X1669128Y929642D01*
X1681824Y944877D02*
Y949955D01*
Y947416D01*
X1666589D01*
X1669128Y944877D01*
X1766118Y1031247D02*
X1750882D01*
Y1038864D01*
X1753422Y1041403D01*
X1758500D01*
X1761039Y1038864D01*
Y1031247D01*
Y1036325D02*
X1766118Y1041403D01*
Y1056638D02*
Y1046482D01*
X1755961Y1056638D01*
X1753422D01*
X1750882Y1054099D01*
Y1049021D01*
X1753422Y1046482D01*
X1766118Y1071873D02*
Y1061717D01*
X1755961Y1071873D01*
X1753422D01*
X1750882Y1069334D01*
Y1064256D01*
X1753422Y1061717D01*
X1827447Y1031247D02*
X1812212D01*
Y1038864D01*
X1814752Y1041403D01*
X1819830D01*
X1822369Y1038864D01*
Y1031247D01*
Y1036325D02*
X1827447Y1041403D01*
Y1056638D02*
Y1046482D01*
X1817291Y1056638D01*
X1814752D01*
X1812212Y1054099D01*
Y1049021D01*
X1814752Y1046482D01*
Y1061717D02*
X1812212Y1064256D01*
Y1069334D01*
X1814752Y1071873D01*
X1817291D01*
X1819830Y1069334D01*
Y1066795D01*
Y1069334D01*
X1822369Y1071873D01*
X1824908D01*
X1827447Y1069334D01*
Y1064256D01*
X1824908Y1061717D01*
X1756831Y976027D02*
X1741596D01*
Y983644D01*
X1744135Y986183D01*
X1749213D01*
X1751752Y983644D01*
Y976027D01*
Y981105D02*
X1756831Y986183D01*
Y1001418D02*
Y991262D01*
X1746674Y1001418D01*
X1744135D01*
X1741596Y998879D01*
Y993801D01*
X1744135Y991262D01*
X1756831Y1014114D02*
X1741596D01*
X1749213Y1006497D01*
Y1016653D01*
X1757331Y914407D02*
X1742096D01*
Y922024D01*
X1744635Y924563D01*
X1749713D01*
X1752253Y922024D01*
Y914407D01*
Y919485D02*
X1757331Y924563D01*
Y939798D02*
Y929642D01*
X1747174Y939798D01*
X1744635D01*
X1742096Y937259D01*
Y932181D01*
X1744635Y929642D01*
X1742096Y955033D02*
X1744635Y949955D01*
X1749713Y944877D01*
X1754792D01*
X1757331Y947416D01*
Y952494D01*
X1754792Y955033D01*
X1752253D01*
X1749713Y952494D01*
Y944877D01*
X668027Y765813D02*
Y781048D01*
X675644D01*
X678183Y778508D01*
Y773430D01*
X675644Y770891D01*
X668027D01*
X673105D02*
X678183Y765813D01*
X693418D02*
X683262D01*
X693418Y775969D01*
Y778508D01*
X690879Y781048D01*
X685801D01*
X683262Y778508D01*
X698497D02*
X701036Y781048D01*
X706114D01*
X708653Y778508D01*
Y775969D01*
X706114Y773430D01*
X708653Y770891D01*
Y768352D01*
X706114Y765813D01*
X701036D01*
X698497Y768352D01*
Y770891D01*
X701036Y773430D01*
X698497Y775969D01*
Y778508D01*
X701036Y773430D02*
X706114D01*
X464827Y882653D02*
Y897887D01*
X472444D01*
X474983Y895348D01*
Y890270D01*
X472444Y887731D01*
X464827D01*
X469905D02*
X474983Y882653D01*
X490218D02*
X480062D01*
X490218Y892809D01*
Y895348D01*
X487679Y897887D01*
X482601D01*
X480062Y895348D01*
X495297Y885192D02*
X497836Y882653D01*
X502914D01*
X505453Y885192D01*
Y895348D01*
X502914Y897887D01*
X497836D01*
X495297Y895348D01*
Y892809D01*
X497836Y890270D01*
X505453D01*
X571507Y762002D02*
Y777237D01*
X579124D01*
X581663Y774698D01*
Y769620D01*
X579124Y767081D01*
X571507D01*
X576585D02*
X581663Y762002D01*
X586742Y774698D02*
X589281Y777237D01*
X594359D01*
X596898Y774698D01*
Y772159D01*
X594359Y769620D01*
X591820D01*
X594359D01*
X596898Y767081D01*
Y764542D01*
X594359Y762002D01*
X589281D01*
X586742Y764542D01*
X601977Y774698D02*
X604516Y777237D01*
X609594D01*
X612133Y774698D01*
Y764542D01*
X609594Y762002D01*
X604516D01*
X601977Y764542D01*
Y774698D01*
X1113906Y916942D02*
Y932177D01*
X1121524D01*
X1124063Y929638D01*
Y924560D01*
X1121524Y922021D01*
X1113906D01*
X1118984D02*
X1124063Y916942D01*
X1129141Y929638D02*
X1131680Y932177D01*
X1136759D01*
X1139298Y929638D01*
Y927099D01*
X1136759Y924560D01*
X1134219D01*
X1136759D01*
X1139298Y922021D01*
Y919482D01*
X1136759Y916942D01*
X1131680D01*
X1129141Y919482D01*
X1144376Y916942D02*
X1149454D01*
X1146915D01*
Y932177D01*
X1144376Y929638D01*
X949967Y322583D02*
Y337817D01*
X957584D01*
X960123Y335278D01*
Y330200D01*
X957584Y327661D01*
X949967D01*
X955045D02*
X960123Y322583D01*
X965202Y335278D02*
X967741Y337817D01*
X972819D01*
X975358Y335278D01*
Y332739D01*
X972819Y330200D01*
X970280D01*
X972819D01*
X975358Y327661D01*
Y325122D01*
X972819Y322583D01*
X967741D01*
X965202Y325122D01*
X990593Y322583D02*
X980437D01*
X990593Y332739D01*
Y335278D01*
X988054Y337817D01*
X982976D01*
X980437Y335278D01*
X815338Y616957D02*
X800102D01*
Y624574D01*
X802642Y627113D01*
X807720D01*
X810259Y624574D01*
Y616957D01*
Y622035D02*
X815338Y627113D01*
X802642Y632192D02*
X800102Y634731D01*
Y639809D01*
X802642Y642348D01*
X805181D01*
X807720Y639809D01*
Y637270D01*
Y639809D01*
X810259Y642348D01*
X812798D01*
X815338Y639809D01*
Y634731D01*
X812798Y632192D01*
X800102Y657583D02*
X802642Y652505D01*
X807720Y647427D01*
X812798D01*
X815338Y649966D01*
Y655044D01*
X812798Y657583D01*
X810259D01*
X807720Y655044D01*
Y647427D01*
X843287Y546102D02*
Y561338D01*
X850904D01*
X853443Y558798D01*
Y553720D01*
X850904Y551181D01*
X843287D01*
X848365D02*
X853443Y546102D01*
X858522Y558798D02*
X861061Y561338D01*
X866139D01*
X868678Y558798D01*
Y556259D01*
X866139Y553720D01*
X863600D01*
X866139D01*
X868678Y551181D01*
Y548642D01*
X866139Y546102D01*
X861061D01*
X858522Y548642D01*
X873757Y558798D02*
X876296Y561338D01*
X881374D01*
X883913Y558798D01*
Y556259D01*
X881374Y553720D01*
X883913Y551181D01*
Y548642D01*
X881374Y546102D01*
X876296D01*
X873757Y548642D01*
Y551181D01*
X876296Y553720D01*
X873757Y556259D01*
Y558798D01*
X876296Y553720D02*
X881374D01*
X436887Y535942D02*
Y551177D01*
X444504D01*
X447043Y548638D01*
Y543560D01*
X444504Y541021D01*
X436887D01*
X441965D02*
X447043Y535942D01*
X452122Y548638D02*
X454661Y551177D01*
X459739D01*
X462278Y548638D01*
Y546099D01*
X459739Y543560D01*
X457200D01*
X459739D01*
X462278Y541021D01*
Y538482D01*
X459739Y535942D01*
X454661D01*
X452122Y538482D01*
X467357D02*
X469896Y535942D01*
X474974D01*
X477513Y538482D01*
Y548638D01*
X474974Y551177D01*
X469896D01*
X467357Y548638D01*
Y546099D01*
X469896Y543560D01*
X477513D01*
X1071882Y818983D02*
X1087117D01*
Y811366D01*
X1084578Y808827D01*
X1079500D01*
X1076961Y811366D01*
Y818983D01*
Y813905D02*
X1071882Y808827D01*
Y796131D02*
X1087117D01*
X1079500Y803748D01*
Y793592D01*
X1084578Y788513D02*
X1087117Y785974D01*
Y780896D01*
X1084578Y778356D01*
X1074422D01*
X1071882Y780896D01*
Y785974D01*
X1074422Y788513D01*
X1084578D01*
X1196346Y845823D02*
Y861058D01*
X1203963D01*
X1206503Y858518D01*
Y853440D01*
X1203963Y850901D01*
X1196346D01*
X1201424D02*
X1206503Y845823D01*
X1219198D02*
Y861058D01*
X1211581Y853440D01*
X1221738D01*
X1226816Y845823D02*
X1231894D01*
X1229355D01*
Y861058D01*
X1226816Y858518D01*
X436887Y469902D02*
Y485137D01*
X444504D01*
X447043Y482598D01*
Y477520D01*
X444504Y474981D01*
X436887D01*
X441965D02*
X447043Y469902D01*
X459739D02*
Y485137D01*
X452122Y477520D01*
X462278D01*
X467357Y482598D02*
X469896Y485137D01*
X474974D01*
X477513Y482598D01*
Y480059D01*
X474974Y477520D01*
X472435D01*
X474974D01*
X477513Y474981D01*
Y472442D01*
X474974Y469902D01*
X469896D01*
X467357Y472442D01*
X335287Y403862D02*
Y419098D01*
X342904D01*
X345443Y416558D01*
Y411480D01*
X342904Y408941D01*
X335287D01*
X340365D02*
X345443Y403862D01*
X358139D02*
Y419098D01*
X350522Y411480D01*
X360678D01*
X373374Y403862D02*
Y419098D01*
X365757Y411480D01*
X375913D01*
X325127Y292103D02*
Y307337D01*
X332744D01*
X335283Y304798D01*
Y299720D01*
X332744Y297181D01*
X325127D01*
X330205D02*
X335283Y292103D01*
X347979D02*
Y307337D01*
X340362Y299720D01*
X350518D01*
X365753Y307337D02*
X360675Y304798D01*
X355597Y299720D01*
Y294642D01*
X358136Y292103D01*
X363214D01*
X365753Y294642D01*
Y297181D01*
X363214Y299720D01*
X355597D01*
X436887Y448312D02*
Y463548D01*
X444504D01*
X447043Y461008D01*
Y455930D01*
X444504Y453391D01*
X436887D01*
X441965D02*
X447043Y448312D01*
X459739D02*
Y463548D01*
X452122Y455930D01*
X462278D01*
X467357Y463548D02*
X477513D01*
Y461008D01*
X467357Y450852D01*
Y448312D01*
X1221737Y402978D02*
X1206502D01*
Y410596D01*
X1209042Y413135D01*
X1214120D01*
X1216659Y410596D01*
Y402978D01*
Y408056D02*
X1221737Y413135D01*
Y425831D02*
X1206502D01*
X1214120Y418213D01*
Y428370D01*
X1209042Y433448D02*
X1206502Y435988D01*
Y441066D01*
X1209042Y443605D01*
X1211581D01*
X1214120Y441066D01*
X1216659Y443605D01*
X1219198D01*
X1221737Y441066D01*
Y435988D01*
X1219198Y433448D01*
X1216659D01*
X1214120Y435988D01*
X1211581Y433448D01*
X1209042D01*
X1214120Y435988D02*
Y441066D01*
X419608Y404114D02*
Y419349D01*
X427225D01*
X429765Y416810D01*
Y411731D01*
X427225Y409192D01*
X419608D01*
X424686D02*
X429765Y404114D01*
X442461D02*
Y419349D01*
X434843Y411731D01*
X445000D01*
X450078Y406653D02*
X452617Y404114D01*
X457696D01*
X460235Y406653D01*
Y416810D01*
X457696Y419349D01*
X452617D01*
X450078Y416810D01*
Y414271D01*
X452617Y411731D01*
X460235D01*
X447047Y383543D02*
Y398778D01*
X454664D01*
X457203Y396238D01*
Y391160D01*
X454664Y388621D01*
X447047D01*
X452125D02*
X457203Y383543D01*
X472438Y398778D02*
X462282D01*
Y391160D01*
X467360Y393699D01*
X469899D01*
X472438Y391160D01*
Y386082D01*
X469899Y383543D01*
X464821D01*
X462282Y386082D01*
X477517Y396238D02*
X480056Y398778D01*
X485134D01*
X487673Y396238D01*
Y386082D01*
X485134Y383543D01*
X480056D01*
X477517Y386082D01*
Y396238D01*
X1013457Y441967D02*
X998222D01*
Y449584D01*
X1000762Y452123D01*
X1005840D01*
X1008379Y449584D01*
Y441967D01*
Y447045D02*
X1013457Y452123D01*
X998222Y467358D02*
Y457202D01*
X1005840D01*
X1003301Y462280D01*
Y464819D01*
X1005840Y467358D01*
X1010918D01*
X1013457Y464819D01*
Y459741D01*
X1010918Y457202D01*
X1000762Y472437D02*
X998222Y474976D01*
Y480054D01*
X1000762Y482593D01*
X1003301D01*
X1005840Y480054D01*
Y477515D01*
Y480054D01*
X1008379Y482593D01*
X1010918D01*
X1013457Y480054D01*
Y474976D01*
X1010918Y472437D01*
X1466847Y595255D02*
X1451612D01*
Y602873D01*
X1454151Y605412D01*
X1459230D01*
X1461769Y602873D01*
Y595255D01*
Y600334D02*
X1466847Y605412D01*
X1451612Y620647D02*
Y610490D01*
X1459230D01*
X1456691Y615569D01*
Y618108D01*
X1459230Y620647D01*
X1464308D01*
X1466847Y618108D01*
Y613029D01*
X1464308Y610490D01*
X1466847Y633343D02*
X1451612D01*
X1459230Y625725D01*
Y635882D01*
X1216914Y736854D02*
Y752089D01*
X1224531D01*
X1227071Y749550D01*
Y744472D01*
X1224531Y741932D01*
X1216914D01*
X1221992D02*
X1227071Y736854D01*
X1242306Y752089D02*
X1232149D01*
Y744472D01*
X1237227Y747011D01*
X1239767D01*
X1242306Y744472D01*
Y739393D01*
X1239767Y736854D01*
X1234688D01*
X1232149Y739393D01*
X1257541Y752089D02*
X1252462Y749550D01*
X1247384Y744472D01*
Y739393D01*
X1249923Y736854D01*
X1255002D01*
X1257541Y739393D01*
Y741932D01*
X1255002Y744472D01*
X1247384D01*
X531368Y404114D02*
Y419349D01*
X538985D01*
X541525Y416810D01*
Y411731D01*
X538985Y409192D01*
X531368D01*
X536446D02*
X541525Y404114D01*
X556760Y419349D02*
X546603D01*
Y411731D01*
X551681Y414271D01*
X554221D01*
X556760Y411731D01*
Y406653D01*
X554221Y404114D01*
X549142D01*
X546603Y406653D01*
X561838Y419349D02*
X571995D01*
Y416810D01*
X561838Y406653D01*
Y404114D01*
X558807Y383543D02*
Y398778D01*
X566424D01*
X568963Y396238D01*
Y391160D01*
X566424Y388621D01*
X558807D01*
X563885D02*
X568963Y383543D01*
X584198Y398778D02*
X574042D01*
Y391160D01*
X579120Y393699D01*
X581659D01*
X584198Y391160D01*
Y386082D01*
X581659Y383543D01*
X576581D01*
X574042Y386082D01*
X589277Y396238D02*
X591816Y398778D01*
X596894D01*
X599433Y396238D01*
Y393699D01*
X596894Y391160D01*
X599433Y388621D01*
Y386082D01*
X596894Y383543D01*
X591816D01*
X589277Y386082D01*
Y388621D01*
X591816Y391160D01*
X589277Y393699D01*
Y396238D01*
X591816Y391160D02*
X596894D01*
X1196338Y711207D02*
X1181102D01*
Y718824D01*
X1183642Y721363D01*
X1188720D01*
X1191259Y718824D01*
Y711207D01*
Y716285D02*
X1196338Y721363D01*
X1181102Y736598D02*
Y726442D01*
X1188720D01*
X1186181Y731520D01*
Y734059D01*
X1188720Y736598D01*
X1193798D01*
X1196338Y734059D01*
Y728981D01*
X1193798Y726442D01*
Y741677D02*
X1196338Y744216D01*
Y749294D01*
X1193798Y751833D01*
X1183642D01*
X1181102Y749294D01*
Y744216D01*
X1183642Y741677D01*
X1186181D01*
X1188720Y744216D01*
Y751833D01*
X965198Y822957D02*
X967738Y825496D01*
Y830574D01*
X965198Y833113D01*
X962659D01*
X960120Y830574D01*
Y825496D01*
X957581Y822957D01*
X955042D01*
X952503Y825496D01*
Y830574D01*
X955042Y833113D01*
X967738Y817878D02*
X952503D01*
X957581Y812800D01*
X952503Y807722D01*
X967738D01*
X965198Y802643D02*
X967738Y800104D01*
Y795026D01*
X965198Y792486D01*
X962659D01*
X960120Y795026D01*
Y797565D01*
Y795026D01*
X957581Y792486D01*
X955042D01*
X952503Y795026D01*
Y800104D01*
X955042Y802643D01*
X492763Y182878D02*
X490224Y185417D01*
X485146D01*
X482607Y182878D01*
Y180339D01*
X485146Y177800D01*
X490224D01*
X492763Y175261D01*
Y172722D01*
X490224Y170182D01*
X485146D01*
X482607Y172722D01*
X497842Y185417D02*
Y170182D01*
X502920Y175261D01*
X507998Y170182D01*
Y185417D01*
X523233D02*
X518155Y182878D01*
X513077Y177800D01*
Y172722D01*
X515616Y170182D01*
X520694D01*
X523233Y172722D01*
Y175261D01*
X520694Y177800D01*
X513077D01*
X604523Y182878D02*
X601984Y185417D01*
X596906D01*
X594367Y182878D01*
Y180339D01*
X596906Y177800D01*
X601984D01*
X604523Y175261D01*
Y172722D01*
X601984Y170182D01*
X596906D01*
X594367Y172722D01*
X609602Y185417D02*
Y170182D01*
X614680Y175261D01*
X619758Y170182D01*
Y185417D01*
X624837D02*
X634993D01*
Y182878D01*
X624837Y172722D01*
Y170182D01*
X716283Y182878D02*
X713744Y185417D01*
X708666D01*
X706127Y182878D01*
Y180339D01*
X708666Y177800D01*
X713744D01*
X716283Y175261D01*
Y172722D01*
X713744Y170182D01*
X708666D01*
X706127Y172722D01*
X721362Y185417D02*
Y170182D01*
X726440Y175261D01*
X731518Y170182D01*
Y185417D01*
X736597Y182878D02*
X739136Y185417D01*
X744214D01*
X746753Y182878D01*
Y180339D01*
X744214Y177800D01*
X746753Y175261D01*
Y172722D01*
X744214Y170182D01*
X739136D01*
X736597Y172722D01*
Y175261D01*
X739136Y177800D01*
X736597Y180339D01*
Y182878D01*
X739136Y177800D02*
X744214D01*
X1143002Y426723D02*
X1140462Y424184D01*
Y419106D01*
X1143002Y416567D01*
X1153158D01*
X1155697Y419106D01*
Y424184D01*
X1153158Y426723D01*
X1143002Y431802D02*
X1140462Y434341D01*
Y439419D01*
X1143002Y441958D01*
X1145541D01*
X1148080Y439419D01*
Y436880D01*
Y439419D01*
X1150619Y441958D01*
X1153158D01*
X1155697Y439419D01*
Y434341D01*
X1153158Y431802D01*
X1140462Y457193D02*
X1143002Y452115D01*
X1148080Y447037D01*
X1153158D01*
X1155697Y449576D01*
Y454654D01*
X1153158Y457193D01*
X1150619D01*
X1148080Y454654D01*
Y447037D01*
X1059163Y492758D02*
X1056623Y495298D01*
X1051545D01*
X1049006Y492758D01*
Y482602D01*
X1051545Y480062D01*
X1056623D01*
X1059163Y482602D01*
X1071859Y480062D02*
Y495298D01*
X1064241Y487680D01*
X1074398D01*
X1079476Y495298D02*
X1089633D01*
Y492758D01*
X1079476Y482602D01*
Y480062D01*
X1784354Y604522D02*
Y619757D01*
X1791971D01*
X1794511Y617218D01*
Y612140D01*
X1791971Y609601D01*
X1784354D01*
X1789432D02*
X1794511Y604522D01*
X1799589Y617218D02*
X1802128Y619757D01*
X1807207D01*
X1809746Y617218D01*
Y614679D01*
X1807207Y612140D01*
X1804667D01*
X1807207D01*
X1809746Y609601D01*
Y607062D01*
X1807207Y604522D01*
X1802128D01*
X1799589Y607062D01*
X1750064Y604523D02*
Y619757D01*
X1757682D01*
X1760221Y617218D01*
Y612140D01*
X1757682Y609601D01*
X1750064D01*
X1755143D02*
X1760221Y604523D01*
X1772917D02*
Y619757D01*
X1765299Y612140D01*
X1775456D01*
X1491104Y285758D02*
Y300993D01*
X1498721D01*
X1501261Y298453D01*
Y293375D01*
X1498721Y290836D01*
X1491104D01*
X1496182D02*
X1501261Y285758D01*
X1516496Y300993D02*
X1511417Y298453D01*
X1506339Y293375D01*
Y288297D01*
X1508878Y285758D01*
X1513957D01*
X1516496Y288297D01*
Y290836D01*
X1513957Y293375D01*
X1506339D01*
X953775Y200662D02*
Y215898D01*
X961393D01*
X963932Y213358D01*
Y208280D01*
X961393Y205741D01*
X953775D01*
X958854D02*
X963932Y200662D01*
X969010D02*
X974089D01*
X971550D01*
Y215898D01*
X969010Y213358D01*
X981706Y200662D02*
X986785D01*
X984246D01*
Y215898D01*
X981706Y213358D01*
X951236Y241303D02*
Y256537D01*
X958854D01*
X961393Y253998D01*
Y248920D01*
X958854Y246381D01*
X951236D01*
X956314D02*
X961393Y241303D01*
X966471D02*
X971550D01*
X969010D01*
Y256537D01*
X966471Y253998D01*
X986785Y241303D02*
Y256537D01*
X979167Y248920D01*
X989324D01*
X956731Y1202264D02*
X955038Y1203957D01*
X951653D01*
X949960Y1202264D01*
Y1195493D01*
X951653Y1193800D01*
X955038D01*
X956731Y1195493D01*
Y1198878D01*
X953346D01*
X960117Y1193800D02*
Y1203957D01*
X966888Y1193800D01*
Y1203957D01*
X970273D02*
Y1193800D01*
X975352D01*
X977045Y1195493D01*
Y1202264D01*
X975352Y1203957D01*
X970273D01*
X949960Y1178557D02*
X953346D01*
X951653D01*
Y1168400D01*
X949960D01*
X953346D01*
X958424D02*
Y1178557D01*
X965195Y1168400D01*
Y1178557D01*
X975352Y1168400D02*
X968581D01*
X975352Y1175171D01*
Y1176864D01*
X973659Y1178557D01*
X970273D01*
X968581Y1176864D01*
X949960Y1154427D02*
X953346D01*
X951653D01*
Y1144270D01*
X949960D01*
X953346D01*
X958424D02*
Y1154427D01*
X965195Y1144270D01*
Y1154427D01*
X968581Y1144270D02*
X971966D01*
X970273D01*
Y1154427D01*
X968581Y1152734D01*
X949960Y1101934D02*
X951653Y1103627D01*
X955038D01*
X956731Y1101934D01*
Y1100241D01*
X955038Y1098548D01*
X953346D01*
X955038D01*
X956731Y1096856D01*
Y1095163D01*
X955038Y1093470D01*
X951653D01*
X949960Y1095163D01*
X960117Y1103627D02*
Y1096856D01*
X963502Y1093470D01*
X966888Y1096856D01*
Y1103627D01*
X970273Y1101934D02*
X971966Y1103627D01*
X975352D01*
X977045Y1101934D01*
Y1100241D01*
X975352Y1098548D01*
X973659D01*
X975352D01*
X977045Y1096856D01*
Y1095163D01*
X975352Y1093470D01*
X971966D01*
X970273Y1095163D01*
X956731Y1127757D02*
X949960D01*
Y1117600D01*
X956731D01*
X949960Y1122678D02*
X953346D01*
X960117Y1117600D02*
Y1127757D01*
X966888Y1117600D01*
Y1127757D01*
X970273Y1117600D02*
Y1124371D01*
X973659Y1127757D01*
X977045Y1124371D01*
Y1117600D01*
Y1122678D01*
X970273D01*
X1059601Y1200994D02*
X1057908Y1202687D01*
X1054523D01*
X1052830Y1200994D01*
Y1194223D01*
X1054523Y1192530D01*
X1057908D01*
X1059601Y1194223D01*
Y1197608D01*
X1056216D01*
X1062987Y1192530D02*
Y1202687D01*
X1069758Y1192530D01*
Y1202687D01*
X1073143D02*
Y1192530D01*
X1078222D01*
X1079915Y1194223D01*
Y1200994D01*
X1078222Y1202687D01*
X1073143D01*
X1052830Y1177287D02*
X1056216D01*
X1054523D01*
Y1167130D01*
X1052830D01*
X1056216D01*
X1061294D02*
Y1177287D01*
X1068065Y1167130D01*
Y1177287D01*
X1076529Y1167130D02*
Y1177287D01*
X1071451Y1172208D01*
X1078222D01*
X1052830Y1153157D02*
X1056216D01*
X1054523D01*
Y1143000D01*
X1052830D01*
X1056216D01*
X1061294D02*
Y1153157D01*
X1068065Y1143000D01*
Y1153157D01*
X1071451Y1151464D02*
X1073143Y1153157D01*
X1076529D01*
X1078222Y1151464D01*
Y1149771D01*
X1076529Y1148078D01*
X1074836D01*
X1076529D01*
X1078222Y1146386D01*
Y1144693D01*
X1076529Y1143000D01*
X1073143D01*
X1071451Y1144693D01*
X1052830Y1100664D02*
X1054523Y1102357D01*
X1057908D01*
X1059601Y1100664D01*
Y1098971D01*
X1057908Y1097278D01*
X1056216D01*
X1057908D01*
X1059601Y1095586D01*
Y1093893D01*
X1057908Y1092200D01*
X1054523D01*
X1052830Y1093893D01*
X1062987Y1102357D02*
Y1095586D01*
X1066372Y1092200D01*
X1069758Y1095586D01*
Y1102357D01*
X1073143Y1100664D02*
X1074836Y1102357D01*
X1078222D01*
X1079915Y1100664D01*
Y1098971D01*
X1078222Y1097278D01*
X1076529D01*
X1078222D01*
X1079915Y1095586D01*
Y1093893D01*
X1078222Y1092200D01*
X1074836D01*
X1073143Y1093893D01*
X1059601Y1126487D02*
X1052830D01*
Y1116330D01*
X1059601D01*
X1052830Y1121408D02*
X1056216D01*
X1062987Y1116330D02*
Y1126487D01*
X1069758Y1116330D01*
Y1126487D01*
X1073143D02*
Y1116330D01*
X1078222D01*
X1079915Y1118023D01*
Y1119716D01*
X1078222Y1121408D01*
X1073143D01*
X1078222D01*
X1079915Y1123101D01*
Y1124794D01*
X1078222Y1126487D01*
X1073143D01*
X1744980Y1092200D02*
Y1107435D01*
X1750058Y1102357D01*
X1755137Y1107435D01*
Y1092200D01*
X1762754D02*
X1767833D01*
X1770372Y1094739D01*
Y1099818D01*
X1767833Y1102357D01*
X1762754D01*
X1760215Y1099818D01*
Y1094739D01*
X1762754Y1092200D01*
X1777989Y1104896D02*
Y1102357D01*
X1775450D01*
X1780529D01*
X1777989D01*
Y1094739D01*
X1780529Y1092200D01*
X1790685D02*
X1795764D01*
X1798303Y1094739D01*
Y1099818D01*
X1795764Y1102357D01*
X1790685D01*
X1788146Y1099818D01*
Y1094739D01*
X1790685Y1092200D01*
X1803381Y1102357D02*
Y1092200D01*
Y1097278D01*
X1805920Y1099818D01*
X1808459Y1102357D01*
X1810999D01*
X1844008Y1092200D02*
X1833851D01*
X1844008Y1102357D01*
Y1104896D01*
X1841469Y1107435D01*
X1836390D01*
X1833851Y1104896D01*
X1620520Y1089660D02*
Y1104895D01*
X1625598Y1099817D01*
X1630677Y1104895D01*
Y1089660D01*
X1638294D02*
X1643373D01*
X1645912Y1092199D01*
Y1097278D01*
X1643373Y1099817D01*
X1638294D01*
X1635755Y1097278D01*
Y1092199D01*
X1638294Y1089660D01*
X1653529Y1102356D02*
Y1099817D01*
X1650990D01*
X1656069D01*
X1653529D01*
Y1092199D01*
X1656069Y1089660D01*
X1666225D02*
X1671304D01*
X1673843Y1092199D01*
Y1097278D01*
X1671304Y1099817D01*
X1666225D01*
X1663686Y1097278D01*
Y1092199D01*
X1666225Y1089660D01*
X1678921Y1099817D02*
Y1089660D01*
Y1094738D01*
X1681460Y1097278D01*
X1683999Y1099817D01*
X1686539D01*
X1709391Y1089660D02*
X1714470D01*
X1711930D01*
Y1104895D01*
X1709391Y1102356D01*
X1771653Y1223431D02*
Y1216660D01*
X1776732D01*
X1775039Y1220046D01*
Y1221738D01*
X1776732Y1223431D01*
X1780117D01*
X1781810Y1221738D01*
Y1218353D01*
X1780117Y1216660D01*
X1771653Y1226817D02*
X1778424D01*
X1781810Y1230202D01*
X1778424Y1233588D01*
X1771653D01*
X1746676Y1222161D02*
X1744983Y1220468D01*
Y1217083D01*
X1746676Y1215390D01*
X1753447D01*
X1755140Y1217083D01*
Y1220468D01*
X1753447Y1222161D01*
X1750062D01*
Y1218776D01*
X1755140Y1225547D02*
X1744983D01*
X1755140Y1232318D01*
X1744983D01*
Y1235703D02*
X1755140D01*
Y1240782D01*
X1753447Y1242475D01*
X1746676D01*
X1744983Y1240782D01*
Y1235703D01*
X1801286Y1223431D02*
X1799593Y1221738D01*
Y1218353D01*
X1801286Y1216660D01*
X1808057D01*
X1809750Y1218353D01*
Y1221738D01*
X1808057Y1223431D01*
X1799593Y1226817D02*
X1809750D01*
X1804672D01*
Y1233588D01*
X1799593D01*
X1809750D01*
Y1243745D02*
Y1236973D01*
X1802979Y1243745D01*
X1801286D01*
X1799593Y1242052D01*
Y1238666D01*
X1801286Y1236973D01*
X1827956Y1224701D02*
X1826263Y1223008D01*
Y1219623D01*
X1827956Y1217930D01*
X1834727D01*
X1836420Y1219623D01*
Y1223008D01*
X1834727Y1224701D01*
X1826263Y1228087D02*
X1836420D01*
X1831342D01*
Y1234858D01*
X1826263D01*
X1836420D01*
Y1238243D02*
Y1241629D01*
Y1239936D01*
X1826263D01*
X1827956Y1238243D01*
X1703496Y1223431D02*
X1701803Y1221738D01*
Y1218353D01*
X1703496Y1216660D01*
X1710267D01*
X1711960Y1218353D01*
Y1221738D01*
X1710267Y1223431D01*
X1701803Y1226817D02*
X1711960D01*
X1706882D01*
Y1233588D01*
X1701803D01*
X1711960D01*
Y1236973D02*
Y1240359D01*
Y1238666D01*
X1701803D01*
X1703496Y1236973D01*
X1676826Y1222161D02*
X1675133Y1220468D01*
Y1217083D01*
X1676826Y1215390D01*
X1683597D01*
X1685290Y1217083D01*
Y1220468D01*
X1683597Y1222161D01*
X1675133Y1225547D02*
X1685290D01*
X1680212D01*
Y1232318D01*
X1675133D01*
X1685290D01*
Y1242475D02*
Y1235703D01*
X1678519Y1242475D01*
X1676826D01*
X1675133Y1240782D01*
Y1237396D01*
X1676826Y1235703D01*
X1622216Y1220891D02*
X1620523Y1219198D01*
Y1215813D01*
X1622216Y1214120D01*
X1628987D01*
X1630680Y1215813D01*
Y1219198D01*
X1628987Y1220891D01*
X1625602D01*
Y1217506D01*
X1630680Y1224277D02*
X1620523D01*
X1630680Y1231048D01*
X1620523D01*
Y1234433D02*
X1630680D01*
Y1239512D01*
X1628987Y1241205D01*
X1622216D01*
X1620523Y1239512D01*
Y1234433D01*
X1647193Y1222161D02*
Y1215390D01*
X1652272D01*
X1650579Y1218776D01*
Y1220468D01*
X1652272Y1222161D01*
X1655657D01*
X1657350Y1220468D01*
Y1217083D01*
X1655657Y1215390D01*
X1647193Y1225547D02*
X1653964D01*
X1657350Y1228932D01*
X1653964Y1232318D01*
X1647193D01*
X1529506Y1223431D02*
X1527813Y1221738D01*
Y1218353D01*
X1529506Y1216660D01*
X1536277D01*
X1537970Y1218353D01*
Y1221738D01*
X1536277Y1223431D01*
X1532892D01*
Y1220046D01*
X1537970Y1226817D02*
X1527813D01*
X1537970Y1233588D01*
X1527813D01*
Y1236973D02*
X1537970D01*
Y1242052D01*
X1536277Y1243745D01*
X1529506D01*
X1527813Y1242052D01*
Y1236973D01*
X1562526Y1217930D02*
X1560833Y1219623D01*
Y1223008D01*
X1562526Y1224701D01*
X1564219D01*
X1565912Y1223008D01*
Y1221316D01*
Y1223008D01*
X1567604Y1224701D01*
X1569297D01*
X1570990Y1223008D01*
Y1219623D01*
X1569297Y1217930D01*
X1560833Y1228087D02*
X1567604D01*
X1570990Y1231472D01*
X1567604Y1234858D01*
X1560833D01*
X1562526Y1238243D02*
X1560833Y1239936D01*
Y1243322D01*
X1562526Y1245015D01*
X1564219D01*
X1565912Y1243322D01*
Y1241629D01*
Y1243322D01*
X1567604Y1245015D01*
X1569297D01*
X1570990Y1243322D01*
Y1239936D01*
X1569297Y1238243D01*
X1430446Y1224701D02*
X1428753Y1223008D01*
Y1219623D01*
X1430446Y1217930D01*
X1437217D01*
X1438910Y1219623D01*
Y1223008D01*
X1437217Y1224701D01*
X1433832D01*
Y1221316D01*
X1438910Y1228087D02*
X1428753D01*
X1438910Y1234858D01*
X1428753D01*
Y1238243D02*
X1438910D01*
Y1243322D01*
X1437217Y1245015D01*
X1430446D01*
X1428753Y1243322D01*
Y1238243D01*
X1461773Y1225971D02*
Y1219200D01*
X1466852D01*
X1465159Y1222586D01*
Y1224278D01*
X1466852Y1225971D01*
X1470237D01*
X1471930Y1224278D01*
Y1220893D01*
X1470237Y1219200D01*
X1461773Y1229357D02*
X1468544D01*
X1471930Y1232742D01*
X1468544Y1236128D01*
X1461773D01*
X1375410Y1217930D02*
Y1221316D01*
Y1219623D01*
X1365253D01*
X1366946Y1217930D01*
X1375410Y1233165D02*
Y1226394D01*
X1368639Y1233165D01*
X1366946D01*
X1365253Y1231472D01*
Y1228087D01*
X1366946Y1226394D01*
X1365253Y1236551D02*
X1372024D01*
X1375410Y1239936D01*
X1372024Y1243322D01*
X1365253D01*
X1333926Y1223431D02*
X1332233Y1221738D01*
Y1218353D01*
X1333926Y1216660D01*
X1340697D01*
X1342390Y1218353D01*
Y1221738D01*
X1340697Y1223431D01*
X1337312D01*
Y1220046D01*
X1342390Y1226817D02*
X1332233D01*
X1342390Y1233588D01*
X1332233D01*
Y1236973D02*
X1342390D01*
Y1242052D01*
X1340697Y1243745D01*
X1333926D01*
X1332233Y1242052D01*
Y1236973D01*
X1233596Y1224701D02*
X1231903Y1223008D01*
Y1219623D01*
X1233596Y1217930D01*
X1240367D01*
X1242060Y1219623D01*
Y1223008D01*
X1240367Y1224701D01*
X1236982D01*
Y1221316D01*
X1242060Y1228087D02*
X1231903D01*
X1242060Y1234858D01*
X1231903D01*
Y1238243D02*
X1242060D01*
Y1243322D01*
X1240367Y1245015D01*
X1233596D01*
X1231903Y1243322D01*
Y1238243D01*
X1134536Y1224701D02*
X1132843Y1223008D01*
Y1219623D01*
X1134536Y1217930D01*
X1141307D01*
X1143000Y1219623D01*
Y1223008D01*
X1141307Y1224701D01*
X1137922D01*
Y1221316D01*
X1143000Y1228087D02*
X1132843D01*
X1143000Y1234858D01*
X1132843D01*
Y1238243D02*
X1143000D01*
Y1243322D01*
X1141307Y1245015D01*
X1134536D01*
X1132843Y1243322D01*
Y1238243D01*
X1177290Y1220470D02*
Y1223856D01*
Y1222163D01*
X1167133D01*
X1168826Y1220470D01*
X1177290Y1235705D02*
Y1228934D01*
X1170519Y1235705D01*
X1168826D01*
X1167133Y1234012D01*
Y1230627D01*
X1168826Y1228934D01*
X1167133Y1239091D02*
X1173904D01*
X1177290Y1242476D01*
X1173904Y1245862D01*
X1167133D01*
X1275080Y1219200D02*
Y1222586D01*
Y1220893D01*
X1264923D01*
X1266616Y1219200D01*
X1275080Y1234435D02*
Y1227664D01*
X1268309Y1234435D01*
X1266616D01*
X1264923Y1232742D01*
Y1229357D01*
X1266616Y1227664D01*
X1264923Y1237821D02*
X1271694D01*
X1275080Y1241206D01*
X1271694Y1244592D01*
X1264923D01*
X762000Y1203534D02*
X763693Y1205227D01*
X767078D01*
X768771Y1203534D01*
Y1201841D01*
X767078Y1200148D01*
X765386D01*
X767078D01*
X768771Y1198456D01*
Y1196763D01*
X767078Y1195070D01*
X763693D01*
X762000Y1196763D01*
X772157Y1205227D02*
Y1198456D01*
X775542Y1195070D01*
X778928Y1198456D01*
Y1205227D01*
X782313Y1203534D02*
X784006Y1205227D01*
X787392D01*
X789085Y1203534D01*
Y1201841D01*
X787392Y1200148D01*
X785699D01*
X787392D01*
X789085Y1198456D01*
Y1196763D01*
X787392Y1195070D01*
X784006D01*
X782313Y1196763D01*
X886460Y1118870D02*
Y1129027D01*
X891538D01*
X893231Y1127334D01*
Y1123948D01*
X891538Y1122256D01*
X886460D01*
X896617Y1129027D02*
Y1118870D01*
X901695D01*
X903388Y1120563D01*
Y1122256D01*
X901695Y1123948D01*
X896617D01*
X901695D01*
X903388Y1125641D01*
Y1127334D01*
X901695Y1129027D01*
X896617D01*
X906773Y1127334D02*
X908466Y1129027D01*
X911852D01*
X913545Y1127334D01*
Y1120563D01*
X911852Y1118870D01*
X908466D01*
X906773Y1120563D01*
Y1127334D01*
X893231Y1103204D02*
X891538Y1104897D01*
X888153D01*
X886460Y1103204D01*
Y1096433D01*
X888153Y1094740D01*
X891538D01*
X893231Y1096433D01*
Y1099818D01*
X889846D01*
X896617Y1094740D02*
Y1104897D01*
X903388Y1094740D01*
Y1104897D01*
X906773D02*
Y1094740D01*
X911852D01*
X913545Y1096433D01*
Y1103204D01*
X911852Y1104897D01*
X906773D01*
X886460Y1145540D02*
Y1155697D01*
X891538D01*
X893231Y1154004D01*
Y1150618D01*
X891538Y1148926D01*
X886460D01*
X896617Y1155697D02*
Y1145540D01*
X901695D01*
X903388Y1147233D01*
Y1148926D01*
X901695Y1150618D01*
X896617D01*
X901695D01*
X903388Y1152311D01*
Y1154004D01*
X901695Y1155697D01*
X896617D01*
X906773Y1145540D02*
X910159D01*
X908466D01*
Y1155697D01*
X906773Y1154004D01*
X886460Y1169670D02*
Y1179827D01*
X891538D01*
X893231Y1178134D01*
Y1174748D01*
X891538Y1173056D01*
X886460D01*
X889846D02*
X893231Y1169670D01*
X896617Y1179827D02*
X903388Y1169670D01*
Y1179827D02*
X896617Y1169670D01*
X886460Y1203534D02*
X888153Y1205227D01*
X891538D01*
X893231Y1203534D01*
Y1201841D01*
X891538Y1200148D01*
X889846D01*
X891538D01*
X893231Y1198456D01*
Y1196763D01*
X891538Y1195070D01*
X888153D01*
X886460Y1196763D01*
X896617Y1205227D02*
Y1198456D01*
X900002Y1195070D01*
X903388Y1198456D01*
Y1205227D01*
X906773Y1203534D02*
X908466Y1205227D01*
X911852D01*
X913545Y1203534D01*
Y1201841D01*
X911852Y1200148D01*
X910159D01*
X911852D01*
X913545Y1198456D01*
Y1196763D01*
X911852Y1195070D01*
X908466D01*
X906773Y1196763D01*
X762000Y1129027D02*
X768771D01*
X765386D01*
Y1118870D01*
X772157Y1129027D02*
X778928Y1118870D01*
Y1129027D02*
X772157Y1118870D01*
X768771Y1103204D02*
X767078Y1104897D01*
X763693D01*
X762000Y1103204D01*
Y1096433D01*
X763693Y1094740D01*
X767078D01*
X768771Y1096433D01*
Y1099818D01*
X765386D01*
X772157Y1094740D02*
Y1104897D01*
X778928Y1094740D01*
Y1104897D01*
X782313D02*
Y1094740D01*
X787392D01*
X789085Y1096433D01*
Y1103204D01*
X787392Y1104897D01*
X782313D01*
X762000Y1155697D02*
Y1145540D01*
X767078D01*
X768771Y1147233D01*
Y1148926D01*
X767078Y1150618D01*
X762000D01*
X767078D01*
X768771Y1152311D01*
Y1154004D01*
X767078Y1155697D01*
X762000D01*
X773849Y1145540D02*
X777235D01*
X778928Y1147233D01*
Y1150618D01*
X777235Y1152311D01*
X773849D01*
X772157Y1150618D01*
Y1147233D01*
X773849Y1145540D01*
X784006D02*
X787392D01*
X789085Y1147233D01*
Y1150618D01*
X787392Y1152311D01*
X784006D01*
X782313Y1150618D01*
Y1147233D01*
X784006Y1145540D01*
X794163Y1154004D02*
Y1152311D01*
X792470D01*
X795856D01*
X794163D01*
Y1147233D01*
X795856Y1145540D01*
X800934Y1154004D02*
X802627Y1155697D01*
X806012D01*
X807705Y1154004D01*
Y1147233D01*
X806012Y1145540D01*
X802627D01*
X800934Y1147233D01*
Y1154004D01*
X762000Y1169670D02*
Y1179827D01*
X768771Y1169670D01*
Y1179827D01*
X772157Y1169670D02*
Y1179827D01*
X777235D01*
X778928Y1178134D01*
Y1174748D01*
X777235Y1173056D01*
X772157D01*
X775542D02*
X778928Y1169670D01*
X789085Y1178134D02*
X787392Y1179827D01*
X784006D01*
X782313Y1178134D01*
Y1176441D01*
X784006Y1174748D01*
X787392D01*
X789085Y1173056D01*
Y1171363D01*
X787392Y1169670D01*
X784006D01*
X782313Y1171363D01*
X792470Y1179827D02*
X799241D01*
X795856D01*
Y1169670D01*
X661670Y1203534D02*
X663363Y1205227D01*
X666748D01*
X668441Y1203534D01*
Y1201841D01*
X666748Y1200148D01*
X665056D01*
X666748D01*
X668441Y1198456D01*
Y1196763D01*
X666748Y1195070D01*
X663363D01*
X661670Y1196763D01*
X671827Y1205227D02*
Y1198456D01*
X675212Y1195070D01*
X678598Y1198456D01*
Y1205227D01*
X681983Y1203534D02*
X683676Y1205227D01*
X687062D01*
X688755Y1203534D01*
Y1201841D01*
X687062Y1200148D01*
X685369D01*
X687062D01*
X688755Y1198456D01*
Y1196763D01*
X687062Y1195070D01*
X683676D01*
X681983Y1196763D01*
X661670Y1118870D02*
Y1125641D01*
X665056Y1129027D01*
X668441Y1125641D01*
Y1118870D01*
Y1123948D01*
X661670D01*
X671827Y1129027D02*
X675212D01*
X673520D01*
Y1118870D01*
X671827D01*
X675212D01*
X680291D02*
Y1129027D01*
X687062Y1118870D01*
Y1129027D01*
X700604Y1118870D02*
X703990D01*
X702297D01*
Y1129027D01*
X700604Y1127334D01*
X709068Y1129027D02*
X715839D01*
Y1127334D01*
X709068Y1120563D01*
Y1118870D01*
X661670Y1179827D02*
Y1171363D01*
X663363Y1169670D01*
X666748D01*
X668441Y1171363D01*
Y1179827D01*
X671827Y1169670D02*
Y1176441D01*
X675212Y1179827D01*
X678598Y1176441D01*
Y1169670D01*
Y1174748D01*
X671827D01*
X681983Y1169670D02*
Y1179827D01*
X687062D01*
X688755Y1178134D01*
Y1174748D01*
X687062Y1173056D01*
X681983D01*
X685369D02*
X688755Y1169670D01*
X692140Y1179827D02*
X698911D01*
X695526D01*
Y1169670D01*
X709068Y1179827D02*
X702297D01*
Y1174748D01*
X705683Y1176441D01*
X707375D01*
X709068Y1174748D01*
Y1171363D01*
X707375Y1169670D01*
X703990D01*
X702297Y1171363D01*
X722610Y1169670D02*
Y1179827D01*
X727689D01*
X729381Y1178134D01*
Y1174748D01*
X727689Y1173056D01*
X722610D01*
X725996D02*
X729381Y1169670D01*
X732767Y1179827D02*
X739538Y1169670D01*
Y1179827D02*
X732767Y1169670D01*
X668441Y1103204D02*
X666748Y1104897D01*
X663363D01*
X661670Y1103204D01*
Y1096433D01*
X663363Y1094740D01*
X666748D01*
X668441Y1096433D01*
Y1099818D01*
X665056D01*
X671827Y1094740D02*
Y1104897D01*
X678598Y1094740D01*
Y1104897D01*
X681983D02*
Y1094740D01*
X687062D01*
X688755Y1096433D01*
Y1103204D01*
X687062Y1104897D01*
X681983D01*
X661670Y1155697D02*
Y1147233D01*
X663363Y1145540D01*
X666748D01*
X668441Y1147233D01*
Y1155697D01*
X671827Y1145540D02*
Y1152311D01*
X675212Y1155697D01*
X678598Y1152311D01*
Y1145540D01*
Y1150618D01*
X671827D01*
X681983Y1145540D02*
Y1155697D01*
X687062D01*
X688755Y1154004D01*
Y1150618D01*
X687062Y1148926D01*
X681983D01*
X685369D02*
X688755Y1145540D01*
X692140Y1155697D02*
X698911D01*
X695526D01*
Y1145540D01*
X709068Y1155697D02*
X702297D01*
Y1150618D01*
X705683Y1152311D01*
X707375D01*
X709068Y1150618D01*
Y1147233D01*
X707375Y1145540D01*
X703990D01*
X702297Y1147233D01*
X722610Y1155697D02*
X729381D01*
X725996D01*
Y1145540D01*
X732767Y1155697D02*
X739538Y1145540D01*
Y1155697D02*
X732767Y1145540D01*
X518160Y1202264D02*
X519853Y1203957D01*
X523238D01*
X524931Y1202264D01*
Y1200571D01*
X523238Y1198878D01*
X521546D01*
X523238D01*
X524931Y1197186D01*
Y1195493D01*
X523238Y1193800D01*
X519853D01*
X518160Y1195493D01*
X528317Y1203957D02*
Y1197186D01*
X531702Y1193800D01*
X535088Y1197186D01*
Y1203957D01*
X538473Y1202264D02*
X540166Y1203957D01*
X543552D01*
X545245Y1202264D01*
Y1200571D01*
X543552Y1198878D01*
X541859D01*
X543552D01*
X545245Y1197186D01*
Y1195493D01*
X543552Y1193800D01*
X540166D01*
X538473Y1195493D01*
X518160Y1178557D02*
X521546D01*
X519853D01*
Y1168400D01*
X518160D01*
X521546D01*
X533395D02*
X526624D01*
X533395Y1175171D01*
Y1176864D01*
X531702Y1178557D01*
X528317D01*
X526624Y1176864D01*
X543552D02*
X541859Y1178557D01*
X538473D01*
X536781Y1176864D01*
Y1170093D01*
X538473Y1168400D01*
X541859D01*
X543552Y1170093D01*
X563865Y1176864D02*
X562173Y1178557D01*
X558787D01*
X557094Y1176864D01*
Y1175171D01*
X558787Y1173478D01*
X562173D01*
X563865Y1171786D01*
Y1170093D01*
X562173Y1168400D01*
X558787D01*
X557094Y1170093D01*
X574022Y1176864D02*
X572329Y1178557D01*
X568944D01*
X567251Y1176864D01*
Y1170093D01*
X568944Y1168400D01*
X572329D01*
X574022Y1170093D01*
X577408Y1178557D02*
Y1168400D01*
Y1171786D01*
X584179Y1178557D01*
X579100Y1173478D01*
X584179Y1168400D01*
X518160Y1154427D02*
X521546D01*
X519853D01*
Y1144270D01*
X518160D01*
X521546D01*
X533395D02*
X526624D01*
X533395Y1151041D01*
Y1152734D01*
X531702Y1154427D01*
X528317D01*
X526624Y1152734D01*
X543552D02*
X541859Y1154427D01*
X538473D01*
X536781Y1152734D01*
Y1145963D01*
X538473Y1144270D01*
X541859D01*
X543552Y1145963D01*
X563865Y1152734D02*
X562173Y1154427D01*
X558787D01*
X557094Y1152734D01*
Y1151041D01*
X558787Y1149348D01*
X562173D01*
X563865Y1147656D01*
Y1145963D01*
X562173Y1144270D01*
X558787D01*
X557094Y1145963D01*
X567251Y1154427D02*
Y1144270D01*
X572329D01*
X574022Y1145963D01*
Y1152734D01*
X572329Y1154427D01*
X567251D01*
X577408Y1144270D02*
Y1151041D01*
X580793Y1154427D01*
X584179Y1151041D01*
Y1144270D01*
Y1149348D01*
X577408D01*
X524931Y1101934D02*
X523238Y1103627D01*
X519853D01*
X518160Y1101934D01*
Y1095163D01*
X519853Y1093470D01*
X523238D01*
X524931Y1095163D01*
Y1098548D01*
X521546D01*
X528317Y1093470D02*
Y1103627D01*
X535088Y1093470D01*
Y1103627D01*
X538473D02*
Y1093470D01*
X543552D01*
X545245Y1095163D01*
Y1101934D01*
X543552Y1103627D01*
X538473D01*
X518160Y1117600D02*
Y1124371D01*
X521546Y1127757D01*
X524931Y1124371D01*
Y1117600D01*
Y1122678D01*
X518160D01*
X528317Y1127757D02*
X531702D01*
X530009D01*
Y1117600D01*
X528317D01*
X531702D01*
X536781D02*
Y1127757D01*
X543552Y1117600D01*
Y1127757D01*
X557094Y1117600D02*
X560480D01*
X558787D01*
Y1127757D01*
X557094Y1126064D01*
X572329Y1127757D02*
X568944Y1126064D01*
X565558Y1122678D01*
Y1119293D01*
X567251Y1117600D01*
X570636D01*
X572329Y1119293D01*
Y1120986D01*
X570636Y1122678D01*
X565558D01*
X280670Y1204804D02*
X282363Y1206497D01*
X285748D01*
X287441Y1204804D01*
Y1203111D01*
X285748Y1201418D01*
X284056D01*
X285748D01*
X287441Y1199726D01*
Y1198033D01*
X285748Y1196340D01*
X282363D01*
X280670Y1198033D01*
X290827Y1206497D02*
Y1199726D01*
X294212Y1196340D01*
X297598Y1199726D01*
Y1206497D01*
X300983Y1204804D02*
X302676Y1206497D01*
X306062D01*
X307755Y1204804D01*
Y1203111D01*
X306062Y1201418D01*
X304369D01*
X306062D01*
X307755Y1199726D01*
Y1198033D01*
X306062Y1196340D01*
X302676D01*
X300983Y1198033D01*
X280670Y1181097D02*
X284056D01*
X282363D01*
Y1170940D01*
X280670D01*
X284056D01*
X295905D02*
X289134D01*
X295905Y1177711D01*
Y1179404D01*
X294212Y1181097D01*
X290827D01*
X289134Y1179404D01*
X306062D02*
X304369Y1181097D01*
X300983D01*
X299291Y1179404D01*
Y1172633D01*
X300983Y1170940D01*
X304369D01*
X306062Y1172633D01*
X326375Y1179404D02*
X324683Y1181097D01*
X321297D01*
X319604Y1179404D01*
Y1177711D01*
X321297Y1176018D01*
X324683D01*
X326375Y1174326D01*
Y1172633D01*
X324683Y1170940D01*
X321297D01*
X319604Y1172633D01*
X336532Y1179404D02*
X334839Y1181097D01*
X331454D01*
X329761Y1179404D01*
Y1172633D01*
X331454Y1170940D01*
X334839D01*
X336532Y1172633D01*
X339918Y1181097D02*
Y1170940D01*
Y1174326D01*
X346689Y1181097D01*
X341610Y1176018D01*
X346689Y1170940D01*
X287441Y1155274D02*
X285748Y1156967D01*
X282363D01*
X280670Y1155274D01*
Y1153581D01*
X282363Y1151888D01*
X285748D01*
X287441Y1150196D01*
Y1148503D01*
X285748Y1146810D01*
X282363D01*
X280670Y1148503D01*
X290827Y1146810D02*
Y1156967D01*
X295905D01*
X297598Y1155274D01*
Y1151888D01*
X295905Y1150196D01*
X290827D01*
X300983Y1156967D02*
X304369D01*
X302676D01*
Y1146810D01*
X300983D01*
X304369D01*
X326375Y1155274D02*
X324683Y1156967D01*
X321297D01*
X319604Y1155274D01*
Y1148503D01*
X321297Y1146810D01*
X324683D01*
X326375Y1148503D01*
X336532Y1155274D02*
X334839Y1156967D01*
X331454D01*
X329761Y1155274D01*
Y1153581D01*
X331454Y1151888D01*
X334839D01*
X336532Y1150196D01*
Y1148503D01*
X334839Y1146810D01*
X331454D01*
X329761Y1148503D01*
X287441Y1104474D02*
X285748Y1106167D01*
X282363D01*
X280670Y1104474D01*
Y1097703D01*
X282363Y1096010D01*
X285748D01*
X287441Y1097703D01*
Y1101088D01*
X284056D01*
X290827Y1096010D02*
Y1106167D01*
X297598Y1096010D01*
Y1106167D01*
X300983D02*
Y1096010D01*
X306062D01*
X307755Y1097703D01*
Y1104474D01*
X306062Y1106167D01*
X300983D01*
X287441Y1128604D02*
X285748Y1130297D01*
X282363D01*
X280670Y1128604D01*
Y1126911D01*
X282363Y1125218D01*
X285748D01*
X287441Y1123526D01*
Y1121833D01*
X285748Y1120140D01*
X282363D01*
X280670Y1121833D01*
X290827Y1120140D02*
Y1130297D01*
X295905D01*
X297598Y1128604D01*
Y1125218D01*
X295905Y1123526D01*
X290827D01*
X300983Y1130297D02*
X304369D01*
X302676D01*
Y1120140D01*
X300983D01*
X304369D01*
X326375Y1128604D02*
X324683Y1130297D01*
X321297D01*
X319604Y1128604D01*
Y1126911D01*
X321297Y1125218D01*
X324683D01*
X326375Y1123526D01*
Y1121833D01*
X324683Y1120140D01*
X321297D01*
X319604Y1121833D01*
X336532Y1128604D02*
X334839Y1130297D01*
X331454D01*
X329761Y1128604D01*
Y1121833D01*
X331454Y1120140D01*
X334839D01*
X336532Y1121833D01*
X339918Y1130297D02*
Y1120140D01*
Y1123526D01*
X346689Y1130297D01*
X341610Y1125218D01*
X346689Y1120140D01*
X420370Y1202264D02*
X422063Y1203957D01*
X425448D01*
X427141Y1202264D01*
Y1200571D01*
X425448Y1198878D01*
X423756D01*
X425448D01*
X427141Y1197186D01*
Y1195493D01*
X425448Y1193800D01*
X422063D01*
X420370Y1195493D01*
X430527Y1203957D02*
Y1197186D01*
X433912Y1193800D01*
X437298Y1197186D01*
Y1203957D01*
X440683Y1202264D02*
X442376Y1203957D01*
X445762D01*
X447455Y1202264D01*
Y1200571D01*
X445762Y1198878D01*
X444069D01*
X445762D01*
X447455Y1197186D01*
Y1195493D01*
X445762Y1193800D01*
X442376D01*
X440683Y1195493D01*
X420370Y1178557D02*
X423756D01*
X422063D01*
Y1168400D01*
X420370D01*
X423756D01*
X435605D02*
X428834D01*
X435605Y1175171D01*
Y1176864D01*
X433912Y1178557D01*
X430527D01*
X428834Y1176864D01*
X445762D02*
X444069Y1178557D01*
X440683D01*
X438991Y1176864D01*
Y1170093D01*
X440683Y1168400D01*
X444069D01*
X445762Y1170093D01*
X466075Y1176864D02*
X464383Y1178557D01*
X460997D01*
X459304Y1176864D01*
Y1175171D01*
X460997Y1173478D01*
X464383D01*
X466075Y1171786D01*
Y1170093D01*
X464383Y1168400D01*
X460997D01*
X459304Y1170093D01*
X469461Y1178557D02*
Y1168400D01*
X474539D01*
X476232Y1170093D01*
Y1176864D01*
X474539Y1178557D01*
X469461D01*
X479618Y1168400D02*
Y1175171D01*
X483003Y1178557D01*
X486389Y1175171D01*
Y1168400D01*
Y1173478D01*
X479618D01*
X427141Y1151464D02*
X425448Y1153157D01*
X422063D01*
X420370Y1151464D01*
Y1149771D01*
X422063Y1148078D01*
X425448D01*
X427141Y1146386D01*
Y1144693D01*
X425448Y1143000D01*
X422063D01*
X420370Y1144693D01*
X430527Y1143000D02*
Y1153157D01*
X435605D01*
X437298Y1151464D01*
Y1148078D01*
X435605Y1146386D01*
X430527D01*
X440683Y1153157D02*
X444069D01*
X442376D01*
Y1143000D01*
X440683D01*
X444069D01*
X459304D02*
Y1153157D01*
X462690Y1149771D01*
X466075Y1153157D01*
Y1143000D01*
X469461Y1153157D02*
X472846D01*
X471154D01*
Y1143000D01*
X469461D01*
X472846D01*
X484696Y1151464D02*
X483003Y1153157D01*
X479618D01*
X477925Y1151464D01*
Y1149771D01*
X479618Y1148078D01*
X483003D01*
X484696Y1146386D01*
Y1144693D01*
X483003Y1143000D01*
X479618D01*
X477925Y1144693D01*
X493160Y1153157D02*
X489774D01*
X488082Y1151464D01*
Y1144693D01*
X489774Y1143000D01*
X493160D01*
X494853Y1144693D01*
Y1151464D01*
X493160Y1153157D01*
X427141Y1126064D02*
X425448Y1127757D01*
X422063D01*
X420370Y1126064D01*
Y1124371D01*
X422063Y1122678D01*
X425448D01*
X427141Y1120986D01*
Y1119293D01*
X425448Y1117600D01*
X422063D01*
X420370Y1119293D01*
X430527Y1117600D02*
Y1127757D01*
X435605D01*
X437298Y1126064D01*
Y1122678D01*
X435605Y1120986D01*
X430527D01*
X440683Y1127757D02*
X444069D01*
X442376D01*
Y1117600D01*
X440683D01*
X444069D01*
X459304D02*
Y1127757D01*
X462690Y1124371D01*
X466075Y1127757D01*
Y1117600D01*
X474539Y1127757D02*
X471154D01*
X469461Y1126064D01*
Y1119293D01*
X471154Y1117600D01*
X474539D01*
X476232Y1119293D01*
Y1126064D01*
X474539Y1127757D01*
X486389Y1126064D02*
X484696Y1127757D01*
X481310D01*
X479618Y1126064D01*
Y1124371D01*
X481310Y1122678D01*
X484696D01*
X486389Y1120986D01*
Y1119293D01*
X484696Y1117600D01*
X481310D01*
X479618Y1119293D01*
X489774Y1127757D02*
X493160D01*
X491467D01*
Y1117600D01*
X489774D01*
X493160D01*
X427141Y1100664D02*
X425448Y1102357D01*
X422063D01*
X420370Y1100664D01*
Y1093893D01*
X422063Y1092200D01*
X425448D01*
X427141Y1093893D01*
Y1097278D01*
X423756D01*
X430527Y1092200D02*
Y1102357D01*
X437298Y1092200D01*
Y1102357D01*
X440683D02*
Y1092200D01*
X445762D01*
X447455Y1093893D01*
Y1100664D01*
X445762Y1102357D01*
X440683D01*
D20*
X1488440Y740403D02*
Y717550D01*
X1496057Y725167D01*
X1503675Y717550D01*
Y740403D01*
X1511293D02*
X1518910D01*
X1515101D01*
Y717550D01*
X1511293D01*
X1518910D01*
X1545571Y740403D02*
X1530336D01*
Y728976D01*
X1537954D01*
X1530336D01*
Y717550D01*
X1553189Y740403D02*
X1560807D01*
X1556998D01*
Y717550D01*
X1553189D01*
X1560807D01*
X1711108Y183720D02*
X1706876Y187952D01*
X1698412D01*
X1694180Y183720D01*
Y166792D01*
X1698412Y162560D01*
X1706876D01*
X1711108Y166792D01*
Y175256D01*
X1702644D01*
X1723804Y162560D02*
X1732268D01*
X1736500Y166792D01*
Y175256D01*
X1732268Y179488D01*
X1723804D01*
X1719572Y175256D01*
Y166792D01*
X1723804Y162560D01*
X1757659D02*
X1749196D01*
X1744964Y166792D01*
Y175256D01*
X1749196Y179488D01*
X1757659D01*
X1761891Y175256D01*
Y171024D01*
X1744964D01*
X1774587Y183720D02*
Y179488D01*
X1770355D01*
X1778819D01*
X1774587D01*
Y166792D01*
X1778819Y162560D01*
X1791515Y179488D02*
X1808443D01*
X1791515Y162560D01*
X1808443D01*
X1694180Y223086D02*
Y197694D01*
Y210390D01*
X1711108D01*
Y223086D01*
Y197694D01*
X1723804D02*
X1732268D01*
X1736500Y201926D01*
Y210390D01*
X1732268Y214622D01*
X1723804D01*
X1719572Y210390D01*
Y201926D01*
X1723804Y197694D01*
X1757659D02*
X1749196D01*
X1744964Y201926D01*
Y210390D01*
X1749196Y214622D01*
X1757659D01*
X1761891Y210390D01*
Y206158D01*
X1744964D01*
X1770355Y214622D02*
Y197694D01*
Y206158D01*
X1774587Y210390D01*
X1778819Y214622D01*
X1783051D01*
X1799979Y218854D02*
Y214622D01*
X1795747D01*
X1804211D01*
X1799979D01*
Y201926D01*
X1804211Y197694D01*
X1816907D02*
Y214622D01*
X1829603D01*
X1833835Y210390D01*
Y197694D01*
X1846531Y214622D02*
X1854995D01*
X1859227Y210390D01*
Y197694D01*
X1846531D01*
X1842299Y201926D01*
X1846531Y206158D01*
X1859227D01*
X1876154Y189230D02*
X1880387D01*
X1884619Y193462D01*
Y214622D01*
X1871923D01*
X1867691Y210390D01*
Y201926D01*
X1871923Y197694D01*
X1884619D01*
X1893082D02*
X1901546D01*
X1897314D01*
Y223086D01*
X1893082D01*
X1711108Y259072D02*
X1694180D01*
Y233680D01*
X1711108D01*
X1694180Y246376D02*
X1702644D01*
X1736500Y250608D02*
X1723804D01*
X1719572Y246376D01*
Y237912D01*
X1723804Y233680D01*
X1736500D01*
X1744964D02*
Y259072D01*
Y242144D02*
X1757659Y250608D01*
X1744964Y242144D02*
X1757659Y233680D01*
X1770355D02*
X1783051D01*
X1787283Y237912D01*
X1783051Y242144D01*
X1774587D01*
X1770355Y246376D01*
X1774587Y250608D01*
X1787283D01*
X1799979Y254840D02*
Y250608D01*
X1795747D01*
X1804211D01*
X1799979D01*
Y237912D01*
X1804211Y233680D01*
X1829603D02*
X1821139D01*
X1816907Y237912D01*
Y246376D01*
X1821139Y250608D01*
X1829603D01*
X1833835Y246376D01*
Y242144D01*
X1816907D01*
X1842299Y233680D02*
X1850763D01*
X1846531D01*
Y250608D01*
X1842299D01*
X1863459Y233680D02*
Y250608D01*
X1876154D01*
X1880387Y246376D01*
Y233680D01*
X1506220Y185420D02*
Y248899D01*
X1527380Y227740D01*
X1548540Y248899D01*
Y185420D01*
X1612019Y238320D02*
X1601439Y248899D01*
X1580279D01*
X1569700Y238320D01*
Y196000D01*
X1580279Y185420D01*
X1601439D01*
X1612019Y196000D01*
X1633179Y248899D02*
X1654339D01*
X1643759D01*
Y185420D01*
X1633179D01*
X1654339D01*
X1264920Y1036320D02*
Y1059173D01*
X1276346D01*
X1280155Y1055364D01*
Y1047746D01*
X1276346Y1043938D01*
X1264920D01*
X1287773Y1059173D02*
Y1036320D01*
X1295390Y1043938D01*
X1303008Y1036320D01*
Y1059173D01*
X1310625Y1036320D02*
Y1059173D01*
X1322052D01*
X1325860Y1055364D01*
Y1047746D01*
X1322052Y1043938D01*
X1310625D01*
X1318243D02*
X1325860Y1036320D01*
X854710Y458470D02*
Y481323D01*
X866136D01*
X869945Y477514D01*
Y469896D01*
X866136Y466087D01*
X854710D01*
X877563Y481323D02*
Y458470D01*
X885180Y466087D01*
X892798Y458470D01*
Y481323D01*
X900415Y458470D02*
Y481323D01*
X911842D01*
X915650Y477514D01*
Y469896D01*
X911842Y466087D01*
X900415D01*
X908033D02*
X915650Y458470D01*
X307335Y1045204D02*
X303526Y1049013D01*
X295909D01*
X292100Y1045204D01*
Y1041395D01*
X295909Y1037586D01*
X303526D01*
X307335Y1033777D01*
Y1029969D01*
X303526Y1026160D01*
X295909D01*
X292100Y1029969D01*
X314953Y1049013D02*
X330188D01*
X322570D01*
Y1026160D01*
X337805D02*
Y1049013D01*
X345423Y1041395D01*
X353040Y1049013D01*
Y1026160D01*
X360658Y1045204D02*
X364467Y1049013D01*
X372084D01*
X375893Y1045204D01*
Y1041395D01*
X372084Y1037586D01*
X368275D01*
X372084D01*
X375893Y1033777D01*
Y1029969D01*
X372084Y1026160D01*
X364467D01*
X360658Y1029969D01*
X398745Y1026160D02*
X383510D01*
X398745Y1041395D01*
Y1045204D01*
X394937Y1049013D01*
X387319D01*
X383510Y1045204D01*
M02*
